%TF.GenerationSoftware,KiCad,Pcbnew,(6.0.8)*%
%TF.CreationDate,2022-10-20T22:21:07+02:00*%
%TF.ProjectId,WDSSR,57445353-522e-46b6-9963-61645f706362,rev?*%
%TF.SameCoordinates,PX7270e00PY4c4b400*%
%TF.FileFunction,Copper,L1,Top*%
%TF.FilePolarity,Positive*%
%FSLAX45Y45*%
G04 Gerber Fmt 4.5, Leading zero omitted, Abs format (unit mm)*
G04 Created by KiCad (PCBNEW (6.0.8)) date 2022-10-20 22:21:07*
%MOMM*%
%LPD*%
G01*
G04 APERTURE LIST*
G04 Aperture macros list*
%AMRoundRect*
0 Rectangle with rounded corners*
0 $1 Rounding radius*
0 $2 $3 $4 $5 $6 $7 $8 $9 X,Y pos of 4 corners*
0 Add a 4 corners polygon primitive as box body*
4,1,4,$2,$3,$4,$5,$6,$7,$8,$9,$2,$3,0*
0 Add four circle primitives for the rounded corners*
1,1,$1+$1,$2,$3*
1,1,$1+$1,$4,$5*
1,1,$1+$1,$6,$7*
1,1,$1+$1,$8,$9*
0 Add four rect primitives between the rounded corners*
20,1,$1+$1,$2,$3,$4,$5,0*
20,1,$1+$1,$4,$5,$6,$7,0*
20,1,$1+$1,$6,$7,$8,$9,0*
20,1,$1+$1,$8,$9,$2,$3,0*%
G04 Aperture macros list end*
%TA.AperFunction,SMDPad,CuDef*%
%ADD10R,2.200000X1.200000*%
%TD*%
%TA.AperFunction,SMDPad,CuDef*%
%ADD11R,6.400000X5.800000*%
%TD*%
%TA.AperFunction,ComponentPad*%
%ADD12C,5.700000*%
%TD*%
%TA.AperFunction,SMDPad,CuDef*%
%ADD13R,1.000000X0.700000*%
%TD*%
%TA.AperFunction,SMDPad,CuDef*%
%ADD14RoundRect,0.237500X-0.237500X0.287500X-0.237500X-0.287500X0.237500X-0.287500X0.237500X0.287500X0*%
%TD*%
%TA.AperFunction,SMDPad,CuDef*%
%ADD15RoundRect,0.137500X0.662500X0.137500X-0.662500X0.137500X-0.662500X-0.137500X0.662500X-0.137500X0*%
%TD*%
%TA.AperFunction,SMDPad,CuDef*%
%ADD16RoundRect,0.150000X0.150000X-0.587500X0.150000X0.587500X-0.150000X0.587500X-0.150000X-0.587500X0*%
%TD*%
%TA.AperFunction,ComponentPad*%
%ADD17R,2.175000X2.175000*%
%TD*%
%TA.AperFunction,ComponentPad*%
%ADD18C,2.175000*%
%TD*%
%TA.AperFunction,ComponentPad*%
%ADD19R,1.650000X1.650000*%
%TD*%
%TA.AperFunction,ComponentPad*%
%ADD20C,1.650000*%
%TD*%
%TA.AperFunction,SMDPad,CuDef*%
%ADD21R,1.200000X2.200000*%
%TD*%
%TA.AperFunction,SMDPad,CuDef*%
%ADD22R,5.800000X6.400000*%
%TD*%
%TA.AperFunction,ComponentPad*%
%ADD23R,1.700000X1.700000*%
%TD*%
%TA.AperFunction,ComponentPad*%
%ADD24O,1.700000X1.700000*%
%TD*%
%TA.AperFunction,SMDPad,CuDef*%
%ADD25RoundRect,0.237500X-0.250000X-0.237500X0.250000X-0.237500X0.250000X0.237500X-0.250000X0.237500X0*%
%TD*%
%TA.AperFunction,SMDPad,CuDef*%
%ADD26RoundRect,0.237500X0.250000X0.237500X-0.250000X0.237500X-0.250000X-0.237500X0.250000X-0.237500X0*%
%TD*%
%TA.AperFunction,SMDPad,CuDef*%
%ADD27RoundRect,0.150000X-0.587500X-0.150000X0.587500X-0.150000X0.587500X0.150000X-0.587500X0.150000X0*%
%TD*%
%TA.AperFunction,SMDPad,CuDef*%
%ADD28RoundRect,0.237500X0.300000X0.237500X-0.300000X0.237500X-0.300000X-0.237500X0.300000X-0.237500X0*%
%TD*%
%TA.AperFunction,SMDPad,CuDef*%
%ADD29RoundRect,0.150000X-0.725000X-0.150000X0.725000X-0.150000X0.725000X0.150000X-0.725000X0.150000X0*%
%TD*%
%TA.AperFunction,SMDPad,CuDef*%
%ADD30RoundRect,0.150000X0.587500X0.150000X-0.587500X0.150000X-0.587500X-0.150000X0.587500X-0.150000X0*%
%TD*%
%TA.AperFunction,SMDPad,CuDef*%
%ADD31RoundRect,0.237500X-0.300000X-0.237500X0.300000X-0.237500X0.300000X0.237500X-0.300000X0.237500X0*%
%TD*%
%TA.AperFunction,SMDPad,CuDef*%
%ADD32RoundRect,0.237500X-0.287500X-0.237500X0.287500X-0.237500X0.287500X0.237500X-0.287500X0.237500X0*%
%TD*%
%TA.AperFunction,SMDPad,CuDef*%
%ADD33R,0.500000X0.500000*%
%TD*%
%TA.AperFunction,ViaPad*%
%ADD34C,0.800000*%
%TD*%
%TA.AperFunction,Conductor*%
%ADD35C,0.300000*%
%TD*%
%TA.AperFunction,Conductor*%
%ADD36C,0.500000*%
%TD*%
G04 APERTURE END LIST*
D10*
X3040000Y-2378000D03*
D11*
X2410000Y-2150000D03*
D10*
X3040000Y-1922000D03*
D12*
X300000Y-1088000D03*
X300000Y-2913000D03*
X5100000Y-1088000D03*
X5100000Y-2913000D03*
D13*
X3111500Y-3336000D03*
X3111500Y-3736000D03*
X3706500Y-3736000D03*
X3706500Y-3336000D03*
D14*
X2356000Y-3339500D03*
X2356000Y-3514500D03*
D15*
X2134000Y-3594000D03*
X2134000Y-3340000D03*
X1484000Y-3340000D03*
X1484000Y-3594000D03*
D16*
X995000Y-643750D03*
X1185000Y-643750D03*
X1090000Y-456250D03*
D17*
X1473000Y-1389000D03*
D18*
X1473000Y-2024000D03*
X1473000Y-2659000D03*
D19*
X4270000Y-3662000D03*
D20*
X4270000Y-3412000D03*
D21*
X4333000Y-1459000D03*
D22*
X4105000Y-2089000D03*
D21*
X3877000Y-1459000D03*
D23*
X5120000Y-262500D03*
D24*
X5120000Y-516500D03*
D25*
X2547750Y-3515000D03*
X2730250Y-3515000D03*
D26*
X2732250Y-3705000D03*
X2549750Y-3705000D03*
D27*
X4396250Y-155000D03*
X4396250Y-345000D03*
X4583750Y-250000D03*
D26*
X3791250Y-540000D03*
X3608750Y-540000D03*
D28*
X2756250Y-1100000D03*
X2583750Y-1100000D03*
D25*
X2168750Y-150000D03*
X2351250Y-150000D03*
D28*
X1805250Y-339000D03*
X1632750Y-339000D03*
D29*
X2212500Y-449500D03*
X2212500Y-576500D03*
X2212500Y-703500D03*
X2212500Y-830500D03*
X2727500Y-830500D03*
X2727500Y-703500D03*
X2727500Y-576500D03*
X2727500Y-449500D03*
D30*
X3823750Y-345000D03*
X3823750Y-155000D03*
X3636250Y-250000D03*
D26*
X2351250Y-1100000D03*
X2168750Y-1100000D03*
D25*
X1628750Y-149000D03*
X1811250Y-149000D03*
X998750Y-910000D03*
X1181250Y-910000D03*
D26*
X3160250Y-343000D03*
X2977750Y-343000D03*
D25*
X3608750Y-900000D03*
X3791250Y-900000D03*
D26*
X3161250Y-720000D03*
X2978750Y-720000D03*
X1811250Y-530000D03*
X1628750Y-530000D03*
D30*
X3193750Y-1095000D03*
X3193750Y-905000D03*
X3006250Y-1000000D03*
D25*
X3608750Y-720000D03*
X3791250Y-720000D03*
D31*
X2583750Y-151000D03*
X2756250Y-151000D03*
D25*
X2978750Y-153000D03*
X3161250Y-153000D03*
D26*
X1812250Y-720000D03*
X1629750Y-720000D03*
D25*
X2978750Y-528000D03*
X3161250Y-528000D03*
D32*
X3612500Y-1080000D03*
X3787500Y-1080000D03*
D25*
X1628750Y-910000D03*
X1811250Y-910000D03*
D33*
X4350000Y-570000D03*
X4570000Y-570000D03*
D34*
X2315000Y-1410000D03*
X2165000Y-1560000D03*
X2020000Y-1560000D03*
X3225000Y-1560000D03*
X2165000Y-1410000D03*
X3075000Y-1560000D03*
X2925000Y-1560000D03*
X2315000Y-1560000D03*
X2925000Y-1410000D03*
X1870000Y-1560000D03*
X3530000Y-1560000D03*
X2625000Y-1410000D03*
X3380000Y-1410000D03*
X3680000Y-1560000D03*
X2475000Y-1410000D03*
X3380000Y-1560000D03*
X2475000Y-1560000D03*
X2880000Y-340000D03*
X4010000Y-160000D03*
X3075000Y-1410000D03*
X2020000Y-1260000D03*
X1980000Y-630000D03*
X1720000Y-1410000D03*
X1720000Y-1560000D03*
X1870000Y-1260000D03*
X2400000Y-830000D03*
X2775000Y-1560000D03*
X3480000Y-530000D03*
X3680000Y-1410000D03*
X1870000Y-1410000D03*
X3530000Y-1410000D03*
X1720000Y-1260000D03*
X2625000Y-1560000D03*
X3225000Y-1410000D03*
X1500000Y-530000D03*
X2775000Y-1410000D03*
X2020000Y-1410000D03*
X2080000Y-150000D03*
X2880000Y-150000D03*
X3160000Y-810000D03*
X1475000Y-3505000D03*
X2360000Y-450000D03*
X3170000Y-1020000D03*
X510000Y-3500000D03*
X510000Y-3650000D03*
X2000000Y-1900000D03*
X210000Y-3800000D03*
X2000000Y-2890000D03*
X2000000Y-2740000D03*
X2350000Y-2890000D03*
X1100000Y-3650000D03*
X830000Y-1820000D03*
X1700000Y-2740000D03*
X2650000Y-3040000D03*
X360000Y-3800000D03*
X1250000Y-3650000D03*
X2350000Y-2740000D03*
X510000Y-3800000D03*
X2000000Y-2200000D03*
X1100000Y-3800000D03*
X1250000Y-3800000D03*
X1700000Y-2890000D03*
X1850000Y-2200000D03*
X2650000Y-2740000D03*
X1850000Y-2050000D03*
X2000000Y-2050000D03*
X950000Y-3650000D03*
X1100000Y-3500000D03*
X2500000Y-2890000D03*
X1700000Y-3040000D03*
X1700000Y-1900000D03*
X360000Y-3650000D03*
X1850000Y-2890000D03*
X210000Y-3500000D03*
X2500000Y-2740000D03*
X2500000Y-3040000D03*
X2350000Y-3040000D03*
X2650000Y-2890000D03*
X360000Y-3500000D03*
X950000Y-3500000D03*
X1250000Y-3500000D03*
X1700000Y-2200000D03*
X1700000Y-2050000D03*
X950000Y-3800000D03*
X210000Y-3650000D03*
X2000000Y-3040000D03*
X1850000Y-1900000D03*
X1850000Y-3040000D03*
X1850000Y-2740000D03*
X4300000Y-2740000D03*
X4600000Y-2740000D03*
X5050000Y-2050000D03*
X3610000Y-2200000D03*
X4600000Y-3040000D03*
X4900000Y-1900000D03*
X4300000Y-2890000D03*
X5200000Y-2200000D03*
X5200000Y-3500000D03*
X4900000Y-2200000D03*
X3460000Y-2050000D03*
X3460000Y-3040000D03*
X3610000Y-3040000D03*
X5050000Y-1900000D03*
X4900000Y-3650000D03*
X4450000Y-2740000D03*
X4300000Y-3040000D03*
X4900000Y-3500000D03*
X3610000Y-2890000D03*
X3310000Y-3040000D03*
X4900000Y-2050000D03*
X5200000Y-3800000D03*
X3610000Y-2740000D03*
X3460000Y-2200000D03*
X3460000Y-2740000D03*
X4450000Y-2890000D03*
X4900000Y-3800000D03*
X5200000Y-2050000D03*
X5050000Y-3650000D03*
X5200000Y-3650000D03*
X3460000Y-2890000D03*
X5050000Y-3800000D03*
X3460000Y-1900000D03*
X3310000Y-2740000D03*
X5050000Y-2200000D03*
X4450000Y-3040000D03*
X5200000Y-1900000D03*
X3310000Y-2200000D03*
X4600000Y-2890000D03*
X3310000Y-2050000D03*
X3610000Y-1900000D03*
X5050000Y-3500000D03*
X3610000Y-2050000D03*
X3310000Y-2890000D03*
X3310000Y-1900000D03*
X4200000Y-540000D03*
X4200000Y-160000D03*
D35*
X3706500Y-3336000D02*
X4194000Y-3336000D01*
X4194000Y-3336000D02*
X4270000Y-3412000D01*
X3706500Y-3736000D02*
X4196000Y-3736000D01*
X4196000Y-3736000D02*
X4270000Y-3662000D01*
X2641000Y-3753087D02*
X2688913Y-3801000D01*
X2356000Y-3339500D02*
X2544500Y-3339500D01*
X2544500Y-3339500D02*
X2639000Y-3434000D01*
X2134000Y-3340000D02*
X2355500Y-3340000D01*
X3046500Y-3801000D02*
X3111500Y-3736000D01*
X2639000Y-3576000D02*
X2641000Y-3578000D01*
X2355500Y-3340000D02*
X2356000Y-3339500D01*
X2639000Y-3434000D02*
X2639000Y-3576000D01*
X2688913Y-3801000D02*
X3046500Y-3801000D01*
X2641000Y-3578000D02*
X2641000Y-3753087D01*
X2726500Y-3514000D02*
X2933500Y-3514000D01*
X2726500Y-3514000D02*
X2726500Y-3703000D01*
X2933500Y-3514000D02*
X3111500Y-3336000D01*
D36*
X3161250Y-808750D02*
X3160000Y-810000D01*
X1475000Y-3585000D02*
X1475000Y-3505000D01*
X3161250Y-720000D02*
X3161250Y-808750D01*
X2168750Y-150000D02*
X2080000Y-150000D01*
X1484000Y-3594000D02*
X1475000Y-3585000D01*
X2883000Y-153000D02*
X2880000Y-150000D01*
X2978750Y-153000D02*
X2883000Y-153000D01*
D35*
X2212500Y-703500D02*
X2300000Y-703500D01*
X2300000Y-703500D02*
X2727500Y-703500D01*
X2727500Y-703500D02*
X2962250Y-703500D01*
X1812250Y-720000D02*
X2196000Y-720000D01*
X2962250Y-703500D02*
X2978750Y-720000D01*
X2196000Y-720000D02*
X2212500Y-703500D01*
X1632500Y-338000D02*
X1631500Y-339000D01*
X1631500Y-339000D02*
X1631500Y-150000D01*
X1805250Y-339000D02*
X1805250Y-524000D01*
X1090000Y-456250D02*
X1116250Y-430000D01*
X1805250Y-524000D02*
X1811250Y-530000D01*
X2086500Y-576500D02*
X2212500Y-576500D01*
X1811250Y-530000D02*
X2040000Y-530000D01*
X1714250Y-430000D02*
X1805250Y-339000D01*
X1116250Y-430000D02*
X1714250Y-430000D01*
X2040000Y-530000D02*
X2086500Y-576500D01*
X2359500Y-449500D02*
X2360000Y-450000D01*
X3193750Y-1095000D02*
X3170000Y-1071250D01*
X3170000Y-1071250D02*
X3170000Y-1020000D01*
X2212500Y-449500D02*
X2359500Y-449500D01*
X2356500Y-3514000D02*
X2356000Y-3514500D01*
X2551500Y-3514000D02*
X2356500Y-3514000D01*
X3791250Y-1076250D02*
X3787500Y-1080000D01*
X3791250Y-900000D02*
X3791250Y-1076250D01*
X3040000Y-2378000D02*
X2915000Y-2378000D01*
X1181250Y-1611250D02*
X1181250Y-910000D01*
X2915000Y-2378000D02*
X2798000Y-2261000D01*
X2798000Y-1742000D02*
X2752000Y-1696000D01*
X2798000Y-2261000D02*
X2798000Y-1742000D01*
X2752000Y-1696000D02*
X1266000Y-1696000D01*
X1181250Y-910000D02*
X1628750Y-910000D01*
X1266000Y-1696000D02*
X1181250Y-1611250D01*
X995000Y-643750D02*
X906250Y-643750D01*
X830000Y-720000D02*
X830000Y-1820000D01*
X906250Y-643750D02*
X830000Y-720000D01*
X2134000Y-3594000D02*
X2245000Y-3705000D01*
X2245000Y-3705000D02*
X2553500Y-3705000D01*
X5107500Y-250000D02*
X4583750Y-250000D01*
X5120000Y-262500D02*
X5107500Y-250000D01*
X4200000Y-160000D02*
X4391250Y-160000D01*
X3791250Y-720000D02*
X3791250Y-540000D01*
X3791250Y-540000D02*
X4200000Y-540000D01*
X4391250Y-160000D02*
X4396250Y-155000D01*
X2960000Y-1000000D02*
X3006250Y-1000000D01*
X2860000Y-1100000D02*
X2960000Y-1000000D01*
X2756250Y-1100000D02*
X2860000Y-1100000D01*
X2351250Y-1100000D02*
X2351250Y-1098750D01*
X2351250Y-1098750D02*
X2619500Y-830500D01*
X2619500Y-830500D02*
X2727500Y-830500D01*
X2756250Y-830500D02*
X2727500Y-830500D01*
X2756250Y-1100000D02*
X2756250Y-830500D01*
X2669500Y-449500D02*
X2583750Y-363750D01*
X2351250Y-150000D02*
X2582750Y-150000D01*
X2727500Y-449500D02*
X2669500Y-449500D01*
X2582750Y-150000D02*
X2583750Y-151000D01*
X2583750Y-363750D02*
X2583750Y-151000D01*
X3193750Y-905000D02*
X3198750Y-900000D01*
X2946750Y-560000D02*
X2978750Y-528000D01*
X2727500Y-576500D02*
X2783500Y-576500D01*
X3608750Y-720000D02*
X3608750Y-900000D01*
X2783500Y-576500D02*
X2800000Y-560000D01*
X3070750Y-620000D02*
X3508750Y-620000D01*
X3508750Y-620000D02*
X3608750Y-720000D01*
X2978750Y-528000D02*
X3070750Y-620000D01*
X3198750Y-900000D02*
X3608750Y-900000D01*
X2800000Y-560000D02*
X2946750Y-560000D01*
X1435000Y-3340000D02*
X998750Y-2903750D01*
X1484000Y-3340000D02*
X1435000Y-3340000D01*
X1010000Y-910000D02*
X1185000Y-735000D01*
X1185000Y-735000D02*
X1185000Y-643750D01*
X998750Y-910000D02*
X1010000Y-910000D01*
X998750Y-2903750D02*
X998750Y-910000D01*
X3636250Y-250000D02*
X3258250Y-250000D01*
X4350000Y-1456000D02*
X4350000Y-570000D01*
X4030000Y-250000D02*
X3636250Y-250000D01*
X3258250Y-250000D02*
X3161250Y-153000D01*
X4350000Y-570000D02*
X4030000Y-250000D01*
X3821750Y-343000D02*
X3823750Y-345000D01*
X3161250Y-528000D02*
X3161250Y-344000D01*
X3161250Y-344000D02*
X3160250Y-343000D01*
X3160250Y-343000D02*
X3821750Y-343000D01*
%TA.AperFunction,Conductor*%
G36*
X5300643Y-50085D02*
G01*
X5311649Y-51534D01*
X5314145Y-52202D01*
X5323796Y-56200D01*
X5326034Y-57492D01*
X5334321Y-63851D01*
X5336149Y-65679D01*
X5342508Y-73966D01*
X5343800Y-76204D01*
X5347798Y-85855D01*
X5348466Y-88351D01*
X5349915Y-99357D01*
X5350000Y-100649D01*
X5350000Y-874100D01*
X5348109Y-879919D01*
X5343159Y-883515D01*
X5341066Y-883952D01*
X5339285Y-884127D01*
X5339107Y-884249D01*
X5136464Y-1086891D01*
X5135859Y-1088080D01*
X5135938Y-1088583D01*
X5338865Y-1291510D01*
X5341409Y-1292806D01*
X5344594Y-1293310D01*
X5348921Y-1297637D01*
X5350000Y-1302131D01*
X5350000Y-1599351D01*
X5349915Y-1600643D01*
X5348466Y-1611649D01*
X5347798Y-1614145D01*
X5343800Y-1623796D01*
X5342508Y-1626034D01*
X5336149Y-1634321D01*
X5334321Y-1636149D01*
X5326034Y-1642508D01*
X5323796Y-1643800D01*
X5314145Y-1647797D01*
X5311649Y-1648466D01*
X5300643Y-1649915D01*
X5299351Y-1650000D01*
X1287811Y-1650000D01*
X1281992Y-1648109D01*
X1280811Y-1647100D01*
X1229200Y-1595489D01*
X1226422Y-1590038D01*
X1226300Y-1588489D01*
X1226300Y-1573164D01*
X3787000Y-1573164D01*
X3787035Y-1573748D01*
X3787223Y-1575335D01*
X3787613Y-1576752D01*
X3791477Y-1585451D01*
X3792495Y-1586932D01*
X3799111Y-1593537D01*
X3800593Y-1594552D01*
X3809298Y-1598400D01*
X3810718Y-1598787D01*
X3812258Y-1598967D01*
X3812829Y-1599000D01*
X3850432Y-1599000D01*
X3851700Y-1598588D01*
X3852000Y-1598176D01*
X3852000Y-1597432D01*
X3902000Y-1597432D01*
X3902412Y-1598700D01*
X3902824Y-1599000D01*
X3941164Y-1599000D01*
X3941748Y-1598965D01*
X3943335Y-1598777D01*
X3944752Y-1598387D01*
X3953451Y-1594523D01*
X3954932Y-1593505D01*
X3961537Y-1586889D01*
X3962552Y-1585407D01*
X3966400Y-1576702D01*
X3966787Y-1575281D01*
X3966967Y-1573742D01*
X3967000Y-1573171D01*
X3967000Y-1485568D01*
X3966588Y-1484299D01*
X3966176Y-1484000D01*
X3903568Y-1484000D01*
X3902299Y-1484412D01*
X3902000Y-1484824D01*
X3902000Y-1597432D01*
X3852000Y-1597432D01*
X3852000Y-1485568D01*
X3851588Y-1484299D01*
X3851176Y-1484000D01*
X3788568Y-1484000D01*
X3787299Y-1484412D01*
X3787000Y-1484824D01*
X3787000Y-1573164D01*
X1226300Y-1573164D01*
X1226300Y-1501914D01*
X1334250Y-1501914D01*
X1334285Y-1502498D01*
X1334473Y-1504085D01*
X1334863Y-1505502D01*
X1338727Y-1514201D01*
X1339745Y-1515682D01*
X1346361Y-1522287D01*
X1347843Y-1523302D01*
X1356548Y-1527150D01*
X1357969Y-1527537D01*
X1359508Y-1527717D01*
X1360079Y-1527750D01*
X1446432Y-1527750D01*
X1447700Y-1527338D01*
X1448000Y-1526926D01*
X1448000Y-1526182D01*
X1498000Y-1526182D01*
X1498412Y-1527450D01*
X1498824Y-1527750D01*
X1585914Y-1527750D01*
X1586498Y-1527715D01*
X1588085Y-1527527D01*
X1589502Y-1527137D01*
X1598201Y-1523273D01*
X1599682Y-1522255D01*
X1606287Y-1515639D01*
X1607302Y-1514157D01*
X1611150Y-1505452D01*
X1611537Y-1504031D01*
X1611717Y-1502492D01*
X1611750Y-1501921D01*
X1611750Y-1432432D01*
X3787000Y-1432432D01*
X3787412Y-1433700D01*
X3787824Y-1434000D01*
X3850432Y-1434000D01*
X3851700Y-1433588D01*
X3852000Y-1433176D01*
X3852000Y-1432432D01*
X3902000Y-1432432D01*
X3902412Y-1433700D01*
X3902824Y-1434000D01*
X3965432Y-1434000D01*
X3966700Y-1433588D01*
X3967000Y-1433176D01*
X3967000Y-1344836D01*
X3966965Y-1344252D01*
X3966777Y-1342665D01*
X3966387Y-1341248D01*
X3962523Y-1332549D01*
X3961505Y-1331068D01*
X3954889Y-1324463D01*
X3953407Y-1323448D01*
X3944702Y-1319600D01*
X3943281Y-1319213D01*
X3941742Y-1319033D01*
X3941171Y-1319000D01*
X3903568Y-1319000D01*
X3902299Y-1319412D01*
X3902000Y-1319824D01*
X3902000Y-1432432D01*
X3852000Y-1432432D01*
X3852000Y-1320568D01*
X3851588Y-1319300D01*
X3851176Y-1319000D01*
X3812836Y-1319000D01*
X3812251Y-1319035D01*
X3810665Y-1319223D01*
X3809248Y-1319613D01*
X3800549Y-1323477D01*
X3799068Y-1324495D01*
X3792463Y-1331111D01*
X3791448Y-1332593D01*
X3787600Y-1341298D01*
X3787213Y-1342719D01*
X3787033Y-1344258D01*
X3787000Y-1344829D01*
X3787000Y-1432432D01*
X1611750Y-1432432D01*
X1611750Y-1415568D01*
X1611338Y-1414299D01*
X1610926Y-1414000D01*
X1499568Y-1414000D01*
X1498299Y-1414412D01*
X1498000Y-1414824D01*
X1498000Y-1526182D01*
X1448000Y-1526182D01*
X1448000Y-1415568D01*
X1447588Y-1414299D01*
X1447176Y-1414000D01*
X1335818Y-1414000D01*
X1334550Y-1414412D01*
X1334250Y-1414824D01*
X1334250Y-1501914D01*
X1226300Y-1501914D01*
X1226300Y-1362432D01*
X1334250Y-1362432D01*
X1334662Y-1363701D01*
X1335074Y-1364000D01*
X1446432Y-1364000D01*
X1447700Y-1363588D01*
X1448000Y-1363176D01*
X1448000Y-1362432D01*
X1498000Y-1362432D01*
X1498412Y-1363701D01*
X1498824Y-1364000D01*
X1610182Y-1364000D01*
X1611450Y-1363588D01*
X1611750Y-1363176D01*
X1611750Y-1276086D01*
X1611715Y-1275502D01*
X1611527Y-1273915D01*
X1611137Y-1272498D01*
X1607273Y-1263799D01*
X1606255Y-1262318D01*
X1599639Y-1255713D01*
X1598157Y-1254698D01*
X1589452Y-1250850D01*
X1588031Y-1250463D01*
X1586492Y-1250283D01*
X1585921Y-1250250D01*
X1499568Y-1250250D01*
X1498299Y-1250662D01*
X1498000Y-1251074D01*
X1498000Y-1362432D01*
X1448000Y-1362432D01*
X1448000Y-1251818D01*
X1447588Y-1250550D01*
X1447176Y-1250250D01*
X1360086Y-1250250D01*
X1359502Y-1250285D01*
X1357915Y-1250473D01*
X1356498Y-1250863D01*
X1347799Y-1254727D01*
X1346318Y-1255745D01*
X1339713Y-1262361D01*
X1338698Y-1263843D01*
X1334850Y-1272548D01*
X1334463Y-1273969D01*
X1334283Y-1275508D01*
X1334250Y-1276079D01*
X1334250Y-1362432D01*
X1226300Y-1362432D01*
X1226300Y-1127627D01*
X2090000Y-1127627D01*
X2090036Y-1128222D01*
X2090984Y-1136060D01*
X2091295Y-1137283D01*
X2096234Y-1149757D01*
X2096890Y-1150922D01*
X2104977Y-1161576D01*
X2105924Y-1162523D01*
X2116578Y-1170610D01*
X2117743Y-1171266D01*
X2130217Y-1176205D01*
X2131440Y-1176516D01*
X2139278Y-1177464D01*
X2139873Y-1177500D01*
X2142182Y-1177500D01*
X2143451Y-1177088D01*
X2143750Y-1176676D01*
X2143750Y-1175932D01*
X2193750Y-1175932D01*
X2194162Y-1177201D01*
X2194574Y-1177500D01*
X2197627Y-1177500D01*
X2198222Y-1177464D01*
X2206060Y-1176516D01*
X2207283Y-1176205D01*
X2219757Y-1171266D01*
X2220922Y-1170610D01*
X2231576Y-1162523D01*
X2232523Y-1161576D01*
X2240610Y-1150922D01*
X2241266Y-1149757D01*
X2246205Y-1137283D01*
X2246516Y-1136060D01*
X2247464Y-1128222D01*
X2247500Y-1127627D01*
X2247500Y-1126568D01*
X2247088Y-1125300D01*
X2246676Y-1125000D01*
X2195318Y-1125000D01*
X2194050Y-1125412D01*
X2193750Y-1125824D01*
X2193750Y-1175932D01*
X2143750Y-1175932D01*
X2143750Y-1126568D01*
X2143338Y-1125300D01*
X2142926Y-1125000D01*
X2091568Y-1125000D01*
X2090299Y-1125412D01*
X2090000Y-1125824D01*
X2090000Y-1127627D01*
X1226300Y-1127627D01*
X1226300Y-1073432D01*
X2090000Y-1073432D01*
X2090412Y-1074701D01*
X2090824Y-1075000D01*
X2142182Y-1075000D01*
X2143451Y-1074588D01*
X2143750Y-1074176D01*
X2143750Y-1073432D01*
X2193750Y-1073432D01*
X2194162Y-1074701D01*
X2194574Y-1075000D01*
X2245932Y-1075000D01*
X2247201Y-1074588D01*
X2247500Y-1074176D01*
X2247500Y-1072373D01*
X2247464Y-1071778D01*
X2246516Y-1063940D01*
X2246205Y-1062717D01*
X2241266Y-1050243D01*
X2240610Y-1049078D01*
X2232523Y-1038424D01*
X2231576Y-1037477D01*
X2220922Y-1029390D01*
X2219757Y-1028734D01*
X2207283Y-1023795D01*
X2206060Y-1023484D01*
X2198222Y-1022536D01*
X2197627Y-1022500D01*
X2195318Y-1022500D01*
X2194050Y-1022912D01*
X2193750Y-1023324D01*
X2193750Y-1073432D01*
X2143750Y-1073432D01*
X2143750Y-1024068D01*
X2143338Y-1022799D01*
X2142926Y-1022500D01*
X2139873Y-1022500D01*
X2139278Y-1022536D01*
X2131440Y-1023484D01*
X2130217Y-1023795D01*
X2117743Y-1028734D01*
X2116578Y-1029390D01*
X2105924Y-1037477D01*
X2104977Y-1038424D01*
X2096890Y-1049078D01*
X2096234Y-1050243D01*
X2091295Y-1062717D01*
X2090984Y-1063940D01*
X2090036Y-1071778D01*
X2090000Y-1072373D01*
X2090000Y-1073432D01*
X1226300Y-1073432D01*
X1226300Y-990407D01*
X1228191Y-984588D01*
X1231783Y-981801D01*
X1231693Y-981642D01*
X1232282Y-981310D01*
X1232909Y-981062D01*
X1233505Y-980610D01*
X1244112Y-972559D01*
X1244650Y-972150D01*
X1253562Y-960409D01*
X1253718Y-960015D01*
X1258140Y-955948D01*
X1262262Y-955050D01*
X1547738Y-955050D01*
X1553558Y-956941D01*
X1556270Y-959985D01*
X1556438Y-960409D01*
X1565350Y-972150D01*
X1565888Y-972559D01*
X1576495Y-980610D01*
X1577091Y-981062D01*
X1590796Y-986488D01*
X1599570Y-987550D01*
X1628745Y-987550D01*
X1657930Y-987550D01*
X1658226Y-987514D01*
X1658226Y-987514D01*
X1666072Y-986565D01*
X1666073Y-986565D01*
X1666704Y-986488D01*
X1680409Y-981062D01*
X1681005Y-980610D01*
X1691612Y-972559D01*
X1692150Y-972150D01*
X1694599Y-968923D01*
X1700654Y-960947D01*
X1700654Y-960946D01*
X1701062Y-960409D01*
X1706488Y-946704D01*
X1707550Y-937930D01*
X1707550Y-937627D01*
X1732500Y-937627D01*
X1732536Y-938222D01*
X1733484Y-946060D01*
X1733795Y-947283D01*
X1738734Y-959757D01*
X1739390Y-960922D01*
X1747477Y-971576D01*
X1748424Y-972523D01*
X1759078Y-980610D01*
X1760243Y-981266D01*
X1772717Y-986205D01*
X1773940Y-986516D01*
X1781778Y-987464D01*
X1782373Y-987500D01*
X1784682Y-987500D01*
X1785950Y-987088D01*
X1786250Y-986676D01*
X1786250Y-985932D01*
X1836250Y-985932D01*
X1836662Y-987200D01*
X1837074Y-987500D01*
X1840127Y-987500D01*
X1840722Y-987464D01*
X1848560Y-986516D01*
X1849783Y-986205D01*
X1862257Y-981266D01*
X1863422Y-980610D01*
X1874076Y-972523D01*
X1875023Y-971576D01*
X1883110Y-960922D01*
X1883766Y-959757D01*
X1888705Y-947283D01*
X1889016Y-946060D01*
X1889964Y-938222D01*
X1890000Y-937627D01*
X1890000Y-936568D01*
X1889588Y-935299D01*
X1889176Y-935000D01*
X1837818Y-935000D01*
X1836549Y-935412D01*
X1836250Y-935824D01*
X1836250Y-985932D01*
X1786250Y-985932D01*
X1786250Y-936568D01*
X1785838Y-935299D01*
X1785426Y-935000D01*
X1734068Y-935000D01*
X1732799Y-935412D01*
X1732500Y-935824D01*
X1732500Y-937627D01*
X1707550Y-937627D01*
X1707550Y-883432D01*
X1732500Y-883432D01*
X1732912Y-884700D01*
X1733324Y-885000D01*
X1784682Y-885000D01*
X1785950Y-884588D01*
X1786250Y-884176D01*
X1786250Y-883432D01*
X1836250Y-883432D01*
X1836662Y-884700D01*
X1837074Y-885000D01*
X1888432Y-885000D01*
X1889700Y-884588D01*
X1890000Y-884176D01*
X1890000Y-882373D01*
X1889964Y-881778D01*
X1889016Y-873940D01*
X1888705Y-872717D01*
X1883766Y-860243D01*
X1883110Y-859078D01*
X1880651Y-855839D01*
X2096340Y-855839D01*
X2096354Y-857036D01*
X2099536Y-866097D01*
X2100221Y-867390D01*
X2107381Y-877083D01*
X2108417Y-878119D01*
X2118110Y-885279D01*
X2119403Y-885964D01*
X2130903Y-890002D01*
X2132073Y-890259D01*
X2134392Y-890478D01*
X2134855Y-890500D01*
X2185932Y-890500D01*
X2187201Y-890088D01*
X2187500Y-889676D01*
X2187500Y-888932D01*
X2237500Y-888932D01*
X2237912Y-890200D01*
X2238324Y-890500D01*
X2290144Y-890500D01*
X2290609Y-890478D01*
X2292927Y-890259D01*
X2294097Y-890002D01*
X2305597Y-885964D01*
X2306890Y-885279D01*
X2316584Y-878119D01*
X2317619Y-877083D01*
X2324779Y-867390D01*
X2325464Y-866097D01*
X2328666Y-856979D01*
X2328691Y-855883D01*
X2327557Y-855500D01*
X2239068Y-855500D01*
X2237800Y-855912D01*
X2237500Y-856324D01*
X2237500Y-888932D01*
X2187500Y-888932D01*
X2187500Y-857068D01*
X2187088Y-855799D01*
X2186676Y-855500D01*
X2097383Y-855500D01*
X2096340Y-855839D01*
X1880651Y-855839D01*
X1875023Y-848424D01*
X1874076Y-847477D01*
X1863422Y-839390D01*
X1862257Y-838734D01*
X1849783Y-833795D01*
X1848560Y-833484D01*
X1840722Y-832536D01*
X1840127Y-832500D01*
X1837818Y-832500D01*
X1836549Y-832912D01*
X1836250Y-833324D01*
X1836250Y-883432D01*
X1786250Y-883432D01*
X1786250Y-834068D01*
X1785838Y-832799D01*
X1785426Y-832500D01*
X1782373Y-832500D01*
X1781778Y-832536D01*
X1773940Y-833484D01*
X1772717Y-833795D01*
X1760243Y-838734D01*
X1759078Y-839390D01*
X1748424Y-847477D01*
X1747477Y-848424D01*
X1739390Y-859078D01*
X1738734Y-860243D01*
X1733795Y-872717D01*
X1733484Y-873940D01*
X1732536Y-881778D01*
X1732500Y-882373D01*
X1732500Y-883432D01*
X1707550Y-883432D01*
X1707550Y-882070D01*
X1706488Y-873296D01*
X1701062Y-859591D01*
X1698214Y-855839D01*
X1692559Y-848388D01*
X1692150Y-847850D01*
X1688986Y-845448D01*
X1680947Y-839346D01*
X1680946Y-839346D01*
X1680409Y-838938D01*
X1666704Y-833512D01*
X1657930Y-832450D01*
X1628755Y-832450D01*
X1599570Y-832450D01*
X1599274Y-832486D01*
X1599273Y-832486D01*
X1591427Y-833435D01*
X1591427Y-833435D01*
X1590796Y-833512D01*
X1577091Y-838938D01*
X1576554Y-839346D01*
X1576553Y-839346D01*
X1568514Y-845448D01*
X1565350Y-847850D01*
X1556438Y-859591D01*
X1556282Y-859985D01*
X1551860Y-864051D01*
X1547738Y-864950D01*
X1262262Y-864950D01*
X1256442Y-863059D01*
X1253730Y-860015D01*
X1253562Y-859591D01*
X1244650Y-847850D01*
X1241486Y-845448D01*
X1233447Y-839346D01*
X1233446Y-839346D01*
X1232909Y-838938D01*
X1219204Y-833512D01*
X1210430Y-832450D01*
X1209684Y-832450D01*
X1175161Y-832450D01*
X1169342Y-830559D01*
X1165746Y-825609D01*
X1165746Y-819491D01*
X1168161Y-815550D01*
X1214548Y-769162D01*
X1215420Y-768388D01*
X1217630Y-766645D01*
X1218211Y-766187D01*
X1221570Y-761327D01*
X1221751Y-761074D01*
X1224824Y-756913D01*
X1224824Y-756913D01*
X1225264Y-756318D01*
X1225503Y-755637D01*
X1225913Y-755043D01*
X1227695Y-749410D01*
X1227793Y-749116D01*
X1228316Y-747627D01*
X1551000Y-747627D01*
X1551036Y-748222D01*
X1551984Y-756060D01*
X1552295Y-757283D01*
X1557234Y-769757D01*
X1557890Y-770922D01*
X1565977Y-781576D01*
X1566924Y-782523D01*
X1577578Y-790610D01*
X1578743Y-791266D01*
X1591217Y-796205D01*
X1592440Y-796516D01*
X1600278Y-797464D01*
X1600873Y-797500D01*
X1603182Y-797500D01*
X1604450Y-797088D01*
X1604750Y-796676D01*
X1604750Y-795932D01*
X1654750Y-795932D01*
X1655162Y-797200D01*
X1655574Y-797500D01*
X1658627Y-797500D01*
X1659222Y-797464D01*
X1667060Y-796516D01*
X1668283Y-796205D01*
X1680757Y-791266D01*
X1681922Y-790610D01*
X1692576Y-782523D01*
X1693523Y-781576D01*
X1701610Y-770922D01*
X1702266Y-769757D01*
X1707205Y-757283D01*
X1707516Y-756060D01*
X1708464Y-748222D01*
X1708500Y-747627D01*
X1708500Y-746568D01*
X1708088Y-745299D01*
X1707676Y-745000D01*
X1656318Y-745000D01*
X1655049Y-745412D01*
X1654750Y-745824D01*
X1654750Y-795932D01*
X1604750Y-795932D01*
X1604750Y-746568D01*
X1604338Y-745299D01*
X1603926Y-745000D01*
X1552568Y-745000D01*
X1551299Y-745412D01*
X1551000Y-745824D01*
X1551000Y-747627D01*
X1228316Y-747627D01*
X1229507Y-744235D01*
X1229507Y-744235D01*
X1229752Y-743537D01*
X1229776Y-742933D01*
X1229828Y-742665D01*
X1229998Y-742127D01*
X1230050Y-741466D01*
X1230050Y-740825D01*
X1231941Y-735006D01*
X1232145Y-734766D01*
X1232215Y-734715D01*
X1238591Y-726083D01*
X1239824Y-724414D01*
X1239824Y-724413D01*
X1240263Y-723818D01*
X1244752Y-711037D01*
X1245050Y-707883D01*
X1245050Y-693432D01*
X1551000Y-693432D01*
X1551412Y-694701D01*
X1551824Y-695000D01*
X1603182Y-695000D01*
X1604450Y-694588D01*
X1604750Y-694176D01*
X1604750Y-693432D01*
X1654750Y-693432D01*
X1655162Y-694701D01*
X1655574Y-695000D01*
X1706932Y-695000D01*
X1708200Y-694588D01*
X1708500Y-694176D01*
X1708500Y-692373D01*
X1708464Y-691778D01*
X1707516Y-683940D01*
X1707205Y-682717D01*
X1702266Y-670243D01*
X1701610Y-669078D01*
X1693523Y-658424D01*
X1692576Y-657477D01*
X1681922Y-649390D01*
X1680757Y-648734D01*
X1668283Y-643795D01*
X1667060Y-643484D01*
X1659222Y-642536D01*
X1658627Y-642500D01*
X1656318Y-642500D01*
X1655049Y-642912D01*
X1654750Y-643324D01*
X1654750Y-693432D01*
X1604750Y-693432D01*
X1604750Y-644068D01*
X1604338Y-642800D01*
X1603926Y-642500D01*
X1600873Y-642500D01*
X1600278Y-642536D01*
X1592440Y-643484D01*
X1591217Y-643795D01*
X1578743Y-648734D01*
X1577578Y-649390D01*
X1566924Y-657477D01*
X1565977Y-658424D01*
X1557890Y-669078D01*
X1557234Y-670243D01*
X1552295Y-682717D01*
X1551984Y-683940D01*
X1551036Y-691778D01*
X1551000Y-692373D01*
X1551000Y-693432D01*
X1245050Y-693432D01*
X1245050Y-579617D01*
X1245000Y-579087D01*
X1244809Y-577064D01*
X1244809Y-577064D01*
X1244752Y-576463D01*
X1240263Y-563682D01*
X1238292Y-561012D01*
X1235791Y-557627D01*
X1550000Y-557627D01*
X1550036Y-558222D01*
X1550984Y-566060D01*
X1551295Y-567283D01*
X1556234Y-579757D01*
X1556890Y-580922D01*
X1564977Y-591576D01*
X1565924Y-592523D01*
X1576578Y-600610D01*
X1577743Y-601266D01*
X1590217Y-606205D01*
X1591440Y-606516D01*
X1599278Y-607464D01*
X1599873Y-607500D01*
X1602182Y-607500D01*
X1603450Y-607088D01*
X1603750Y-606676D01*
X1603750Y-605932D01*
X1653750Y-605932D01*
X1654162Y-607201D01*
X1654574Y-607500D01*
X1657627Y-607500D01*
X1658222Y-607464D01*
X1666060Y-606516D01*
X1667283Y-606205D01*
X1679757Y-601266D01*
X1680922Y-600610D01*
X1691576Y-592523D01*
X1692523Y-591576D01*
X1700610Y-580922D01*
X1701266Y-579757D01*
X1706205Y-567283D01*
X1706516Y-566060D01*
X1707464Y-558222D01*
X1707500Y-557627D01*
X1707500Y-556568D01*
X1707088Y-555300D01*
X1706676Y-555000D01*
X1655318Y-555000D01*
X1654049Y-555412D01*
X1653750Y-555824D01*
X1653750Y-605932D01*
X1603750Y-605932D01*
X1603750Y-556568D01*
X1603338Y-555300D01*
X1602926Y-555000D01*
X1551568Y-555000D01*
X1550299Y-555412D01*
X1550000Y-555824D01*
X1550000Y-557627D01*
X1235791Y-557627D01*
X1232655Y-553381D01*
X1232215Y-552785D01*
X1221318Y-544737D01*
X1208537Y-540248D01*
X1207936Y-540191D01*
X1207936Y-540191D01*
X1205615Y-539972D01*
X1205614Y-539972D01*
X1205383Y-539950D01*
X1164617Y-539950D01*
X1164387Y-539972D01*
X1164386Y-539972D01*
X1162064Y-540191D01*
X1162064Y-540191D01*
X1161463Y-540248D01*
X1160894Y-540448D01*
X1160893Y-540448D01*
X1160862Y-540459D01*
X1160842Y-540460D01*
X1160305Y-540577D01*
X1160282Y-540473D01*
X1154746Y-540603D01*
X1149712Y-537124D01*
X1147685Y-531351D01*
X1148242Y-527838D01*
X1149552Y-524106D01*
X1149752Y-523537D01*
X1149815Y-522872D01*
X1150028Y-520614D01*
X1150028Y-520613D01*
X1150050Y-520383D01*
X1150050Y-484950D01*
X1151941Y-479131D01*
X1156891Y-475534D01*
X1159950Y-475050D01*
X1543722Y-475050D01*
X1549541Y-476941D01*
X1553138Y-481891D01*
X1553138Y-488009D01*
X1552927Y-488594D01*
X1551295Y-492717D01*
X1550984Y-493940D01*
X1550036Y-501778D01*
X1550000Y-502373D01*
X1550000Y-503432D01*
X1550412Y-504700D01*
X1550824Y-505000D01*
X1705932Y-505000D01*
X1707200Y-504588D01*
X1707500Y-504176D01*
X1707500Y-502373D01*
X1707464Y-501778D01*
X1706516Y-493940D01*
X1706205Y-492717D01*
X1704710Y-488941D01*
X1704326Y-482834D01*
X1707604Y-477668D01*
X1713293Y-475416D01*
X1714742Y-475456D01*
X1714946Y-475449D01*
X1715681Y-475536D01*
X1716409Y-475403D01*
X1716409Y-475403D01*
X1719479Y-474843D01*
X1721493Y-474475D01*
X1721798Y-474424D01*
X1723127Y-474224D01*
X1725190Y-473914D01*
X1731225Y-474919D01*
X1735518Y-479279D01*
X1736427Y-485330D01*
X1735867Y-487349D01*
X1733512Y-493296D01*
X1732450Y-502070D01*
X1732450Y-557930D01*
X1732486Y-558226D01*
X1732486Y-558227D01*
X1732873Y-561423D01*
X1733512Y-566704D01*
X1738938Y-580409D01*
X1739346Y-580946D01*
X1739346Y-580947D01*
X1747414Y-591576D01*
X1747850Y-592150D01*
X1748388Y-592559D01*
X1759045Y-600647D01*
X1759591Y-601062D01*
X1773296Y-606488D01*
X1782070Y-607550D01*
X1811245Y-607550D01*
X1840430Y-607550D01*
X1840726Y-607514D01*
X1840726Y-607514D01*
X1848572Y-606565D01*
X1848573Y-606565D01*
X1849204Y-606488D01*
X1862909Y-601062D01*
X1863455Y-600647D01*
X1874112Y-592559D01*
X1874650Y-592150D01*
X1883562Y-580409D01*
X1883718Y-580015D01*
X1888140Y-575949D01*
X1892261Y-575050D01*
X2017239Y-575050D01*
X2023058Y-576941D01*
X2024239Y-577950D01*
X2052338Y-606048D01*
X2053112Y-606920D01*
X2055313Y-609711D01*
X2055921Y-610132D01*
X2056613Y-610610D01*
X2059081Y-612315D01*
X2060174Y-613071D01*
X2060426Y-613251D01*
X2061589Y-614110D01*
X2064586Y-616324D01*
X2064586Y-616324D01*
X2065182Y-616763D01*
X2065863Y-617003D01*
X2066457Y-617413D01*
X2067163Y-617636D01*
X2067163Y-617636D01*
X2068870Y-618176D01*
X2072093Y-619196D01*
X2072381Y-619292D01*
X2077963Y-621252D01*
X2078567Y-621276D01*
X2078835Y-621328D01*
X2079373Y-621498D01*
X2080034Y-621550D01*
X2085354Y-621550D01*
X2085743Y-621558D01*
X2091499Y-621784D01*
X2092177Y-621604D01*
X2093159Y-621550D01*
X2101675Y-621550D01*
X2107494Y-623441D01*
X2107734Y-623645D01*
X2107785Y-623715D01*
X2108008Y-623880D01*
X2108008Y-623880D01*
X2118682Y-631763D01*
X2118579Y-631902D01*
X2122206Y-635644D01*
X2123069Y-641702D01*
X2120206Y-647109D01*
X2118672Y-648224D01*
X2118682Y-648237D01*
X2107785Y-656285D01*
X2107345Y-656881D01*
X2100245Y-666494D01*
X2099737Y-667182D01*
X2099492Y-667879D01*
X2099491Y-667880D01*
X2099333Y-668330D01*
X2095622Y-673194D01*
X2089992Y-674950D01*
X1893261Y-674950D01*
X1887442Y-673059D01*
X1884730Y-670015D01*
X1884562Y-669591D01*
X1875650Y-657850D01*
X1873588Y-656285D01*
X1864447Y-649346D01*
X1864446Y-649346D01*
X1863909Y-648938D01*
X1850204Y-643512D01*
X1841430Y-642450D01*
X1812255Y-642450D01*
X1783070Y-642450D01*
X1782774Y-642486D01*
X1782773Y-642486D01*
X1774927Y-643435D01*
X1774927Y-643435D01*
X1774296Y-643512D01*
X1760591Y-648938D01*
X1760054Y-649346D01*
X1760053Y-649346D01*
X1750912Y-656285D01*
X1748850Y-657850D01*
X1748441Y-658388D01*
X1740895Y-668330D01*
X1739938Y-669591D01*
X1734512Y-683296D01*
X1733450Y-692070D01*
X1733450Y-747930D01*
X1733486Y-748226D01*
X1733486Y-748226D01*
X1734316Y-755090D01*
X1734512Y-756704D01*
X1739938Y-770409D01*
X1740346Y-770946D01*
X1740346Y-770947D01*
X1747819Y-780792D01*
X1748850Y-782150D01*
X1749388Y-782559D01*
X1759995Y-790610D01*
X1760591Y-791062D01*
X1774296Y-796488D01*
X1783070Y-797550D01*
X1812245Y-797550D01*
X1841430Y-797550D01*
X1841726Y-797514D01*
X1841726Y-797514D01*
X1849572Y-796565D01*
X1849573Y-796565D01*
X1850204Y-796488D01*
X1863909Y-791062D01*
X1864505Y-790610D01*
X1875112Y-782559D01*
X1875650Y-782150D01*
X1878770Y-778039D01*
X1882956Y-772525D01*
X1884562Y-770409D01*
X1884718Y-770015D01*
X1889140Y-765948D01*
X1893261Y-765050D01*
X2102491Y-765050D01*
X2108310Y-766941D01*
X2111906Y-771891D01*
X2111906Y-778009D01*
X2108843Y-782261D01*
X2108939Y-782358D01*
X2107381Y-783916D01*
X2100221Y-793610D01*
X2099536Y-794903D01*
X2096334Y-804020D01*
X2096309Y-805117D01*
X2097443Y-805500D01*
X2327617Y-805500D01*
X2328660Y-805161D01*
X2328646Y-803964D01*
X2325464Y-794903D01*
X2324779Y-793610D01*
X2317619Y-783916D01*
X2316584Y-782881D01*
X2306295Y-775281D01*
X2306391Y-775152D01*
X2302739Y-771383D01*
X2301878Y-765326D01*
X2304741Y-759919D01*
X2306323Y-758769D01*
X2306318Y-758763D01*
X2317215Y-750715D01*
X2317366Y-750919D01*
X2321776Y-748672D01*
X2323325Y-748550D01*
X2616675Y-748550D01*
X2622494Y-750441D01*
X2622734Y-750645D01*
X2622785Y-750715D01*
X2623008Y-750880D01*
X2623008Y-750880D01*
X2633682Y-758763D01*
X2633579Y-758902D01*
X2637206Y-762644D01*
X2638069Y-768702D01*
X2635206Y-774109D01*
X2633672Y-775224D01*
X2633682Y-775237D01*
X2623332Y-782881D01*
X2622949Y-783164D01*
X2618051Y-784862D01*
X2618069Y-784964D01*
X2617413Y-785083D01*
X2617413Y-785083D01*
X2612257Y-786025D01*
X2611952Y-786076D01*
X2609613Y-786427D01*
X2606835Y-786845D01*
X2606835Y-786845D01*
X2606104Y-786955D01*
X2605453Y-787268D01*
X2604743Y-787397D01*
X2599498Y-790122D01*
X2599220Y-790261D01*
X2593892Y-792819D01*
X2593448Y-793230D01*
X2593222Y-793382D01*
X2592721Y-793642D01*
X2592217Y-794072D01*
X2588454Y-797836D01*
X2588174Y-798105D01*
X2584488Y-801512D01*
X2584487Y-801513D01*
X2583944Y-802015D01*
X2583592Y-802621D01*
X2582936Y-803353D01*
X2366739Y-1019550D01*
X2361288Y-1022328D01*
X2359739Y-1022450D01*
X2324908Y-1022450D01*
X2322070Y-1022450D01*
X2321774Y-1022486D01*
X2321774Y-1022486D01*
X2313928Y-1023435D01*
X2313927Y-1023435D01*
X2313296Y-1023512D01*
X2299591Y-1028938D01*
X2299054Y-1029346D01*
X2299053Y-1029346D01*
X2291014Y-1035448D01*
X2287850Y-1037850D01*
X2287441Y-1038388D01*
X2279361Y-1049035D01*
X2278938Y-1049591D01*
X2273512Y-1063296D01*
X2272450Y-1072070D01*
X2272450Y-1127930D01*
X2272486Y-1128226D01*
X2272486Y-1128227D01*
X2272898Y-1131633D01*
X2273512Y-1136704D01*
X2278938Y-1150409D01*
X2279346Y-1150946D01*
X2279346Y-1150947D01*
X2284358Y-1157550D01*
X2287850Y-1162150D01*
X2288388Y-1162559D01*
X2298996Y-1170610D01*
X2299591Y-1171062D01*
X2313296Y-1176488D01*
X2322070Y-1177550D01*
X2351245Y-1177550D01*
X2380430Y-1177550D01*
X2380726Y-1177514D01*
X2380727Y-1177514D01*
X2388573Y-1176565D01*
X2388573Y-1176565D01*
X2389204Y-1176488D01*
X2402909Y-1171062D01*
X2403505Y-1170610D01*
X2414112Y-1162559D01*
X2414650Y-1162150D01*
X2418142Y-1157550D01*
X2423154Y-1150947D01*
X2423154Y-1150946D01*
X2423562Y-1150409D01*
X2428988Y-1136704D01*
X2430050Y-1127930D01*
X2430050Y-1127627D01*
X2500000Y-1127627D01*
X2500036Y-1128222D01*
X2500984Y-1136060D01*
X2501295Y-1137283D01*
X2506234Y-1149757D01*
X2506890Y-1150922D01*
X2514977Y-1161576D01*
X2515924Y-1162523D01*
X2526578Y-1170610D01*
X2527743Y-1171266D01*
X2540217Y-1176205D01*
X2541440Y-1176516D01*
X2549278Y-1177464D01*
X2549873Y-1177500D01*
X2557182Y-1177500D01*
X2558451Y-1177088D01*
X2558750Y-1176676D01*
X2558750Y-1126568D01*
X2558338Y-1125300D01*
X2557926Y-1125000D01*
X2501568Y-1125000D01*
X2500300Y-1125412D01*
X2500000Y-1125824D01*
X2500000Y-1127627D01*
X2430050Y-1127627D01*
X2430050Y-1087761D01*
X2431941Y-1081942D01*
X2432950Y-1080761D01*
X2440278Y-1073432D01*
X2500000Y-1073432D01*
X2500412Y-1074701D01*
X2500824Y-1075000D01*
X2557182Y-1075000D01*
X2558451Y-1074588D01*
X2558750Y-1074176D01*
X2558750Y-1024068D01*
X2558338Y-1022799D01*
X2557926Y-1022500D01*
X2549873Y-1022500D01*
X2549278Y-1022536D01*
X2541440Y-1023484D01*
X2540217Y-1023795D01*
X2527743Y-1028734D01*
X2526578Y-1029390D01*
X2515924Y-1037477D01*
X2514977Y-1038424D01*
X2506890Y-1049078D01*
X2506234Y-1050243D01*
X2501295Y-1062717D01*
X2500984Y-1063940D01*
X2500036Y-1071778D01*
X2500000Y-1072373D01*
X2500000Y-1073432D01*
X2440278Y-1073432D01*
X2625033Y-888677D01*
X2630485Y-885899D01*
X2635314Y-886337D01*
X2646463Y-890252D01*
X2647064Y-890309D01*
X2647064Y-890309D01*
X2649386Y-890528D01*
X2649387Y-890528D01*
X2649617Y-890550D01*
X2701300Y-890550D01*
X2707119Y-892441D01*
X2710716Y-897391D01*
X2711200Y-900450D01*
X2711200Y-1017614D01*
X2709309Y-1023433D01*
X2704945Y-1026818D01*
X2699591Y-1028938D01*
X2699054Y-1029346D01*
X2699053Y-1029346D01*
X2691014Y-1035448D01*
X2687850Y-1037850D01*
X2687441Y-1038388D01*
X2679361Y-1049035D01*
X2678938Y-1049591D01*
X2678690Y-1050219D01*
X2678596Y-1050385D01*
X2674092Y-1054526D01*
X2668014Y-1055229D01*
X2662684Y-1052226D01*
X2661346Y-1050385D01*
X2660610Y-1049078D01*
X2652523Y-1038424D01*
X2651576Y-1037477D01*
X2640922Y-1029390D01*
X2639757Y-1028734D01*
X2627283Y-1023795D01*
X2626060Y-1023484D01*
X2618222Y-1022536D01*
X2617627Y-1022500D01*
X2610318Y-1022500D01*
X2609050Y-1022912D01*
X2608750Y-1023324D01*
X2608750Y-1175932D01*
X2609162Y-1177201D01*
X2609574Y-1177500D01*
X2617627Y-1177500D01*
X2618222Y-1177464D01*
X2626060Y-1176516D01*
X2627283Y-1176205D01*
X2639757Y-1171266D01*
X2640922Y-1170610D01*
X2651576Y-1162523D01*
X2652523Y-1161576D01*
X2660610Y-1150922D01*
X2661346Y-1149615D01*
X2665850Y-1145474D01*
X2671928Y-1144771D01*
X2677258Y-1147774D01*
X2678596Y-1149615D01*
X2678690Y-1149782D01*
X2678938Y-1150409D01*
X2679346Y-1150946D01*
X2679346Y-1150947D01*
X2684358Y-1157550D01*
X2687850Y-1162150D01*
X2688388Y-1162559D01*
X2698996Y-1170610D01*
X2699591Y-1171062D01*
X2713296Y-1176488D01*
X2722070Y-1177550D01*
X2756244Y-1177550D01*
X2790430Y-1177550D01*
X2790726Y-1177514D01*
X2790727Y-1177514D01*
X2798572Y-1176565D01*
X2798573Y-1176565D01*
X2799204Y-1176488D01*
X2812909Y-1171062D01*
X2813505Y-1170610D01*
X2824112Y-1162559D01*
X2824650Y-1162150D01*
X2833562Y-1150409D01*
X2833718Y-1150015D01*
X2838140Y-1145949D01*
X2842261Y-1145050D01*
X2856737Y-1145050D01*
X2857901Y-1145119D01*
X2861431Y-1145536D01*
X2862159Y-1145404D01*
X2862159Y-1145404D01*
X2865624Y-1144771D01*
X2867243Y-1144475D01*
X2867548Y-1144424D01*
X2873396Y-1143545D01*
X2874047Y-1143232D01*
X2874757Y-1143103D01*
X2879998Y-1140380D01*
X2880276Y-1140241D01*
X2884941Y-1138001D01*
X2884941Y-1138001D01*
X2885608Y-1137681D01*
X2886052Y-1137270D01*
X2886278Y-1137118D01*
X2886779Y-1136858D01*
X2887283Y-1136428D01*
X2891046Y-1132664D01*
X2891326Y-1132395D01*
X2895012Y-1128988D01*
X2895013Y-1128987D01*
X2895556Y-1128485D01*
X2895908Y-1127879D01*
X2896564Y-1127147D01*
X2960761Y-1062950D01*
X2966212Y-1060172D01*
X2967761Y-1060050D01*
X3070383Y-1060050D01*
X3070613Y-1060028D01*
X3070614Y-1060028D01*
X3072936Y-1059809D01*
X3072936Y-1059809D01*
X3073537Y-1059752D01*
X3076585Y-1058682D01*
X3077838Y-1058242D01*
X3083955Y-1058097D01*
X3088988Y-1061576D01*
X3091015Y-1067349D01*
X3090548Y-1070298D01*
X3090577Y-1070305D01*
X3090469Y-1070796D01*
X3090459Y-1070862D01*
X3090448Y-1070893D01*
X3090448Y-1070894D01*
X3090248Y-1071463D01*
X3090191Y-1072064D01*
X3090191Y-1072064D01*
X3089992Y-1074176D01*
X3089950Y-1074617D01*
X3089950Y-1115383D01*
X3089972Y-1115614D01*
X3089972Y-1115615D01*
X3090015Y-1116072D01*
X3090248Y-1118537D01*
X3094737Y-1131318D01*
X3095176Y-1131914D01*
X3095176Y-1131914D01*
X3099199Y-1137360D01*
X3102785Y-1142215D01*
X3103381Y-1142655D01*
X3113029Y-1149782D01*
X3113682Y-1150263D01*
X3126463Y-1154752D01*
X3127064Y-1154809D01*
X3127064Y-1154809D01*
X3129385Y-1155028D01*
X3129386Y-1155028D01*
X3129617Y-1155050D01*
X3257883Y-1155050D01*
X3258113Y-1155028D01*
X3258114Y-1155028D01*
X3260436Y-1154809D01*
X3260436Y-1154809D01*
X3261037Y-1154752D01*
X3273818Y-1150263D01*
X3274471Y-1149782D01*
X3284119Y-1142655D01*
X3284715Y-1142215D01*
X3288301Y-1137360D01*
X3292324Y-1131914D01*
X3292324Y-1131914D01*
X3292763Y-1131318D01*
X3297252Y-1118537D01*
X3297485Y-1116072D01*
X3297528Y-1115615D01*
X3297528Y-1115614D01*
X3297550Y-1115383D01*
X3297550Y-1107627D01*
X3530000Y-1107627D01*
X3530036Y-1108222D01*
X3530984Y-1116060D01*
X3531295Y-1117283D01*
X3536234Y-1129757D01*
X3536890Y-1130922D01*
X3544977Y-1141576D01*
X3545924Y-1142523D01*
X3556578Y-1150610D01*
X3557743Y-1151266D01*
X3570217Y-1156205D01*
X3571440Y-1156516D01*
X3579278Y-1157464D01*
X3579873Y-1157500D01*
X3585932Y-1157500D01*
X3587200Y-1157088D01*
X3587500Y-1156676D01*
X3587500Y-1155932D01*
X3637500Y-1155932D01*
X3637912Y-1157201D01*
X3638324Y-1157500D01*
X3645127Y-1157500D01*
X3645722Y-1157464D01*
X3653560Y-1156516D01*
X3654783Y-1156205D01*
X3667257Y-1151266D01*
X3668422Y-1150610D01*
X3679076Y-1142523D01*
X3680023Y-1141576D01*
X3688110Y-1130922D01*
X3688766Y-1129757D01*
X3690768Y-1124701D01*
X3694668Y-1119986D01*
X3700595Y-1118464D01*
X3706284Y-1120717D01*
X3709178Y-1124701D01*
X3711438Y-1130409D01*
X3711846Y-1130946D01*
X3711846Y-1130947D01*
X3718901Y-1140241D01*
X3720350Y-1142150D01*
X3720888Y-1142559D01*
X3731495Y-1150610D01*
X3732091Y-1151062D01*
X3745796Y-1156488D01*
X3754570Y-1157550D01*
X3787494Y-1157550D01*
X3820430Y-1157550D01*
X3820726Y-1157514D01*
X3820726Y-1157514D01*
X3828572Y-1156565D01*
X3828573Y-1156565D01*
X3829204Y-1156488D01*
X3842909Y-1151062D01*
X3843505Y-1150610D01*
X3854112Y-1142559D01*
X3854650Y-1142150D01*
X3856099Y-1140241D01*
X3863154Y-1130947D01*
X3863154Y-1130946D01*
X3863562Y-1130409D01*
X3868988Y-1116704D01*
X3870050Y-1107930D01*
X3870050Y-1052070D01*
X3869985Y-1051536D01*
X3869065Y-1043927D01*
X3869065Y-1043927D01*
X3868988Y-1043296D01*
X3863562Y-1029591D01*
X3862911Y-1028734D01*
X3855059Y-1018388D01*
X3854650Y-1017850D01*
X3849689Y-1014085D01*
X3843447Y-1009346D01*
X3843446Y-1009346D01*
X3842909Y-1008938D01*
X3842281Y-1008690D01*
X3841693Y-1008358D01*
X3841798Y-1008172D01*
X3837841Y-1004898D01*
X3836300Y-999593D01*
X3836300Y-980407D01*
X3838191Y-974588D01*
X3841783Y-971801D01*
X3841693Y-971642D01*
X3842281Y-971310D01*
X3842909Y-971062D01*
X3845727Y-968923D01*
X3854112Y-962559D01*
X3854650Y-962150D01*
X3861306Y-953381D01*
X3863154Y-950947D01*
X3863154Y-950946D01*
X3863562Y-950409D01*
X3868988Y-936704D01*
X3870050Y-927930D01*
X3870050Y-872070D01*
X3869640Y-868682D01*
X3869065Y-863927D01*
X3869065Y-863927D01*
X3868988Y-863296D01*
X3863562Y-849591D01*
X3863062Y-848932D01*
X3855059Y-838388D01*
X3854650Y-837850D01*
X3849243Y-833746D01*
X3843447Y-829346D01*
X3843446Y-829346D01*
X3842909Y-828938D01*
X3829204Y-823512D01*
X3820430Y-822450D01*
X3791255Y-822450D01*
X3762070Y-822450D01*
X3761774Y-822486D01*
X3761773Y-822486D01*
X3753927Y-823435D01*
X3753927Y-823435D01*
X3753296Y-823512D01*
X3739591Y-828938D01*
X3739054Y-829346D01*
X3739053Y-829346D01*
X3733257Y-833746D01*
X3727850Y-837850D01*
X3727441Y-838388D01*
X3719438Y-848932D01*
X3718938Y-849591D01*
X3713512Y-863296D01*
X3712450Y-872070D01*
X3712450Y-927930D01*
X3712486Y-928226D01*
X3712486Y-928226D01*
X3712666Y-929718D01*
X3713512Y-936704D01*
X3718938Y-950409D01*
X3719346Y-950946D01*
X3719346Y-950947D01*
X3721194Y-953381D01*
X3727850Y-962150D01*
X3728388Y-962559D01*
X3736773Y-968923D01*
X3739591Y-971062D01*
X3740218Y-971310D01*
X3740807Y-971642D01*
X3740702Y-971828D01*
X3744659Y-975102D01*
X3746200Y-980407D01*
X3746200Y-996624D01*
X3744309Y-1002443D01*
X3739944Y-1005829D01*
X3732091Y-1008938D01*
X3731554Y-1009346D01*
X3731553Y-1009346D01*
X3725311Y-1014085D01*
X3720350Y-1017850D01*
X3719941Y-1018388D01*
X3712089Y-1028734D01*
X3711438Y-1029591D01*
X3709178Y-1035299D01*
X3705278Y-1040014D01*
X3699351Y-1041536D01*
X3693663Y-1039283D01*
X3690768Y-1035299D01*
X3688766Y-1030243D01*
X3688110Y-1029078D01*
X3680023Y-1018424D01*
X3679076Y-1017477D01*
X3668422Y-1009390D01*
X3667257Y-1008734D01*
X3654783Y-1003795D01*
X3653560Y-1003484D01*
X3645722Y-1002536D01*
X3645127Y-1002500D01*
X3639068Y-1002500D01*
X3637799Y-1002912D01*
X3637500Y-1003324D01*
X3637500Y-1155932D01*
X3587500Y-1155932D01*
X3587500Y-1106568D01*
X3587088Y-1105300D01*
X3586676Y-1105000D01*
X3531568Y-1105000D01*
X3530299Y-1105412D01*
X3530000Y-1105824D01*
X3530000Y-1107627D01*
X3297550Y-1107627D01*
X3297550Y-1074617D01*
X3297508Y-1074176D01*
X3297309Y-1072064D01*
X3297309Y-1072064D01*
X3297252Y-1071463D01*
X3292763Y-1058682D01*
X3288886Y-1053432D01*
X3530000Y-1053432D01*
X3530412Y-1054701D01*
X3530824Y-1055000D01*
X3585932Y-1055000D01*
X3587200Y-1054588D01*
X3587500Y-1054176D01*
X3587500Y-1004068D01*
X3587088Y-1002799D01*
X3586676Y-1002500D01*
X3579873Y-1002500D01*
X3579278Y-1002536D01*
X3571440Y-1003484D01*
X3570217Y-1003795D01*
X3557743Y-1008734D01*
X3556578Y-1009390D01*
X3545924Y-1017477D01*
X3544977Y-1018424D01*
X3536890Y-1029078D01*
X3536234Y-1030243D01*
X3531295Y-1042717D01*
X3530984Y-1043940D01*
X3530036Y-1051778D01*
X3530000Y-1052373D01*
X3530000Y-1053432D01*
X3288886Y-1053432D01*
X3285416Y-1048734D01*
X3285155Y-1048381D01*
X3284715Y-1047785D01*
X3277837Y-1042705D01*
X3274414Y-1040176D01*
X3274413Y-1040176D01*
X3273818Y-1039737D01*
X3261037Y-1035248D01*
X3260436Y-1035191D01*
X3260436Y-1035191D01*
X3258114Y-1034972D01*
X3258113Y-1034972D01*
X3257883Y-1034950D01*
X3250040Y-1034950D01*
X3244221Y-1033059D01*
X3240625Y-1028109D01*
X3240239Y-1023655D01*
X3240549Y-1021478D01*
X3240564Y-1020000D01*
X3239275Y-1009346D01*
X3238599Y-1003760D01*
X3238599Y-1003760D01*
X3238528Y-1003168D01*
X3232534Y-987308D01*
X3227895Y-980557D01*
X3226157Y-974691D01*
X3228200Y-968923D01*
X3233242Y-965458D01*
X3236054Y-965050D01*
X3257883Y-965050D01*
X3258113Y-965028D01*
X3258114Y-965028D01*
X3260436Y-964809D01*
X3260436Y-964809D01*
X3261037Y-964752D01*
X3273818Y-960263D01*
X3274471Y-959781D01*
X3284119Y-952655D01*
X3284715Y-952215D01*
X3287039Y-949068D01*
X3292017Y-945511D01*
X3295003Y-945050D01*
X3527738Y-945050D01*
X3533558Y-946941D01*
X3536270Y-949985D01*
X3536438Y-950409D01*
X3545350Y-962150D01*
X3545888Y-962559D01*
X3554273Y-968923D01*
X3557091Y-971062D01*
X3570796Y-976488D01*
X3579570Y-977550D01*
X3608745Y-977550D01*
X3637930Y-977550D01*
X3638226Y-977514D01*
X3638226Y-977514D01*
X3646072Y-976565D01*
X3646073Y-976565D01*
X3646704Y-976488D01*
X3660409Y-971062D01*
X3663227Y-968923D01*
X3671612Y-962559D01*
X3672150Y-962150D01*
X3678806Y-953381D01*
X3680654Y-950947D01*
X3680654Y-950946D01*
X3681062Y-950409D01*
X3686488Y-936704D01*
X3687550Y-927930D01*
X3687550Y-872070D01*
X3687140Y-868682D01*
X3686565Y-863927D01*
X3686565Y-863927D01*
X3686488Y-863296D01*
X3681062Y-849591D01*
X3680562Y-848932D01*
X3672559Y-838388D01*
X3672150Y-837850D01*
X3666743Y-833746D01*
X3660947Y-829346D01*
X3660946Y-829346D01*
X3660409Y-828938D01*
X3659781Y-828690D01*
X3659193Y-828358D01*
X3659298Y-828172D01*
X3655341Y-824898D01*
X3653800Y-819593D01*
X3653800Y-800407D01*
X3655691Y-794588D01*
X3659283Y-791801D01*
X3659193Y-791642D01*
X3659781Y-791310D01*
X3660409Y-791062D01*
X3661005Y-790610D01*
X3671612Y-782559D01*
X3672150Y-782150D01*
X3673181Y-780792D01*
X3680654Y-770947D01*
X3680654Y-770946D01*
X3681062Y-770409D01*
X3686488Y-756704D01*
X3687550Y-747930D01*
X3687550Y-692070D01*
X3686488Y-683296D01*
X3681062Y-669591D01*
X3680105Y-668330D01*
X3672559Y-658388D01*
X3672150Y-657850D01*
X3670088Y-656285D01*
X3660947Y-649346D01*
X3660946Y-649346D01*
X3660409Y-648938D01*
X3646704Y-643512D01*
X3637930Y-642450D01*
X3635008Y-642450D01*
X3599011Y-642450D01*
X3593192Y-640559D01*
X3592011Y-639551D01*
X3583579Y-631119D01*
X3580801Y-625667D01*
X3581759Y-619624D01*
X3582570Y-618299D01*
X3583750Y-616676D01*
X3583750Y-615932D01*
X3633750Y-615932D01*
X3634162Y-617201D01*
X3634574Y-617500D01*
X3637627Y-617500D01*
X3638222Y-617464D01*
X3646060Y-616516D01*
X3647283Y-616205D01*
X3659757Y-611266D01*
X3660922Y-610610D01*
X3671576Y-602523D01*
X3672523Y-601576D01*
X3680610Y-590922D01*
X3681266Y-589757D01*
X3686205Y-577283D01*
X3686516Y-576060D01*
X3687464Y-568222D01*
X3687500Y-567627D01*
X3687500Y-566568D01*
X3687088Y-565300D01*
X3686676Y-565000D01*
X3635318Y-565000D01*
X3634049Y-565412D01*
X3633750Y-565824D01*
X3633750Y-615932D01*
X3583750Y-615932D01*
X3583750Y-566568D01*
X3583338Y-565300D01*
X3582926Y-565000D01*
X3531568Y-565000D01*
X3530299Y-565412D01*
X3529996Y-565829D01*
X3529988Y-565856D01*
X3529878Y-566549D01*
X3529768Y-566531D01*
X3528109Y-571637D01*
X3523159Y-575234D01*
X3518245Y-575543D01*
X3517985Y-575493D01*
X3517287Y-575248D01*
X3516683Y-575224D01*
X3516415Y-575172D01*
X3515877Y-575002D01*
X3515216Y-574950D01*
X3509896Y-574950D01*
X3509507Y-574942D01*
X3504490Y-574745D01*
X3504489Y-574745D01*
X3503751Y-574716D01*
X3503073Y-574896D01*
X3502090Y-574950D01*
X3248918Y-574950D01*
X3243099Y-573059D01*
X3239503Y-568109D01*
X3239090Y-563861D01*
X3239587Y-559752D01*
X3240050Y-555930D01*
X3240050Y-513432D01*
X3530000Y-513432D01*
X3530412Y-514700D01*
X3530824Y-515000D01*
X3582182Y-515000D01*
X3583450Y-514588D01*
X3583750Y-514176D01*
X3583750Y-513432D01*
X3633750Y-513432D01*
X3634162Y-514700D01*
X3634574Y-515000D01*
X3685932Y-515000D01*
X3687200Y-514588D01*
X3687500Y-514176D01*
X3687500Y-512373D01*
X3687464Y-511778D01*
X3686516Y-503940D01*
X3686205Y-502717D01*
X3681266Y-490243D01*
X3680610Y-489078D01*
X3672523Y-478424D01*
X3671576Y-477477D01*
X3660922Y-469390D01*
X3659757Y-468734D01*
X3647283Y-463795D01*
X3646060Y-463484D01*
X3638222Y-462536D01*
X3637627Y-462500D01*
X3635318Y-462500D01*
X3634049Y-462912D01*
X3633750Y-463324D01*
X3633750Y-513432D01*
X3583750Y-513432D01*
X3583750Y-464068D01*
X3583338Y-462799D01*
X3582926Y-462500D01*
X3579873Y-462500D01*
X3579278Y-462536D01*
X3571440Y-463484D01*
X3570217Y-463795D01*
X3557743Y-468734D01*
X3556578Y-469390D01*
X3545924Y-477477D01*
X3544977Y-478424D01*
X3536890Y-489078D01*
X3536234Y-490243D01*
X3531295Y-502717D01*
X3530984Y-503940D01*
X3530036Y-511778D01*
X3530000Y-512373D01*
X3530000Y-513432D01*
X3240050Y-513432D01*
X3240050Y-500070D01*
X3239771Y-497763D01*
X3239065Y-491927D01*
X3239065Y-491927D01*
X3238988Y-491296D01*
X3233562Y-477591D01*
X3233068Y-476941D01*
X3225059Y-466388D01*
X3224650Y-465850D01*
X3221878Y-463746D01*
X3213447Y-457346D01*
X3213446Y-457346D01*
X3212909Y-456938D01*
X3212281Y-456690D01*
X3211693Y-456358D01*
X3211798Y-456172D01*
X3207841Y-452898D01*
X3206300Y-447593D01*
X3206300Y-422902D01*
X3208191Y-417083D01*
X3211320Y-414295D01*
X3211909Y-414062D01*
X3223650Y-405150D01*
X3224218Y-404401D01*
X3227872Y-399588D01*
X3232562Y-393409D01*
X3232718Y-393015D01*
X3237140Y-388948D01*
X3241261Y-388050D01*
X3724713Y-388050D01*
X3730532Y-389941D01*
X3731760Y-391159D01*
X3731822Y-391096D01*
X3732345Y-391619D01*
X3732785Y-392215D01*
X3733381Y-392655D01*
X3735130Y-393947D01*
X3743682Y-400263D01*
X3756463Y-404752D01*
X3757064Y-404809D01*
X3757064Y-404809D01*
X3759385Y-405028D01*
X3759386Y-405028D01*
X3759617Y-405050D01*
X3887883Y-405050D01*
X3888113Y-405028D01*
X3888114Y-405028D01*
X3890436Y-404809D01*
X3890436Y-404809D01*
X3891037Y-404752D01*
X3903818Y-400263D01*
X3912370Y-393947D01*
X3914119Y-392655D01*
X3914715Y-392215D01*
X3915344Y-391364D01*
X3922324Y-381914D01*
X3922324Y-381913D01*
X3922763Y-381318D01*
X3927252Y-368537D01*
X3927376Y-367226D01*
X3927528Y-365614D01*
X3927528Y-365613D01*
X3927550Y-365383D01*
X3927550Y-324617D01*
X3927252Y-321463D01*
X3922763Y-308682D01*
X3922947Y-308617D01*
X3922064Y-303555D01*
X3924756Y-298060D01*
X3930163Y-295197D01*
X3931865Y-295050D01*
X4007239Y-295050D01*
X4013058Y-296941D01*
X4014239Y-297950D01*
X4175548Y-459258D01*
X4178326Y-464710D01*
X4177369Y-470753D01*
X4173088Y-475056D01*
X4168027Y-477668D01*
X4160337Y-481637D01*
X4156548Y-484942D01*
X4147873Y-492510D01*
X4142245Y-494911D01*
X4141365Y-494950D01*
X3872261Y-494950D01*
X3866442Y-493059D01*
X3863730Y-490015D01*
X3863562Y-489591D01*
X3854650Y-477850D01*
X3853600Y-477053D01*
X3843447Y-469346D01*
X3843446Y-469346D01*
X3842909Y-468938D01*
X3829204Y-463512D01*
X3820430Y-462450D01*
X3791255Y-462450D01*
X3762070Y-462450D01*
X3761774Y-462486D01*
X3761773Y-462486D01*
X3753927Y-463435D01*
X3753927Y-463435D01*
X3753296Y-463512D01*
X3739591Y-468938D01*
X3739054Y-469346D01*
X3739053Y-469346D01*
X3728899Y-477053D01*
X3727850Y-477850D01*
X3727441Y-478388D01*
X3719431Y-488941D01*
X3718938Y-489591D01*
X3713512Y-503296D01*
X3712450Y-512070D01*
X3712450Y-567930D01*
X3712486Y-568226D01*
X3712486Y-568227D01*
X3713336Y-575255D01*
X3713512Y-576704D01*
X3718938Y-590409D01*
X3719346Y-590946D01*
X3719346Y-590947D01*
X3726611Y-600518D01*
X3727850Y-602150D01*
X3728388Y-602559D01*
X3738995Y-610610D01*
X3739591Y-611062D01*
X3740218Y-611310D01*
X3740807Y-611642D01*
X3740702Y-611828D01*
X3744659Y-615102D01*
X3746200Y-620407D01*
X3746200Y-639593D01*
X3744309Y-645412D01*
X3740717Y-648199D01*
X3740807Y-648358D01*
X3740218Y-648690D01*
X3739591Y-648938D01*
X3739054Y-649346D01*
X3739053Y-649346D01*
X3729912Y-656285D01*
X3727850Y-657850D01*
X3727441Y-658388D01*
X3719895Y-668330D01*
X3718938Y-669591D01*
X3713512Y-683296D01*
X3712450Y-692070D01*
X3712450Y-747930D01*
X3712486Y-748226D01*
X3712486Y-748226D01*
X3713316Y-755090D01*
X3713512Y-756704D01*
X3718938Y-770409D01*
X3719346Y-770946D01*
X3719346Y-770947D01*
X3726819Y-780792D01*
X3727850Y-782150D01*
X3728388Y-782559D01*
X3738995Y-790610D01*
X3739591Y-791062D01*
X3753296Y-796488D01*
X3762070Y-797550D01*
X3791245Y-797550D01*
X3820430Y-797550D01*
X3820726Y-797514D01*
X3820726Y-797514D01*
X3828572Y-796565D01*
X3828573Y-796565D01*
X3829204Y-796488D01*
X3842909Y-791062D01*
X3843505Y-790610D01*
X3854112Y-782559D01*
X3854650Y-782150D01*
X3855681Y-780792D01*
X3863154Y-770947D01*
X3863154Y-770946D01*
X3863562Y-770409D01*
X3868988Y-756704D01*
X3870050Y-747930D01*
X3870050Y-692070D01*
X3868988Y-683296D01*
X3863562Y-669591D01*
X3862605Y-668330D01*
X3855059Y-658388D01*
X3854650Y-657850D01*
X3852588Y-656285D01*
X3843447Y-649346D01*
X3843446Y-649346D01*
X3842909Y-648938D01*
X3842281Y-648690D01*
X3841693Y-648358D01*
X3841798Y-648172D01*
X3837841Y-644898D01*
X3836300Y-639593D01*
X3836300Y-620407D01*
X3838191Y-614588D01*
X3841783Y-611801D01*
X3841693Y-611642D01*
X3842281Y-611310D01*
X3842909Y-611062D01*
X3843505Y-610610D01*
X3854112Y-602559D01*
X3854650Y-602150D01*
X3855926Y-600469D01*
X3863154Y-590947D01*
X3863562Y-590409D01*
X3863718Y-590015D01*
X3868140Y-585949D01*
X3872261Y-585050D01*
X4141590Y-585050D01*
X4147409Y-586941D01*
X4148253Y-587628D01*
X4158679Y-597115D01*
X4159123Y-597519D01*
X4159648Y-597804D01*
X4160647Y-598347D01*
X4174023Y-605609D01*
X4179660Y-607088D01*
X4189846Y-609760D01*
X4189847Y-609760D01*
X4190423Y-609912D01*
X4191019Y-609921D01*
X4191020Y-609921D01*
X4198900Y-610045D01*
X4207376Y-610178D01*
X4207958Y-610045D01*
X4207958Y-610045D01*
X4223321Y-606526D01*
X4223321Y-606526D01*
X4223903Y-606393D01*
X4225184Y-605748D01*
X4232572Y-602033D01*
X4239050Y-598775D01*
X4239504Y-598387D01*
X4239504Y-598387D01*
X4251489Y-588151D01*
X4251489Y-588151D01*
X4251942Y-587763D01*
X4253132Y-586108D01*
X4261488Y-574480D01*
X4261488Y-574479D01*
X4261836Y-573995D01*
X4262059Y-573441D01*
X4262059Y-573440D01*
X4264404Y-567608D01*
X4268329Y-562914D01*
X4274263Y-561423D01*
X4279940Y-563706D01*
X4280590Y-564300D01*
X4292050Y-575761D01*
X4294828Y-581212D01*
X4294950Y-582761D01*
X4294950Y-599465D01*
X4295262Y-602085D01*
X4299806Y-612315D01*
X4300453Y-612961D01*
X4300453Y-612961D01*
X4302044Y-614550D01*
X4304827Y-619999D01*
X4304950Y-621556D01*
X4304950Y-1309050D01*
X4303059Y-1314869D01*
X4298109Y-1318466D01*
X4295050Y-1318950D01*
X4268535Y-1318950D01*
X4266895Y-1319145D01*
X4266653Y-1319174D01*
X4266653Y-1319174D01*
X4265915Y-1319262D01*
X4255685Y-1323806D01*
X4247776Y-1331729D01*
X4246488Y-1334641D01*
X4243567Y-1341248D01*
X4243249Y-1341967D01*
X4242950Y-1344535D01*
X4242950Y-1573465D01*
X4243262Y-1576085D01*
X4247806Y-1586315D01*
X4255729Y-1594224D01*
X4256565Y-1594594D01*
X4265286Y-1598450D01*
X4265287Y-1598450D01*
X4265967Y-1598751D01*
X4266707Y-1598837D01*
X4268238Y-1599015D01*
X4268535Y-1599050D01*
X4397465Y-1599050D01*
X4399256Y-1598837D01*
X4399347Y-1598826D01*
X4399347Y-1598826D01*
X4400085Y-1598738D01*
X4410315Y-1594194D01*
X4418224Y-1586271D01*
X4422428Y-1576763D01*
X4422450Y-1576714D01*
X4422450Y-1576713D01*
X4422751Y-1576033D01*
X4423050Y-1573465D01*
X4423050Y-1344535D01*
X4422738Y-1341915D01*
X4418194Y-1331685D01*
X4417414Y-1330906D01*
X4414487Y-1327984D01*
X4895954Y-1327984D01*
X4896020Y-1328403D01*
X4896092Y-1328499D01*
X4898692Y-1330906D01*
X4899118Y-1331258D01*
X4927023Y-1351831D01*
X4927486Y-1352135D01*
X4957510Y-1369469D01*
X4958004Y-1369718D01*
X4989775Y-1383599D01*
X4990290Y-1383790D01*
X5023410Y-1394043D01*
X5023947Y-1394177D01*
X5058002Y-1400673D01*
X5058550Y-1400746D01*
X5093117Y-1403406D01*
X5093668Y-1403417D01*
X5128319Y-1402207D01*
X5128867Y-1402157D01*
X5163166Y-1397093D01*
X5163707Y-1396982D01*
X5197226Y-1388126D01*
X5197752Y-1387955D01*
X5230074Y-1375418D01*
X5230579Y-1375189D01*
X5261302Y-1359127D01*
X5261777Y-1358844D01*
X5290519Y-1339457D01*
X5290960Y-1339122D01*
X5303167Y-1328733D01*
X5303866Y-1327597D01*
X5303842Y-1327284D01*
X5303669Y-1327025D01*
X5101109Y-1124464D01*
X5099920Y-1123859D01*
X5099417Y-1123938D01*
X4896559Y-1326796D01*
X4895954Y-1327984D01*
X4414487Y-1327984D01*
X4413297Y-1326796D01*
X4410271Y-1323776D01*
X4400947Y-1319654D01*
X4396389Y-1315571D01*
X4395050Y-1310599D01*
X4395050Y-1083871D01*
X4784546Y-1083871D01*
X4785998Y-1118511D01*
X4786052Y-1119060D01*
X4791356Y-1153322D01*
X4791471Y-1153862D01*
X4800561Y-1187319D01*
X4800735Y-1187844D01*
X4813498Y-1220079D01*
X4813729Y-1220579D01*
X4830006Y-1251192D01*
X4830292Y-1251664D01*
X4849879Y-1280270D01*
X4850217Y-1280709D01*
X4859255Y-1291179D01*
X4860395Y-1291870D01*
X4860727Y-1291842D01*
X4860959Y-1291685D01*
X5063536Y-1089109D01*
X5064142Y-1087920D01*
X5064062Y-1087417D01*
X4861262Y-884618D01*
X4860074Y-884012D01*
X4859673Y-884076D01*
X4859552Y-884168D01*
X4855694Y-888393D01*
X4855346Y-888821D01*
X4834967Y-916869D01*
X4834668Y-917334D01*
X4817543Y-947478D01*
X4817297Y-947974D01*
X4803639Y-979840D01*
X4803451Y-980358D01*
X4793430Y-1013550D01*
X4793300Y-1014085D01*
X4787041Y-1048186D01*
X4786972Y-1048734D01*
X4784554Y-1083320D01*
X4784546Y-1083871D01*
X4395050Y-1083871D01*
X4395050Y-848377D01*
X4896116Y-848377D01*
X4896148Y-848726D01*
X4896287Y-848932D01*
X5098891Y-1051536D01*
X5100080Y-1052142D01*
X5100583Y-1052062D01*
X5303335Y-849310D01*
X5303940Y-848122D01*
X5303880Y-847739D01*
X5303767Y-847593D01*
X5297898Y-842308D01*
X5297466Y-841960D01*
X5269277Y-821779D01*
X5268809Y-821482D01*
X5238547Y-804569D01*
X5238049Y-804327D01*
X5206088Y-790891D01*
X5205569Y-790707D01*
X5172309Y-780917D01*
X5171772Y-780792D01*
X5137628Y-774771D01*
X5137081Y-774706D01*
X5102479Y-772529D01*
X5101926Y-772525D01*
X5067298Y-774218D01*
X5066748Y-774276D01*
X5032525Y-779819D01*
X5031986Y-779938D01*
X4998593Y-789261D01*
X4998070Y-789439D01*
X4965924Y-802427D01*
X4965425Y-802662D01*
X4934927Y-819152D01*
X4934458Y-819441D01*
X4905988Y-839228D01*
X4905553Y-839568D01*
X4896799Y-847231D01*
X4896116Y-848377D01*
X4395050Y-848377D01*
X4395050Y-621550D01*
X4396941Y-615731D01*
X4397944Y-614556D01*
X4399578Y-612918D01*
X4399579Y-612918D01*
X4400224Y-612271D01*
X4402311Y-607550D01*
X4404450Y-602714D01*
X4404450Y-602713D01*
X4404751Y-602033D01*
X4405050Y-599465D01*
X4405050Y-599164D01*
X4515000Y-599164D01*
X4515035Y-599749D01*
X4515223Y-601335D01*
X4515613Y-602752D01*
X4519477Y-611451D01*
X4520495Y-612932D01*
X4527111Y-619537D01*
X4528593Y-620552D01*
X4537298Y-624400D01*
X4538719Y-624787D01*
X4540258Y-624967D01*
X4540829Y-625000D01*
X4543432Y-625000D01*
X4544701Y-624588D01*
X4545000Y-624176D01*
X4545000Y-623432D01*
X4595000Y-623432D01*
X4595412Y-624701D01*
X4595824Y-625000D01*
X4599164Y-625000D01*
X4599749Y-624965D01*
X4601335Y-624777D01*
X4602752Y-624387D01*
X4611451Y-620523D01*
X4612932Y-619505D01*
X4619537Y-612889D01*
X4620552Y-611407D01*
X4624400Y-602702D01*
X4624787Y-601282D01*
X4624967Y-599742D01*
X4625000Y-599171D01*
X4625000Y-596568D01*
X4624588Y-595300D01*
X4624176Y-595000D01*
X4596568Y-595000D01*
X4595300Y-595412D01*
X4595000Y-595824D01*
X4595000Y-623432D01*
X4545000Y-623432D01*
X4545000Y-596568D01*
X4544588Y-595300D01*
X4544176Y-595000D01*
X4516568Y-595000D01*
X4515300Y-595412D01*
X4515000Y-595824D01*
X4515000Y-599164D01*
X4405050Y-599164D01*
X4405050Y-543432D01*
X4515000Y-543432D01*
X4515412Y-544701D01*
X4515824Y-545000D01*
X4543432Y-545000D01*
X4544701Y-544588D01*
X4545000Y-544176D01*
X4545000Y-543432D01*
X4595000Y-543432D01*
X4595412Y-544701D01*
X4595824Y-545000D01*
X4623432Y-545000D01*
X4624701Y-544588D01*
X4625000Y-544176D01*
X4625000Y-542859D01*
X5008035Y-542859D01*
X5011020Y-554612D01*
X5011322Y-555465D01*
X5019790Y-573834D01*
X5020242Y-574617D01*
X5031917Y-591136D01*
X5032504Y-591823D01*
X5046993Y-605938D01*
X5047695Y-606507D01*
X5064514Y-617745D01*
X5065309Y-618176D01*
X5083893Y-626161D01*
X5084754Y-626440D01*
X5093471Y-628413D01*
X5094760Y-628294D01*
X5094974Y-627518D01*
X5145000Y-627518D01*
X5145412Y-628787D01*
X5145529Y-628872D01*
X5146127Y-628923D01*
X5146512Y-628867D01*
X5147391Y-628656D01*
X5166545Y-622154D01*
X5167371Y-621786D01*
X5185019Y-611903D01*
X5185765Y-611390D01*
X5201316Y-598457D01*
X5201957Y-597816D01*
X5214890Y-582265D01*
X5215403Y-581519D01*
X5225286Y-563871D01*
X5225654Y-563045D01*
X5232156Y-543891D01*
X5232359Y-543043D01*
X5232135Y-541737D01*
X5232031Y-541636D01*
X5231447Y-541500D01*
X5146568Y-541500D01*
X5145300Y-541912D01*
X5145000Y-542324D01*
X5145000Y-627518D01*
X5094974Y-627518D01*
X5095000Y-627422D01*
X5095000Y-543068D01*
X5094588Y-541800D01*
X5094176Y-541500D01*
X5009258Y-541500D01*
X5008067Y-541887D01*
X5008035Y-542859D01*
X4625000Y-542859D01*
X4625000Y-540836D01*
X4624965Y-540252D01*
X4624777Y-538665D01*
X4624387Y-537248D01*
X4620523Y-528549D01*
X4619505Y-527068D01*
X4612889Y-520463D01*
X4611407Y-519448D01*
X4602702Y-515600D01*
X4601282Y-515213D01*
X4599742Y-515033D01*
X4599171Y-515000D01*
X4596568Y-515000D01*
X4595300Y-515412D01*
X4595000Y-515824D01*
X4595000Y-543432D01*
X4545000Y-543432D01*
X4545000Y-516568D01*
X4544588Y-515299D01*
X4544176Y-515000D01*
X4540836Y-515000D01*
X4540252Y-515035D01*
X4538665Y-515223D01*
X4537248Y-515613D01*
X4528549Y-519477D01*
X4527068Y-520495D01*
X4520463Y-527111D01*
X4519448Y-528593D01*
X4515600Y-537298D01*
X4515213Y-538719D01*
X4515033Y-540258D01*
X4515000Y-540829D01*
X4515000Y-543432D01*
X4405050Y-543432D01*
X4405050Y-540535D01*
X4404738Y-537915D01*
X4400194Y-527685D01*
X4392271Y-519776D01*
X4385435Y-516754D01*
X4382714Y-515550D01*
X4382713Y-515550D01*
X4382033Y-515249D01*
X4380190Y-515035D01*
X4379749Y-514983D01*
X4379749Y-514983D01*
X4379465Y-514950D01*
X4362761Y-514950D01*
X4356942Y-513059D01*
X4355761Y-512050D01*
X4333713Y-490002D01*
X5007803Y-490002D01*
X5007818Y-491165D01*
X5008873Y-491500D01*
X5093432Y-491500D01*
X5094701Y-491088D01*
X5095000Y-490676D01*
X5095000Y-489932D01*
X5145000Y-489932D01*
X5145412Y-491200D01*
X5145824Y-491500D01*
X5230876Y-491500D01*
X5232025Y-491127D01*
X5232045Y-490087D01*
X5227945Y-475548D01*
X5227621Y-474704D01*
X5218675Y-456562D01*
X5218202Y-455791D01*
X5206099Y-439584D01*
X5205495Y-438912D01*
X5190641Y-425181D01*
X5189924Y-424631D01*
X5172816Y-413837D01*
X5172011Y-413427D01*
X5153223Y-405931D01*
X5152357Y-405675D01*
X5146538Y-404517D01*
X5145213Y-404674D01*
X5145210Y-404677D01*
X5145000Y-405482D01*
X5145000Y-489932D01*
X5095000Y-489932D01*
X5095000Y-405670D01*
X5094588Y-404401D01*
X5094527Y-404358D01*
X5093813Y-404306D01*
X5090555Y-404866D01*
X5089683Y-405099D01*
X5070705Y-412101D01*
X5069889Y-412490D01*
X5052505Y-422833D01*
X5051775Y-423363D01*
X5036566Y-436701D01*
X5035943Y-437357D01*
X5023421Y-453241D01*
X5022928Y-454000D01*
X5013510Y-471902D01*
X5013164Y-472736D01*
X5007803Y-490002D01*
X4333713Y-490002D01*
X4214049Y-370339D01*
X4293840Y-370339D01*
X4293854Y-371536D01*
X4297036Y-380597D01*
X4297721Y-381890D01*
X4304881Y-391583D01*
X4305917Y-392619D01*
X4315610Y-399779D01*
X4316903Y-400464D01*
X4328403Y-404502D01*
X4329573Y-404759D01*
X4331892Y-404978D01*
X4332355Y-405000D01*
X4369682Y-405000D01*
X4370951Y-404588D01*
X4371250Y-404176D01*
X4371250Y-403432D01*
X4421250Y-403432D01*
X4421662Y-404700D01*
X4422074Y-405000D01*
X4460144Y-405000D01*
X4460609Y-404978D01*
X4462927Y-404759D01*
X4464097Y-404502D01*
X4475597Y-400464D01*
X4476890Y-399779D01*
X4486584Y-392619D01*
X4487619Y-391583D01*
X4494779Y-381890D01*
X4495464Y-380597D01*
X4498666Y-371479D01*
X4498691Y-370383D01*
X4497557Y-370000D01*
X4422818Y-370000D01*
X4421550Y-370412D01*
X4421250Y-370824D01*
X4421250Y-403432D01*
X4371250Y-403432D01*
X4371250Y-371568D01*
X4370838Y-370299D01*
X4370426Y-370000D01*
X4294883Y-370000D01*
X4293840Y-370339D01*
X4214049Y-370339D01*
X4163327Y-319617D01*
X4293809Y-319617D01*
X4294943Y-320000D01*
X4369682Y-320000D01*
X4370951Y-319588D01*
X4371250Y-319176D01*
X4371250Y-286568D01*
X4370838Y-285300D01*
X4370426Y-285000D01*
X4332356Y-285000D01*
X4331891Y-285022D01*
X4329573Y-285241D01*
X4328404Y-285498D01*
X4316903Y-289536D01*
X4315610Y-290221D01*
X4305917Y-297381D01*
X4304881Y-298417D01*
X4297721Y-308110D01*
X4297036Y-309403D01*
X4293835Y-318521D01*
X4293809Y-319617D01*
X4163327Y-319617D01*
X4064162Y-220452D01*
X4063388Y-219580D01*
X4062964Y-219043D01*
X4061187Y-216789D01*
X4060225Y-216124D01*
X4058816Y-215150D01*
X4056325Y-213429D01*
X4056073Y-213248D01*
X4055139Y-212559D01*
X4053785Y-211559D01*
X4051914Y-210176D01*
X4051914Y-210176D01*
X4051318Y-209737D01*
X4050637Y-209497D01*
X4050043Y-209087D01*
X4049337Y-208864D01*
X4049337Y-208864D01*
X4045435Y-207629D01*
X4044407Y-207304D01*
X4044119Y-207208D01*
X4038537Y-205248D01*
X4037933Y-205224D01*
X4037665Y-205172D01*
X4037127Y-205002D01*
X4036466Y-204950D01*
X4031146Y-204950D01*
X4030757Y-204942D01*
X4025740Y-204745D01*
X4025739Y-204745D01*
X4025001Y-204716D01*
X4024323Y-204896D01*
X4023340Y-204950D01*
X3931808Y-204950D01*
X3925989Y-203059D01*
X3922392Y-198109D01*
X3922392Y-191991D01*
X3922872Y-190859D01*
X3926165Y-181479D01*
X3926191Y-180383D01*
X3925057Y-180000D01*
X3722383Y-180000D01*
X3721340Y-180339D01*
X3721365Y-182423D01*
X3719543Y-188264D01*
X3714635Y-191918D01*
X3708185Y-191880D01*
X3704107Y-190448D01*
X3704106Y-190448D01*
X3703537Y-190248D01*
X3702936Y-190191D01*
X3702936Y-190191D01*
X3700614Y-189972D01*
X3700613Y-189972D01*
X3700383Y-189950D01*
X3572117Y-189950D01*
X3571886Y-189972D01*
X3571885Y-189972D01*
X3569564Y-190191D01*
X3569564Y-190191D01*
X3568963Y-190248D01*
X3556182Y-194737D01*
X3555586Y-195176D01*
X3555586Y-195176D01*
X3548222Y-200615D01*
X3545285Y-202785D01*
X3545134Y-202581D01*
X3540724Y-204828D01*
X3539175Y-204950D01*
X3281011Y-204950D01*
X3275192Y-203059D01*
X3274011Y-202050D01*
X3242950Y-170989D01*
X3240172Y-165538D01*
X3240050Y-163989D01*
X3240050Y-159261D01*
X4129439Y-159261D01*
X4129505Y-159854D01*
X4129505Y-159855D01*
X4131194Y-175151D01*
X4131300Y-176113D01*
X4137127Y-192036D01*
X4137459Y-192530D01*
X4137459Y-192531D01*
X4140423Y-196941D01*
X4146583Y-206108D01*
X4159123Y-217519D01*
X4174023Y-225609D01*
X4179066Y-226932D01*
X4189846Y-229760D01*
X4189847Y-229760D01*
X4190423Y-229912D01*
X4191019Y-229921D01*
X4191020Y-229921D01*
X4198900Y-230045D01*
X4207376Y-230178D01*
X4207958Y-230045D01*
X4207958Y-230045D01*
X4223321Y-226526D01*
X4223321Y-226526D01*
X4223903Y-226393D01*
X4224509Y-226088D01*
X4232514Y-222062D01*
X4239050Y-218775D01*
X4239504Y-218387D01*
X4239504Y-218387D01*
X4251942Y-207763D01*
X4252046Y-207884D01*
X4256729Y-205245D01*
X4258686Y-205050D01*
X4305864Y-205050D01*
X4311745Y-206987D01*
X4316182Y-210263D01*
X4328963Y-214752D01*
X4329564Y-214809D01*
X4329564Y-214809D01*
X4331886Y-215028D01*
X4331887Y-215028D01*
X4332117Y-215050D01*
X4460383Y-215050D01*
X4460614Y-215028D01*
X4460615Y-215028D01*
X4462936Y-214809D01*
X4462936Y-214809D01*
X4463537Y-214752D01*
X4466935Y-213559D01*
X4467838Y-213241D01*
X4473955Y-213097D01*
X4478988Y-216576D01*
X4481016Y-222349D01*
X4480548Y-225298D01*
X4480577Y-225305D01*
X4480470Y-225796D01*
X4480459Y-225862D01*
X4480448Y-225893D01*
X4480448Y-225894D01*
X4480248Y-226463D01*
X4480191Y-227064D01*
X4480191Y-227064D01*
X4479984Y-229254D01*
X4479950Y-229617D01*
X4479950Y-270383D01*
X4479972Y-270614D01*
X4479972Y-270615D01*
X4480136Y-272346D01*
X4480248Y-273537D01*
X4480448Y-274106D01*
X4480480Y-274198D01*
X4480482Y-274259D01*
X4480577Y-274695D01*
X4480492Y-274714D01*
X4480625Y-280314D01*
X4477146Y-285348D01*
X4471373Y-287375D01*
X4467859Y-286819D01*
X4464097Y-285498D01*
X4462927Y-285241D01*
X4460608Y-285022D01*
X4460145Y-285000D01*
X4422818Y-285000D01*
X4421550Y-285412D01*
X4421250Y-285824D01*
X4421250Y-318432D01*
X4421662Y-319701D01*
X4422074Y-320000D01*
X4497617Y-320000D01*
X4498660Y-319661D01*
X4498635Y-317577D01*
X4500457Y-311736D01*
X4505365Y-308082D01*
X4511815Y-308120D01*
X4515893Y-309552D01*
X4515894Y-309552D01*
X4516463Y-309752D01*
X4517064Y-309809D01*
X4517064Y-309809D01*
X4519386Y-310028D01*
X4519387Y-310028D01*
X4519617Y-310050D01*
X4647883Y-310050D01*
X4648114Y-310028D01*
X4648115Y-310028D01*
X4650436Y-309809D01*
X4650436Y-309809D01*
X4651037Y-309752D01*
X4663818Y-305263D01*
X4666981Y-302928D01*
X4674715Y-297215D01*
X4674866Y-297419D01*
X4679276Y-295172D01*
X4680825Y-295050D01*
X4995050Y-295050D01*
X5000869Y-296941D01*
X5004466Y-301891D01*
X5004950Y-304950D01*
X5004950Y-351965D01*
X5005262Y-354585D01*
X5009806Y-364815D01*
X5010453Y-365461D01*
X5010453Y-365461D01*
X5010902Y-365909D01*
X5017729Y-372724D01*
X5018565Y-373094D01*
X5027286Y-376950D01*
X5027287Y-376950D01*
X5027967Y-377251D01*
X5028707Y-377337D01*
X5030238Y-377515D01*
X5030535Y-377550D01*
X5209465Y-377550D01*
X5211256Y-377337D01*
X5211347Y-377326D01*
X5211347Y-377326D01*
X5212085Y-377238D01*
X5222315Y-372694D01*
X5223439Y-371568D01*
X5227774Y-367226D01*
X5230224Y-364771D01*
X5234751Y-354533D01*
X5235050Y-351965D01*
X5235050Y-173035D01*
X5234738Y-170415D01*
X5230194Y-160185D01*
X5222271Y-152276D01*
X5214113Y-148669D01*
X5212714Y-148050D01*
X5212713Y-148050D01*
X5212033Y-147749D01*
X5210632Y-147586D01*
X5209749Y-147483D01*
X5209749Y-147483D01*
X5209465Y-147450D01*
X5030535Y-147450D01*
X5028895Y-147645D01*
X5028653Y-147674D01*
X5028653Y-147674D01*
X5027915Y-147762D01*
X5017685Y-152306D01*
X5009776Y-160229D01*
X5005249Y-170467D01*
X5004950Y-173035D01*
X5004950Y-195050D01*
X5003059Y-200869D01*
X4998109Y-204465D01*
X4995050Y-204950D01*
X4680825Y-204950D01*
X4675006Y-203059D01*
X4674767Y-202855D01*
X4674715Y-202785D01*
X4674492Y-202620D01*
X4674492Y-202620D01*
X4664414Y-195176D01*
X4664414Y-195176D01*
X4663818Y-194737D01*
X4651037Y-190248D01*
X4650436Y-190191D01*
X4650436Y-190191D01*
X4648115Y-189972D01*
X4648114Y-189972D01*
X4647883Y-189950D01*
X4519617Y-189950D01*
X4519387Y-189972D01*
X4519386Y-189972D01*
X4517064Y-190191D01*
X4517064Y-190191D01*
X4516463Y-190248D01*
X4515894Y-190448D01*
X4515894Y-190448D01*
X4512162Y-191758D01*
X4506045Y-191903D01*
X4501012Y-188424D01*
X4498985Y-182651D01*
X4499452Y-179702D01*
X4499423Y-179695D01*
X4499531Y-179204D01*
X4499541Y-179138D01*
X4499552Y-179107D01*
X4499552Y-179106D01*
X4499752Y-178537D01*
X4499809Y-177930D01*
X4500028Y-175614D01*
X4500028Y-175613D01*
X4500050Y-175383D01*
X4500050Y-134617D01*
X4499901Y-133043D01*
X4499809Y-132064D01*
X4499809Y-132064D01*
X4499752Y-131463D01*
X4495263Y-118682D01*
X4494177Y-117211D01*
X4487655Y-108381D01*
X4487215Y-107785D01*
X4485109Y-106229D01*
X4476914Y-100176D01*
X4476914Y-100176D01*
X4476318Y-99737D01*
X4463537Y-95248D01*
X4462936Y-95191D01*
X4462936Y-95191D01*
X4460615Y-94972D01*
X4460614Y-94972D01*
X4460383Y-94950D01*
X4332117Y-94950D01*
X4331887Y-94972D01*
X4331886Y-94972D01*
X4329564Y-95191D01*
X4329564Y-95191D01*
X4328963Y-95248D01*
X4316182Y-99737D01*
X4315587Y-100176D01*
X4315586Y-100176D01*
X4307391Y-106229D01*
X4305285Y-107785D01*
X4302961Y-110932D01*
X4297983Y-114489D01*
X4294997Y-114950D01*
X4258515Y-114950D01*
X4252695Y-113059D01*
X4251929Y-112442D01*
X4247411Y-108416D01*
X4240272Y-102056D01*
X4239004Y-101385D01*
X4234913Y-99218D01*
X4225288Y-94122D01*
X4216958Y-92030D01*
X4209423Y-90137D01*
X4209423Y-90137D01*
X4208844Y-89992D01*
X4200284Y-89947D01*
X4192486Y-89906D01*
X4192486Y-89906D01*
X4191889Y-89903D01*
X4191310Y-90042D01*
X4191309Y-90042D01*
X4183031Y-92030D01*
X4175403Y-93861D01*
X4171600Y-95824D01*
X4160867Y-101364D01*
X4160867Y-101364D01*
X4160337Y-101637D01*
X4147560Y-112783D01*
X4147217Y-113271D01*
X4147217Y-113271D01*
X4138715Y-125369D01*
X4137811Y-126655D01*
X4131652Y-142451D01*
X4129439Y-159261D01*
X3240050Y-159261D01*
X3240050Y-129617D01*
X3721309Y-129617D01*
X3722443Y-130000D01*
X3797182Y-130000D01*
X3798450Y-129588D01*
X3798750Y-129176D01*
X3798750Y-128432D01*
X3848750Y-128432D01*
X3849162Y-129700D01*
X3849574Y-130000D01*
X3925117Y-130000D01*
X3926160Y-129661D01*
X3926146Y-128464D01*
X3922964Y-119403D01*
X3922279Y-118110D01*
X3915119Y-108416D01*
X3914083Y-107381D01*
X3904390Y-100221D01*
X3903097Y-99536D01*
X3891597Y-95498D01*
X3890427Y-95241D01*
X3888108Y-95022D01*
X3887645Y-95000D01*
X3850318Y-95000D01*
X3849049Y-95412D01*
X3848750Y-95824D01*
X3848750Y-128432D01*
X3798750Y-128432D01*
X3798750Y-96568D01*
X3798338Y-95300D01*
X3797926Y-95000D01*
X3759856Y-95000D01*
X3759391Y-95022D01*
X3757073Y-95241D01*
X3755903Y-95498D01*
X3744403Y-99536D01*
X3743110Y-100221D01*
X3733416Y-107381D01*
X3732381Y-108416D01*
X3725221Y-118110D01*
X3724536Y-119403D01*
X3721334Y-128520D01*
X3721309Y-129617D01*
X3240050Y-129617D01*
X3240050Y-125369D01*
X3240050Y-125070D01*
X3239884Y-123700D01*
X3239065Y-116927D01*
X3239065Y-116927D01*
X3238988Y-116296D01*
X3233562Y-102591D01*
X3233136Y-102030D01*
X3225059Y-91388D01*
X3224650Y-90850D01*
X3221477Y-88441D01*
X3213447Y-82346D01*
X3213446Y-82346D01*
X3212909Y-81938D01*
X3199204Y-76512D01*
X3190430Y-75450D01*
X3161255Y-75450D01*
X3132070Y-75450D01*
X3131774Y-75486D01*
X3131773Y-75486D01*
X3123927Y-76435D01*
X3123927Y-76435D01*
X3123296Y-76512D01*
X3109591Y-81938D01*
X3109054Y-82346D01*
X3109053Y-82346D01*
X3101023Y-88441D01*
X3097850Y-90850D01*
X3097441Y-91388D01*
X3089364Y-102030D01*
X3088938Y-102591D01*
X3083512Y-116296D01*
X3082450Y-125070D01*
X3082450Y-180930D01*
X3082486Y-181226D01*
X3082486Y-181226D01*
X3083270Y-187704D01*
X3083512Y-189704D01*
X3088938Y-203409D01*
X3089346Y-203946D01*
X3089346Y-203947D01*
X3096735Y-213682D01*
X3097850Y-215150D01*
X3098388Y-215559D01*
X3107283Y-222310D01*
X3109591Y-224062D01*
X3123296Y-229488D01*
X3132070Y-230550D01*
X3134992Y-230550D01*
X3170989Y-230550D01*
X3176808Y-232441D01*
X3177989Y-233449D01*
X3193089Y-248550D01*
X3195867Y-254001D01*
X3194910Y-260044D01*
X3190583Y-264371D01*
X3186089Y-265450D01*
X3135863Y-265450D01*
X3131070Y-265450D01*
X3130774Y-265486D01*
X3130773Y-265486D01*
X3122927Y-266435D01*
X3122927Y-266435D01*
X3122296Y-266512D01*
X3108591Y-271938D01*
X3108054Y-272346D01*
X3108053Y-272346D01*
X3097388Y-280441D01*
X3096850Y-280850D01*
X3096441Y-281388D01*
X3089014Y-291174D01*
X3087938Y-292591D01*
X3082512Y-306296D01*
X3081450Y-315070D01*
X3081450Y-370930D01*
X3081486Y-371226D01*
X3081486Y-371226D01*
X3082281Y-377797D01*
X3082512Y-379704D01*
X3087938Y-393409D01*
X3088346Y-393946D01*
X3088346Y-393947D01*
X3096358Y-404502D01*
X3096850Y-405150D01*
X3097388Y-405559D01*
X3108053Y-413654D01*
X3108591Y-414062D01*
X3109218Y-414310D01*
X3109219Y-414310D01*
X3109945Y-414598D01*
X3114659Y-418498D01*
X3116200Y-423803D01*
X3116200Y-447593D01*
X3114309Y-453412D01*
X3110717Y-456199D01*
X3110807Y-456358D01*
X3110218Y-456690D01*
X3109591Y-456938D01*
X3109054Y-457346D01*
X3109053Y-457346D01*
X3100622Y-463746D01*
X3097850Y-465850D01*
X3097441Y-466388D01*
X3089432Y-476941D01*
X3088938Y-477591D01*
X3083512Y-491296D01*
X3082450Y-500070D01*
X3082450Y-527850D01*
X3082450Y-544089D01*
X3080559Y-549908D01*
X3075609Y-553505D01*
X3069491Y-553505D01*
X3065550Y-551089D01*
X3060450Y-545989D01*
X3057672Y-540538D01*
X3057550Y-538989D01*
X3057550Y-500369D01*
X3057550Y-500070D01*
X3057271Y-497763D01*
X3056565Y-491927D01*
X3056565Y-491927D01*
X3056488Y-491296D01*
X3051062Y-477591D01*
X3050568Y-476941D01*
X3042559Y-466388D01*
X3042150Y-465850D01*
X3039378Y-463746D01*
X3030947Y-457346D01*
X3030946Y-457346D01*
X3030409Y-456938D01*
X3016704Y-451512D01*
X3007930Y-450450D01*
X2978755Y-450450D01*
X2949570Y-450450D01*
X2949274Y-450486D01*
X2949273Y-450486D01*
X2941427Y-451435D01*
X2941427Y-451435D01*
X2940796Y-451512D01*
X2927091Y-456938D01*
X2926554Y-457346D01*
X2926553Y-457346D01*
X2918122Y-463746D01*
X2915350Y-465850D01*
X2914941Y-466388D01*
X2906932Y-476941D01*
X2906438Y-477591D01*
X2901012Y-491296D01*
X2899950Y-500070D01*
X2899950Y-505050D01*
X2898059Y-510869D01*
X2893109Y-514465D01*
X2890050Y-514950D01*
X2837594Y-514950D01*
X2831774Y-513059D01*
X2828178Y-508109D01*
X2828178Y-501991D01*
X2831206Y-497788D01*
X2831096Y-497678D01*
X2831619Y-497155D01*
X2832215Y-496715D01*
X2834274Y-493928D01*
X2839824Y-486414D01*
X2839824Y-486413D01*
X2840263Y-485818D01*
X2844752Y-473037D01*
X2845050Y-469883D01*
X2845050Y-429117D01*
X2844752Y-425963D01*
X2840263Y-413182D01*
X2834220Y-405000D01*
X2832655Y-402881D01*
X2832215Y-402285D01*
X2831231Y-401559D01*
X2821914Y-394676D01*
X2821913Y-394676D01*
X2821318Y-394237D01*
X2808537Y-389748D01*
X2807936Y-389691D01*
X2807936Y-389691D01*
X2805614Y-389472D01*
X2805613Y-389472D01*
X2805383Y-389450D01*
X2677261Y-389450D01*
X2671442Y-387559D01*
X2670261Y-386550D01*
X2654337Y-370627D01*
X2899000Y-370627D01*
X2899036Y-371222D01*
X2899984Y-379060D01*
X2900295Y-380283D01*
X2905234Y-392757D01*
X2905890Y-393922D01*
X2913977Y-404576D01*
X2914924Y-405523D01*
X2925578Y-413610D01*
X2926743Y-414266D01*
X2939217Y-419205D01*
X2940440Y-419516D01*
X2948278Y-420464D01*
X2948873Y-420500D01*
X2951182Y-420500D01*
X2952450Y-420088D01*
X2952750Y-419676D01*
X2952750Y-418932D01*
X3002750Y-418932D01*
X3003162Y-420200D01*
X3003574Y-420500D01*
X3006627Y-420500D01*
X3007222Y-420464D01*
X3015060Y-419516D01*
X3016283Y-419205D01*
X3028757Y-414266D01*
X3029922Y-413610D01*
X3040576Y-405523D01*
X3041523Y-404576D01*
X3049610Y-393922D01*
X3050266Y-392757D01*
X3055205Y-380283D01*
X3055516Y-379060D01*
X3056464Y-371222D01*
X3056500Y-370627D01*
X3056500Y-369568D01*
X3056088Y-368299D01*
X3055676Y-368000D01*
X3004318Y-368000D01*
X3003049Y-368412D01*
X3002750Y-368824D01*
X3002750Y-418932D01*
X2952750Y-418932D01*
X2952750Y-369568D01*
X2952338Y-368299D01*
X2951926Y-368000D01*
X2900568Y-368000D01*
X2899299Y-368412D01*
X2899000Y-368824D01*
X2899000Y-370627D01*
X2654337Y-370627D01*
X2631700Y-347989D01*
X2628922Y-342538D01*
X2628800Y-340989D01*
X2628800Y-316432D01*
X2899000Y-316432D01*
X2899412Y-317701D01*
X2899824Y-318000D01*
X2951182Y-318000D01*
X2952450Y-317588D01*
X2952750Y-317176D01*
X2952750Y-316432D01*
X3002750Y-316432D01*
X3003162Y-317701D01*
X3003574Y-318000D01*
X3054932Y-318000D01*
X3056200Y-317588D01*
X3056500Y-317176D01*
X3056500Y-315373D01*
X3056464Y-314778D01*
X3055516Y-306940D01*
X3055205Y-305717D01*
X3050266Y-293243D01*
X3049610Y-292078D01*
X3041523Y-281424D01*
X3040576Y-280477D01*
X3029922Y-272390D01*
X3028757Y-271734D01*
X3016283Y-266795D01*
X3015060Y-266484D01*
X3007222Y-265536D01*
X3006627Y-265500D01*
X3004318Y-265500D01*
X3003049Y-265912D01*
X3002750Y-266324D01*
X3002750Y-316432D01*
X2952750Y-316432D01*
X2952750Y-267068D01*
X2952338Y-265800D01*
X2951926Y-265500D01*
X2948873Y-265500D01*
X2948278Y-265536D01*
X2940440Y-266484D01*
X2939217Y-266795D01*
X2926743Y-271734D01*
X2925578Y-272390D01*
X2914924Y-280477D01*
X2913977Y-281424D01*
X2905890Y-292078D01*
X2905234Y-293243D01*
X2900295Y-305717D01*
X2899984Y-306940D01*
X2899036Y-314778D01*
X2899000Y-315373D01*
X2899000Y-316432D01*
X2628800Y-316432D01*
X2628800Y-233386D01*
X2630691Y-227567D01*
X2635056Y-224182D01*
X2640409Y-222062D01*
X2641005Y-221610D01*
X2651612Y-213559D01*
X2652150Y-213150D01*
X2652599Y-212559D01*
X2660654Y-201947D01*
X2660654Y-201946D01*
X2661062Y-201409D01*
X2661310Y-200781D01*
X2661404Y-200615D01*
X2665908Y-196474D01*
X2671986Y-195771D01*
X2677317Y-198774D01*
X2678654Y-200615D01*
X2679390Y-201922D01*
X2687477Y-212576D01*
X2688424Y-213523D01*
X2699078Y-221610D01*
X2700243Y-222266D01*
X2712717Y-227205D01*
X2713940Y-227516D01*
X2721778Y-228464D01*
X2722373Y-228500D01*
X2729682Y-228500D01*
X2730951Y-228088D01*
X2731250Y-227676D01*
X2731250Y-226932D01*
X2781250Y-226932D01*
X2781662Y-228200D01*
X2782074Y-228500D01*
X2790127Y-228500D01*
X2790722Y-228464D01*
X2798560Y-227516D01*
X2799783Y-227205D01*
X2812257Y-222266D01*
X2813422Y-221610D01*
X2824077Y-213522D01*
X2825022Y-212577D01*
X2826717Y-210344D01*
X2831741Y-206852D01*
X2837858Y-206980D01*
X2839326Y-207629D01*
X2844178Y-210263D01*
X2854023Y-215609D01*
X2859771Y-217117D01*
X2869846Y-219760D01*
X2869847Y-219760D01*
X2870423Y-219912D01*
X2871019Y-219921D01*
X2871020Y-219921D01*
X2878900Y-220045D01*
X2887376Y-220178D01*
X2887957Y-220045D01*
X2887958Y-220045D01*
X2903321Y-216526D01*
X2903321Y-216526D01*
X2903903Y-216393D01*
X2904436Y-216125D01*
X2904437Y-216124D01*
X2906257Y-215209D01*
X2912305Y-214283D01*
X2916691Y-216167D01*
X2927091Y-224062D01*
X2940796Y-229488D01*
X2949570Y-230550D01*
X2978745Y-230550D01*
X3007930Y-230550D01*
X3008226Y-230514D01*
X3008226Y-230514D01*
X3016072Y-229565D01*
X3016073Y-229565D01*
X3016704Y-229488D01*
X3030409Y-224062D01*
X3032717Y-222310D01*
X3041612Y-215559D01*
X3042150Y-215150D01*
X3043265Y-213682D01*
X3050654Y-203947D01*
X3050654Y-203946D01*
X3051062Y-203409D01*
X3056488Y-189704D01*
X3057550Y-180930D01*
X3057550Y-125070D01*
X3057384Y-123700D01*
X3056565Y-116927D01*
X3056565Y-116927D01*
X3056488Y-116296D01*
X3051062Y-102591D01*
X3050636Y-102030D01*
X3042559Y-91388D01*
X3042150Y-90850D01*
X3038977Y-88441D01*
X3030947Y-82346D01*
X3030946Y-82346D01*
X3030409Y-81938D01*
X3016704Y-76512D01*
X3007930Y-75450D01*
X2978755Y-75450D01*
X2949570Y-75450D01*
X2949274Y-75486D01*
X2949273Y-75486D01*
X2941427Y-76435D01*
X2941427Y-76435D01*
X2940796Y-76512D01*
X2927091Y-81938D01*
X2921470Y-86205D01*
X2915692Y-88217D01*
X2910852Y-87068D01*
X2908217Y-85673D01*
X2905288Y-84122D01*
X2896592Y-81938D01*
X2889423Y-80137D01*
X2889423Y-80137D01*
X2888844Y-79992D01*
X2880284Y-79947D01*
X2872486Y-79906D01*
X2872486Y-79906D01*
X2871889Y-79903D01*
X2871310Y-80042D01*
X2871309Y-80042D01*
X2861714Y-82346D01*
X2855403Y-83861D01*
X2851540Y-85855D01*
X2840867Y-91364D01*
X2840867Y-91364D01*
X2840337Y-91637D01*
X2839887Y-92030D01*
X2839393Y-92365D01*
X2839273Y-92188D01*
X2834490Y-94227D01*
X2828527Y-92860D01*
X2825727Y-90351D01*
X2825022Y-89423D01*
X2824077Y-88477D01*
X2813422Y-80390D01*
X2812257Y-79734D01*
X2799783Y-74795D01*
X2798560Y-74484D01*
X2790722Y-73536D01*
X2790127Y-73500D01*
X2782818Y-73500D01*
X2781550Y-73912D01*
X2781250Y-74324D01*
X2781250Y-226932D01*
X2731250Y-226932D01*
X2731250Y-75068D01*
X2730838Y-73800D01*
X2730426Y-73500D01*
X2722373Y-73500D01*
X2721778Y-73536D01*
X2713940Y-74484D01*
X2712717Y-74795D01*
X2700243Y-79734D01*
X2699078Y-80390D01*
X2688424Y-88477D01*
X2687477Y-89424D01*
X2679390Y-100078D01*
X2678654Y-101385D01*
X2674150Y-105526D01*
X2668072Y-106229D01*
X2662742Y-103226D01*
X2661404Y-101385D01*
X2661310Y-101218D01*
X2661062Y-100591D01*
X2660545Y-99910D01*
X2652559Y-89388D01*
X2652150Y-88850D01*
X2650833Y-87850D01*
X2640947Y-80346D01*
X2640946Y-80346D01*
X2640409Y-79938D01*
X2626704Y-74512D01*
X2617930Y-73450D01*
X2583756Y-73450D01*
X2549570Y-73450D01*
X2549274Y-73486D01*
X2549274Y-73486D01*
X2541428Y-74435D01*
X2541427Y-74435D01*
X2540796Y-74512D01*
X2527091Y-79938D01*
X2526554Y-80346D01*
X2526553Y-80346D01*
X2516667Y-87850D01*
X2515350Y-88850D01*
X2514941Y-89388D01*
X2514548Y-89906D01*
X2506438Y-100591D01*
X2506300Y-100486D01*
X2502423Y-104051D01*
X2498302Y-104950D01*
X2432262Y-104950D01*
X2426442Y-103059D01*
X2423730Y-100015D01*
X2423562Y-99591D01*
X2414650Y-87850D01*
X2412841Y-86477D01*
X2403447Y-79346D01*
X2403446Y-79346D01*
X2402909Y-78938D01*
X2389204Y-73512D01*
X2380430Y-72450D01*
X2351255Y-72450D01*
X2322070Y-72450D01*
X2321774Y-72486D01*
X2321774Y-72486D01*
X2313928Y-73435D01*
X2313927Y-73435D01*
X2313296Y-73512D01*
X2299591Y-78938D01*
X2299054Y-79346D01*
X2299053Y-79346D01*
X2289659Y-86477D01*
X2287850Y-87850D01*
X2287441Y-88388D01*
X2280086Y-98078D01*
X2278938Y-99591D01*
X2273512Y-113296D01*
X2272450Y-122070D01*
X2272450Y-177930D01*
X2272486Y-178226D01*
X2272486Y-178226D01*
X2272813Y-180930D01*
X2273512Y-186704D01*
X2278938Y-200409D01*
X2279346Y-200946D01*
X2279346Y-200947D01*
X2287374Y-211523D01*
X2287850Y-212150D01*
X2288388Y-212559D01*
X2298601Y-220310D01*
X2299591Y-221062D01*
X2313296Y-226488D01*
X2322070Y-227550D01*
X2351245Y-227550D01*
X2380430Y-227550D01*
X2380726Y-227514D01*
X2380727Y-227514D01*
X2388573Y-226565D01*
X2388573Y-226565D01*
X2389204Y-226488D01*
X2402909Y-221062D01*
X2403899Y-220310D01*
X2414112Y-212559D01*
X2414650Y-212150D01*
X2416148Y-210176D01*
X2422413Y-201922D01*
X2423562Y-200409D01*
X2423718Y-200015D01*
X2428140Y-195948D01*
X2432262Y-195050D01*
X2497192Y-195050D01*
X2503011Y-196941D01*
X2505632Y-200320D01*
X2505858Y-200193D01*
X2506190Y-200782D01*
X2506438Y-201409D01*
X2506846Y-201946D01*
X2506846Y-201947D01*
X2514901Y-212559D01*
X2515350Y-213150D01*
X2515888Y-213559D01*
X2526496Y-221610D01*
X2527091Y-222062D01*
X2532445Y-224182D01*
X2537159Y-228082D01*
X2538700Y-233386D01*
X2538700Y-360487D01*
X2538631Y-361651D01*
X2538214Y-365181D01*
X2538347Y-365909D01*
X2538347Y-365909D01*
X2539275Y-370991D01*
X2539326Y-371298D01*
X2540205Y-377146D01*
X2540518Y-377797D01*
X2540648Y-378507D01*
X2543356Y-383722D01*
X2543370Y-383748D01*
X2543509Y-384026D01*
X2545749Y-388691D01*
X2545749Y-388691D01*
X2546069Y-389358D01*
X2546480Y-389802D01*
X2546632Y-390028D01*
X2546892Y-390529D01*
X2547323Y-391033D01*
X2551086Y-394796D01*
X2551355Y-395076D01*
X2554762Y-398762D01*
X2554763Y-398763D01*
X2555265Y-399306D01*
X2555871Y-399658D01*
X2556604Y-400314D01*
X2607050Y-450761D01*
X2609828Y-456212D01*
X2609950Y-457761D01*
X2609950Y-469883D01*
X2610248Y-473037D01*
X2614737Y-485818D01*
X2615176Y-486413D01*
X2615176Y-486414D01*
X2620726Y-493928D01*
X2622785Y-496715D01*
X2623381Y-497155D01*
X2633682Y-504763D01*
X2633579Y-504902D01*
X2637206Y-508644D01*
X2638069Y-514702D01*
X2635206Y-520109D01*
X2633672Y-521224D01*
X2633682Y-521237D01*
X2623722Y-528593D01*
X2622785Y-529285D01*
X2622345Y-529881D01*
X2615618Y-538988D01*
X2614737Y-540182D01*
X2610248Y-552963D01*
X2610191Y-553564D01*
X2610191Y-553564D01*
X2610017Y-555412D01*
X2609950Y-556117D01*
X2609950Y-596883D01*
X2609972Y-597114D01*
X2609972Y-597115D01*
X2610088Y-598347D01*
X2610248Y-600037D01*
X2614737Y-612818D01*
X2615176Y-613414D01*
X2615176Y-613414D01*
X2620341Y-620407D01*
X2622785Y-623715D01*
X2623381Y-624155D01*
X2633682Y-631763D01*
X2633579Y-631902D01*
X2637206Y-635644D01*
X2638069Y-641702D01*
X2635206Y-647109D01*
X2633672Y-648224D01*
X2633682Y-648237D01*
X2622785Y-656285D01*
X2622634Y-656081D01*
X2618224Y-658328D01*
X2616675Y-658450D01*
X2323325Y-658450D01*
X2317506Y-656559D01*
X2317267Y-656355D01*
X2317215Y-656285D01*
X2316992Y-656120D01*
X2316992Y-656120D01*
X2306318Y-648237D01*
X2306421Y-648098D01*
X2302794Y-644356D01*
X2301931Y-638298D01*
X2304794Y-632891D01*
X2306328Y-631776D01*
X2306318Y-631763D01*
X2316619Y-624155D01*
X2317215Y-623715D01*
X2319659Y-620407D01*
X2324824Y-613414D01*
X2324824Y-613414D01*
X2325263Y-612818D01*
X2329752Y-600037D01*
X2329912Y-598347D01*
X2330028Y-597115D01*
X2330028Y-597114D01*
X2330050Y-596883D01*
X2330050Y-556117D01*
X2329984Y-555412D01*
X2329809Y-553564D01*
X2329809Y-553564D01*
X2329752Y-552963D01*
X2325263Y-540182D01*
X2324382Y-538988D01*
X2317655Y-529881D01*
X2317215Y-529285D01*
X2316619Y-528845D01*
X2315272Y-527850D01*
X2311715Y-522872D01*
X2311763Y-516754D01*
X2315398Y-511832D01*
X2321232Y-509987D01*
X2325878Y-511186D01*
X2334024Y-515609D01*
X2338386Y-516754D01*
X2349846Y-519760D01*
X2349847Y-519760D01*
X2350423Y-519912D01*
X2351019Y-519921D01*
X2351020Y-519921D01*
X2358897Y-520045D01*
X2367376Y-520178D01*
X2367958Y-520045D01*
X2367958Y-520045D01*
X2383321Y-516526D01*
X2383321Y-516526D01*
X2383903Y-516393D01*
X2385033Y-515824D01*
X2393079Y-511778D01*
X2399050Y-508775D01*
X2399504Y-508387D01*
X2399504Y-508387D01*
X2411489Y-498151D01*
X2411489Y-498150D01*
X2411942Y-497763D01*
X2413124Y-496119D01*
X2421488Y-484480D01*
X2421488Y-484479D01*
X2421836Y-483995D01*
X2422212Y-483059D01*
X2427938Y-468817D01*
X2427938Y-468816D01*
X2428160Y-468263D01*
X2428313Y-467191D01*
X2430503Y-451798D01*
X2430503Y-451798D01*
X2430549Y-451478D01*
X2430565Y-450000D01*
X2429035Y-437357D01*
X2428599Y-433760D01*
X2428599Y-433760D01*
X2428528Y-433168D01*
X2422535Y-417308D01*
X2421830Y-416283D01*
X2413269Y-403827D01*
X2412931Y-403335D01*
X2400272Y-392056D01*
X2385288Y-384122D01*
X2374125Y-381318D01*
X2369423Y-380137D01*
X2369423Y-380137D01*
X2368844Y-379992D01*
X2360284Y-379947D01*
X2352486Y-379906D01*
X2352486Y-379906D01*
X2351890Y-379903D01*
X2351310Y-380042D01*
X2351310Y-380042D01*
X2340570Y-382621D01*
X2335403Y-383861D01*
X2333294Y-384950D01*
X2320868Y-391364D01*
X2320867Y-391364D01*
X2320337Y-391637D01*
X2319887Y-392030D01*
X2319887Y-392030D01*
X2318227Y-393478D01*
X2312599Y-395879D01*
X2307086Y-394767D01*
X2306913Y-394676D01*
X2306318Y-394237D01*
X2304160Y-393478D01*
X2300944Y-392349D01*
X2293537Y-389748D01*
X2292936Y-389691D01*
X2292936Y-389691D01*
X2290615Y-389472D01*
X2290614Y-389472D01*
X2290383Y-389450D01*
X2134617Y-389450D01*
X2134387Y-389472D01*
X2134386Y-389472D01*
X2132064Y-389691D01*
X2132064Y-389691D01*
X2131463Y-389748D01*
X2118682Y-394237D01*
X2118087Y-394676D01*
X2118086Y-394676D01*
X2108769Y-401559D01*
X2107785Y-402285D01*
X2107345Y-402881D01*
X2105780Y-405000D01*
X2099737Y-413182D01*
X2095248Y-425963D01*
X2094950Y-429117D01*
X2094950Y-469883D01*
X2095248Y-473037D01*
X2099737Y-485818D01*
X2100176Y-486413D01*
X2100176Y-486414D01*
X2105726Y-493928D01*
X2107785Y-496715D01*
X2108381Y-497155D01*
X2118682Y-504763D01*
X2118579Y-504902D01*
X2122206Y-508644D01*
X2123069Y-514702D01*
X2120206Y-520109D01*
X2118672Y-521224D01*
X2118682Y-521237D01*
X2111886Y-526256D01*
X2106082Y-528193D01*
X2100248Y-526348D01*
X2099004Y-525293D01*
X2074162Y-500452D01*
X2073388Y-499580D01*
X2071645Y-497370D01*
X2071187Y-496789D01*
X2066325Y-493429D01*
X2066073Y-493248D01*
X2061914Y-490176D01*
X2061914Y-490176D01*
X2061318Y-489737D01*
X2060637Y-489497D01*
X2060043Y-489087D01*
X2059337Y-488864D01*
X2059337Y-488864D01*
X2056636Y-488009D01*
X2054407Y-487304D01*
X2054119Y-487208D01*
X2048537Y-485248D01*
X2047933Y-485224D01*
X2047665Y-485172D01*
X2047127Y-485002D01*
X2046466Y-484950D01*
X2041146Y-484950D01*
X2040757Y-484942D01*
X2035740Y-484745D01*
X2035739Y-484745D01*
X2035001Y-484716D01*
X2034323Y-484896D01*
X2033340Y-484950D01*
X1892261Y-484950D01*
X1886442Y-483059D01*
X1883730Y-480015D01*
X1883562Y-479591D01*
X1874650Y-467850D01*
X1869243Y-463746D01*
X1863447Y-459346D01*
X1863446Y-459346D01*
X1862909Y-458938D01*
X1856555Y-456422D01*
X1851841Y-452522D01*
X1850300Y-447218D01*
X1850300Y-421386D01*
X1852191Y-415567D01*
X1856555Y-412182D01*
X1861909Y-410062D01*
X1867351Y-405931D01*
X1873112Y-401559D01*
X1873650Y-401150D01*
X1874323Y-400263D01*
X1882154Y-389947D01*
X1882154Y-389946D01*
X1882562Y-389409D01*
X1887988Y-375704D01*
X1889050Y-366930D01*
X1889050Y-311070D01*
X1888926Y-310050D01*
X1888065Y-302928D01*
X1888065Y-302927D01*
X1887988Y-302296D01*
X1882562Y-288591D01*
X1881639Y-287375D01*
X1874059Y-277388D01*
X1873650Y-276850D01*
X1869285Y-273537D01*
X1862447Y-268346D01*
X1862446Y-268346D01*
X1861909Y-267938D01*
X1848204Y-262512D01*
X1839430Y-261450D01*
X1805256Y-261450D01*
X1771070Y-261450D01*
X1770774Y-261486D01*
X1770773Y-261486D01*
X1762927Y-262435D01*
X1762927Y-262435D01*
X1762296Y-262512D01*
X1748591Y-267938D01*
X1748054Y-268346D01*
X1748053Y-268346D01*
X1741215Y-273537D01*
X1736850Y-276850D01*
X1727938Y-288591D01*
X1727690Y-289219D01*
X1727625Y-289333D01*
X1723121Y-293475D01*
X1717043Y-294178D01*
X1711712Y-291174D01*
X1710375Y-289333D01*
X1710310Y-289219D01*
X1710062Y-288591D01*
X1701150Y-276850D01*
X1696785Y-273537D01*
X1689947Y-268346D01*
X1689946Y-268346D01*
X1689409Y-267938D01*
X1682805Y-265324D01*
X1678091Y-261423D01*
X1676550Y-256119D01*
X1676550Y-227905D01*
X1678441Y-222086D01*
X1680464Y-220020D01*
X1691612Y-211559D01*
X1692150Y-211150D01*
X1693270Y-209674D01*
X1700654Y-199947D01*
X1700654Y-199946D01*
X1701062Y-199409D01*
X1706488Y-185704D01*
X1707550Y-176930D01*
X1707550Y-176627D01*
X1732500Y-176627D01*
X1732536Y-177222D01*
X1733484Y-185060D01*
X1733795Y-186283D01*
X1738734Y-198757D01*
X1739390Y-199922D01*
X1747477Y-210576D01*
X1748424Y-211523D01*
X1759078Y-219610D01*
X1760243Y-220266D01*
X1772717Y-225205D01*
X1773940Y-225516D01*
X1781778Y-226464D01*
X1782373Y-226500D01*
X1784682Y-226500D01*
X1785950Y-226088D01*
X1786250Y-225676D01*
X1786250Y-224932D01*
X1836250Y-224932D01*
X1836662Y-226200D01*
X1837074Y-226500D01*
X1840127Y-226500D01*
X1840722Y-226464D01*
X1848560Y-225516D01*
X1849783Y-225205D01*
X1862257Y-220266D01*
X1863422Y-219610D01*
X1874076Y-211523D01*
X1875023Y-210576D01*
X1883110Y-199922D01*
X1883766Y-198757D01*
X1888705Y-186283D01*
X1889016Y-185060D01*
X1889964Y-177222D01*
X1890000Y-176627D01*
X1890000Y-175568D01*
X1889588Y-174300D01*
X1889176Y-174000D01*
X1837818Y-174000D01*
X1836549Y-174412D01*
X1836250Y-174824D01*
X1836250Y-224932D01*
X1786250Y-224932D01*
X1786250Y-175568D01*
X1785838Y-174300D01*
X1785426Y-174000D01*
X1734068Y-174000D01*
X1732799Y-174412D01*
X1732500Y-174824D01*
X1732500Y-176627D01*
X1707550Y-176627D01*
X1707550Y-149261D01*
X2009439Y-149261D01*
X2009505Y-149854D01*
X2009505Y-149855D01*
X2010650Y-160229D01*
X2011300Y-166114D01*
X2017127Y-182036D01*
X2017459Y-182530D01*
X2017459Y-182531D01*
X2019159Y-185060D01*
X2026583Y-196108D01*
X2034606Y-203409D01*
X2037573Y-206108D01*
X2039123Y-207519D01*
X2054023Y-215609D01*
X2059771Y-217117D01*
X2069846Y-219760D01*
X2069847Y-219760D01*
X2070423Y-219912D01*
X2071019Y-219921D01*
X2071020Y-219921D01*
X2078900Y-220045D01*
X2087376Y-220178D01*
X2087957Y-220045D01*
X2087958Y-220045D01*
X2099636Y-217370D01*
X2103903Y-216393D01*
X2103912Y-216432D01*
X2109667Y-216252D01*
X2112889Y-217873D01*
X2115090Y-219543D01*
X2117091Y-221062D01*
X2117719Y-221310D01*
X2117719Y-221310D01*
X2119617Y-222062D01*
X2130796Y-226488D01*
X2139570Y-227550D01*
X2168745Y-227550D01*
X2197930Y-227550D01*
X2198226Y-227514D01*
X2198227Y-227514D01*
X2206073Y-226565D01*
X2206073Y-226565D01*
X2206704Y-226488D01*
X2220409Y-221062D01*
X2221399Y-220310D01*
X2231612Y-212559D01*
X2232150Y-212150D01*
X2232626Y-211523D01*
X2240654Y-200947D01*
X2240654Y-200946D01*
X2241062Y-200409D01*
X2246488Y-186704D01*
X2247550Y-177930D01*
X2247550Y-122070D01*
X2247466Y-121373D01*
X2246565Y-113927D01*
X2246565Y-113927D01*
X2246488Y-113296D01*
X2241062Y-99591D01*
X2239914Y-98078D01*
X2232559Y-88388D01*
X2232150Y-87850D01*
X2230341Y-86477D01*
X2220947Y-79346D01*
X2220946Y-79346D01*
X2220409Y-78938D01*
X2206704Y-73512D01*
X2197930Y-72450D01*
X2168755Y-72450D01*
X2139570Y-72450D01*
X2139274Y-72486D01*
X2139274Y-72486D01*
X2131428Y-73435D01*
X2131427Y-73435D01*
X2130796Y-73512D01*
X2117091Y-78938D01*
X2116554Y-79346D01*
X2116554Y-79346D01*
X2112811Y-82187D01*
X2107033Y-84199D01*
X2104414Y-83903D01*
X2096592Y-81938D01*
X2089423Y-80137D01*
X2089423Y-80137D01*
X2088844Y-79992D01*
X2080284Y-79947D01*
X2072486Y-79906D01*
X2072486Y-79906D01*
X2071889Y-79903D01*
X2071310Y-80042D01*
X2071309Y-80042D01*
X2061714Y-82346D01*
X2055403Y-83861D01*
X2051540Y-85855D01*
X2040867Y-91364D01*
X2040867Y-91364D01*
X2040337Y-91637D01*
X2027560Y-102783D01*
X2027217Y-103271D01*
X2027217Y-103271D01*
X2018154Y-116166D01*
X2017811Y-116655D01*
X2011652Y-132451D01*
X2009439Y-149261D01*
X1707550Y-149261D01*
X1707550Y-122432D01*
X1732500Y-122432D01*
X1732912Y-123700D01*
X1733324Y-124000D01*
X1784682Y-124000D01*
X1785950Y-123588D01*
X1786250Y-123176D01*
X1786250Y-122432D01*
X1836250Y-122432D01*
X1836662Y-123700D01*
X1837074Y-124000D01*
X1888432Y-124000D01*
X1889700Y-123588D01*
X1890000Y-123176D01*
X1890000Y-121373D01*
X1889964Y-120778D01*
X1889016Y-112940D01*
X1888705Y-111717D01*
X1883766Y-99243D01*
X1883110Y-98078D01*
X1875023Y-87424D01*
X1874076Y-86477D01*
X1863422Y-78390D01*
X1862257Y-77734D01*
X1849783Y-72795D01*
X1848560Y-72484D01*
X1840722Y-71536D01*
X1840127Y-71500D01*
X1837818Y-71500D01*
X1836549Y-71912D01*
X1836250Y-72324D01*
X1836250Y-122432D01*
X1786250Y-122432D01*
X1786250Y-73068D01*
X1785838Y-71800D01*
X1785426Y-71500D01*
X1782373Y-71500D01*
X1781778Y-71536D01*
X1773940Y-72484D01*
X1772717Y-72795D01*
X1760243Y-77734D01*
X1759078Y-78390D01*
X1748424Y-86477D01*
X1747477Y-87424D01*
X1739390Y-98078D01*
X1738734Y-99243D01*
X1733795Y-111717D01*
X1733484Y-112940D01*
X1732536Y-120778D01*
X1732500Y-121373D01*
X1732500Y-122432D01*
X1707550Y-122432D01*
X1707550Y-121070D01*
X1707261Y-118682D01*
X1706565Y-112927D01*
X1706565Y-112927D01*
X1706488Y-112296D01*
X1701062Y-98591D01*
X1698676Y-95448D01*
X1692559Y-87388D01*
X1692150Y-86850D01*
X1688029Y-83722D01*
X1680947Y-78346D01*
X1680946Y-78346D01*
X1680409Y-77938D01*
X1666704Y-72512D01*
X1657930Y-71450D01*
X1628755Y-71450D01*
X1599570Y-71450D01*
X1599274Y-71486D01*
X1599273Y-71486D01*
X1591427Y-72435D01*
X1591427Y-72435D01*
X1590796Y-72512D01*
X1577091Y-77938D01*
X1576554Y-78346D01*
X1576553Y-78346D01*
X1569471Y-83722D01*
X1565350Y-86850D01*
X1564941Y-87388D01*
X1558824Y-95448D01*
X1556438Y-98591D01*
X1551012Y-112296D01*
X1549950Y-121070D01*
X1549950Y-176930D01*
X1549986Y-177226D01*
X1549986Y-177226D01*
X1550434Y-180930D01*
X1551012Y-185704D01*
X1556438Y-199409D01*
X1556846Y-199946D01*
X1556846Y-199947D01*
X1564230Y-209674D01*
X1565350Y-211150D01*
X1565888Y-211559D01*
X1576495Y-219610D01*
X1577091Y-220062D01*
X1580194Y-221291D01*
X1584909Y-225191D01*
X1586450Y-230495D01*
X1586450Y-257109D01*
X1584559Y-262928D01*
X1580194Y-266313D01*
X1576091Y-267938D01*
X1575554Y-268346D01*
X1575553Y-268346D01*
X1568715Y-273537D01*
X1564350Y-276850D01*
X1563941Y-277388D01*
X1556361Y-287375D01*
X1555438Y-288591D01*
X1550012Y-302296D01*
X1548950Y-311070D01*
X1548950Y-366930D01*
X1549651Y-372724D01*
X1549789Y-373861D01*
X1548611Y-379865D01*
X1544129Y-384030D01*
X1539960Y-384950D01*
X1155359Y-384950D01*
X1149540Y-383059D01*
X1146018Y-378330D01*
X1145509Y-376880D01*
X1145509Y-376880D01*
X1145263Y-376182D01*
X1144444Y-375072D01*
X1137655Y-365881D01*
X1137215Y-365285D01*
X1132295Y-361651D01*
X1126914Y-357676D01*
X1126914Y-357676D01*
X1126318Y-357237D01*
X1113537Y-352748D01*
X1112936Y-352691D01*
X1112936Y-352691D01*
X1110615Y-352472D01*
X1110614Y-352472D01*
X1110383Y-352450D01*
X1069617Y-352450D01*
X1069387Y-352472D01*
X1069386Y-352472D01*
X1067064Y-352691D01*
X1067064Y-352691D01*
X1066463Y-352748D01*
X1053682Y-357237D01*
X1053087Y-357676D01*
X1053086Y-357676D01*
X1047705Y-361651D01*
X1042785Y-365285D01*
X1042345Y-365881D01*
X1035556Y-375072D01*
X1034737Y-376182D01*
X1030248Y-388963D01*
X1030191Y-389564D01*
X1030191Y-389564D01*
X1029995Y-391637D01*
X1029950Y-392117D01*
X1029950Y-520383D01*
X1029972Y-520613D01*
X1029972Y-520614D01*
X1030185Y-522872D01*
X1030248Y-523537D01*
X1030448Y-524106D01*
X1031758Y-527838D01*
X1031903Y-533955D01*
X1028424Y-538988D01*
X1022651Y-541016D01*
X1019702Y-540548D01*
X1019695Y-540577D01*
X1019204Y-540470D01*
X1019138Y-540459D01*
X1019107Y-540448D01*
X1019106Y-540448D01*
X1018537Y-540248D01*
X1017936Y-540191D01*
X1017936Y-540191D01*
X1015614Y-539972D01*
X1015613Y-539972D01*
X1015383Y-539950D01*
X974617Y-539950D01*
X974386Y-539972D01*
X974385Y-539972D01*
X972064Y-540191D01*
X972064Y-540191D01*
X971463Y-540248D01*
X958682Y-544737D01*
X947785Y-552785D01*
X947345Y-553381D01*
X941709Y-561012D01*
X939737Y-563682D01*
X935248Y-576463D01*
X935191Y-577064D01*
X935191Y-577064D01*
X935000Y-579087D01*
X934950Y-579617D01*
X934950Y-588800D01*
X933059Y-594619D01*
X928109Y-598216D01*
X925050Y-598700D01*
X909513Y-598700D01*
X908349Y-598631D01*
X908195Y-598613D01*
X904819Y-598214D01*
X899007Y-599275D01*
X898702Y-599326D01*
X896363Y-599678D01*
X893585Y-600095D01*
X893585Y-600095D01*
X892854Y-600205D01*
X892203Y-600518D01*
X891493Y-600647D01*
X889636Y-601612D01*
X886250Y-603370D01*
X885973Y-603509D01*
X881310Y-605748D01*
X881310Y-605749D01*
X880642Y-606069D01*
X880198Y-606479D01*
X879972Y-606632D01*
X879471Y-606892D01*
X878967Y-607323D01*
X875204Y-611086D01*
X874924Y-611355D01*
X871238Y-614762D01*
X871237Y-614763D01*
X870694Y-615265D01*
X870342Y-615871D01*
X869686Y-616604D01*
X800452Y-685838D01*
X799580Y-686612D01*
X796789Y-688813D01*
X793976Y-692883D01*
X793429Y-693674D01*
X793249Y-693926D01*
X789737Y-698682D01*
X789497Y-699363D01*
X789087Y-699957D01*
X788864Y-700663D01*
X788864Y-700663D01*
X787305Y-705591D01*
X787208Y-705881D01*
X785248Y-711463D01*
X785224Y-712067D01*
X785172Y-712335D01*
X785002Y-712873D01*
X784950Y-713534D01*
X784950Y-718854D01*
X784942Y-719243D01*
X784716Y-724999D01*
X784896Y-725677D01*
X784950Y-726660D01*
X784950Y-1640100D01*
X783059Y-1645919D01*
X778109Y-1649515D01*
X775050Y-1650000D01*
X100649Y-1650000D01*
X99357Y-1649915D01*
X88351Y-1648466D01*
X85855Y-1647797D01*
X76204Y-1643800D01*
X73966Y-1642508D01*
X65679Y-1636149D01*
X63851Y-1634321D01*
X57492Y-1626034D01*
X56200Y-1623796D01*
X52202Y-1614145D01*
X51534Y-1611649D01*
X50085Y-1600643D01*
X50000Y-1599351D01*
X50000Y-1327984D01*
X95954Y-1327984D01*
X96020Y-1328403D01*
X96092Y-1328499D01*
X98692Y-1330906D01*
X99118Y-1331258D01*
X127023Y-1351831D01*
X127486Y-1352135D01*
X157510Y-1369469D01*
X158004Y-1369718D01*
X189774Y-1383599D01*
X190290Y-1383790D01*
X223410Y-1394043D01*
X223947Y-1394177D01*
X258001Y-1400673D01*
X258550Y-1400746D01*
X293117Y-1403406D01*
X293668Y-1403417D01*
X328319Y-1402207D01*
X328867Y-1402157D01*
X363166Y-1397093D01*
X363707Y-1396982D01*
X397226Y-1388126D01*
X397752Y-1387955D01*
X430074Y-1375418D01*
X430579Y-1375189D01*
X461302Y-1359127D01*
X461777Y-1358844D01*
X490519Y-1339457D01*
X490960Y-1339122D01*
X503167Y-1328733D01*
X503866Y-1327597D01*
X503842Y-1327284D01*
X503669Y-1327025D01*
X301109Y-1124464D01*
X299920Y-1123859D01*
X299417Y-1123938D01*
X96559Y-1326796D01*
X95954Y-1327984D01*
X50000Y-1327984D01*
X50000Y-1301846D01*
X51891Y-1296027D01*
X56841Y-1292431D01*
X59071Y-1291981D01*
X60726Y-1291842D01*
X60959Y-1291685D01*
X263536Y-1089109D01*
X264060Y-1088080D01*
X335859Y-1088080D01*
X335938Y-1088583D01*
X538865Y-1291510D01*
X540054Y-1292115D01*
X540491Y-1292046D01*
X540561Y-1291994D01*
X541495Y-1290999D01*
X541850Y-1290575D01*
X562618Y-1262815D01*
X562924Y-1262354D01*
X580468Y-1232451D01*
X580720Y-1231960D01*
X594822Y-1200287D01*
X595017Y-1199772D01*
X605501Y-1166723D01*
X605638Y-1166191D01*
X612372Y-1132180D01*
X612449Y-1131633D01*
X615359Y-1096981D01*
X615376Y-1096636D01*
X615494Y-1088172D01*
X615487Y-1087829D01*
X613546Y-1053107D01*
X613484Y-1052560D01*
X607702Y-1018374D01*
X607580Y-1017837D01*
X598024Y-984510D01*
X597842Y-983988D01*
X584630Y-951934D01*
X584392Y-951436D01*
X567689Y-921055D01*
X567397Y-920586D01*
X547412Y-892257D01*
X547068Y-891823D01*
X540803Y-884766D01*
X539652Y-884091D01*
X539285Y-884127D01*
X539107Y-884249D01*
X336464Y-1086891D01*
X335859Y-1088080D01*
X264060Y-1088080D01*
X264142Y-1087920D01*
X264062Y-1087417D01*
X61262Y-884618D01*
X58834Y-883380D01*
X55406Y-882837D01*
X51079Y-878511D01*
X50000Y-874016D01*
X50000Y-848377D01*
X96116Y-848377D01*
X96148Y-848726D01*
X96287Y-848932D01*
X298891Y-1051536D01*
X300080Y-1052142D01*
X300583Y-1052062D01*
X503335Y-849310D01*
X503940Y-848122D01*
X503879Y-847739D01*
X503767Y-847593D01*
X497897Y-842308D01*
X497466Y-841960D01*
X469277Y-821779D01*
X468809Y-821482D01*
X438547Y-804569D01*
X438049Y-804327D01*
X406087Y-790891D01*
X405569Y-790707D01*
X372309Y-780917D01*
X371772Y-780792D01*
X337628Y-774771D01*
X337081Y-774706D01*
X302479Y-772529D01*
X301926Y-772525D01*
X267298Y-774218D01*
X266748Y-774276D01*
X232525Y-779819D01*
X231986Y-779938D01*
X198593Y-789261D01*
X198070Y-789439D01*
X165924Y-802427D01*
X165425Y-802662D01*
X134927Y-819152D01*
X134458Y-819441D01*
X105988Y-839228D01*
X105552Y-839568D01*
X96799Y-847231D01*
X96116Y-848377D01*
X50000Y-848377D01*
X50000Y-100649D01*
X50085Y-99357D01*
X51534Y-88351D01*
X52202Y-85855D01*
X56200Y-76204D01*
X57492Y-73966D01*
X63851Y-65679D01*
X65679Y-63851D01*
X73966Y-57492D01*
X76204Y-56200D01*
X85855Y-52202D01*
X88351Y-51534D01*
X99357Y-50085D01*
X100649Y-50000D01*
X5299351Y-50000D01*
X5300643Y-50085D01*
G37*
%TD.AperFunction*%
%TA.AperFunction,Conductor*%
G36*
X949619Y-1751891D02*
G01*
X953215Y-1756841D01*
X953700Y-1759900D01*
X953700Y-2900487D01*
X953631Y-2901651D01*
X953214Y-2905181D01*
X953346Y-2905909D01*
X953346Y-2905909D01*
X954275Y-2910991D01*
X954326Y-2911298D01*
X955205Y-2917146D01*
X955518Y-2917797D01*
X955647Y-2918507D01*
X958370Y-2923748D01*
X958509Y-2924026D01*
X960749Y-2928691D01*
X960749Y-2928691D01*
X961069Y-2929358D01*
X961480Y-2929802D01*
X961632Y-2930028D01*
X961892Y-2930529D01*
X962322Y-2931033D01*
X966086Y-2934796D01*
X966355Y-2935076D01*
X969762Y-2938762D01*
X969763Y-2938763D01*
X970265Y-2939306D01*
X970871Y-2939658D01*
X971603Y-2940314D01*
X1371051Y-3339761D01*
X1373828Y-3345212D01*
X1373950Y-3346761D01*
X1373950Y-3358983D01*
X1374240Y-3362050D01*
X1374440Y-3362618D01*
X1374440Y-3362619D01*
X1378359Y-3373779D01*
X1378604Y-3374477D01*
X1386429Y-3385071D01*
X1397023Y-3392896D01*
X1409450Y-3397260D01*
X1410050Y-3397317D01*
X1410051Y-3397317D01*
X1412286Y-3397528D01*
X1412287Y-3397528D01*
X1412517Y-3397550D01*
X1483969Y-3397550D01*
X1555483Y-3397550D01*
X1558550Y-3397260D01*
X1559118Y-3397060D01*
X1559119Y-3397060D01*
X1570279Y-3393141D01*
X1570977Y-3392896D01*
X1581571Y-3385071D01*
X1589396Y-3374477D01*
X1593760Y-3362050D01*
X1593817Y-3361449D01*
X1594028Y-3359214D01*
X1594028Y-3359213D01*
X1594050Y-3358983D01*
X1594050Y-3321017D01*
X1593760Y-3317950D01*
X1593560Y-3317381D01*
X1589641Y-3306221D01*
X1589396Y-3305523D01*
X1581571Y-3294929D01*
X1570977Y-3287104D01*
X1558550Y-3282740D01*
X1557950Y-3282683D01*
X1557949Y-3282683D01*
X1555714Y-3282472D01*
X1555713Y-3282472D01*
X1555483Y-3282450D01*
X1549349Y-3282450D01*
X1445261Y-3282450D01*
X1439442Y-3280559D01*
X1438261Y-3279550D01*
X1046700Y-2887989D01*
X1043922Y-2882538D01*
X1043800Y-2880989D01*
X1043800Y-2655597D01*
X1333766Y-2655597D01*
X1335080Y-2678383D01*
X1335169Y-2678779D01*
X1339708Y-2698921D01*
X1340098Y-2700649D01*
X1340250Y-2701026D01*
X1340251Y-2701026D01*
X1346828Y-2717224D01*
X1348685Y-2721796D01*
X1348897Y-2722143D01*
X1348897Y-2722143D01*
X1354363Y-2731062D01*
X1360610Y-2741257D01*
X1360876Y-2741564D01*
X1360876Y-2741565D01*
X1364743Y-2746028D01*
X1375554Y-2758509D01*
X1393115Y-2773088D01*
X1412821Y-2784603D01*
X1434143Y-2792746D01*
X1456509Y-2797296D01*
X1456915Y-2797311D01*
X1456915Y-2797311D01*
X1462602Y-2797519D01*
X1479318Y-2798132D01*
X1479720Y-2798081D01*
X1479720Y-2798081D01*
X1495934Y-2796004D01*
X1501957Y-2795232D01*
X1502346Y-2795116D01*
X1502346Y-2795116D01*
X1523430Y-2788790D01*
X1523430Y-2788790D01*
X1523818Y-2788674D01*
X1544315Y-2778632D01*
X1562897Y-2765378D01*
X1579064Y-2749267D01*
X1584599Y-2741565D01*
X1592145Y-2731062D01*
X1592146Y-2731062D01*
X1592383Y-2730732D01*
X1592562Y-2730369D01*
X1592563Y-2730368D01*
X1602315Y-2710635D01*
X1602315Y-2710635D01*
X1602495Y-2710271D01*
X1608455Y-2690655D01*
X1609012Y-2688821D01*
X1609012Y-2688821D01*
X1609130Y-2688432D01*
X1609220Y-2687755D01*
X1610545Y-2677683D01*
X1612109Y-2665804D01*
X1612276Y-2659000D01*
X1612254Y-2658737D01*
X1610439Y-2636657D01*
X1610439Y-2636657D01*
X1610405Y-2636253D01*
X1609665Y-2633306D01*
X1604944Y-2614511D01*
X1604845Y-2614116D01*
X1595744Y-2593185D01*
X1583347Y-2574022D01*
X1567986Y-2557140D01*
X1567667Y-2556889D01*
X1567667Y-2556888D01*
X1550393Y-2543246D01*
X1550392Y-2543246D01*
X1550074Y-2542994D01*
X1530092Y-2531964D01*
X1529710Y-2531828D01*
X1529709Y-2531828D01*
X1508960Y-2524480D01*
X1508960Y-2524480D01*
X1508577Y-2524345D01*
X1508178Y-2524274D01*
X1486507Y-2520414D01*
X1486507Y-2520414D01*
X1486107Y-2520342D01*
X1485701Y-2520337D01*
X1485700Y-2520337D01*
X1475256Y-2520210D01*
X1463285Y-2520064D01*
X1440723Y-2523516D01*
X1429040Y-2527335D01*
X1419414Y-2530481D01*
X1419414Y-2530481D01*
X1419028Y-2530607D01*
X1418668Y-2530794D01*
X1399144Y-2540958D01*
X1399143Y-2540958D01*
X1398783Y-2541146D01*
X1380531Y-2554850D01*
X1364763Y-2571351D01*
X1351901Y-2590206D01*
X1351729Y-2590575D01*
X1351729Y-2590575D01*
X1344630Y-2605869D01*
X1342291Y-2610908D01*
X1336191Y-2632902D01*
X1333766Y-2655597D01*
X1043800Y-2655597D01*
X1043800Y-2444164D01*
X2060000Y-2444164D01*
X2060035Y-2444749D01*
X2060223Y-2446335D01*
X2060613Y-2447752D01*
X2064477Y-2456451D01*
X2065495Y-2457932D01*
X2072111Y-2464537D01*
X2073593Y-2465552D01*
X2082298Y-2469400D01*
X2083718Y-2469787D01*
X2085258Y-2469967D01*
X2085829Y-2470000D01*
X2383432Y-2470000D01*
X2384701Y-2469588D01*
X2385000Y-2469176D01*
X2385000Y-2176568D01*
X2384588Y-2175300D01*
X2384176Y-2175000D01*
X2061568Y-2175000D01*
X2060299Y-2175412D01*
X2060000Y-2175824D01*
X2060000Y-2444164D01*
X1043800Y-2444164D01*
X1043800Y-2138472D01*
X1394425Y-2138472D01*
X1395107Y-2139194D01*
X1412492Y-2149353D01*
X1413222Y-2149703D01*
X1433778Y-2157553D01*
X1434555Y-2157778D01*
X1456117Y-2162165D01*
X1456921Y-2162261D01*
X1478910Y-2163067D01*
X1479718Y-2163031D01*
X1501543Y-2160235D01*
X1502336Y-2160066D01*
X1523410Y-2153744D01*
X1524165Y-2153448D01*
X1543925Y-2143768D01*
X1544620Y-2143353D01*
X1550568Y-2139111D01*
X1551361Y-2138038D01*
X1551362Y-2137952D01*
X1551001Y-2137356D01*
X1537077Y-2123432D01*
X2060000Y-2123432D01*
X2060412Y-2124701D01*
X2060824Y-2125000D01*
X2383432Y-2125000D01*
X2384701Y-2124588D01*
X2385000Y-2124176D01*
X2385000Y-1831568D01*
X2384588Y-1830299D01*
X2384176Y-1830000D01*
X2085836Y-1830000D01*
X2085251Y-1830035D01*
X2083665Y-1830223D01*
X2082248Y-1830613D01*
X2073549Y-1834477D01*
X2072068Y-1835495D01*
X2065463Y-1842111D01*
X2064448Y-1843593D01*
X2060600Y-1852298D01*
X2060213Y-1853718D01*
X2060033Y-1855258D01*
X2060000Y-1855829D01*
X2060000Y-2123432D01*
X1537077Y-2123432D01*
X1474109Y-2060464D01*
X1472920Y-2059858D01*
X1472417Y-2059938D01*
X1394987Y-2137368D01*
X1394425Y-2138472D01*
X1043800Y-2138472D01*
X1043800Y-2021004D01*
X1333840Y-2021004D01*
X1335106Y-2042971D01*
X1335219Y-2043772D01*
X1340056Y-2065238D01*
X1340298Y-2066011D01*
X1348576Y-2086397D01*
X1348942Y-2087121D01*
X1357843Y-2101646D01*
X1358812Y-2102473D01*
X1359630Y-2102015D01*
X1436536Y-2025109D01*
X1437060Y-2024080D01*
X1508858Y-2024080D01*
X1508938Y-2024583D01*
X1586097Y-2101742D01*
X1587286Y-2102347D01*
X1587380Y-2102333D01*
X1587897Y-2101888D01*
X1592102Y-2096037D01*
X1592519Y-2095342D01*
X1602268Y-2075617D01*
X1602567Y-2074863D01*
X1608963Y-2053811D01*
X1609134Y-2053019D01*
X1612025Y-2031063D01*
X1612066Y-2030537D01*
X1612219Y-2024264D01*
X1612204Y-2023737D01*
X1610389Y-2001666D01*
X1610257Y-2000867D01*
X1604897Y-1979527D01*
X1604635Y-1978759D01*
X1595862Y-1958582D01*
X1595479Y-1957867D01*
X1588085Y-1946439D01*
X1587066Y-1945610D01*
X1586309Y-1946047D01*
X1509464Y-2022891D01*
X1508858Y-2024080D01*
X1437060Y-2024080D01*
X1437141Y-2023920D01*
X1437062Y-2023417D01*
X1359919Y-1946274D01*
X1358730Y-1945669D01*
X1358701Y-1945673D01*
X1358108Y-1946195D01*
X1352173Y-1954895D01*
X1351773Y-1955599D01*
X1342509Y-1975557D01*
X1342229Y-1976318D01*
X1336349Y-1997520D01*
X1336197Y-1998316D01*
X1333859Y-2020194D01*
X1333840Y-2021004D01*
X1043800Y-2021004D01*
X1043800Y-1909883D01*
X1394576Y-1909883D01*
X1394578Y-1910035D01*
X1394889Y-1910534D01*
X1471891Y-1987536D01*
X1473080Y-1988141D01*
X1473583Y-1988062D01*
X1550928Y-1910717D01*
X1551533Y-1909528D01*
X1551499Y-1909314D01*
X1551196Y-1908944D01*
X1550365Y-1908288D01*
X1549691Y-1907840D01*
X1530427Y-1897206D01*
X1529688Y-1896874D01*
X1508948Y-1889529D01*
X1508164Y-1889322D01*
X1486501Y-1885463D01*
X1485697Y-1885387D01*
X1463694Y-1885119D01*
X1462886Y-1885175D01*
X1441137Y-1888503D01*
X1440348Y-1888691D01*
X1419434Y-1895527D01*
X1418688Y-1895840D01*
X1399170Y-1906001D01*
X1398485Y-1906432D01*
X1395343Y-1908792D01*
X1394576Y-1909883D01*
X1043800Y-1909883D01*
X1043800Y-1759900D01*
X1045691Y-1754081D01*
X1050641Y-1750484D01*
X1053700Y-1750000D01*
X2699351Y-1750000D01*
X2700643Y-1750085D01*
X2711649Y-1751534D01*
X2714145Y-1752202D01*
X2723796Y-1756200D01*
X2726034Y-1757492D01*
X2734321Y-1763851D01*
X2736149Y-1765679D01*
X2742508Y-1773966D01*
X2743800Y-1776204D01*
X2747798Y-1785855D01*
X2748466Y-1788351D01*
X2749915Y-1799357D01*
X2750000Y-1800649D01*
X2750000Y-1820992D01*
X2748109Y-1826811D01*
X2743159Y-1830408D01*
X2737496Y-1830544D01*
X2736282Y-1830213D01*
X2734742Y-1830033D01*
X2734171Y-1830000D01*
X2436568Y-1830000D01*
X2435300Y-1830412D01*
X2435000Y-1830824D01*
X2435000Y-2468432D01*
X2435412Y-2469701D01*
X2435824Y-2470000D01*
X2734164Y-2470000D01*
X2734749Y-2469965D01*
X2736336Y-2469777D01*
X2737476Y-2469463D01*
X2743588Y-2469744D01*
X2748368Y-2473564D01*
X2750000Y-2479009D01*
X2750000Y-3427550D01*
X2748109Y-3433369D01*
X2743159Y-3436965D01*
X2740100Y-3437450D01*
X2701959Y-3437450D01*
X2701070Y-3437450D01*
X2695020Y-3438182D01*
X2689016Y-3437004D01*
X2684851Y-3432522D01*
X2684091Y-3430132D01*
X2683475Y-3426758D01*
X2683424Y-3426451D01*
X2682655Y-3421335D01*
X2682655Y-3421335D01*
X2682545Y-3420604D01*
X2682232Y-3419953D01*
X2682103Y-3419243D01*
X2679380Y-3414000D01*
X2679241Y-3413723D01*
X2677002Y-3409060D01*
X2677002Y-3409060D01*
X2676681Y-3408392D01*
X2676271Y-3407948D01*
X2676118Y-3407722D01*
X2675858Y-3407221D01*
X2675428Y-3406717D01*
X2671664Y-3402954D01*
X2671395Y-3402674D01*
X2667988Y-3398988D01*
X2667987Y-3398987D01*
X2667485Y-3398444D01*
X2666879Y-3398092D01*
X2666147Y-3397436D01*
X2578662Y-3309952D01*
X2577888Y-3309080D01*
X2576145Y-3306870D01*
X2575687Y-3306289D01*
X2570825Y-3302929D01*
X2570573Y-3302748D01*
X2566414Y-3299676D01*
X2566414Y-3299676D01*
X2565818Y-3299237D01*
X2565137Y-3298997D01*
X2564543Y-3298587D01*
X2563837Y-3298364D01*
X2563837Y-3298364D01*
X2561803Y-3297720D01*
X2558907Y-3296804D01*
X2558619Y-3296708D01*
X2553037Y-3294748D01*
X2552433Y-3294724D01*
X2552165Y-3294672D01*
X2551627Y-3294502D01*
X2550966Y-3294450D01*
X2545646Y-3294450D01*
X2545257Y-3294442D01*
X2540240Y-3294245D01*
X2540239Y-3294245D01*
X2539501Y-3294216D01*
X2538823Y-3294396D01*
X2537840Y-3294450D01*
X2437891Y-3294450D01*
X2432072Y-3292559D01*
X2428687Y-3288194D01*
X2428255Y-3287104D01*
X2427062Y-3284091D01*
X2425993Y-3282683D01*
X2418559Y-3272888D01*
X2418150Y-3272350D01*
X2406409Y-3263438D01*
X2392704Y-3258012D01*
X2383930Y-3256950D01*
X2356005Y-3256950D01*
X2328070Y-3256950D01*
X2327774Y-3256986D01*
X2327774Y-3256986D01*
X2319928Y-3257935D01*
X2319927Y-3257935D01*
X2319296Y-3258012D01*
X2305591Y-3263438D01*
X2293850Y-3272350D01*
X2293441Y-3272888D01*
X2286007Y-3282683D01*
X2284938Y-3284091D01*
X2284690Y-3284718D01*
X2283115Y-3288694D01*
X2279215Y-3293409D01*
X2273911Y-3294950D01*
X2234859Y-3294950D01*
X2228978Y-3293013D01*
X2221572Y-3287544D01*
X2220977Y-3287104D01*
X2208550Y-3282740D01*
X2207950Y-3282683D01*
X2207949Y-3282683D01*
X2205714Y-3282472D01*
X2205713Y-3282472D01*
X2205483Y-3282450D01*
X2134031Y-3282450D01*
X2062517Y-3282450D01*
X2059450Y-3282740D01*
X2058882Y-3282939D01*
X2058881Y-3282940D01*
X2047721Y-3286859D01*
X2047023Y-3287104D01*
X2036429Y-3294929D01*
X2028604Y-3305523D01*
X2024240Y-3317950D01*
X2024183Y-3318550D01*
X2024183Y-3318551D01*
X2023972Y-3320785D01*
X2023950Y-3321017D01*
X2023950Y-3358983D01*
X2024240Y-3362050D01*
X2024439Y-3362618D01*
X2024440Y-3362619D01*
X2028359Y-3373779D01*
X2028604Y-3374477D01*
X2036429Y-3385071D01*
X2047023Y-3392896D01*
X2059450Y-3397260D01*
X2060050Y-3397317D01*
X2060051Y-3397317D01*
X2062286Y-3397528D01*
X2062287Y-3397528D01*
X2062517Y-3397550D01*
X2133969Y-3397550D01*
X2205483Y-3397550D01*
X2208550Y-3397260D01*
X2209118Y-3397060D01*
X2209119Y-3397060D01*
X2220279Y-3393141D01*
X2220977Y-3392896D01*
X2228978Y-3386987D01*
X2234859Y-3385050D01*
X2274307Y-3385050D01*
X2280126Y-3386941D01*
X2283511Y-3391306D01*
X2283967Y-3392456D01*
X2284938Y-3394909D01*
X2285346Y-3395446D01*
X2285346Y-3395447D01*
X2286943Y-3397550D01*
X2293850Y-3406650D01*
X2294388Y-3407059D01*
X2297025Y-3409060D01*
X2305591Y-3415562D01*
X2306219Y-3415810D01*
X2311232Y-3417795D01*
X2315946Y-3421695D01*
X2317468Y-3427622D01*
X2315215Y-3433310D01*
X2311232Y-3436205D01*
X2305591Y-3438438D01*
X2305054Y-3438846D01*
X2305053Y-3438846D01*
X2301193Y-3441777D01*
X2293850Y-3447350D01*
X2293441Y-3447888D01*
X2285813Y-3457938D01*
X2284938Y-3459091D01*
X2279512Y-3472796D01*
X2278450Y-3481570D01*
X2278450Y-3547430D01*
X2279512Y-3556204D01*
X2284938Y-3569909D01*
X2285346Y-3570446D01*
X2285346Y-3570447D01*
X2293441Y-3581112D01*
X2293850Y-3581650D01*
X2294388Y-3582059D01*
X2304913Y-3590047D01*
X2305591Y-3590562D01*
X2319296Y-3595988D01*
X2328070Y-3597050D01*
X2355995Y-3597050D01*
X2383930Y-3597050D01*
X2384226Y-3597014D01*
X2384227Y-3597014D01*
X2392073Y-3596065D01*
X2392073Y-3596065D01*
X2392704Y-3595988D01*
X2406409Y-3590562D01*
X2407087Y-3590047D01*
X2417612Y-3582059D01*
X2418150Y-3581650D01*
X2418559Y-3581112D01*
X2426654Y-3570447D01*
X2426654Y-3570446D01*
X2427062Y-3569909D01*
X2428885Y-3565305D01*
X2432785Y-3560591D01*
X2438089Y-3559050D01*
X2466192Y-3559050D01*
X2472011Y-3560941D01*
X2474632Y-3564320D01*
X2474858Y-3564193D01*
X2475190Y-3564782D01*
X2475438Y-3565409D01*
X2475846Y-3565946D01*
X2475846Y-3565947D01*
X2482555Y-3574785D01*
X2484350Y-3577150D01*
X2496091Y-3586062D01*
X2509796Y-3591488D01*
X2518570Y-3592550D01*
X2547745Y-3592550D01*
X2576930Y-3592550D01*
X2584861Y-3591590D01*
X2590865Y-3592768D01*
X2595030Y-3597250D01*
X2595950Y-3601418D01*
X2595950Y-3618339D01*
X2594059Y-3624158D01*
X2589109Y-3627755D01*
X2584861Y-3628168D01*
X2579227Y-3627486D01*
X2579226Y-3627486D01*
X2578930Y-3627450D01*
X2549755Y-3627450D01*
X2520570Y-3627450D01*
X2520274Y-3627486D01*
X2520274Y-3627486D01*
X2512428Y-3628435D01*
X2512427Y-3628435D01*
X2511796Y-3628512D01*
X2498091Y-3633938D01*
X2497554Y-3634346D01*
X2497553Y-3634346D01*
X2486888Y-3642441D01*
X2486350Y-3642850D01*
X2477438Y-3654591D01*
X2477282Y-3654985D01*
X2472860Y-3659051D01*
X2468739Y-3659950D01*
X2267761Y-3659950D01*
X2261942Y-3658059D01*
X2260761Y-3657050D01*
X2241927Y-3638216D01*
X2239149Y-3632765D01*
X2239586Y-3627936D01*
X2243560Y-3616619D01*
X2243560Y-3616619D01*
X2243760Y-3616050D01*
X2243817Y-3615449D01*
X2244028Y-3613214D01*
X2244028Y-3613213D01*
X2244050Y-3612983D01*
X2244050Y-3575017D01*
X2243760Y-3571950D01*
X2243560Y-3571381D01*
X2239641Y-3560221D01*
X2239396Y-3559523D01*
X2231571Y-3548929D01*
X2220977Y-3541104D01*
X2208550Y-3536740D01*
X2207950Y-3536683D01*
X2207949Y-3536683D01*
X2205714Y-3536472D01*
X2205713Y-3536472D01*
X2205483Y-3536450D01*
X2134031Y-3536450D01*
X2062517Y-3536450D01*
X2059450Y-3536740D01*
X2058882Y-3536939D01*
X2058881Y-3536940D01*
X2047721Y-3540859D01*
X2047023Y-3541104D01*
X2036429Y-3548929D01*
X2028604Y-3559523D01*
X2024240Y-3571950D01*
X2024183Y-3572550D01*
X2024183Y-3572551D01*
X2023972Y-3574785D01*
X2023950Y-3575017D01*
X2023950Y-3612983D01*
X2024240Y-3616050D01*
X2024439Y-3616618D01*
X2024440Y-3616619D01*
X2028350Y-3627755D01*
X2028604Y-3628477D01*
X2036429Y-3639071D01*
X2047023Y-3646896D01*
X2059450Y-3651260D01*
X2060050Y-3651317D01*
X2060051Y-3651317D01*
X2062286Y-3651528D01*
X2062287Y-3651528D01*
X2062517Y-3651550D01*
X2123739Y-3651550D01*
X2129558Y-3653441D01*
X2130739Y-3654450D01*
X2210838Y-3734548D01*
X2211612Y-3735420D01*
X2213813Y-3738211D01*
X2214422Y-3738632D01*
X2218674Y-3741571D01*
X2218927Y-3741752D01*
X2223086Y-3744824D01*
X2223086Y-3744824D01*
X2223682Y-3745263D01*
X2224363Y-3745503D01*
X2224957Y-3745913D01*
X2225663Y-3746136D01*
X2225663Y-3746136D01*
X2227697Y-3746780D01*
X2230593Y-3747696D01*
X2230881Y-3747792D01*
X2236463Y-3749752D01*
X2237067Y-3749776D01*
X2237335Y-3749828D01*
X2237873Y-3749998D01*
X2238534Y-3750050D01*
X2243854Y-3750050D01*
X2244243Y-3750058D01*
X2249260Y-3750255D01*
X2249261Y-3750255D01*
X2249999Y-3750284D01*
X2250677Y-3750104D01*
X2251660Y-3750050D01*
X2468739Y-3750050D01*
X2474558Y-3751941D01*
X2477270Y-3754985D01*
X2477438Y-3755409D01*
X2486350Y-3767150D01*
X2498091Y-3776062D01*
X2511796Y-3781488D01*
X2520570Y-3782550D01*
X2549745Y-3782550D01*
X2578930Y-3782550D01*
X2579226Y-3782514D01*
X2579227Y-3782514D01*
X2587073Y-3781565D01*
X2587073Y-3781565D01*
X2587704Y-3781488D01*
X2590530Y-3780369D01*
X2594543Y-3778780D01*
X2600650Y-3778396D01*
X2605188Y-3780985D01*
X2608336Y-3784133D01*
X2608605Y-3784413D01*
X2612012Y-3788099D01*
X2612013Y-3788099D01*
X2612515Y-3788642D01*
X2613121Y-3788994D01*
X2613854Y-3789650D01*
X2654752Y-3830548D01*
X2655526Y-3831420D01*
X2657726Y-3834211D01*
X2658335Y-3834632D01*
X2658335Y-3834632D01*
X2662587Y-3837570D01*
X2662840Y-3837751D01*
X2667595Y-3841263D01*
X2668277Y-3841503D01*
X2668870Y-3841913D01*
X2669576Y-3842136D01*
X2669576Y-3842136D01*
X2672752Y-3843141D01*
X2674504Y-3843695D01*
X2674798Y-3843793D01*
X2679678Y-3845507D01*
X2679678Y-3845507D01*
X2680377Y-3845752D01*
X2680981Y-3845776D01*
X2681249Y-3845828D01*
X2681786Y-3845998D01*
X2682447Y-3846050D01*
X2687767Y-3846050D01*
X2688155Y-3846058D01*
X2693174Y-3846255D01*
X2693174Y-3846255D01*
X2693913Y-3846284D01*
X2694591Y-3846104D01*
X2695573Y-3846050D01*
X2740100Y-3846050D01*
X2745919Y-3847941D01*
X2749516Y-3852891D01*
X2750000Y-3855950D01*
X2750000Y-3899351D01*
X2749915Y-3900643D01*
X2748466Y-3911649D01*
X2747798Y-3914145D01*
X2743800Y-3923796D01*
X2742508Y-3926034D01*
X2736149Y-3934321D01*
X2734321Y-3936149D01*
X2726034Y-3942508D01*
X2723796Y-3943800D01*
X2714145Y-3947797D01*
X2711649Y-3948466D01*
X2700643Y-3949915D01*
X2699351Y-3950000D01*
X100649Y-3950000D01*
X99357Y-3949915D01*
X88351Y-3948466D01*
X85855Y-3947797D01*
X76204Y-3943800D01*
X73966Y-3942508D01*
X65679Y-3936149D01*
X63851Y-3934321D01*
X57492Y-3926034D01*
X56200Y-3923796D01*
X52202Y-3914145D01*
X51534Y-3911649D01*
X50085Y-3900643D01*
X50000Y-3899351D01*
X50000Y-3575017D01*
X1373950Y-3575017D01*
X1373950Y-3612983D01*
X1374240Y-3616050D01*
X1374440Y-3616618D01*
X1374440Y-3616619D01*
X1378350Y-3627755D01*
X1378604Y-3628477D01*
X1386429Y-3639071D01*
X1397023Y-3646896D01*
X1409450Y-3651260D01*
X1410050Y-3651317D01*
X1410051Y-3651317D01*
X1412286Y-3651528D01*
X1412287Y-3651528D01*
X1412517Y-3651550D01*
X1483969Y-3651550D01*
X1555483Y-3651550D01*
X1558550Y-3651260D01*
X1559118Y-3651060D01*
X1559119Y-3651060D01*
X1570279Y-3647141D01*
X1570977Y-3646896D01*
X1581571Y-3639071D01*
X1589396Y-3628477D01*
X1589744Y-3627486D01*
X1593560Y-3616619D01*
X1593760Y-3616050D01*
X1593817Y-3615449D01*
X1594028Y-3613214D01*
X1594028Y-3613213D01*
X1594050Y-3612983D01*
X1594050Y-3575017D01*
X1593760Y-3571950D01*
X1593560Y-3571381D01*
X1589641Y-3560221D01*
X1589396Y-3559523D01*
X1581571Y-3548929D01*
X1570977Y-3541104D01*
X1558550Y-3536740D01*
X1557950Y-3536683D01*
X1557949Y-3536683D01*
X1555714Y-3536472D01*
X1555713Y-3536472D01*
X1555483Y-3536450D01*
X1552454Y-3536450D01*
X1546635Y-3534559D01*
X1543039Y-3529609D01*
X1542892Y-3523988D01*
X1542937Y-3523817D01*
X1543160Y-3523263D01*
X1545549Y-3506478D01*
X1545564Y-3505000D01*
X1544479Y-3496031D01*
X1543599Y-3488760D01*
X1543599Y-3488760D01*
X1543528Y-3488168D01*
X1537534Y-3472308D01*
X1535263Y-3469002D01*
X1528269Y-3458827D01*
X1527931Y-3458335D01*
X1515272Y-3447056D01*
X1500288Y-3439122D01*
X1491701Y-3436965D01*
X1484423Y-3435137D01*
X1484423Y-3435137D01*
X1483844Y-3434992D01*
X1475284Y-3434947D01*
X1467486Y-3434906D01*
X1467486Y-3434906D01*
X1466889Y-3434903D01*
X1466310Y-3435042D01*
X1466309Y-3435042D01*
X1456281Y-3437450D01*
X1450403Y-3438861D01*
X1444754Y-3441777D01*
X1435867Y-3446364D01*
X1435867Y-3446364D01*
X1435337Y-3446637D01*
X1422560Y-3457783D01*
X1422217Y-3458271D01*
X1422217Y-3458271D01*
X1417776Y-3464591D01*
X1412811Y-3471655D01*
X1406652Y-3487451D01*
X1404439Y-3504261D01*
X1404505Y-3504854D01*
X1404505Y-3504855D01*
X1404557Y-3505323D01*
X1406300Y-3521113D01*
X1406505Y-3521674D01*
X1408279Y-3526521D01*
X1408503Y-3532635D01*
X1405090Y-3537714D01*
X1402262Y-3539264D01*
X1397721Y-3540859D01*
X1397023Y-3541104D01*
X1386429Y-3548929D01*
X1378604Y-3559523D01*
X1374240Y-3571950D01*
X1374183Y-3572550D01*
X1374183Y-3572551D01*
X1373972Y-3574785D01*
X1373950Y-3575017D01*
X50000Y-3575017D01*
X50000Y-3132154D01*
X51891Y-3126335D01*
X56841Y-3122739D01*
X62959Y-3122739D01*
X67394Y-3125685D01*
X72834Y-3131987D01*
X72835Y-3131988D01*
X73015Y-3132197D01*
X98863Y-3156133D01*
X127218Y-3177038D01*
X157727Y-3194652D01*
X170799Y-3200363D01*
X189757Y-3208646D01*
X189757Y-3208646D01*
X190009Y-3208756D01*
X190272Y-3208837D01*
X190272Y-3208837D01*
X223398Y-3219092D01*
X223399Y-3219092D01*
X223662Y-3219173D01*
X258267Y-3225774D01*
X293392Y-3228477D01*
X293667Y-3228468D01*
X293667Y-3228468D01*
X314987Y-3227723D01*
X328599Y-3227248D01*
X363449Y-3222101D01*
X363716Y-3222031D01*
X363717Y-3222031D01*
X397243Y-3213173D01*
X397243Y-3213173D01*
X397509Y-3213102D01*
X430354Y-3200363D01*
X461573Y-3184042D01*
X490779Y-3164342D01*
X500232Y-3156297D01*
X517397Y-3141689D01*
X517397Y-3141689D01*
X517607Y-3141510D01*
X541723Y-3115829D01*
X541889Y-3115607D01*
X562659Y-3087843D01*
X562660Y-3087842D01*
X562825Y-3087621D01*
X562965Y-3087383D01*
X562965Y-3087382D01*
X580512Y-3057474D01*
X580652Y-3057236D01*
X594981Y-3025053D01*
X605633Y-2991473D01*
X612476Y-2956916D01*
X615423Y-2921811D01*
X615546Y-2913000D01*
X615150Y-2905909D01*
X613595Y-2878102D01*
X613595Y-2878102D01*
X613580Y-2877826D01*
X607705Y-2843091D01*
X597995Y-2809227D01*
X584570Y-2776657D01*
X567599Y-2745786D01*
X567439Y-2745560D01*
X547451Y-2717224D01*
X547450Y-2717224D01*
X547292Y-2716999D01*
X532776Y-2700649D01*
X524086Y-2690862D01*
X524085Y-2690861D01*
X523902Y-2690655D01*
X523698Y-2690471D01*
X523697Y-2690470D01*
X497929Y-2667268D01*
X497928Y-2667268D01*
X497723Y-2667083D01*
X486433Y-2659000D01*
X469304Y-2646737D01*
X469303Y-2646737D01*
X469078Y-2646575D01*
X468836Y-2646440D01*
X468836Y-2646440D01*
X438568Y-2629524D01*
X438568Y-2629524D01*
X438326Y-2629389D01*
X438072Y-2629282D01*
X438071Y-2629281D01*
X418231Y-2620941D01*
X405850Y-2615737D01*
X372055Y-2605791D01*
X350361Y-2601965D01*
X337634Y-2599721D01*
X337633Y-2599721D01*
X337362Y-2599673D01*
X302203Y-2597461D01*
X301927Y-2597475D01*
X301926Y-2597475D01*
X271845Y-2598946D01*
X267016Y-2599182D01*
X232241Y-2604815D01*
X198310Y-2614288D01*
X182571Y-2620647D01*
X165903Y-2627382D01*
X165903Y-2627382D01*
X165647Y-2627485D01*
X165405Y-2627616D01*
X165404Y-2627616D01*
X134901Y-2644109D01*
X134900Y-2644110D01*
X134658Y-2644241D01*
X134432Y-2644398D01*
X134432Y-2644398D01*
X131066Y-2646737D01*
X105730Y-2664346D01*
X79224Y-2687551D01*
X79038Y-2687755D01*
X79038Y-2687755D01*
X67211Y-2700707D01*
X61891Y-2703729D01*
X55810Y-2703047D01*
X51292Y-2698921D01*
X50000Y-2694031D01*
X50000Y-1800649D01*
X50085Y-1799357D01*
X51534Y-1788351D01*
X52202Y-1785855D01*
X56200Y-1776204D01*
X57492Y-1773966D01*
X63851Y-1765679D01*
X65679Y-1763851D01*
X73966Y-1757492D01*
X76204Y-1756200D01*
X85855Y-1752202D01*
X88351Y-1751534D01*
X99357Y-1750085D01*
X100649Y-1750000D01*
X943800Y-1750000D01*
X949619Y-1751891D01*
G37*
%TD.AperFunction*%
%TA.AperFunction,Conductor*%
G36*
X3781539Y-1751891D02*
G01*
X3785135Y-1756841D01*
X3785258Y-1761974D01*
X3785299Y-1761979D01*
X3785265Y-1762266D01*
X3785271Y-1762504D01*
X3785213Y-1762718D01*
X3785033Y-1764258D01*
X3785000Y-1764829D01*
X3785000Y-2062432D01*
X3785412Y-2063700D01*
X3785824Y-2064000D01*
X4423432Y-2064000D01*
X4424701Y-2063588D01*
X4425000Y-2063176D01*
X4425000Y-1764836D01*
X4424965Y-1764251D01*
X4424777Y-1762665D01*
X4424738Y-1762524D01*
X4424744Y-1762391D01*
X4424689Y-1761927D01*
X4424766Y-1761918D01*
X4425019Y-1756412D01*
X4428838Y-1751632D01*
X4434284Y-1750000D01*
X5299351Y-1750000D01*
X5300643Y-1750085D01*
X5311649Y-1751534D01*
X5314145Y-1752202D01*
X5323796Y-1756200D01*
X5326034Y-1757492D01*
X5334321Y-1763851D01*
X5336149Y-1765679D01*
X5342508Y-1773966D01*
X5343800Y-1776204D01*
X5347798Y-1785855D01*
X5348466Y-1788351D01*
X5349915Y-1799357D01*
X5350000Y-1800649D01*
X5350000Y-2693988D01*
X5348109Y-2699807D01*
X5343159Y-2703403D01*
X5337041Y-2703403D01*
X5332697Y-2700561D01*
X5324086Y-2690862D01*
X5324085Y-2690861D01*
X5323903Y-2690655D01*
X5323698Y-2690471D01*
X5323697Y-2690470D01*
X5297929Y-2667268D01*
X5297928Y-2667268D01*
X5297723Y-2667083D01*
X5290724Y-2662072D01*
X5269304Y-2646737D01*
X5269303Y-2646737D01*
X5269078Y-2646575D01*
X5268837Y-2646440D01*
X5268836Y-2646440D01*
X5238568Y-2629524D01*
X5238568Y-2629524D01*
X5238326Y-2629389D01*
X5238072Y-2629282D01*
X5238071Y-2629281D01*
X5218231Y-2620941D01*
X5205851Y-2615737D01*
X5172055Y-2605791D01*
X5150361Y-2601965D01*
X5137634Y-2599721D01*
X5137633Y-2599721D01*
X5137362Y-2599673D01*
X5102203Y-2597461D01*
X5101927Y-2597475D01*
X5101926Y-2597475D01*
X5071845Y-2598946D01*
X5067016Y-2599182D01*
X5032241Y-2604815D01*
X4998310Y-2614288D01*
X4982571Y-2620647D01*
X4965903Y-2627382D01*
X4965903Y-2627382D01*
X4965647Y-2627485D01*
X4965405Y-2627616D01*
X4965404Y-2627616D01*
X4934901Y-2644109D01*
X4934900Y-2644110D01*
X4934658Y-2644241D01*
X4934432Y-2644398D01*
X4934432Y-2644398D01*
X4931067Y-2646737D01*
X4905730Y-2664346D01*
X4879224Y-2687551D01*
X4855469Y-2713565D01*
X4834762Y-2742066D01*
X4817361Y-2772697D01*
X4817253Y-2772951D01*
X4817252Y-2772952D01*
X4809279Y-2791555D01*
X4803483Y-2805077D01*
X4793301Y-2838802D01*
X4786942Y-2873451D01*
X4784484Y-2908594D01*
X4785960Y-2943792D01*
X4786002Y-2944065D01*
X4791307Y-2978333D01*
X4791307Y-2978334D01*
X4791349Y-2978606D01*
X4800586Y-3012602D01*
X4813554Y-3045357D01*
X4830093Y-3076462D01*
X4830249Y-3076690D01*
X4849840Y-3105301D01*
X4849840Y-3105302D01*
X4849996Y-3105529D01*
X4873015Y-3132197D01*
X4898863Y-3156133D01*
X4927218Y-3177038D01*
X4957727Y-3194652D01*
X4970799Y-3200363D01*
X4989757Y-3208646D01*
X4989757Y-3208646D01*
X4990009Y-3208756D01*
X4990272Y-3208837D01*
X4990272Y-3208837D01*
X5023398Y-3219092D01*
X5023399Y-3219092D01*
X5023662Y-3219173D01*
X5058267Y-3225774D01*
X5093392Y-3228477D01*
X5093667Y-3228468D01*
X5093667Y-3228468D01*
X5114987Y-3227723D01*
X5128599Y-3227248D01*
X5163449Y-3222101D01*
X5163716Y-3222031D01*
X5163717Y-3222031D01*
X5197243Y-3213173D01*
X5197244Y-3213173D01*
X5197509Y-3213102D01*
X5230354Y-3200363D01*
X5261573Y-3184042D01*
X5290779Y-3164342D01*
X5300232Y-3156297D01*
X5317397Y-3141689D01*
X5317397Y-3141689D01*
X5317607Y-3141510D01*
X5332883Y-3125242D01*
X5338245Y-3122295D01*
X5344315Y-3123061D01*
X5348775Y-3127250D01*
X5350000Y-3132019D01*
X5350000Y-3899351D01*
X5349915Y-3900643D01*
X5348466Y-3911649D01*
X5347798Y-3914145D01*
X5343800Y-3923796D01*
X5342508Y-3926034D01*
X5336149Y-3934321D01*
X5334321Y-3936149D01*
X5326034Y-3942508D01*
X5323796Y-3943800D01*
X5314145Y-3947797D01*
X5311649Y-3948466D01*
X5300643Y-3949915D01*
X5299351Y-3950000D01*
X2900649Y-3950000D01*
X2899357Y-3949915D01*
X2888351Y-3948466D01*
X2885855Y-3947797D01*
X2876204Y-3943800D01*
X2873966Y-3942508D01*
X2865679Y-3936149D01*
X2863851Y-3934321D01*
X2857492Y-3926034D01*
X2856200Y-3923796D01*
X2852202Y-3914145D01*
X2851534Y-3911649D01*
X2850085Y-3900643D01*
X2850000Y-3899351D01*
X2850000Y-3855950D01*
X2851891Y-3850131D01*
X2856841Y-3846534D01*
X2859900Y-3846050D01*
X3043237Y-3846050D01*
X3044401Y-3846119D01*
X3047931Y-3846536D01*
X3048659Y-3846403D01*
X3048659Y-3846403D01*
X3051729Y-3845843D01*
X3053743Y-3845475D01*
X3054048Y-3845424D01*
X3059896Y-3844545D01*
X3060547Y-3844232D01*
X3061257Y-3844102D01*
X3066498Y-3841380D01*
X3066776Y-3841241D01*
X3071441Y-3839001D01*
X3071441Y-3839001D01*
X3072108Y-3838681D01*
X3072552Y-3838270D01*
X3072778Y-3838118D01*
X3073279Y-3837858D01*
X3073783Y-3837427D01*
X3077546Y-3833664D01*
X3077826Y-3833395D01*
X3081512Y-3829988D01*
X3081513Y-3829987D01*
X3082056Y-3829485D01*
X3082408Y-3828879D01*
X3083064Y-3828146D01*
X3107261Y-3803950D01*
X3112712Y-3801172D01*
X3114261Y-3801050D01*
X3165965Y-3801050D01*
X3167756Y-3800837D01*
X3167847Y-3800826D01*
X3167847Y-3800826D01*
X3168585Y-3800738D01*
X3178815Y-3796194D01*
X3186724Y-3788271D01*
X3189886Y-3781119D01*
X3190950Y-3778714D01*
X3190950Y-3778713D01*
X3191251Y-3778033D01*
X3191550Y-3775465D01*
X3626450Y-3775465D01*
X3626762Y-3778085D01*
X3631306Y-3788315D01*
X3639229Y-3796224D01*
X3640064Y-3796594D01*
X3648786Y-3800450D01*
X3648787Y-3800450D01*
X3649467Y-3800751D01*
X3650207Y-3800837D01*
X3651738Y-3801015D01*
X3652035Y-3801050D01*
X3760965Y-3801050D01*
X3762756Y-3800837D01*
X3762847Y-3800826D01*
X3762847Y-3800826D01*
X3763585Y-3800738D01*
X3773815Y-3796194D01*
X3781724Y-3788271D01*
X3782094Y-3787435D01*
X3782094Y-3787435D01*
X3782310Y-3786947D01*
X3786392Y-3782389D01*
X3791364Y-3781050D01*
X4192737Y-3781050D01*
X4193901Y-3781119D01*
X4197431Y-3781536D01*
X4198159Y-3781403D01*
X4198159Y-3781403D01*
X4201229Y-3780843D01*
X4203243Y-3780475D01*
X4203548Y-3780424D01*
X4209396Y-3779545D01*
X4210048Y-3779232D01*
X4210757Y-3779102D01*
X4215998Y-3776380D01*
X4216276Y-3776241D01*
X4217287Y-3775756D01*
X4217766Y-3775526D01*
X4222052Y-3774550D01*
X4356965Y-3774550D01*
X4358605Y-3774355D01*
X4358847Y-3774326D01*
X4358847Y-3774326D01*
X4359585Y-3774238D01*
X4369815Y-3769694D01*
X4377724Y-3761771D01*
X4381134Y-3754059D01*
X4381950Y-3752214D01*
X4381950Y-3752213D01*
X4382251Y-3751533D01*
X4382550Y-3748965D01*
X4382550Y-3575035D01*
X4382238Y-3572415D01*
X4377694Y-3562185D01*
X4374908Y-3559403D01*
X4372686Y-3557185D01*
X4369771Y-3554276D01*
X4363902Y-3551681D01*
X4360214Y-3550050D01*
X4360213Y-3550050D01*
X4359533Y-3549749D01*
X4358132Y-3549586D01*
X4357249Y-3549483D01*
X4357249Y-3549483D01*
X4356965Y-3549450D01*
X4183035Y-3549450D01*
X4181395Y-3549645D01*
X4181153Y-3549674D01*
X4181153Y-3549674D01*
X4180415Y-3549762D01*
X4170185Y-3554306D01*
X4162276Y-3562229D01*
X4157749Y-3572467D01*
X4157450Y-3575035D01*
X4157450Y-3681050D01*
X4155559Y-3686869D01*
X4150609Y-3690465D01*
X4147550Y-3690950D01*
X3791356Y-3690950D01*
X3785537Y-3689059D01*
X3782309Y-3685069D01*
X3782065Y-3684520D01*
X3782065Y-3684520D01*
X3781694Y-3683685D01*
X3773771Y-3675776D01*
X3770859Y-3674488D01*
X3764214Y-3671550D01*
X3764213Y-3671550D01*
X3763533Y-3671249D01*
X3762132Y-3671086D01*
X3761249Y-3670983D01*
X3761249Y-3670983D01*
X3760965Y-3670950D01*
X3652035Y-3670950D01*
X3650395Y-3671145D01*
X3650153Y-3671174D01*
X3650153Y-3671174D01*
X3649415Y-3671262D01*
X3639185Y-3675806D01*
X3631276Y-3683729D01*
X3630906Y-3684564D01*
X3628083Y-3690950D01*
X3626749Y-3693967D01*
X3626450Y-3696535D01*
X3626450Y-3775465D01*
X3191550Y-3775465D01*
X3191550Y-3696535D01*
X3191238Y-3693915D01*
X3186694Y-3683685D01*
X3178771Y-3675776D01*
X3175859Y-3674488D01*
X3169214Y-3671550D01*
X3169213Y-3671550D01*
X3168533Y-3671249D01*
X3167132Y-3671086D01*
X3166249Y-3670983D01*
X3166249Y-3670983D01*
X3165965Y-3670950D01*
X3057035Y-3670950D01*
X3055395Y-3671145D01*
X3055153Y-3671174D01*
X3055153Y-3671174D01*
X3054415Y-3671262D01*
X3044185Y-3675806D01*
X3036276Y-3683729D01*
X3035906Y-3684564D01*
X3033083Y-3690950D01*
X3031749Y-3693967D01*
X3031450Y-3696535D01*
X3031450Y-3746050D01*
X3029559Y-3751869D01*
X3024609Y-3755465D01*
X3021550Y-3755950D01*
X2859900Y-3755950D01*
X2854081Y-3754059D01*
X2850484Y-3749109D01*
X2850000Y-3746050D01*
X2850000Y-3568950D01*
X2851891Y-3563131D01*
X2856841Y-3559534D01*
X2859900Y-3559050D01*
X2930237Y-3559050D01*
X2931401Y-3559119D01*
X2934931Y-3559536D01*
X2935659Y-3559403D01*
X2935659Y-3559403D01*
X2938729Y-3558843D01*
X2940743Y-3558475D01*
X2941048Y-3558424D01*
X2946896Y-3557545D01*
X2947547Y-3557232D01*
X2948257Y-3557102D01*
X2953498Y-3554380D01*
X2953776Y-3554241D01*
X2958441Y-3552001D01*
X2958441Y-3552001D01*
X2959108Y-3551681D01*
X2959552Y-3551270D01*
X2959778Y-3551118D01*
X2960279Y-3550858D01*
X2960783Y-3550427D01*
X2964546Y-3546664D01*
X2964826Y-3546395D01*
X2968512Y-3542988D01*
X2968513Y-3542987D01*
X2969056Y-3542485D01*
X2969408Y-3541879D01*
X2970064Y-3541146D01*
X3107261Y-3403950D01*
X3112712Y-3401172D01*
X3114261Y-3401050D01*
X3165965Y-3401050D01*
X3167756Y-3400837D01*
X3167847Y-3400826D01*
X3167847Y-3400826D01*
X3168585Y-3400738D01*
X3178815Y-3396194D01*
X3186724Y-3388271D01*
X3189325Y-3382389D01*
X3190950Y-3378714D01*
X3190950Y-3378713D01*
X3191251Y-3378033D01*
X3191550Y-3375465D01*
X3626450Y-3375465D01*
X3626762Y-3378085D01*
X3631306Y-3388315D01*
X3639229Y-3396224D01*
X3640064Y-3396594D01*
X3648786Y-3400450D01*
X3648787Y-3400450D01*
X3649467Y-3400751D01*
X3650207Y-3400837D01*
X3651738Y-3401015D01*
X3652035Y-3401050D01*
X3760965Y-3401050D01*
X3762756Y-3400837D01*
X3762847Y-3400826D01*
X3762847Y-3400826D01*
X3763585Y-3400738D01*
X3773815Y-3396194D01*
X3781724Y-3388271D01*
X3782094Y-3387435D01*
X3782094Y-3387435D01*
X3782310Y-3386947D01*
X3786392Y-3382389D01*
X3791364Y-3381050D01*
X4149179Y-3381050D01*
X4154998Y-3382941D01*
X4158594Y-3387891D01*
X4159010Y-3392114D01*
X4157956Y-3401017D01*
X4157006Y-3409041D01*
X4158359Y-3429682D01*
X4163451Y-3449731D01*
X4172111Y-3468516D01*
X4184050Y-3485408D01*
X4198867Y-3499842D01*
X4199244Y-3500095D01*
X4199244Y-3500095D01*
X4207404Y-3505547D01*
X4216066Y-3511335D01*
X4216482Y-3511514D01*
X4216483Y-3511514D01*
X4225203Y-3515260D01*
X4235071Y-3519500D01*
X4242378Y-3521153D01*
X4254804Y-3523965D01*
X4254804Y-3523965D01*
X4255246Y-3524065D01*
X4265581Y-3524471D01*
X4275462Y-3524859D01*
X4275462Y-3524859D01*
X4275916Y-3524877D01*
X4296387Y-3521909D01*
X4296817Y-3521763D01*
X4296817Y-3521763D01*
X4315544Y-3515406D01*
X4315974Y-3515260D01*
X4334022Y-3505153D01*
X4349926Y-3491926D01*
X4363153Y-3476022D01*
X4368172Y-3467059D01*
X4373038Y-3458370D01*
X4373038Y-3458370D01*
X4373260Y-3457974D01*
X4379909Y-3438387D01*
X4382877Y-3417916D01*
X4383032Y-3412000D01*
X4382802Y-3409494D01*
X4381181Y-3391853D01*
X4381140Y-3391401D01*
X4377384Y-3378085D01*
X4375648Y-3371930D01*
X4375648Y-3371929D01*
X4375525Y-3371493D01*
X4366376Y-3352941D01*
X4365927Y-3352340D01*
X4354271Y-3336730D01*
X4354271Y-3336730D01*
X4353999Y-3336367D01*
X4338810Y-3322325D01*
X4338426Y-3322083D01*
X4321699Y-3311530D01*
X4321699Y-3311529D01*
X4321316Y-3311288D01*
X4302103Y-3303622D01*
X4281815Y-3299587D01*
X4271473Y-3299452D01*
X4261586Y-3299322D01*
X4261585Y-3299322D01*
X4261132Y-3299316D01*
X4260684Y-3299393D01*
X4260684Y-3299393D01*
X4241192Y-3302742D01*
X4240745Y-3302819D01*
X4238568Y-3303622D01*
X4235225Y-3304856D01*
X4229111Y-3305096D01*
X4225314Y-3302950D01*
X4225187Y-3302789D01*
X4220325Y-3299429D01*
X4220073Y-3299248D01*
X4215914Y-3296176D01*
X4215914Y-3296176D01*
X4215318Y-3295737D01*
X4214637Y-3295497D01*
X4214043Y-3295087D01*
X4213337Y-3294864D01*
X4213337Y-3294864D01*
X4210339Y-3293915D01*
X4208407Y-3293304D01*
X4208119Y-3293208D01*
X4202537Y-3291248D01*
X4201933Y-3291224D01*
X4201665Y-3291172D01*
X4201127Y-3291002D01*
X4200466Y-3290950D01*
X4195146Y-3290950D01*
X4194757Y-3290942D01*
X4189740Y-3290745D01*
X4189739Y-3290745D01*
X4189001Y-3290716D01*
X4188323Y-3290896D01*
X4187340Y-3290950D01*
X3791356Y-3290950D01*
X3785537Y-3289059D01*
X3782309Y-3285069D01*
X3782065Y-3284520D01*
X3782065Y-3284520D01*
X3781694Y-3283685D01*
X3773771Y-3275776D01*
X3770859Y-3274488D01*
X3764214Y-3271550D01*
X3764213Y-3271550D01*
X3763533Y-3271249D01*
X3762132Y-3271086D01*
X3761249Y-3270983D01*
X3761249Y-3270983D01*
X3760965Y-3270950D01*
X3652035Y-3270950D01*
X3650395Y-3271145D01*
X3650153Y-3271174D01*
X3650153Y-3271174D01*
X3649415Y-3271262D01*
X3639185Y-3275806D01*
X3631276Y-3283729D01*
X3630906Y-3284564D01*
X3627086Y-3293206D01*
X3626749Y-3293967D01*
X3626450Y-3296535D01*
X3626450Y-3375465D01*
X3191550Y-3375465D01*
X3191550Y-3296535D01*
X3191238Y-3293915D01*
X3186694Y-3283685D01*
X3178771Y-3275776D01*
X3175859Y-3274488D01*
X3169214Y-3271550D01*
X3169213Y-3271550D01*
X3168533Y-3271249D01*
X3167132Y-3271086D01*
X3166249Y-3270983D01*
X3166249Y-3270983D01*
X3165965Y-3270950D01*
X3057035Y-3270950D01*
X3055395Y-3271145D01*
X3055153Y-3271174D01*
X3055153Y-3271174D01*
X3054415Y-3271262D01*
X3044185Y-3275806D01*
X3036276Y-3283729D01*
X3035906Y-3284564D01*
X3032086Y-3293206D01*
X3031749Y-3293967D01*
X3031450Y-3296535D01*
X3031450Y-3348239D01*
X3029559Y-3354058D01*
X3028550Y-3355239D01*
X2917739Y-3466050D01*
X2912288Y-3468828D01*
X2910739Y-3468950D01*
X2859900Y-3468950D01*
X2854081Y-3467059D01*
X2850484Y-3462109D01*
X2850000Y-3459050D01*
X2850000Y-2400611D01*
X2851891Y-2394792D01*
X2856841Y-2391196D01*
X2862959Y-2391196D01*
X2866900Y-2393611D01*
X2880838Y-2407548D01*
X2881612Y-2408420D01*
X2883813Y-2411211D01*
X2888674Y-2414571D01*
X2888926Y-2414751D01*
X2893086Y-2417824D01*
X2893086Y-2417824D01*
X2893682Y-2418263D01*
X2894363Y-2418503D01*
X2894843Y-2418834D01*
X2894843Y-2418834D01*
X2894958Y-2418914D01*
X2894943Y-2418937D01*
X2898941Y-2423063D01*
X2899950Y-2427418D01*
X2899950Y-2442465D01*
X2900262Y-2445085D01*
X2904806Y-2455315D01*
X2912729Y-2463224D01*
X2913564Y-2463594D01*
X2922286Y-2467450D01*
X2922287Y-2467450D01*
X2922967Y-2467751D01*
X2923707Y-2467837D01*
X2925238Y-2468015D01*
X2925535Y-2468050D01*
X3154465Y-2468050D01*
X3156256Y-2467837D01*
X3156347Y-2467826D01*
X3156347Y-2467826D01*
X3157085Y-2467738D01*
X3167315Y-2463194D01*
X3175224Y-2455271D01*
X3179751Y-2445033D01*
X3180050Y-2442465D01*
X3180050Y-2413164D01*
X3785000Y-2413164D01*
X3785035Y-2413749D01*
X3785223Y-2415335D01*
X3785613Y-2416752D01*
X3789477Y-2425451D01*
X3790495Y-2426932D01*
X3797111Y-2433537D01*
X3798593Y-2434552D01*
X3807298Y-2438400D01*
X3808718Y-2438787D01*
X3810258Y-2438967D01*
X3810829Y-2439000D01*
X4078432Y-2439000D01*
X4079700Y-2438588D01*
X4080000Y-2438176D01*
X4080000Y-2437432D01*
X4130000Y-2437432D01*
X4130412Y-2438701D01*
X4130824Y-2439000D01*
X4399164Y-2439000D01*
X4399749Y-2438965D01*
X4401335Y-2438777D01*
X4402752Y-2438387D01*
X4411451Y-2434523D01*
X4412932Y-2433505D01*
X4419537Y-2426889D01*
X4420552Y-2425407D01*
X4424400Y-2416702D01*
X4424787Y-2415282D01*
X4424967Y-2413742D01*
X4425000Y-2413171D01*
X4425000Y-2115568D01*
X4424588Y-2114300D01*
X4424176Y-2114000D01*
X4131568Y-2114000D01*
X4130299Y-2114412D01*
X4130000Y-2114824D01*
X4130000Y-2437432D01*
X4080000Y-2437432D01*
X4080000Y-2115568D01*
X4079588Y-2114300D01*
X4079176Y-2114000D01*
X3786568Y-2114000D01*
X3785299Y-2114412D01*
X3785000Y-2114824D01*
X3785000Y-2413164D01*
X3180050Y-2413164D01*
X3180050Y-2313535D01*
X3179738Y-2310915D01*
X3175194Y-2300685D01*
X3171720Y-2297217D01*
X3169892Y-2295392D01*
X3167271Y-2292776D01*
X3164359Y-2291488D01*
X3157714Y-2288550D01*
X3157713Y-2288550D01*
X3157033Y-2288249D01*
X3155632Y-2288086D01*
X3154749Y-2287983D01*
X3154749Y-2287983D01*
X3154465Y-2287950D01*
X2925535Y-2287950D01*
X2923895Y-2288145D01*
X2923653Y-2288174D01*
X2923653Y-2288174D01*
X2922915Y-2288262D01*
X2912685Y-2292806D01*
X2912039Y-2293453D01*
X2912039Y-2293453D01*
X2910109Y-2295386D01*
X2904660Y-2298169D01*
X2898616Y-2297217D01*
X2896102Y-2295392D01*
X2852900Y-2252189D01*
X2850122Y-2246738D01*
X2850000Y-2245189D01*
X2850000Y-1986164D01*
X2900000Y-1986164D01*
X2900035Y-1986748D01*
X2900223Y-1988335D01*
X2900613Y-1989752D01*
X2904477Y-1998451D01*
X2905495Y-1999932D01*
X2912111Y-2006537D01*
X2913593Y-2007552D01*
X2922298Y-2011400D01*
X2923718Y-2011787D01*
X2925258Y-2011967D01*
X2925829Y-2012000D01*
X3013432Y-2012000D01*
X3014700Y-2011588D01*
X3015000Y-2011176D01*
X3015000Y-2010432D01*
X3065000Y-2010432D01*
X3065412Y-2011700D01*
X3065824Y-2012000D01*
X3154164Y-2012000D01*
X3154748Y-2011965D01*
X3156335Y-2011777D01*
X3157752Y-2011387D01*
X3166451Y-2007523D01*
X3167932Y-2006505D01*
X3174537Y-1999889D01*
X3175552Y-1998407D01*
X3179400Y-1989702D01*
X3179787Y-1988281D01*
X3179967Y-1986742D01*
X3180000Y-1986171D01*
X3180000Y-1948568D01*
X3179588Y-1947299D01*
X3179176Y-1947000D01*
X3066568Y-1947000D01*
X3065299Y-1947412D01*
X3065000Y-1947824D01*
X3065000Y-2010432D01*
X3015000Y-2010432D01*
X3015000Y-1948568D01*
X3014588Y-1947299D01*
X3014176Y-1947000D01*
X2901568Y-1947000D01*
X2900299Y-1947412D01*
X2900000Y-1947824D01*
X2900000Y-1986164D01*
X2850000Y-1986164D01*
X2850000Y-1895432D01*
X2900000Y-1895432D01*
X2900412Y-1896700D01*
X2900824Y-1897000D01*
X3013432Y-1897000D01*
X3014700Y-1896588D01*
X3015000Y-1896176D01*
X3015000Y-1895432D01*
X3065000Y-1895432D01*
X3065412Y-1896700D01*
X3065824Y-1897000D01*
X3178432Y-1897000D01*
X3179700Y-1896588D01*
X3180000Y-1896176D01*
X3180000Y-1857836D01*
X3179965Y-1857251D01*
X3179777Y-1855665D01*
X3179387Y-1854248D01*
X3175523Y-1845549D01*
X3174505Y-1844068D01*
X3167889Y-1837463D01*
X3166407Y-1836448D01*
X3157702Y-1832600D01*
X3156281Y-1832213D01*
X3154742Y-1832033D01*
X3154171Y-1832000D01*
X3066568Y-1832000D01*
X3065299Y-1832412D01*
X3065000Y-1832824D01*
X3065000Y-1895432D01*
X3015000Y-1895432D01*
X3015000Y-1833568D01*
X3014588Y-1832299D01*
X3014176Y-1832000D01*
X2925836Y-1832000D01*
X2925251Y-1832035D01*
X2923665Y-1832223D01*
X2922248Y-1832613D01*
X2913549Y-1836477D01*
X2912068Y-1837495D01*
X2905463Y-1844111D01*
X2904448Y-1845593D01*
X2900600Y-1854298D01*
X2900213Y-1855718D01*
X2900033Y-1857258D01*
X2900000Y-1857829D01*
X2900000Y-1895432D01*
X2850000Y-1895432D01*
X2850000Y-1800649D01*
X2850085Y-1799357D01*
X2851534Y-1788351D01*
X2852202Y-1785855D01*
X2856200Y-1776204D01*
X2857492Y-1773966D01*
X2863851Y-1765679D01*
X2865679Y-1763851D01*
X2873966Y-1757492D01*
X2876204Y-1756200D01*
X2885855Y-1752202D01*
X2888351Y-1751534D01*
X2899357Y-1750085D01*
X2900649Y-1750000D01*
X3775720Y-1750000D01*
X3781539Y-1751891D01*
G37*
%TD.AperFunction*%
M02*
