M48
; DRILL file {KiCad (6.0.8)} date Thu 20 Oct 2022 22:21:04
; FORMAT={-:-/ absolute / metric / decimal}
; #@! TF.CreationDate,2022-10-20T22:21:04+02:00
; #@! TF.GenerationSoftware,Kicad,Pcbnew,(6.0.8)
; #@! TF.FileFunction,Plated,1,2,PTH
FMAT,2
METRIC
; #@! TA.AperFunction,Plated,PTH,ViaDrill
T1C0.400
; #@! TA.AperFunction,Plated,PTH,ComponentDrill
T2C1.000
; #@! TA.AperFunction,Plated,PTH,ComponentDrill
T3C1.100
; #@! TA.AperFunction,Plated,PTH,ComponentDrill
T4C1.450
; #@! TA.AperFunction,Plated,PTH,ComponentDrill
T5C3.200
%
G90
G05
T1
X2.1Y-35.0
X2.1Y-36.5
X2.1Y-38.0
X3.6Y-35.0
X3.6Y-36.5
X3.6Y-38.0
X5.1Y-35.0
X5.1Y-36.5
X5.1Y-38.0
X8.3Y-18.2
X9.5Y-35.0
X9.5Y-36.5
X9.5Y-38.0
X11.0Y-35.0
X11.0Y-36.5
X11.0Y-38.0
X12.5Y-35.0
X12.5Y-36.5
X12.5Y-38.0
X14.75Y-35.05
X15.0Y-5.3
X17.0Y-19.0
X17.0Y-20.5
X17.0Y-22.0
X17.0Y-27.4
X17.0Y-28.9
X17.0Y-30.4
X17.2Y-12.6
X17.2Y-14.1
X17.2Y-15.6
X18.5Y-19.0
X18.5Y-20.5
X18.5Y-22.0
X18.5Y-27.4
X18.5Y-28.9
X18.5Y-30.4
X18.7Y-12.6
X18.7Y-14.1
X18.7Y-15.6
X19.8Y-6.3
X20.0Y-19.0
X20.0Y-20.5
X20.0Y-22.0
X20.0Y-27.4
X20.0Y-28.9
X20.0Y-30.4
X20.2Y-12.6
X20.2Y-14.1
X20.2Y-15.6
X20.8Y-1.5
X21.65Y-14.1
X21.65Y-15.6
X23.15Y-14.1
X23.15Y-15.6
X23.5Y-27.4
X23.5Y-28.9
X23.5Y-30.4
X23.6Y-4.5
X24.0Y-8.3
X24.75Y-14.1
X24.75Y-15.6
X25.0Y-27.4
X25.0Y-28.9
X25.0Y-30.4
X26.25Y-14.1
X26.25Y-15.6
X26.5Y-27.4
X26.5Y-28.9
X26.5Y-30.4
X27.75Y-14.1
X27.75Y-15.6
X28.8Y-1.5
X28.8Y-3.4
X29.25Y-14.1
X29.25Y-15.6
X30.75Y-14.1
X30.75Y-15.6
X31.6Y-8.1
X31.7Y-10.2
X32.25Y-14.1
X32.25Y-15.6
X33.1Y-19.0
X33.1Y-20.5
X33.1Y-22.0
X33.1Y-27.4
X33.1Y-28.9
X33.1Y-30.4
X33.8Y-14.1
X33.8Y-15.6
X34.6Y-19.0
X34.6Y-20.5
X34.6Y-22.0
X34.6Y-27.4
X34.6Y-28.9
X34.6Y-30.4
X34.8Y-5.3
X35.3Y-14.1
X35.3Y-15.6
X36.1Y-19.0
X36.1Y-20.5
X36.1Y-22.0
X36.1Y-27.4
X36.1Y-28.9
X36.1Y-30.4
X36.8Y-14.1
X36.8Y-15.6
X40.1Y-1.6
X42.0Y-1.6
X42.0Y-5.4
X43.0Y-27.4
X43.0Y-28.9
X43.0Y-30.4
X44.5Y-27.4
X44.5Y-28.9
X44.5Y-30.4
X46.0Y-27.4
X46.0Y-28.9
X46.0Y-30.4
X49.0Y-19.0
X49.0Y-20.5
X49.0Y-22.0
X49.0Y-35.0
X49.0Y-36.5
X49.0Y-38.0
X50.5Y-19.0
X50.5Y-20.5
X50.5Y-22.0
X50.5Y-35.0
X50.5Y-36.5
X50.5Y-38.0
X52.0Y-19.0
X52.0Y-20.5
X52.0Y-22.0
X52.0Y-35.0
X52.0Y-36.5
X52.0Y-38.0
T2
X51.2Y-2.625
X51.2Y-5.165
T3
X42.7Y-34.12
X42.7Y-36.62
T4
X14.73Y-13.89
X14.73Y-20.24
X14.73Y-26.59
T5
X3.0Y-10.88
X3.0Y-29.13
X51.0Y-10.88
X51.0Y-29.13
T0
M30
