%TF.GenerationSoftware,KiCad,Pcbnew,(6.0.8)*%
%TF.CreationDate,2022-10-20T22:21:08+02:00*%
%TF.ProjectId,WDSSR,57445353-522e-46b6-9963-61645f706362,rev?*%
%TF.SameCoordinates,PX7270e00PY4c4b400*%
%TF.FileFunction,Legend,Bot*%
%TF.FilePolarity,Positive*%
%FSLAX45Y45*%
G04 Gerber Fmt 4.5, Leading zero omitted, Abs format (unit mm)*
G04 Created by KiCad (PCBNEW (6.0.8)) date 2022-10-20 22:21:08*
%MOMM*%
%LPD*%
G01*
G04 APERTURE LIST*
%ADD10C,0.010000*%
%ADD11C,5.700000*%
%ADD12R,2.175000X2.175000*%
%ADD13C,2.175000*%
%ADD14R,1.650000X1.650000*%
%ADD15C,1.650000*%
%ADD16R,1.700000X1.700000*%
%ADD17O,1.700000X1.700000*%
G04 APERTURE END LIST*
G36*
X2833189Y-3736789D02*
G01*
X2834330Y-3737403D01*
X2835385Y-3738469D01*
X2836514Y-3739881D01*
X2836959Y-3740477D01*
X2837559Y-3741527D01*
X2838017Y-3742909D01*
X2838352Y-3744900D01*
X2838583Y-3747773D01*
X2838730Y-3751804D01*
X2838811Y-3757269D01*
X2838846Y-3764441D01*
X2838853Y-3773596D01*
X2838851Y-3779449D01*
X2838829Y-3787357D01*
X2838768Y-3793452D01*
X2838649Y-3798006D01*
X2838453Y-3801296D01*
X2838160Y-3803597D01*
X2837752Y-3805183D01*
X2837210Y-3806329D01*
X2836514Y-3807310D01*
X2833471Y-3809749D01*
X2829976Y-3810037D01*
X2826278Y-3808128D01*
X2825860Y-3807781D01*
X2825042Y-3806928D01*
X2824436Y-3805773D01*
X2823998Y-3803990D01*
X2823684Y-3801252D01*
X2823450Y-3797235D01*
X2823253Y-3791613D01*
X2823049Y-3784059D01*
X2822484Y-3762146D01*
X2795956Y-3786210D01*
X2788572Y-3792887D01*
X2782054Y-3798699D01*
X2776835Y-3803195D01*
X2772727Y-3806487D01*
X2769546Y-3808688D01*
X2767103Y-3809909D01*
X2765212Y-3810264D01*
X2763688Y-3809864D01*
X2762344Y-3808821D01*
X2760993Y-3807247D01*
X2760368Y-3806399D01*
X2759805Y-3805341D01*
X2759384Y-3803925D01*
X2759089Y-3801880D01*
X2758903Y-3798934D01*
X2758811Y-3794816D01*
X2758797Y-3789254D01*
X2758844Y-3781978D01*
X2758935Y-3772715D01*
X2759267Y-3741220D01*
X2761932Y-3739063D01*
X2764538Y-3737444D01*
X2767824Y-3737167D01*
X2771277Y-3739062D01*
X2771708Y-3739421D01*
X2772522Y-3740274D01*
X2773125Y-3741433D01*
X2773561Y-3743223D01*
X2773873Y-3745971D01*
X2774106Y-3749999D01*
X2774303Y-3755635D01*
X2774507Y-3763203D01*
X2775071Y-3785188D01*
X2793133Y-3768808D01*
X2801807Y-3760945D01*
X2809384Y-3754106D01*
X2815598Y-3748571D01*
X2820608Y-3744234D01*
X2824573Y-3740988D01*
X2827655Y-3738727D01*
X2830011Y-3737345D01*
X2831803Y-3736734D01*
X2833189Y-3736789D01*
G37*
D10*
X2833189Y-3736789D02*
X2834330Y-3737403D01*
X2835385Y-3738469D01*
X2836514Y-3739881D01*
X2836959Y-3740477D01*
X2837559Y-3741527D01*
X2838017Y-3742909D01*
X2838352Y-3744900D01*
X2838583Y-3747773D01*
X2838730Y-3751804D01*
X2838811Y-3757269D01*
X2838846Y-3764441D01*
X2838853Y-3773596D01*
X2838851Y-3779449D01*
X2838829Y-3787357D01*
X2838768Y-3793452D01*
X2838649Y-3798006D01*
X2838453Y-3801296D01*
X2838160Y-3803597D01*
X2837752Y-3805183D01*
X2837210Y-3806329D01*
X2836514Y-3807310D01*
X2833471Y-3809749D01*
X2829976Y-3810037D01*
X2826278Y-3808128D01*
X2825860Y-3807781D01*
X2825042Y-3806928D01*
X2824436Y-3805773D01*
X2823998Y-3803990D01*
X2823684Y-3801252D01*
X2823450Y-3797235D01*
X2823253Y-3791613D01*
X2823049Y-3784059D01*
X2822484Y-3762146D01*
X2795956Y-3786210D01*
X2788572Y-3792887D01*
X2782054Y-3798699D01*
X2776835Y-3803195D01*
X2772727Y-3806487D01*
X2769546Y-3808688D01*
X2767103Y-3809909D01*
X2765212Y-3810264D01*
X2763688Y-3809864D01*
X2762344Y-3808821D01*
X2760993Y-3807247D01*
X2760368Y-3806399D01*
X2759805Y-3805341D01*
X2759384Y-3803925D01*
X2759089Y-3801880D01*
X2758903Y-3798934D01*
X2758811Y-3794816D01*
X2758797Y-3789254D01*
X2758844Y-3781978D01*
X2758935Y-3772715D01*
X2759267Y-3741220D01*
X2761932Y-3739063D01*
X2764538Y-3737444D01*
X2767824Y-3737167D01*
X2771277Y-3739062D01*
X2771708Y-3739421D01*
X2772522Y-3740274D01*
X2773125Y-3741433D01*
X2773561Y-3743223D01*
X2773873Y-3745971D01*
X2774106Y-3749999D01*
X2774303Y-3755635D01*
X2774507Y-3763203D01*
X2775071Y-3785188D01*
X2793133Y-3768808D01*
X2801807Y-3760945D01*
X2809384Y-3754106D01*
X2815598Y-3748571D01*
X2820608Y-3744234D01*
X2824573Y-3740988D01*
X2827655Y-3738727D01*
X2830011Y-3737345D01*
X2831803Y-3736734D01*
X2833189Y-3736789D01*
G36*
X3084085Y-3736994D02*
G01*
X3090710Y-3737537D01*
X3096240Y-3738496D01*
X3101328Y-3739982D01*
X3108459Y-3743296D01*
X3113575Y-3747564D01*
X3116657Y-3752770D01*
X3117689Y-3758898D01*
X3117595Y-3762023D01*
X3117016Y-3764503D01*
X3115535Y-3766670D01*
X3112738Y-3769405D01*
X3111940Y-3770138D01*
X3109569Y-3772228D01*
X3107330Y-3773925D01*
X3104926Y-3775320D01*
X3102064Y-3776506D01*
X3098446Y-3777572D01*
X3093778Y-3778611D01*
X3087764Y-3779715D01*
X3080109Y-3780974D01*
X3070517Y-3782480D01*
X3068681Y-3782784D01*
X3062448Y-3784146D01*
X3057926Y-3785719D01*
X3055298Y-3787426D01*
X3054745Y-3789190D01*
X3055007Y-3789617D01*
X3056800Y-3791123D01*
X3059613Y-3792787D01*
X3060893Y-3793386D01*
X3063022Y-3794105D01*
X3065661Y-3794583D01*
X3069245Y-3794865D01*
X3074213Y-3794996D01*
X3081000Y-3795024D01*
X3082778Y-3795016D01*
X3089541Y-3794905D01*
X3096034Y-3794683D01*
X3101597Y-3794376D01*
X3105565Y-3794013D01*
X3109116Y-3793606D01*
X3112041Y-3793528D01*
X3113931Y-3793988D01*
X3115443Y-3795055D01*
X3115808Y-3795414D01*
X3117443Y-3798592D01*
X3117311Y-3802157D01*
X3115415Y-3805219D01*
X3113378Y-3806380D01*
X3109780Y-3807649D01*
X3105537Y-3808654D01*
X3105192Y-3808714D01*
X3100925Y-3809236D01*
X3095187Y-3809673D01*
X3088685Y-3809982D01*
X3082129Y-3810118D01*
X3080506Y-3810122D01*
X3070674Y-3809874D01*
X3062669Y-3809073D01*
X3056151Y-3807620D01*
X3050782Y-3805415D01*
X3046222Y-3802358D01*
X3042132Y-3798349D01*
X3040120Y-3795726D01*
X3038958Y-3792771D01*
X3038667Y-3788799D01*
X3038681Y-3787603D01*
X3039068Y-3784334D01*
X3040306Y-3781682D01*
X3042823Y-3778597D01*
X3044944Y-3776383D01*
X3047584Y-3774128D01*
X3050555Y-3772292D01*
X3054178Y-3770766D01*
X3058772Y-3769445D01*
X3064654Y-3768221D01*
X3072146Y-3766989D01*
X3081564Y-3765641D01*
X3086096Y-3764940D01*
X3092891Y-3763484D01*
X3097805Y-3761834D01*
X3100761Y-3760044D01*
X3101686Y-3758168D01*
X3100505Y-3756261D01*
X3097142Y-3754377D01*
X3096837Y-3754256D01*
X3092201Y-3753048D01*
X3085936Y-3752228D01*
X3078593Y-3751812D01*
X3070722Y-3751816D01*
X3062874Y-3752257D01*
X3055600Y-3753150D01*
X3055207Y-3753215D01*
X3050326Y-3753986D01*
X3047100Y-3754347D01*
X3045001Y-3754288D01*
X3043495Y-3753795D01*
X3042053Y-3752860D01*
X3041936Y-3752772D01*
X3039485Y-3749735D01*
X3039005Y-3746185D01*
X3040586Y-3742727D01*
X3041041Y-3742281D01*
X3044002Y-3740767D01*
X3048700Y-3739455D01*
X3054731Y-3738375D01*
X3061689Y-3737558D01*
X3069170Y-3737035D01*
X3076771Y-3736837D01*
X3084085Y-3736994D01*
G37*
X3084085Y-3736994D02*
X3090710Y-3737537D01*
X3096240Y-3738496D01*
X3101328Y-3739982D01*
X3108459Y-3743296D01*
X3113575Y-3747564D01*
X3116657Y-3752770D01*
X3117689Y-3758898D01*
X3117595Y-3762023D01*
X3117016Y-3764503D01*
X3115535Y-3766670D01*
X3112738Y-3769405D01*
X3111940Y-3770138D01*
X3109569Y-3772228D01*
X3107330Y-3773925D01*
X3104926Y-3775320D01*
X3102064Y-3776506D01*
X3098446Y-3777572D01*
X3093778Y-3778611D01*
X3087764Y-3779715D01*
X3080109Y-3780974D01*
X3070517Y-3782480D01*
X3068681Y-3782784D01*
X3062448Y-3784146D01*
X3057926Y-3785719D01*
X3055298Y-3787426D01*
X3054745Y-3789190D01*
X3055007Y-3789617D01*
X3056800Y-3791123D01*
X3059613Y-3792787D01*
X3060893Y-3793386D01*
X3063022Y-3794105D01*
X3065661Y-3794583D01*
X3069245Y-3794865D01*
X3074213Y-3794996D01*
X3081000Y-3795024D01*
X3082778Y-3795016D01*
X3089541Y-3794905D01*
X3096034Y-3794683D01*
X3101597Y-3794376D01*
X3105565Y-3794013D01*
X3109116Y-3793606D01*
X3112041Y-3793528D01*
X3113931Y-3793988D01*
X3115443Y-3795055D01*
X3115808Y-3795414D01*
X3117443Y-3798592D01*
X3117311Y-3802157D01*
X3115415Y-3805219D01*
X3113378Y-3806380D01*
X3109780Y-3807649D01*
X3105537Y-3808654D01*
X3105192Y-3808714D01*
X3100925Y-3809236D01*
X3095187Y-3809673D01*
X3088685Y-3809982D01*
X3082129Y-3810118D01*
X3080506Y-3810122D01*
X3070674Y-3809874D01*
X3062669Y-3809073D01*
X3056151Y-3807620D01*
X3050782Y-3805415D01*
X3046222Y-3802358D01*
X3042132Y-3798349D01*
X3040120Y-3795726D01*
X3038958Y-3792771D01*
X3038667Y-3788799D01*
X3038681Y-3787603D01*
X3039068Y-3784334D01*
X3040306Y-3781682D01*
X3042823Y-3778597D01*
X3044944Y-3776383D01*
X3047584Y-3774128D01*
X3050555Y-3772292D01*
X3054178Y-3770766D01*
X3058772Y-3769445D01*
X3064654Y-3768221D01*
X3072146Y-3766989D01*
X3081564Y-3765641D01*
X3086096Y-3764940D01*
X3092891Y-3763484D01*
X3097805Y-3761834D01*
X3100761Y-3760044D01*
X3101686Y-3758168D01*
X3100505Y-3756261D01*
X3097142Y-3754377D01*
X3096837Y-3754256D01*
X3092201Y-3753048D01*
X3085936Y-3752228D01*
X3078593Y-3751812D01*
X3070722Y-3751816D01*
X3062874Y-3752257D01*
X3055600Y-3753150D01*
X3055207Y-3753215D01*
X3050326Y-3753986D01*
X3047100Y-3754347D01*
X3045001Y-3754288D01*
X3043495Y-3753795D01*
X3042053Y-3752860D01*
X3041936Y-3752772D01*
X3039485Y-3749735D01*
X3039005Y-3746185D01*
X3040586Y-3742727D01*
X3041041Y-3742281D01*
X3044002Y-3740767D01*
X3048700Y-3739455D01*
X3054731Y-3738375D01*
X3061689Y-3737558D01*
X3069170Y-3737035D01*
X3076771Y-3736837D01*
X3084085Y-3736994D01*
G36*
X2998614Y-3737346D02*
G01*
X3002029Y-3739678D01*
X3004800Y-3742448D01*
X3004800Y-3773754D01*
X3004796Y-3782157D01*
X3004770Y-3789579D01*
X3004703Y-3795254D01*
X3004575Y-3799451D01*
X3004367Y-3802439D01*
X3004060Y-3804486D01*
X3003633Y-3805861D01*
X3003068Y-3806834D01*
X3002345Y-3807672D01*
X2999199Y-3809818D01*
X2995683Y-3809995D01*
X2992382Y-3808027D01*
X2991852Y-3807440D01*
X2991307Y-3806531D01*
X2990890Y-3805197D01*
X2990585Y-3803176D01*
X2990373Y-3800205D01*
X2990239Y-3796023D01*
X2990164Y-3790369D01*
X2990131Y-3782980D01*
X2990124Y-3773596D01*
X2990128Y-3766029D01*
X2990154Y-3758238D01*
X2990218Y-3752237D01*
X2990339Y-3747765D01*
X2990532Y-3744558D01*
X2990816Y-3742357D01*
X2991208Y-3740899D01*
X2991724Y-3739922D01*
X2992382Y-3739164D01*
X2995301Y-3737262D01*
X2998614Y-3737346D01*
G37*
X2998614Y-3737346D02*
X3002029Y-3739678D01*
X3004800Y-3742448D01*
X3004800Y-3773754D01*
X3004796Y-3782157D01*
X3004770Y-3789579D01*
X3004703Y-3795254D01*
X3004575Y-3799451D01*
X3004367Y-3802439D01*
X3004060Y-3804486D01*
X3003633Y-3805861D01*
X3003068Y-3806834D01*
X3002345Y-3807672D01*
X2999199Y-3809818D01*
X2995683Y-3809995D01*
X2992382Y-3808027D01*
X2991852Y-3807440D01*
X2991307Y-3806531D01*
X2990890Y-3805197D01*
X2990585Y-3803176D01*
X2990373Y-3800205D01*
X2990239Y-3796023D01*
X2990164Y-3790369D01*
X2990131Y-3782980D01*
X2990124Y-3773596D01*
X2990128Y-3766029D01*
X2990154Y-3758238D01*
X2990218Y-3752237D01*
X2990339Y-3747765D01*
X2990532Y-3744558D01*
X2990816Y-3742357D01*
X2991208Y-3740899D01*
X2991724Y-3739922D01*
X2992382Y-3739164D01*
X2995301Y-3737262D01*
X2998614Y-3737346D01*
G36*
X2717980Y-3739881D02*
G01*
X2718475Y-3740549D01*
X2719060Y-3741607D01*
X2719506Y-3743015D01*
X2719832Y-3745048D01*
X2720057Y-3747976D01*
X2720200Y-3752074D01*
X2720279Y-3757612D01*
X2720313Y-3764863D01*
X2720320Y-3774099D01*
X2720317Y-3780691D01*
X2720294Y-3788523D01*
X2720232Y-3794550D01*
X2720113Y-3799039D01*
X2719918Y-3802260D01*
X2719629Y-3804480D01*
X2719229Y-3805967D01*
X2718698Y-3806989D01*
X2718018Y-3807814D01*
X2717567Y-3808279D01*
X2716744Y-3808928D01*
X2715608Y-3809419D01*
X2713881Y-3809775D01*
X2711286Y-3810017D01*
X2707544Y-3810167D01*
X2702377Y-3810247D01*
X2695509Y-3810279D01*
X2686661Y-3810284D01*
X2684693Y-3810284D01*
X2675991Y-3810257D01*
X2669225Y-3810181D01*
X2664130Y-3810039D01*
X2660437Y-3809818D01*
X2657878Y-3809502D01*
X2656187Y-3809077D01*
X2655096Y-3808527D01*
X2654046Y-3807528D01*
X2652720Y-3804417D01*
X2652839Y-3800828D01*
X2654455Y-3797673D01*
X2654674Y-3797446D01*
X2655543Y-3796819D01*
X2656877Y-3796352D01*
X2658975Y-3796023D01*
X2662136Y-3795807D01*
X2666659Y-3795681D01*
X2672842Y-3795623D01*
X2680984Y-3795609D01*
X2705645Y-3795609D01*
X2705645Y-3779804D01*
X2689401Y-3779804D01*
X2685834Y-3779796D01*
X2680257Y-3779717D01*
X2676343Y-3779516D01*
X2673698Y-3779152D01*
X2671926Y-3778581D01*
X2670633Y-3777761D01*
X2670269Y-3777442D01*
X2668428Y-3774345D01*
X2668364Y-3770711D01*
X2670118Y-3767349D01*
X2670125Y-3767342D01*
X2671092Y-3766480D01*
X2672421Y-3765874D01*
X2674492Y-3765481D01*
X2677683Y-3765256D01*
X2682373Y-3765153D01*
X2688942Y-3765129D01*
X2705757Y-3765129D01*
X2705419Y-3758638D01*
X2705080Y-3752147D01*
X2680872Y-3751841D01*
X2678371Y-3751809D01*
X2670209Y-3751661D01*
X2663977Y-3751422D01*
X2659415Y-3751023D01*
X2656265Y-3750391D01*
X2654267Y-3749457D01*
X2653160Y-3748150D01*
X2652687Y-3746399D01*
X2652587Y-3744133D01*
X2652587Y-3743897D01*
X2652703Y-3741894D01*
X2653182Y-3740315D01*
X2654263Y-3739109D01*
X2656182Y-3738227D01*
X2659175Y-3737617D01*
X2663478Y-3737231D01*
X2669330Y-3737017D01*
X2676966Y-3736926D01*
X2686623Y-3736907D01*
X2715641Y-3736907D01*
X2717980Y-3739881D01*
G37*
X2717980Y-3739881D02*
X2718475Y-3740549D01*
X2719060Y-3741607D01*
X2719506Y-3743015D01*
X2719832Y-3745048D01*
X2720057Y-3747976D01*
X2720200Y-3752074D01*
X2720279Y-3757612D01*
X2720313Y-3764863D01*
X2720320Y-3774099D01*
X2720317Y-3780691D01*
X2720294Y-3788523D01*
X2720232Y-3794550D01*
X2720113Y-3799039D01*
X2719918Y-3802260D01*
X2719629Y-3804480D01*
X2719229Y-3805967D01*
X2718698Y-3806989D01*
X2718018Y-3807814D01*
X2717567Y-3808279D01*
X2716744Y-3808928D01*
X2715608Y-3809419D01*
X2713881Y-3809775D01*
X2711286Y-3810017D01*
X2707544Y-3810167D01*
X2702377Y-3810247D01*
X2695509Y-3810279D01*
X2686661Y-3810284D01*
X2684693Y-3810284D01*
X2675991Y-3810257D01*
X2669225Y-3810181D01*
X2664130Y-3810039D01*
X2660437Y-3809818D01*
X2657878Y-3809502D01*
X2656187Y-3809077D01*
X2655096Y-3808527D01*
X2654046Y-3807528D01*
X2652720Y-3804417D01*
X2652839Y-3800828D01*
X2654455Y-3797673D01*
X2654674Y-3797446D01*
X2655543Y-3796819D01*
X2656877Y-3796352D01*
X2658975Y-3796023D01*
X2662136Y-3795807D01*
X2666659Y-3795681D01*
X2672842Y-3795623D01*
X2680984Y-3795609D01*
X2705645Y-3795609D01*
X2705645Y-3779804D01*
X2689401Y-3779804D01*
X2685834Y-3779796D01*
X2680257Y-3779717D01*
X2676343Y-3779516D01*
X2673698Y-3779152D01*
X2671926Y-3778581D01*
X2670633Y-3777761D01*
X2670269Y-3777442D01*
X2668428Y-3774345D01*
X2668364Y-3770711D01*
X2670118Y-3767349D01*
X2670125Y-3767342D01*
X2671092Y-3766480D01*
X2672421Y-3765874D01*
X2674492Y-3765481D01*
X2677683Y-3765256D01*
X2682373Y-3765153D01*
X2688942Y-3765129D01*
X2705757Y-3765129D01*
X2705419Y-3758638D01*
X2705080Y-3752147D01*
X2680872Y-3751841D01*
X2678371Y-3751809D01*
X2670209Y-3751661D01*
X2663977Y-3751422D01*
X2659415Y-3751023D01*
X2656265Y-3750391D01*
X2654267Y-3749457D01*
X2653160Y-3748150D01*
X2652687Y-3746399D01*
X2652587Y-3744133D01*
X2652587Y-3743897D01*
X2652703Y-3741894D01*
X2653182Y-3740315D01*
X2654263Y-3739109D01*
X2656182Y-3738227D01*
X2659175Y-3737617D01*
X2663478Y-3737231D01*
X2669330Y-3737017D01*
X2676966Y-3736926D01*
X2686623Y-3736907D01*
X2715641Y-3736907D01*
X2717980Y-3739881D01*
G36*
X2618316Y-3801317D02*
G01*
X2618024Y-3803609D01*
X2617616Y-3805190D01*
X2617074Y-3806332D01*
X2616380Y-3807310D01*
X2614041Y-3810284D01*
X2597471Y-3810225D01*
X2593992Y-3810195D01*
X2584144Y-3809852D01*
X2576047Y-3809084D01*
X2569338Y-3807828D01*
X2563650Y-3806023D01*
X2558617Y-3803605D01*
X2558281Y-3803413D01*
X2552500Y-3799742D01*
X2548264Y-3796045D01*
X2544983Y-3791697D01*
X2542063Y-3786069D01*
X2541635Y-3785107D01*
X2539377Y-3778789D01*
X2538803Y-3774233D01*
X2553728Y-3774233D01*
X2554289Y-3776706D01*
X2554862Y-3778294D01*
X2558155Y-3784285D01*
X2562889Y-3788860D01*
X2569265Y-3792174D01*
X2577486Y-3794379D01*
X2577766Y-3794429D01*
X2582394Y-3795025D01*
X2588034Y-3795448D01*
X2593527Y-3795609D01*
X2602916Y-3795609D01*
X2602916Y-3751582D01*
X2594167Y-3751627D01*
X2587475Y-3751875D01*
X2578235Y-3753000D01*
X2570303Y-3754954D01*
X2564106Y-3757651D01*
X2561012Y-3759724D01*
X2558200Y-3762701D01*
X2555866Y-3766943D01*
X2555153Y-3768540D01*
X2553971Y-3771790D01*
X2553728Y-3774233D01*
X2538803Y-3774233D01*
X2538680Y-3773251D01*
X2539540Y-3767748D01*
X2541954Y-3761535D01*
X2542034Y-3761366D01*
X2546079Y-3754424D01*
X2551147Y-3748764D01*
X2557420Y-3744307D01*
X2565077Y-3740974D01*
X2574301Y-3738686D01*
X2585271Y-3737364D01*
X2598169Y-3736927D01*
X2598526Y-3736927D01*
X2604528Y-3736941D01*
X2608721Y-3737045D01*
X2611533Y-3737304D01*
X2613390Y-3737785D01*
X2614719Y-3738554D01*
X2615949Y-3739678D01*
X2618720Y-3742448D01*
X2618720Y-3773392D01*
X2618718Y-3779553D01*
X2618695Y-3787431D01*
X2618633Y-3793502D01*
X2618578Y-3795609D01*
X2618513Y-3798040D01*
X2618316Y-3801317D01*
G37*
X2618316Y-3801317D02*
X2618024Y-3803609D01*
X2617616Y-3805190D01*
X2617074Y-3806332D01*
X2616380Y-3807310D01*
X2614041Y-3810284D01*
X2597471Y-3810225D01*
X2593992Y-3810195D01*
X2584144Y-3809852D01*
X2576047Y-3809084D01*
X2569338Y-3807828D01*
X2563650Y-3806023D01*
X2558617Y-3803605D01*
X2558281Y-3803413D01*
X2552500Y-3799742D01*
X2548264Y-3796045D01*
X2544983Y-3791697D01*
X2542063Y-3786069D01*
X2541635Y-3785107D01*
X2539377Y-3778789D01*
X2538803Y-3774233D01*
X2553728Y-3774233D01*
X2554289Y-3776706D01*
X2554862Y-3778294D01*
X2558155Y-3784285D01*
X2562889Y-3788860D01*
X2569265Y-3792174D01*
X2577486Y-3794379D01*
X2577766Y-3794429D01*
X2582394Y-3795025D01*
X2588034Y-3795448D01*
X2593527Y-3795609D01*
X2602916Y-3795609D01*
X2602916Y-3751582D01*
X2594167Y-3751627D01*
X2587475Y-3751875D01*
X2578235Y-3753000D01*
X2570303Y-3754954D01*
X2564106Y-3757651D01*
X2561012Y-3759724D01*
X2558200Y-3762701D01*
X2555866Y-3766943D01*
X2555153Y-3768540D01*
X2553971Y-3771790D01*
X2553728Y-3774233D01*
X2538803Y-3774233D01*
X2538680Y-3773251D01*
X2539540Y-3767748D01*
X2541954Y-3761535D01*
X2542034Y-3761366D01*
X2546079Y-3754424D01*
X2551147Y-3748764D01*
X2557420Y-3744307D01*
X2565077Y-3740974D01*
X2574301Y-3738686D01*
X2585271Y-3737364D01*
X2598169Y-3736927D01*
X2598526Y-3736927D01*
X2604528Y-3736941D01*
X2608721Y-3737045D01*
X2611533Y-3737304D01*
X2613390Y-3737785D01*
X2614719Y-3738554D01*
X2615949Y-3739678D01*
X2618720Y-3742448D01*
X2618720Y-3773392D01*
X2618718Y-3779553D01*
X2618695Y-3787431D01*
X2618633Y-3793502D01*
X2618578Y-3795609D01*
X2618513Y-3798040D01*
X2618316Y-3801317D01*
G36*
X2698871Y-3306203D02*
G01*
X2708427Y-3307952D01*
X2724856Y-3312456D01*
X2740259Y-3318766D01*
X2754851Y-3326991D01*
X2768847Y-3337246D01*
X2782461Y-3349640D01*
X2786847Y-3354166D01*
X2798076Y-3367386D01*
X2807397Y-3381183D01*
X2815072Y-3395975D01*
X2821360Y-3412180D01*
X2821742Y-3413339D01*
X2826751Y-3431939D01*
X2830090Y-3451552D01*
X2831758Y-3471757D01*
X2831755Y-3492132D01*
X2830079Y-3512258D01*
X2826729Y-3531713D01*
X2821704Y-3550076D01*
X2817319Y-3561805D01*
X2809535Y-3578095D01*
X2800183Y-3593487D01*
X2789482Y-3607667D01*
X2777652Y-3620324D01*
X2764911Y-3631144D01*
X2757161Y-3636412D01*
X2744473Y-3643375D01*
X2730724Y-3649247D01*
X2716572Y-3653759D01*
X2702670Y-3656642D01*
X2701260Y-3656811D01*
X2696915Y-3657143D01*
X2691172Y-3657427D01*
X2684612Y-3657637D01*
X2677817Y-3657747D01*
X2665138Y-3657514D01*
X2650367Y-3656214D01*
X2636578Y-3653713D01*
X2623201Y-3649932D01*
X2620856Y-3649089D01*
X2616061Y-3647141D01*
X2610414Y-3644647D01*
X2604238Y-3641772D01*
X2597856Y-3638679D01*
X2591593Y-3635531D01*
X2585770Y-3632493D01*
X2580713Y-3629728D01*
X2576743Y-3627400D01*
X2574185Y-3625672D01*
X2573363Y-3624708D01*
X2573508Y-3624398D01*
X2574625Y-3622408D01*
X2576713Y-3618842D01*
X2579627Y-3613946D01*
X2583218Y-3607965D01*
X2587342Y-3601143D01*
X2591852Y-3593727D01*
X2609979Y-3564001D01*
X2614632Y-3568454D01*
X2623772Y-3576286D01*
X2635133Y-3583744D01*
X2646912Y-3589147D01*
X2658956Y-3592429D01*
X2671112Y-3593521D01*
X2675259Y-3593387D01*
X2687008Y-3591561D01*
X2698009Y-3587662D01*
X2708143Y-3581767D01*
X2717292Y-3573956D01*
X2725338Y-3564306D01*
X2732163Y-3552898D01*
X2733791Y-3549472D01*
X2738398Y-3537124D01*
X2741911Y-3523292D01*
X2744320Y-3508356D01*
X2745617Y-3492697D01*
X2745795Y-3476696D01*
X2744844Y-3460731D01*
X2742757Y-3445185D01*
X2739525Y-3430437D01*
X2735140Y-3416867D01*
X2731398Y-3408208D01*
X2724919Y-3396869D01*
X2717377Y-3387507D01*
X2708742Y-3380096D01*
X2698980Y-3374609D01*
X2688058Y-3371021D01*
X2675944Y-3369305D01*
X2669004Y-3369188D01*
X2656717Y-3370614D01*
X2645166Y-3374124D01*
X2634495Y-3379668D01*
X2624846Y-3387196D01*
X2623272Y-3388644D01*
X2620215Y-3391296D01*
X2617981Y-3393014D01*
X2616969Y-3393479D01*
X2616771Y-3393260D01*
X2615324Y-3391372D01*
X2612940Y-3388040D01*
X2609803Y-3383538D01*
X2606097Y-3378142D01*
X2602008Y-3372128D01*
X2597720Y-3365772D01*
X2593418Y-3359348D01*
X2589286Y-3353131D01*
X2585509Y-3347399D01*
X2582271Y-3342426D01*
X2579758Y-3338487D01*
X2578154Y-3335858D01*
X2577644Y-3334815D01*
X2578105Y-3334394D01*
X2580027Y-3333893D01*
X2580984Y-3333639D01*
X2583781Y-3332525D01*
X2587945Y-3330680D01*
X2593100Y-3328272D01*
X2598869Y-3325470D01*
X2599996Y-3324915D01*
X2617769Y-3316989D01*
X2634749Y-3311038D01*
X2651143Y-3307024D01*
X2667157Y-3304907D01*
X2682998Y-3304647D01*
X2698871Y-3306203D01*
G37*
X2698871Y-3306203D02*
X2708427Y-3307952D01*
X2724856Y-3312456D01*
X2740259Y-3318766D01*
X2754851Y-3326991D01*
X2768847Y-3337246D01*
X2782461Y-3349640D01*
X2786847Y-3354166D01*
X2798076Y-3367386D01*
X2807397Y-3381183D01*
X2815072Y-3395975D01*
X2821360Y-3412180D01*
X2821742Y-3413339D01*
X2826751Y-3431939D01*
X2830090Y-3451552D01*
X2831758Y-3471757D01*
X2831755Y-3492132D01*
X2830079Y-3512258D01*
X2826729Y-3531713D01*
X2821704Y-3550076D01*
X2817319Y-3561805D01*
X2809535Y-3578095D01*
X2800183Y-3593487D01*
X2789482Y-3607667D01*
X2777652Y-3620324D01*
X2764911Y-3631144D01*
X2757161Y-3636412D01*
X2744473Y-3643375D01*
X2730724Y-3649247D01*
X2716572Y-3653759D01*
X2702670Y-3656642D01*
X2701260Y-3656811D01*
X2696915Y-3657143D01*
X2691172Y-3657427D01*
X2684612Y-3657637D01*
X2677817Y-3657747D01*
X2665138Y-3657514D01*
X2650367Y-3656214D01*
X2636578Y-3653713D01*
X2623201Y-3649932D01*
X2620856Y-3649089D01*
X2616061Y-3647141D01*
X2610414Y-3644647D01*
X2604238Y-3641772D01*
X2597856Y-3638679D01*
X2591593Y-3635531D01*
X2585770Y-3632493D01*
X2580713Y-3629728D01*
X2576743Y-3627400D01*
X2574185Y-3625672D01*
X2573363Y-3624708D01*
X2573508Y-3624398D01*
X2574625Y-3622408D01*
X2576713Y-3618842D01*
X2579627Y-3613946D01*
X2583218Y-3607965D01*
X2587342Y-3601143D01*
X2591852Y-3593727D01*
X2609979Y-3564001D01*
X2614632Y-3568454D01*
X2623772Y-3576286D01*
X2635133Y-3583744D01*
X2646912Y-3589147D01*
X2658956Y-3592429D01*
X2671112Y-3593521D01*
X2675259Y-3593387D01*
X2687008Y-3591561D01*
X2698009Y-3587662D01*
X2708143Y-3581767D01*
X2717292Y-3573956D01*
X2725338Y-3564306D01*
X2732163Y-3552898D01*
X2733791Y-3549472D01*
X2738398Y-3537124D01*
X2741911Y-3523292D01*
X2744320Y-3508356D01*
X2745617Y-3492697D01*
X2745795Y-3476696D01*
X2744844Y-3460731D01*
X2742757Y-3445185D01*
X2739525Y-3430437D01*
X2735140Y-3416867D01*
X2731398Y-3408208D01*
X2724919Y-3396869D01*
X2717377Y-3387507D01*
X2708742Y-3380096D01*
X2698980Y-3374609D01*
X2688058Y-3371021D01*
X2675944Y-3369305D01*
X2669004Y-3369188D01*
X2656717Y-3370614D01*
X2645166Y-3374124D01*
X2634495Y-3379668D01*
X2624846Y-3387196D01*
X2623272Y-3388644D01*
X2620215Y-3391296D01*
X2617981Y-3393014D01*
X2616969Y-3393479D01*
X2616771Y-3393260D01*
X2615324Y-3391372D01*
X2612940Y-3388040D01*
X2609803Y-3383538D01*
X2606097Y-3378142D01*
X2602008Y-3372128D01*
X2597720Y-3365772D01*
X2593418Y-3359348D01*
X2589286Y-3353131D01*
X2585509Y-3347399D01*
X2582271Y-3342426D01*
X2579758Y-3338487D01*
X2578154Y-3335858D01*
X2577644Y-3334815D01*
X2578105Y-3334394D01*
X2580027Y-3333893D01*
X2580984Y-3333639D01*
X2583781Y-3332525D01*
X2587945Y-3330680D01*
X2593100Y-3328272D01*
X2598869Y-3325470D01*
X2599996Y-3324915D01*
X2617769Y-3316989D01*
X2634749Y-3311038D01*
X2651143Y-3307024D01*
X2667157Y-3304907D01*
X2682998Y-3304647D01*
X2698871Y-3306203D01*
G36*
X3327687Y-3763504D02*
G01*
X3327662Y-3773596D01*
X3327658Y-3781162D01*
X3327633Y-3788953D01*
X3327568Y-3794954D01*
X3327448Y-3799426D01*
X3327254Y-3802633D01*
X3326970Y-3804834D01*
X3326579Y-3806292D01*
X3326063Y-3807269D01*
X3325404Y-3808027D01*
X3324708Y-3808650D01*
X3323408Y-3809380D01*
X3321493Y-3809855D01*
X3318553Y-3810129D01*
X3314176Y-3810254D01*
X3307953Y-3810284D01*
X3303058Y-3810247D01*
X3292372Y-3809804D01*
X3283449Y-3808795D01*
X3275970Y-3807136D01*
X3269612Y-3804743D01*
X3264058Y-3801532D01*
X3258985Y-3797418D01*
X3258387Y-3796833D01*
X3254700Y-3791982D01*
X3251590Y-3785901D01*
X3249442Y-3779477D01*
X3248914Y-3775603D01*
X3263635Y-3775603D01*
X3265463Y-3780696D01*
X3268430Y-3785288D01*
X3273100Y-3789529D01*
X3279239Y-3792509D01*
X3287154Y-3794423D01*
X3287303Y-3794446D01*
X3292200Y-3795026D01*
X3298069Y-3795440D01*
X3303673Y-3795600D01*
X3312987Y-3795609D01*
X3312987Y-3751582D01*
X3305367Y-3751581D01*
X3305064Y-3751582D01*
X3299952Y-3751778D01*
X3293942Y-3752251D01*
X3288271Y-3752903D01*
X3283275Y-3753833D01*
X3275800Y-3756460D01*
X3270049Y-3760390D01*
X3265899Y-3765693D01*
X3263777Y-3770820D01*
X3263635Y-3775603D01*
X3248914Y-3775603D01*
X3248640Y-3773596D01*
X3248768Y-3771474D01*
X3249999Y-3765732D01*
X3252252Y-3759741D01*
X3255175Y-3754336D01*
X3258417Y-3750353D01*
X3260371Y-3748651D01*
X3265842Y-3744732D01*
X3271872Y-3741719D01*
X3278792Y-3739523D01*
X3286931Y-3738055D01*
X3296620Y-3737226D01*
X3308189Y-3736947D01*
X3312137Y-3736907D01*
X3316708Y-3736865D01*
X3320288Y-3737046D01*
X3322997Y-3737674D01*
X3324956Y-3738976D01*
X3326283Y-3741178D01*
X3327100Y-3744505D01*
X3327526Y-3749185D01*
X3327586Y-3751582D01*
X3327682Y-3755443D01*
X3327687Y-3763504D01*
G37*
X3327687Y-3763504D02*
X3327662Y-3773596D01*
X3327658Y-3781162D01*
X3327633Y-3788953D01*
X3327568Y-3794954D01*
X3327448Y-3799426D01*
X3327254Y-3802633D01*
X3326970Y-3804834D01*
X3326579Y-3806292D01*
X3326063Y-3807269D01*
X3325404Y-3808027D01*
X3324708Y-3808650D01*
X3323408Y-3809380D01*
X3321493Y-3809855D01*
X3318553Y-3810129D01*
X3314176Y-3810254D01*
X3307953Y-3810284D01*
X3303058Y-3810247D01*
X3292372Y-3809804D01*
X3283449Y-3808795D01*
X3275970Y-3807136D01*
X3269612Y-3804743D01*
X3264058Y-3801532D01*
X3258985Y-3797418D01*
X3258387Y-3796833D01*
X3254700Y-3791982D01*
X3251590Y-3785901D01*
X3249442Y-3779477D01*
X3248914Y-3775603D01*
X3263635Y-3775603D01*
X3265463Y-3780696D01*
X3268430Y-3785288D01*
X3273100Y-3789529D01*
X3279239Y-3792509D01*
X3287154Y-3794423D01*
X3287303Y-3794446D01*
X3292200Y-3795026D01*
X3298069Y-3795440D01*
X3303673Y-3795600D01*
X3312987Y-3795609D01*
X3312987Y-3751582D01*
X3305367Y-3751581D01*
X3305064Y-3751582D01*
X3299952Y-3751778D01*
X3293942Y-3752251D01*
X3288271Y-3752903D01*
X3283275Y-3753833D01*
X3275800Y-3756460D01*
X3270049Y-3760390D01*
X3265899Y-3765693D01*
X3263777Y-3770820D01*
X3263635Y-3775603D01*
X3248914Y-3775603D01*
X3248640Y-3773596D01*
X3248768Y-3771474D01*
X3249999Y-3765732D01*
X3252252Y-3759741D01*
X3255175Y-3754336D01*
X3258417Y-3750353D01*
X3260371Y-3748651D01*
X3265842Y-3744732D01*
X3271872Y-3741719D01*
X3278792Y-3739523D01*
X3286931Y-3738055D01*
X3296620Y-3737226D01*
X3308189Y-3736947D01*
X3312137Y-3736907D01*
X3316708Y-3736865D01*
X3320288Y-3737046D01*
X3322997Y-3737674D01*
X3324956Y-3738976D01*
X3326283Y-3741178D01*
X3327100Y-3744505D01*
X3327526Y-3749185D01*
X3327586Y-3751582D01*
X3327682Y-3755443D01*
X3327687Y-3763504D01*
G36*
X2147973Y-3739164D02*
G01*
X2148537Y-3739783D01*
X2149046Y-3740604D01*
X2149454Y-3741782D01*
X2149772Y-3743528D01*
X2150009Y-3746053D01*
X2150174Y-3749569D01*
X2150277Y-3754287D01*
X2150328Y-3760418D01*
X2150336Y-3768173D01*
X2150311Y-3777763D01*
X2150263Y-3789400D01*
X2150256Y-3790817D01*
X2150197Y-3796994D01*
X2150065Y-3801362D01*
X2149810Y-3804300D01*
X2149385Y-3806185D01*
X2148740Y-3807396D01*
X2147826Y-3808309D01*
X2144480Y-3810051D01*
X2140986Y-3809760D01*
X2137895Y-3807310D01*
X2136994Y-3805990D01*
X2136249Y-3804136D01*
X2135812Y-3801533D01*
X2135607Y-3797679D01*
X2135556Y-3792070D01*
X2135556Y-3779804D01*
X2085884Y-3779804D01*
X2085884Y-3793287D01*
X2085877Y-3796866D01*
X2085801Y-3801499D01*
X2085583Y-3804553D01*
X2085154Y-3806456D01*
X2084441Y-3807637D01*
X2083375Y-3808527D01*
X2080150Y-3810034D01*
X2076622Y-3809767D01*
X2073549Y-3807310D01*
X2073083Y-3806684D01*
X2072489Y-3805632D01*
X2072036Y-3804239D01*
X2071705Y-3802232D01*
X2071476Y-3799336D01*
X2071331Y-3795278D01*
X2071250Y-3789784D01*
X2071216Y-3782580D01*
X2071209Y-3773392D01*
X2071209Y-3742448D01*
X2073980Y-3739678D01*
X2077118Y-3737453D01*
X2080441Y-3737184D01*
X2083627Y-3739164D01*
X2084455Y-3740141D01*
X2085196Y-3741731D01*
X2085630Y-3744127D01*
X2085834Y-3747815D01*
X2085884Y-3753276D01*
X2085884Y-3765129D01*
X2135556Y-3765129D01*
X2135556Y-3753578D01*
X2135599Y-3748408D01*
X2135796Y-3744955D01*
X2136247Y-3742698D01*
X2137057Y-3741113D01*
X2138327Y-3739678D01*
X2141464Y-3737453D01*
X2144787Y-3737184D01*
X2147973Y-3739164D01*
G37*
X2147973Y-3739164D02*
X2148537Y-3739783D01*
X2149046Y-3740604D01*
X2149454Y-3741782D01*
X2149772Y-3743528D01*
X2150009Y-3746053D01*
X2150174Y-3749569D01*
X2150277Y-3754287D01*
X2150328Y-3760418D01*
X2150336Y-3768173D01*
X2150311Y-3777763D01*
X2150263Y-3789400D01*
X2150256Y-3790817D01*
X2150197Y-3796994D01*
X2150065Y-3801362D01*
X2149810Y-3804300D01*
X2149385Y-3806185D01*
X2148740Y-3807396D01*
X2147826Y-3808309D01*
X2144480Y-3810051D01*
X2140986Y-3809760D01*
X2137895Y-3807310D01*
X2136994Y-3805990D01*
X2136249Y-3804136D01*
X2135812Y-3801533D01*
X2135607Y-3797679D01*
X2135556Y-3792070D01*
X2135556Y-3779804D01*
X2085884Y-3779804D01*
X2085884Y-3793287D01*
X2085877Y-3796866D01*
X2085801Y-3801499D01*
X2085583Y-3804553D01*
X2085154Y-3806456D01*
X2084441Y-3807637D01*
X2083375Y-3808527D01*
X2080150Y-3810034D01*
X2076622Y-3809767D01*
X2073549Y-3807310D01*
X2073083Y-3806684D01*
X2072489Y-3805632D01*
X2072036Y-3804239D01*
X2071705Y-3802232D01*
X2071476Y-3799336D01*
X2071331Y-3795278D01*
X2071250Y-3789784D01*
X2071216Y-3782580D01*
X2071209Y-3773392D01*
X2071209Y-3742448D01*
X2073980Y-3739678D01*
X2077118Y-3737453D01*
X2080441Y-3737184D01*
X2083627Y-3739164D01*
X2084455Y-3740141D01*
X2085196Y-3741731D01*
X2085630Y-3744127D01*
X2085834Y-3747815D01*
X2085884Y-3753276D01*
X2085884Y-3765129D01*
X2135556Y-3765129D01*
X2135556Y-3753578D01*
X2135599Y-3748408D01*
X2135796Y-3744955D01*
X2136247Y-3742698D01*
X2137057Y-3741113D01*
X2138327Y-3739678D01*
X2141464Y-3737453D01*
X2144787Y-3737184D01*
X2147973Y-3739164D01*
G36*
X2318527Y-3542016D02*
G01*
X2317669Y-3557159D01*
X2315783Y-3570828D01*
X2312784Y-3583428D01*
X2308584Y-3595362D01*
X2303097Y-3607038D01*
X2296417Y-3618118D01*
X2287336Y-3629474D01*
X2276971Y-3639021D01*
X2265389Y-3646707D01*
X2252659Y-3652480D01*
X2238849Y-3656286D01*
X2235079Y-3656867D01*
X2227175Y-3657440D01*
X2218363Y-3657458D01*
X2209424Y-3656954D01*
X2201138Y-3655958D01*
X2194289Y-3654501D01*
X2191204Y-3653536D01*
X2183473Y-3650512D01*
X2175768Y-3646762D01*
X2168820Y-3642661D01*
X2163362Y-3638588D01*
X2161092Y-3636650D01*
X2158820Y-3634866D01*
X2157678Y-3634178D01*
X2157554Y-3634342D01*
X2157273Y-3636120D01*
X2157078Y-3639437D01*
X2157005Y-3643773D01*
X2157005Y-3653369D01*
X2071190Y-3653369D01*
X2074616Y-3647297D01*
X2075135Y-3646387D01*
X2075971Y-3644925D01*
X2076729Y-3643517D01*
X2077411Y-3642054D01*
X2078023Y-3640425D01*
X2078567Y-3638520D01*
X2079049Y-3636229D01*
X2079471Y-3633441D01*
X2079838Y-3630048D01*
X2080153Y-3625938D01*
X2080421Y-3621001D01*
X2080645Y-3615129D01*
X2080830Y-3608209D01*
X2080979Y-3600133D01*
X2081095Y-3590789D01*
X2081168Y-3582072D01*
X2161520Y-3582072D01*
X2168576Y-3586709D01*
X2172642Y-3589079D01*
X2178055Y-3591664D01*
X2182969Y-3593483D01*
X2189317Y-3595055D01*
X2198933Y-3596154D01*
X2207390Y-3595336D01*
X2214722Y-3592580D01*
X2220964Y-3587864D01*
X2226150Y-3581166D01*
X2230316Y-3572463D01*
X2233496Y-3561735D01*
X2233755Y-3560501D01*
X2234600Y-3554377D01*
X2235166Y-3546669D01*
X2235458Y-3537900D01*
X2235478Y-3528593D01*
X2235233Y-3519272D01*
X2234726Y-3510459D01*
X2233962Y-3502679D01*
X2232945Y-3496453D01*
X2232817Y-3495867D01*
X2229913Y-3484812D01*
X2226461Y-3475757D01*
X2222346Y-3468495D01*
X2217450Y-3462818D01*
X2211657Y-3458518D01*
X2208462Y-3456961D01*
X2201178Y-3455072D01*
X2193044Y-3454746D01*
X2184532Y-3455939D01*
X2176113Y-3458604D01*
X2168261Y-3462696D01*
X2161520Y-3467053D01*
X2161520Y-3582072D01*
X2081168Y-3582072D01*
X2081184Y-3580069D01*
X2081249Y-3567862D01*
X2081294Y-3554058D01*
X2081322Y-3538546D01*
X2081337Y-3521217D01*
X2081345Y-3501960D01*
X2081347Y-3480666D01*
X2081349Y-3457224D01*
X2081369Y-3288738D01*
X2171902Y-3288738D01*
X2169459Y-3292407D01*
X2168832Y-3293365D01*
X2166221Y-3297998D01*
X2164447Y-3302710D01*
X2163291Y-3308225D01*
X2162533Y-3315267D01*
X2162484Y-3315965D01*
X2162306Y-3319764D01*
X2162144Y-3325158D01*
X2162000Y-3331870D01*
X2161874Y-3339627D01*
X2161768Y-3348153D01*
X2161683Y-3357172D01*
X2161620Y-3366411D01*
X2161581Y-3375592D01*
X2161567Y-3384443D01*
X2161579Y-3392686D01*
X2161618Y-3400048D01*
X2161686Y-3406253D01*
X2161784Y-3411025D01*
X2161913Y-3414090D01*
X2162075Y-3415173D01*
X2162896Y-3414733D01*
X2165065Y-3413236D01*
X2168001Y-3411045D01*
X2172888Y-3407624D01*
X2181713Y-3402971D01*
X2191592Y-3399605D01*
X2202851Y-3397423D01*
X2215816Y-3396326D01*
X2225067Y-3396222D01*
X2237201Y-3397201D01*
X2248210Y-3399617D01*
X2258539Y-3403578D01*
X2268634Y-3409193D01*
X2273150Y-3412288D01*
X2283691Y-3421411D01*
X2292854Y-3432311D01*
X2300633Y-3444973D01*
X2307024Y-3459384D01*
X2312021Y-3475533D01*
X2315620Y-3493406D01*
X2317814Y-3512989D01*
X2318390Y-3528593D01*
X2318599Y-3534271D01*
X2318527Y-3542016D01*
G37*
X2318527Y-3542016D02*
X2317669Y-3557159D01*
X2315783Y-3570828D01*
X2312784Y-3583428D01*
X2308584Y-3595362D01*
X2303097Y-3607038D01*
X2296417Y-3618118D01*
X2287336Y-3629474D01*
X2276971Y-3639021D01*
X2265389Y-3646707D01*
X2252659Y-3652480D01*
X2238849Y-3656286D01*
X2235079Y-3656867D01*
X2227175Y-3657440D01*
X2218363Y-3657458D01*
X2209424Y-3656954D01*
X2201138Y-3655958D01*
X2194289Y-3654501D01*
X2191204Y-3653536D01*
X2183473Y-3650512D01*
X2175768Y-3646762D01*
X2168820Y-3642661D01*
X2163362Y-3638588D01*
X2161092Y-3636650D01*
X2158820Y-3634866D01*
X2157678Y-3634178D01*
X2157554Y-3634342D01*
X2157273Y-3636120D01*
X2157078Y-3639437D01*
X2157005Y-3643773D01*
X2157005Y-3653369D01*
X2071190Y-3653369D01*
X2074616Y-3647297D01*
X2075135Y-3646387D01*
X2075971Y-3644925D01*
X2076729Y-3643517D01*
X2077411Y-3642054D01*
X2078023Y-3640425D01*
X2078567Y-3638520D01*
X2079049Y-3636229D01*
X2079471Y-3633441D01*
X2079838Y-3630048D01*
X2080153Y-3625938D01*
X2080421Y-3621001D01*
X2080645Y-3615129D01*
X2080830Y-3608209D01*
X2080979Y-3600133D01*
X2081095Y-3590789D01*
X2081168Y-3582072D01*
X2161520Y-3582072D01*
X2168576Y-3586709D01*
X2172642Y-3589079D01*
X2178055Y-3591664D01*
X2182969Y-3593483D01*
X2189317Y-3595055D01*
X2198933Y-3596154D01*
X2207390Y-3595336D01*
X2214722Y-3592580D01*
X2220964Y-3587864D01*
X2226150Y-3581166D01*
X2230316Y-3572463D01*
X2233496Y-3561735D01*
X2233755Y-3560501D01*
X2234600Y-3554377D01*
X2235166Y-3546669D01*
X2235458Y-3537900D01*
X2235478Y-3528593D01*
X2235233Y-3519272D01*
X2234726Y-3510459D01*
X2233962Y-3502679D01*
X2232945Y-3496453D01*
X2232817Y-3495867D01*
X2229913Y-3484812D01*
X2226461Y-3475757D01*
X2222346Y-3468495D01*
X2217450Y-3462818D01*
X2211657Y-3458518D01*
X2208462Y-3456961D01*
X2201178Y-3455072D01*
X2193044Y-3454746D01*
X2184532Y-3455939D01*
X2176113Y-3458604D01*
X2168261Y-3462696D01*
X2161520Y-3467053D01*
X2161520Y-3582072D01*
X2081168Y-3582072D01*
X2081184Y-3580069D01*
X2081249Y-3567862D01*
X2081294Y-3554058D01*
X2081322Y-3538546D01*
X2081337Y-3521217D01*
X2081345Y-3501960D01*
X2081347Y-3480666D01*
X2081349Y-3457224D01*
X2081369Y-3288738D01*
X2171902Y-3288738D01*
X2169459Y-3292407D01*
X2168832Y-3293365D01*
X2166221Y-3297998D01*
X2164447Y-3302710D01*
X2163291Y-3308225D01*
X2162533Y-3315267D01*
X2162484Y-3315965D01*
X2162306Y-3319764D01*
X2162144Y-3325158D01*
X2162000Y-3331870D01*
X2161874Y-3339627D01*
X2161768Y-3348153D01*
X2161683Y-3357172D01*
X2161620Y-3366411D01*
X2161581Y-3375592D01*
X2161567Y-3384443D01*
X2161579Y-3392686D01*
X2161618Y-3400048D01*
X2161686Y-3406253D01*
X2161784Y-3411025D01*
X2161913Y-3414090D01*
X2162075Y-3415173D01*
X2162896Y-3414733D01*
X2165065Y-3413236D01*
X2168001Y-3411045D01*
X2172888Y-3407624D01*
X2181713Y-3402971D01*
X2191592Y-3399605D01*
X2202851Y-3397423D01*
X2215816Y-3396326D01*
X2225067Y-3396222D01*
X2237201Y-3397201D01*
X2248210Y-3399617D01*
X2258539Y-3403578D01*
X2268634Y-3409193D01*
X2273150Y-3412288D01*
X2283691Y-3421411D01*
X2292854Y-3432311D01*
X2300633Y-3444973D01*
X2307024Y-3459384D01*
X2312021Y-3475533D01*
X2315620Y-3493406D01*
X2317814Y-3512989D01*
X2318390Y-3528593D01*
X2318599Y-3534271D01*
X2318527Y-3542016D01*
G36*
X2572726Y-3577736D02*
G01*
X2572363Y-3585220D01*
X2571602Y-3591440D01*
X2570369Y-3597098D01*
X2565931Y-3609708D01*
X2559640Y-3621168D01*
X2551624Y-3631257D01*
X2541974Y-3639892D01*
X2530782Y-3646993D01*
X2518140Y-3652478D01*
X2504138Y-3656264D01*
X2500515Y-3656835D01*
X2492616Y-3657431D01*
X2483784Y-3657465D01*
X2474808Y-3656966D01*
X2466472Y-3655967D01*
X2459565Y-3654498D01*
X2450919Y-3651475D01*
X2439929Y-3646006D01*
X2430196Y-3639254D01*
X2423987Y-3634156D01*
X2423661Y-3643762D01*
X2423334Y-3653369D01*
X2381045Y-3653369D01*
X2379954Y-3653369D01*
X2370506Y-3653338D01*
X2361833Y-3653262D01*
X2354184Y-3653145D01*
X2347804Y-3652994D01*
X2342942Y-3652815D01*
X2339843Y-3652612D01*
X2338756Y-3652392D01*
X2338758Y-3652346D01*
X2339461Y-3650791D01*
X2341043Y-3648507D01*
X2341473Y-3647964D01*
X2342578Y-3646561D01*
X2343531Y-3645219D01*
X2344346Y-3643772D01*
X2345035Y-3642056D01*
X2345611Y-3639903D01*
X2346086Y-3637150D01*
X2346473Y-3633629D01*
X2346784Y-3629176D01*
X2347033Y-3623625D01*
X2347230Y-3616809D01*
X2347389Y-3608564D01*
X2347523Y-3598725D01*
X2347644Y-3587124D01*
X2347690Y-3582046D01*
X2427938Y-3582046D01*
X2432405Y-3587697D01*
X2433679Y-3589221D01*
X2438360Y-3593484D01*
X2444426Y-3597067D01*
X2445490Y-3597585D01*
X2449368Y-3599274D01*
X2452869Y-3600291D01*
X2456872Y-3600832D01*
X2462254Y-3601098D01*
X2464065Y-3601138D01*
X2471601Y-3600854D01*
X2477674Y-3599662D01*
X2482845Y-3597404D01*
X2487675Y-3593921D01*
X2488180Y-3593480D01*
X2493027Y-3587916D01*
X2495846Y-3581533D01*
X2496775Y-3574028D01*
X2496052Y-3566869D01*
X2493580Y-3560564D01*
X2489125Y-3554776D01*
X2483632Y-3550081D01*
X2476389Y-3546096D01*
X2467734Y-3543326D01*
X2457467Y-3541710D01*
X2445389Y-3541184D01*
X2444501Y-3541186D01*
X2438966Y-3541265D01*
X2434274Y-3541449D01*
X2430895Y-3541711D01*
X2429303Y-3542027D01*
X2428894Y-3542674D01*
X2428457Y-3544887D01*
X2428160Y-3548799D01*
X2427991Y-3554594D01*
X2427938Y-3562459D01*
X2427938Y-3582046D01*
X2347690Y-3582046D01*
X2347765Y-3573597D01*
X2347898Y-3557978D01*
X2348023Y-3543701D01*
X2348165Y-3529194D01*
X2348318Y-3516603D01*
X2348493Y-3505744D01*
X2348705Y-3496433D01*
X2348966Y-3488489D01*
X2349289Y-3481727D01*
X2349687Y-3475965D01*
X2350173Y-3471018D01*
X2350760Y-3466705D01*
X2351460Y-3462841D01*
X2352288Y-3459243D01*
X2353255Y-3455729D01*
X2354376Y-3452114D01*
X2355662Y-3448216D01*
X2357209Y-3443909D01*
X2361499Y-3434687D01*
X2366874Y-3426710D01*
X2373758Y-3419296D01*
X2381519Y-3412940D01*
X2391976Y-3406772D01*
X2403924Y-3402020D01*
X2417451Y-3398657D01*
X2432643Y-3396655D01*
X2449587Y-3395989D01*
X2455389Y-3396029D01*
X2461940Y-3396233D01*
X2468069Y-3396670D01*
X2474210Y-3397403D01*
X2480793Y-3398497D01*
X2488252Y-3400015D01*
X2497018Y-3402021D01*
X2507525Y-3404580D01*
X2510381Y-3405282D01*
X2517905Y-3407078D01*
X2524939Y-3408682D01*
X2531057Y-3410003D01*
X2535835Y-3410947D01*
X2538851Y-3411423D01*
X2541678Y-3411791D01*
X2544306Y-3412319D01*
X2545306Y-3412794D01*
X2544995Y-3413678D01*
X2543919Y-3416407D01*
X2542186Y-3420691D01*
X2539913Y-3426242D01*
X2537215Y-3432777D01*
X2534209Y-3440009D01*
X2533549Y-3441588D01*
X2529691Y-3450648D01*
X2526577Y-3457622D01*
X2524192Y-3462540D01*
X2522520Y-3465437D01*
X2521545Y-3466345D01*
X2520777Y-3466140D01*
X2518142Y-3465176D01*
X2514298Y-3463619D01*
X2509782Y-3461681D01*
X2500329Y-3457881D01*
X2486648Y-3453778D01*
X2472529Y-3451261D01*
X2468731Y-3450861D01*
X2458406Y-3450645D01*
X2449695Y-3451962D01*
X2442513Y-3454876D01*
X2436773Y-3459447D01*
X2432390Y-3465737D01*
X2429276Y-3473809D01*
X2427347Y-3483724D01*
X2426605Y-3489622D01*
X2442794Y-3488944D01*
X2455450Y-3488781D01*
X2470595Y-3489419D01*
X2485440Y-3490878D01*
X2499058Y-3493088D01*
X2505525Y-3494582D01*
X2518749Y-3498874D01*
X2530976Y-3504534D01*
X2541969Y-3511402D01*
X2551488Y-3519317D01*
X2559298Y-3528120D01*
X2565160Y-3537649D01*
X2567560Y-3542886D01*
X2570123Y-3549959D01*
X2571748Y-3557081D01*
X2572582Y-3564971D01*
X2572769Y-3574028D01*
X2572776Y-3574347D01*
X2572726Y-3577736D01*
G37*
X2572726Y-3577736D02*
X2572363Y-3585220D01*
X2571602Y-3591440D01*
X2570369Y-3597098D01*
X2565931Y-3609708D01*
X2559640Y-3621168D01*
X2551624Y-3631257D01*
X2541974Y-3639892D01*
X2530782Y-3646993D01*
X2518140Y-3652478D01*
X2504138Y-3656264D01*
X2500515Y-3656835D01*
X2492616Y-3657431D01*
X2483784Y-3657465D01*
X2474808Y-3656966D01*
X2466472Y-3655967D01*
X2459565Y-3654498D01*
X2450919Y-3651475D01*
X2439929Y-3646006D01*
X2430196Y-3639254D01*
X2423987Y-3634156D01*
X2423661Y-3643762D01*
X2423334Y-3653369D01*
X2381045Y-3653369D01*
X2379954Y-3653369D01*
X2370506Y-3653338D01*
X2361833Y-3653262D01*
X2354184Y-3653145D01*
X2347804Y-3652994D01*
X2342942Y-3652815D01*
X2339843Y-3652612D01*
X2338756Y-3652392D01*
X2338758Y-3652346D01*
X2339461Y-3650791D01*
X2341043Y-3648507D01*
X2341473Y-3647964D01*
X2342578Y-3646561D01*
X2343531Y-3645219D01*
X2344346Y-3643772D01*
X2345035Y-3642056D01*
X2345611Y-3639903D01*
X2346086Y-3637150D01*
X2346473Y-3633629D01*
X2346784Y-3629176D01*
X2347033Y-3623625D01*
X2347230Y-3616809D01*
X2347389Y-3608564D01*
X2347523Y-3598725D01*
X2347644Y-3587124D01*
X2347690Y-3582046D01*
X2427938Y-3582046D01*
X2432405Y-3587697D01*
X2433679Y-3589221D01*
X2438360Y-3593484D01*
X2444426Y-3597067D01*
X2445490Y-3597585D01*
X2449368Y-3599274D01*
X2452869Y-3600291D01*
X2456872Y-3600832D01*
X2462254Y-3601098D01*
X2464065Y-3601138D01*
X2471601Y-3600854D01*
X2477674Y-3599662D01*
X2482845Y-3597404D01*
X2487675Y-3593921D01*
X2488180Y-3593480D01*
X2493027Y-3587916D01*
X2495846Y-3581533D01*
X2496775Y-3574028D01*
X2496052Y-3566869D01*
X2493580Y-3560564D01*
X2489125Y-3554776D01*
X2483632Y-3550081D01*
X2476389Y-3546096D01*
X2467734Y-3543326D01*
X2457467Y-3541710D01*
X2445389Y-3541184D01*
X2444501Y-3541186D01*
X2438966Y-3541265D01*
X2434274Y-3541449D01*
X2430895Y-3541711D01*
X2429303Y-3542027D01*
X2428894Y-3542674D01*
X2428457Y-3544887D01*
X2428160Y-3548799D01*
X2427991Y-3554594D01*
X2427938Y-3562459D01*
X2427938Y-3582046D01*
X2347690Y-3582046D01*
X2347765Y-3573597D01*
X2347898Y-3557978D01*
X2348023Y-3543701D01*
X2348165Y-3529194D01*
X2348318Y-3516603D01*
X2348493Y-3505744D01*
X2348705Y-3496433D01*
X2348966Y-3488489D01*
X2349289Y-3481727D01*
X2349687Y-3475965D01*
X2350173Y-3471018D01*
X2350760Y-3466705D01*
X2351460Y-3462841D01*
X2352288Y-3459243D01*
X2353255Y-3455729D01*
X2354376Y-3452114D01*
X2355662Y-3448216D01*
X2357209Y-3443909D01*
X2361499Y-3434687D01*
X2366874Y-3426710D01*
X2373758Y-3419296D01*
X2381519Y-3412940D01*
X2391976Y-3406772D01*
X2403924Y-3402020D01*
X2417451Y-3398657D01*
X2432643Y-3396655D01*
X2449587Y-3395989D01*
X2455389Y-3396029D01*
X2461940Y-3396233D01*
X2468069Y-3396670D01*
X2474210Y-3397403D01*
X2480793Y-3398497D01*
X2488252Y-3400015D01*
X2497018Y-3402021D01*
X2507525Y-3404580D01*
X2510381Y-3405282D01*
X2517905Y-3407078D01*
X2524939Y-3408682D01*
X2531057Y-3410003D01*
X2535835Y-3410947D01*
X2538851Y-3411423D01*
X2541678Y-3411791D01*
X2544306Y-3412319D01*
X2545306Y-3412794D01*
X2544995Y-3413678D01*
X2543919Y-3416407D01*
X2542186Y-3420691D01*
X2539913Y-3426242D01*
X2537215Y-3432777D01*
X2534209Y-3440009D01*
X2533549Y-3441588D01*
X2529691Y-3450648D01*
X2526577Y-3457622D01*
X2524192Y-3462540D01*
X2522520Y-3465437D01*
X2521545Y-3466345D01*
X2520777Y-3466140D01*
X2518142Y-3465176D01*
X2514298Y-3463619D01*
X2509782Y-3461681D01*
X2500329Y-3457881D01*
X2486648Y-3453778D01*
X2472529Y-3451261D01*
X2468731Y-3450861D01*
X2458406Y-3450645D01*
X2449695Y-3451962D01*
X2442513Y-3454876D01*
X2436773Y-3459447D01*
X2432390Y-3465737D01*
X2429276Y-3473809D01*
X2427347Y-3483724D01*
X2426605Y-3489622D01*
X2442794Y-3488944D01*
X2455450Y-3488781D01*
X2470595Y-3489419D01*
X2485440Y-3490878D01*
X2499058Y-3493088D01*
X2505525Y-3494582D01*
X2518749Y-3498874D01*
X2530976Y-3504534D01*
X2541969Y-3511402D01*
X2551488Y-3519317D01*
X2559298Y-3528120D01*
X2565160Y-3537649D01*
X2567560Y-3542886D01*
X2570123Y-3549959D01*
X2571748Y-3557081D01*
X2572582Y-3564971D01*
X2572769Y-3574028D01*
X2572776Y-3574347D01*
X2572726Y-3577736D01*
G36*
X2215577Y-3736907D02*
G01*
X2224989Y-3736916D01*
X2232441Y-3736950D01*
X2238181Y-3737024D01*
X2242461Y-3737153D01*
X2245530Y-3737354D01*
X2247639Y-3737640D01*
X2249037Y-3738027D01*
X2249975Y-3738530D01*
X2250702Y-3739164D01*
X2252583Y-3742436D01*
X2252728Y-3746194D01*
X2251092Y-3749518D01*
X2250956Y-3749663D01*
X2249835Y-3750499D01*
X2248125Y-3751055D01*
X2245408Y-3751384D01*
X2241268Y-3751542D01*
X2235287Y-3751582D01*
X2221351Y-3751582D01*
X2221351Y-3777959D01*
X2221344Y-3785542D01*
X2221303Y-3792208D01*
X2221205Y-3797187D01*
X2221025Y-3800778D01*
X2220740Y-3803285D01*
X2220325Y-3805008D01*
X2219757Y-3806249D01*
X2219011Y-3807310D01*
X2218782Y-3807591D01*
X2215665Y-3809855D01*
X2212227Y-3810011D01*
X2208933Y-3808027D01*
X2208236Y-3807219D01*
X2207688Y-3806159D01*
X2207286Y-3804575D01*
X2207007Y-3802177D01*
X2206829Y-3798677D01*
X2206729Y-3793786D01*
X2206685Y-3787215D01*
X2206676Y-3778676D01*
X2206676Y-3751582D01*
X2192082Y-3751582D01*
X2190972Y-3751582D01*
X2185320Y-3751560D01*
X2181436Y-3751446D01*
X2178897Y-3751166D01*
X2177280Y-3750645D01*
X2176165Y-3749809D01*
X2175129Y-3748583D01*
X2173544Y-3745514D01*
X2173854Y-3742136D01*
X2176419Y-3738882D01*
X2176913Y-3738510D01*
X2177934Y-3738027D01*
X2179476Y-3737651D01*
X2181789Y-3737368D01*
X2185118Y-3737167D01*
X2189714Y-3737033D01*
X2195823Y-3736954D01*
X2203694Y-3736916D01*
X2213574Y-3736907D01*
X2215577Y-3736907D01*
G37*
X2215577Y-3736907D02*
X2224989Y-3736916D01*
X2232441Y-3736950D01*
X2238181Y-3737024D01*
X2242461Y-3737153D01*
X2245530Y-3737354D01*
X2247639Y-3737640D01*
X2249037Y-3738027D01*
X2249975Y-3738530D01*
X2250702Y-3739164D01*
X2252583Y-3742436D01*
X2252728Y-3746194D01*
X2251092Y-3749518D01*
X2250956Y-3749663D01*
X2249835Y-3750499D01*
X2248125Y-3751055D01*
X2245408Y-3751384D01*
X2241268Y-3751542D01*
X2235287Y-3751582D01*
X2221351Y-3751582D01*
X2221351Y-3777959D01*
X2221344Y-3785542D01*
X2221303Y-3792208D01*
X2221205Y-3797187D01*
X2221025Y-3800778D01*
X2220740Y-3803285D01*
X2220325Y-3805008D01*
X2219757Y-3806249D01*
X2219011Y-3807310D01*
X2218782Y-3807591D01*
X2215665Y-3809855D01*
X2212227Y-3810011D01*
X2208933Y-3808027D01*
X2208236Y-3807219D01*
X2207688Y-3806159D01*
X2207286Y-3804575D01*
X2207007Y-3802177D01*
X2206829Y-3798677D01*
X2206729Y-3793786D01*
X2206685Y-3787215D01*
X2206676Y-3778676D01*
X2206676Y-3751582D01*
X2192082Y-3751582D01*
X2190972Y-3751582D01*
X2185320Y-3751560D01*
X2181436Y-3751446D01*
X2178897Y-3751166D01*
X2177280Y-3750645D01*
X2176165Y-3749809D01*
X2175129Y-3748583D01*
X2173544Y-3745514D01*
X2173854Y-3742136D01*
X2176419Y-3738882D01*
X2176913Y-3738510D01*
X2177934Y-3738027D01*
X2179476Y-3737651D01*
X2181789Y-3737368D01*
X2185118Y-3737167D01*
X2189714Y-3737033D01*
X2195823Y-3736954D01*
X2203694Y-3736916D01*
X2213574Y-3736907D01*
X2215577Y-3736907D01*
G36*
X3185673Y-3736908D02*
G01*
X3193383Y-3736927D01*
X3199278Y-3736986D01*
X3203636Y-3737105D01*
X3206738Y-3737306D01*
X3208862Y-3737611D01*
X3210288Y-3738041D01*
X3211294Y-3738617D01*
X3212161Y-3739361D01*
X3212339Y-3739529D01*
X3213063Y-3740283D01*
X3213628Y-3741185D01*
X3214052Y-3742498D01*
X3214356Y-3744487D01*
X3214559Y-3747415D01*
X3214683Y-3751546D01*
X3214746Y-3757143D01*
X3214770Y-3764471D01*
X3214773Y-3773792D01*
X3214770Y-3781071D01*
X3214745Y-3788889D01*
X3214681Y-3794910D01*
X3214561Y-3799398D01*
X3214368Y-3802615D01*
X3214085Y-3804824D01*
X3213693Y-3806287D01*
X3213175Y-3807267D01*
X3212516Y-3808027D01*
X3212182Y-3808344D01*
X3211330Y-3808955D01*
X3210130Y-3809423D01*
X3208309Y-3809766D01*
X3205594Y-3810004D01*
X3201713Y-3810155D01*
X3196392Y-3810240D01*
X3189360Y-3810276D01*
X3180342Y-3810284D01*
X3176131Y-3810283D01*
X3168017Y-3810265D01*
X3161767Y-3810210D01*
X3157111Y-3810098D01*
X3153774Y-3809911D01*
X3151484Y-3809630D01*
X3149969Y-3809235D01*
X3148955Y-3808707D01*
X3148169Y-3808027D01*
X3146696Y-3805867D01*
X3145911Y-3802947D01*
X3146461Y-3800556D01*
X3148169Y-3797867D01*
X3148667Y-3797406D01*
X3149644Y-3796777D01*
X3151056Y-3796315D01*
X3153205Y-3795993D01*
X3156397Y-3795787D01*
X3160934Y-3795671D01*
X3167121Y-3795620D01*
X3175262Y-3795609D01*
X3200098Y-3795609D01*
X3200098Y-3779804D01*
X3183980Y-3779804D01*
X3180398Y-3779790D01*
X3173836Y-3779618D01*
X3169112Y-3779174D01*
X3165938Y-3778364D01*
X3164028Y-3777091D01*
X3163092Y-3775259D01*
X3162844Y-3772774D01*
X3162924Y-3770748D01*
X3163449Y-3768566D01*
X3164729Y-3767030D01*
X3167063Y-3766031D01*
X3170752Y-3765455D01*
X3176096Y-3765192D01*
X3183396Y-3765129D01*
X3200210Y-3765129D01*
X3199872Y-3758638D01*
X3199533Y-3752147D01*
X3174762Y-3751842D01*
X3168503Y-3751754D01*
X3161656Y-3751609D01*
X3156566Y-3751416D01*
X3152941Y-3751151D01*
X3150490Y-3750791D01*
X3148923Y-3750312D01*
X3147951Y-3749691D01*
X3147349Y-3749051D01*
X3146048Y-3745883D01*
X3146404Y-3742314D01*
X3148382Y-3739208D01*
X3148707Y-3738916D01*
X3149605Y-3738281D01*
X3150815Y-3737796D01*
X3152616Y-3737440D01*
X3155285Y-3737195D01*
X3159100Y-3737038D01*
X3164339Y-3736952D01*
X3171279Y-3736915D01*
X3180200Y-3736907D01*
X3185673Y-3736908D01*
G37*
X3185673Y-3736908D02*
X3193383Y-3736927D01*
X3199278Y-3736986D01*
X3203636Y-3737105D01*
X3206738Y-3737306D01*
X3208862Y-3737611D01*
X3210288Y-3738041D01*
X3211294Y-3738617D01*
X3212161Y-3739361D01*
X3212339Y-3739529D01*
X3213063Y-3740283D01*
X3213628Y-3741185D01*
X3214052Y-3742498D01*
X3214356Y-3744487D01*
X3214559Y-3747415D01*
X3214683Y-3751546D01*
X3214746Y-3757143D01*
X3214770Y-3764471D01*
X3214773Y-3773792D01*
X3214770Y-3781071D01*
X3214745Y-3788889D01*
X3214681Y-3794910D01*
X3214561Y-3799398D01*
X3214368Y-3802615D01*
X3214085Y-3804824D01*
X3213693Y-3806287D01*
X3213175Y-3807267D01*
X3212516Y-3808027D01*
X3212182Y-3808344D01*
X3211330Y-3808955D01*
X3210130Y-3809423D01*
X3208309Y-3809766D01*
X3205594Y-3810004D01*
X3201713Y-3810155D01*
X3196392Y-3810240D01*
X3189360Y-3810276D01*
X3180342Y-3810284D01*
X3176131Y-3810283D01*
X3168017Y-3810265D01*
X3161767Y-3810210D01*
X3157111Y-3810098D01*
X3153774Y-3809911D01*
X3151484Y-3809630D01*
X3149969Y-3809235D01*
X3148955Y-3808707D01*
X3148169Y-3808027D01*
X3146696Y-3805867D01*
X3145911Y-3802947D01*
X3146461Y-3800556D01*
X3148169Y-3797867D01*
X3148667Y-3797406D01*
X3149644Y-3796777D01*
X3151056Y-3796315D01*
X3153205Y-3795993D01*
X3156397Y-3795787D01*
X3160934Y-3795671D01*
X3167121Y-3795620D01*
X3175262Y-3795609D01*
X3200098Y-3795609D01*
X3200098Y-3779804D01*
X3183980Y-3779804D01*
X3180398Y-3779790D01*
X3173836Y-3779618D01*
X3169112Y-3779174D01*
X3165938Y-3778364D01*
X3164028Y-3777091D01*
X3163092Y-3775259D01*
X3162844Y-3772774D01*
X3162924Y-3770748D01*
X3163449Y-3768566D01*
X3164729Y-3767030D01*
X3167063Y-3766031D01*
X3170752Y-3765455D01*
X3176096Y-3765192D01*
X3183396Y-3765129D01*
X3200210Y-3765129D01*
X3199872Y-3758638D01*
X3199533Y-3752147D01*
X3174762Y-3751842D01*
X3168503Y-3751754D01*
X3161656Y-3751609D01*
X3156566Y-3751416D01*
X3152941Y-3751151D01*
X3150490Y-3750791D01*
X3148923Y-3750312D01*
X3147951Y-3749691D01*
X3147349Y-3749051D01*
X3146048Y-3745883D01*
X3146404Y-3742314D01*
X3148382Y-3739208D01*
X3148707Y-3738916D01*
X3149605Y-3738281D01*
X3150815Y-3737796D01*
X3152616Y-3737440D01*
X3155285Y-3737195D01*
X3159100Y-3737038D01*
X3164339Y-3736952D01*
X3171279Y-3736915D01*
X3180200Y-3736907D01*
X3185673Y-3736908D01*
G36*
X2945456Y-3213285D02*
G01*
X2953731Y-3216005D01*
X2961241Y-3220548D01*
X2968430Y-3227130D01*
X2972285Y-3231557D01*
X2976226Y-3237396D01*
X2978745Y-3243459D01*
X2980086Y-3250386D01*
X2980495Y-3258822D01*
X2980467Y-3263431D01*
X2980246Y-3267545D01*
X2979689Y-3270758D01*
X2978659Y-3273812D01*
X2977015Y-3277449D01*
X2975620Y-3280173D01*
X2969766Y-3288743D01*
X2962562Y-3295662D01*
X2954195Y-3300774D01*
X2944853Y-3303925D01*
X2941543Y-3304622D01*
X2937496Y-3305309D01*
X2934200Y-3305492D01*
X2930770Y-3305195D01*
X2926320Y-3304443D01*
X2921193Y-3303200D01*
X2912143Y-3299411D01*
X2904234Y-3293984D01*
X2897653Y-3287177D01*
X2892584Y-3279251D01*
X2889214Y-3270465D01*
X2887729Y-3261079D01*
X2888314Y-3251353D01*
X2890940Y-3241722D01*
X2895442Y-3232849D01*
X2901537Y-3225342D01*
X2909018Y-3219364D01*
X2917677Y-3215081D01*
X2927304Y-3212657D01*
X2937693Y-3212258D01*
X2945456Y-3213285D01*
G37*
X2945456Y-3213285D02*
X2953731Y-3216005D01*
X2961241Y-3220548D01*
X2968430Y-3227130D01*
X2972285Y-3231557D01*
X2976226Y-3237396D01*
X2978745Y-3243459D01*
X2980086Y-3250386D01*
X2980495Y-3258822D01*
X2980467Y-3263431D01*
X2980246Y-3267545D01*
X2979689Y-3270758D01*
X2978659Y-3273812D01*
X2977015Y-3277449D01*
X2975620Y-3280173D01*
X2969766Y-3288743D01*
X2962562Y-3295662D01*
X2954195Y-3300774D01*
X2944853Y-3303925D01*
X2941543Y-3304622D01*
X2937496Y-3305309D01*
X2934200Y-3305492D01*
X2930770Y-3305195D01*
X2926320Y-3304443D01*
X2921193Y-3303200D01*
X2912143Y-3299411D01*
X2904234Y-3293984D01*
X2897653Y-3287177D01*
X2892584Y-3279251D01*
X2889214Y-3270465D01*
X2887729Y-3261079D01*
X2888314Y-3251353D01*
X2890940Y-3241722D01*
X2895442Y-3232849D01*
X2901537Y-3225342D01*
X2909018Y-3219364D01*
X2917677Y-3215081D01*
X2927304Y-3212657D01*
X2937693Y-3212258D01*
X2945456Y-3213285D01*
G36*
X2285541Y-3737495D02*
G01*
X2288113Y-3739065D01*
X2290778Y-3741223D01*
X2290778Y-3805968D01*
X2288113Y-3808126D01*
X2284977Y-3809874D01*
X2281397Y-3809957D01*
X2278253Y-3807908D01*
X2277865Y-3807442D01*
X2277319Y-3806495D01*
X2276898Y-3805127D01*
X2276587Y-3803075D01*
X2276369Y-3800077D01*
X2276228Y-3795870D01*
X2276147Y-3790193D01*
X2276111Y-3782783D01*
X2276102Y-3773377D01*
X2276102Y-3741223D01*
X2278767Y-3739065D01*
X2281139Y-3737588D01*
X2283440Y-3736907D01*
X2285541Y-3737495D01*
G37*
X2285541Y-3737495D02*
X2288113Y-3739065D01*
X2290778Y-3741223D01*
X2290778Y-3805968D01*
X2288113Y-3808126D01*
X2284977Y-3809874D01*
X2281397Y-3809957D01*
X2278253Y-3807908D01*
X2277865Y-3807442D01*
X2277319Y-3806495D01*
X2276898Y-3805127D01*
X2276587Y-3803075D01*
X2276369Y-3800077D01*
X2276228Y-3795870D01*
X2276147Y-3790193D01*
X2276111Y-3782783D01*
X2276102Y-3773377D01*
X2276102Y-3741223D01*
X2278767Y-3739065D01*
X2281139Y-3737588D01*
X2283440Y-3736907D01*
X2285541Y-3737495D01*
G36*
X2328970Y-3737848D02*
G01*
X2330766Y-3739699D01*
X2332826Y-3742807D01*
X2335310Y-3747376D01*
X2338375Y-3753608D01*
X2342182Y-3761707D01*
X2343645Y-3764845D01*
X2346620Y-3771164D01*
X2349230Y-3776624D01*
X2351329Y-3780929D01*
X2352774Y-3783779D01*
X2353419Y-3784877D01*
X2353555Y-3784819D01*
X2354554Y-3783424D01*
X2356283Y-3780470D01*
X2358543Y-3776309D01*
X2361134Y-3771290D01*
X2362731Y-3768141D01*
X2365626Y-3762606D01*
X2367875Y-3758704D01*
X2369697Y-3756157D01*
X2371310Y-3754683D01*
X2372933Y-3754004D01*
X2374786Y-3753840D01*
X2375836Y-3753887D01*
X2377448Y-3754308D01*
X2378979Y-3755395D01*
X2380639Y-3757422D01*
X2382636Y-3760665D01*
X2385178Y-3765400D01*
X2388475Y-3771902D01*
X2389449Y-3773828D01*
X2391894Y-3778495D01*
X2393918Y-3782111D01*
X2395331Y-3784350D01*
X2395946Y-3784884D01*
X2396083Y-3784557D01*
X2397020Y-3782466D01*
X2398706Y-3778772D01*
X2400998Y-3773787D01*
X2403752Y-3767823D01*
X2406826Y-3761190D01*
X2409497Y-3755468D01*
X2412459Y-3749269D01*
X2414766Y-3744695D01*
X2416564Y-3741491D01*
X2417999Y-3739401D01*
X2419217Y-3738172D01*
X2420363Y-3737547D01*
X2421304Y-3737257D01*
X2423815Y-3737242D01*
X2426529Y-3738777D01*
X2426659Y-3738875D01*
X2428867Y-3741139D01*
X2429972Y-3743361D01*
X2429977Y-3743425D01*
X2429523Y-3745191D01*
X2428236Y-3748648D01*
X2426261Y-3753483D01*
X2423738Y-3759382D01*
X2420812Y-3766035D01*
X2417625Y-3773129D01*
X2414320Y-3780351D01*
X2411040Y-3787388D01*
X2407928Y-3793928D01*
X2405127Y-3799660D01*
X2402779Y-3804269D01*
X2401027Y-3807445D01*
X2400015Y-3808873D01*
X2396574Y-3810210D01*
X2392405Y-3809574D01*
X2391868Y-3809104D01*
X2390285Y-3806889D01*
X2388065Y-3803213D01*
X2385423Y-3798441D01*
X2382576Y-3792939D01*
X2374599Y-3777015D01*
X2367280Y-3791674D01*
X2366310Y-3793603D01*
X2363613Y-3798838D01*
X2361210Y-3803317D01*
X2359333Y-3806615D01*
X2358215Y-3808309D01*
X2358100Y-3808433D01*
X2355288Y-3809962D01*
X2351782Y-3810130D01*
X2348678Y-3808873D01*
X2348435Y-3808588D01*
X2347209Y-3806526D01*
X2345235Y-3802771D01*
X2342645Y-3797588D01*
X2339569Y-3791242D01*
X2336138Y-3783998D01*
X2332483Y-3776122D01*
X2330459Y-3771709D01*
X2326781Y-3763636D01*
X2323936Y-3757269D01*
X2321833Y-3752375D01*
X2320385Y-3748726D01*
X2319504Y-3746089D01*
X2319100Y-3744236D01*
X2319086Y-3742935D01*
X2319373Y-3741956D01*
X2320839Y-3739868D01*
X2323499Y-3737838D01*
X2323575Y-3737803D01*
X2325534Y-3737103D01*
X2327279Y-3737050D01*
X2328970Y-3737848D01*
G37*
X2328970Y-3737848D02*
X2330766Y-3739699D01*
X2332826Y-3742807D01*
X2335310Y-3747376D01*
X2338375Y-3753608D01*
X2342182Y-3761707D01*
X2343645Y-3764845D01*
X2346620Y-3771164D01*
X2349230Y-3776624D01*
X2351329Y-3780929D01*
X2352774Y-3783779D01*
X2353419Y-3784877D01*
X2353555Y-3784819D01*
X2354554Y-3783424D01*
X2356283Y-3780470D01*
X2358543Y-3776309D01*
X2361134Y-3771290D01*
X2362731Y-3768141D01*
X2365626Y-3762606D01*
X2367875Y-3758704D01*
X2369697Y-3756157D01*
X2371310Y-3754683D01*
X2372933Y-3754004D01*
X2374786Y-3753840D01*
X2375836Y-3753887D01*
X2377448Y-3754308D01*
X2378979Y-3755395D01*
X2380639Y-3757422D01*
X2382636Y-3760665D01*
X2385178Y-3765400D01*
X2388475Y-3771902D01*
X2389449Y-3773828D01*
X2391894Y-3778495D01*
X2393918Y-3782111D01*
X2395331Y-3784350D01*
X2395946Y-3784884D01*
X2396083Y-3784557D01*
X2397020Y-3782466D01*
X2398706Y-3778772D01*
X2400998Y-3773787D01*
X2403752Y-3767823D01*
X2406826Y-3761190D01*
X2409497Y-3755468D01*
X2412459Y-3749269D01*
X2414766Y-3744695D01*
X2416564Y-3741491D01*
X2417999Y-3739401D01*
X2419217Y-3738172D01*
X2420363Y-3737547D01*
X2421304Y-3737257D01*
X2423815Y-3737242D01*
X2426529Y-3738777D01*
X2426659Y-3738875D01*
X2428867Y-3741139D01*
X2429972Y-3743361D01*
X2429977Y-3743425D01*
X2429523Y-3745191D01*
X2428236Y-3748648D01*
X2426261Y-3753483D01*
X2423738Y-3759382D01*
X2420812Y-3766035D01*
X2417625Y-3773129D01*
X2414320Y-3780351D01*
X2411040Y-3787388D01*
X2407928Y-3793928D01*
X2405127Y-3799660D01*
X2402779Y-3804269D01*
X2401027Y-3807445D01*
X2400015Y-3808873D01*
X2396574Y-3810210D01*
X2392405Y-3809574D01*
X2391868Y-3809104D01*
X2390285Y-3806889D01*
X2388065Y-3803213D01*
X2385423Y-3798441D01*
X2382576Y-3792939D01*
X2374599Y-3777015D01*
X2367280Y-3791674D01*
X2366310Y-3793603D01*
X2363613Y-3798838D01*
X2361210Y-3803317D01*
X2359333Y-3806615D01*
X2358215Y-3808309D01*
X2358100Y-3808433D01*
X2355288Y-3809962D01*
X2351782Y-3810130D01*
X2348678Y-3808873D01*
X2348435Y-3808588D01*
X2347209Y-3806526D01*
X2345235Y-3802771D01*
X2342645Y-3797588D01*
X2339569Y-3791242D01*
X2336138Y-3783998D01*
X2332483Y-3776122D01*
X2330459Y-3771709D01*
X2326781Y-3763636D01*
X2323936Y-3757269D01*
X2321833Y-3752375D01*
X2320385Y-3748726D01*
X2319504Y-3746089D01*
X2319100Y-3744236D01*
X2319086Y-3742935D01*
X2319373Y-3741956D01*
X2320839Y-3739868D01*
X2323499Y-3737838D01*
X2323575Y-3737803D01*
X2325534Y-3737103D01*
X2327279Y-3737050D01*
X2328970Y-3737848D01*
G36*
X2912915Y-3737418D02*
G01*
X2923516Y-3739049D01*
X2932897Y-3741854D01*
X2940776Y-3745745D01*
X2946872Y-3750633D01*
X2949479Y-3753919D01*
X2952430Y-3758839D01*
X2954957Y-3764225D01*
X2956722Y-3769342D01*
X2957386Y-3773454D01*
X2957230Y-3775426D01*
X2955936Y-3780559D01*
X2953619Y-3786212D01*
X2950630Y-3791603D01*
X2947317Y-3795954D01*
X2946298Y-3796989D01*
X2939589Y-3802166D01*
X2931577Y-3806155D01*
X2922956Y-3808596D01*
X2917459Y-3809407D01*
X2908114Y-3810067D01*
X2899136Y-3809859D01*
X2890887Y-3808834D01*
X2883729Y-3807047D01*
X2878023Y-3804551D01*
X2874131Y-3801399D01*
X2873994Y-3801201D01*
X2873285Y-3798679D01*
X2872861Y-3793953D01*
X2872720Y-3787007D01*
X2872806Y-3780784D01*
X2873278Y-3776046D01*
X2874447Y-3772835D01*
X2876624Y-3770880D01*
X2880120Y-3769907D01*
X2885246Y-3769643D01*
X2892312Y-3769816D01*
X2897174Y-3770117D01*
X2902194Y-3770937D01*
X2905443Y-3772342D01*
X2907189Y-3774465D01*
X2907698Y-3777439D01*
X2907688Y-3777894D01*
X2906817Y-3781373D01*
X2904416Y-3783715D01*
X2900290Y-3785035D01*
X2894243Y-3785449D01*
X2887396Y-3785449D01*
X2887396Y-3789284D01*
X2887401Y-3790198D01*
X2887623Y-3791923D01*
X2888549Y-3792952D01*
X2890687Y-3793646D01*
X2894544Y-3794364D01*
X2895091Y-3794457D01*
X2904786Y-3795448D01*
X2913785Y-3795156D01*
X2921876Y-3793683D01*
X2928846Y-3791130D01*
X2934482Y-3787598D01*
X2938573Y-3783188D01*
X2940905Y-3778001D01*
X2941266Y-3772139D01*
X2940714Y-3769249D01*
X2938046Y-3763660D01*
X2933427Y-3759094D01*
X2926929Y-3755611D01*
X2918623Y-3753269D01*
X2916155Y-3752824D01*
X2907223Y-3751774D01*
X2899242Y-3751897D01*
X2891433Y-3753191D01*
X2887918Y-3753870D01*
X2883374Y-3753971D01*
X2880243Y-3752718D01*
X2878228Y-3750039D01*
X2877589Y-3747215D01*
X2878538Y-3744092D01*
X2879471Y-3742750D01*
X2882894Y-3740397D01*
X2888156Y-3738609D01*
X2895008Y-3737460D01*
X2903200Y-3737019D01*
X2912915Y-3737418D01*
G37*
X2912915Y-3737418D02*
X2923516Y-3739049D01*
X2932897Y-3741854D01*
X2940776Y-3745745D01*
X2946872Y-3750633D01*
X2949479Y-3753919D01*
X2952430Y-3758839D01*
X2954957Y-3764225D01*
X2956722Y-3769342D01*
X2957386Y-3773454D01*
X2957230Y-3775426D01*
X2955936Y-3780559D01*
X2953619Y-3786212D01*
X2950630Y-3791603D01*
X2947317Y-3795954D01*
X2946298Y-3796989D01*
X2939589Y-3802166D01*
X2931577Y-3806155D01*
X2922956Y-3808596D01*
X2917459Y-3809407D01*
X2908114Y-3810067D01*
X2899136Y-3809859D01*
X2890887Y-3808834D01*
X2883729Y-3807047D01*
X2878023Y-3804551D01*
X2874131Y-3801399D01*
X2873994Y-3801201D01*
X2873285Y-3798679D01*
X2872861Y-3793953D01*
X2872720Y-3787007D01*
X2872806Y-3780784D01*
X2873278Y-3776046D01*
X2874447Y-3772835D01*
X2876624Y-3770880D01*
X2880120Y-3769907D01*
X2885246Y-3769643D01*
X2892312Y-3769816D01*
X2897174Y-3770117D01*
X2902194Y-3770937D01*
X2905443Y-3772342D01*
X2907189Y-3774465D01*
X2907698Y-3777439D01*
X2907688Y-3777894D01*
X2906817Y-3781373D01*
X2904416Y-3783715D01*
X2900290Y-3785035D01*
X2894243Y-3785449D01*
X2887396Y-3785449D01*
X2887396Y-3789284D01*
X2887401Y-3790198D01*
X2887623Y-3791923D01*
X2888549Y-3792952D01*
X2890687Y-3793646D01*
X2894544Y-3794364D01*
X2895091Y-3794457D01*
X2904786Y-3795448D01*
X2913785Y-3795156D01*
X2921876Y-3793683D01*
X2928846Y-3791130D01*
X2934482Y-3787598D01*
X2938573Y-3783188D01*
X2940905Y-3778001D01*
X2941266Y-3772139D01*
X2940714Y-3769249D01*
X2938046Y-3763660D01*
X2933427Y-3759094D01*
X2926929Y-3755611D01*
X2918623Y-3753269D01*
X2916155Y-3752824D01*
X2907223Y-3751774D01*
X2899242Y-3751897D01*
X2891433Y-3753191D01*
X2887918Y-3753870D01*
X2883374Y-3753971D01*
X2880243Y-3752718D01*
X2878228Y-3750039D01*
X2877589Y-3747215D01*
X2878538Y-3744092D01*
X2879471Y-3742750D01*
X2882894Y-3740397D01*
X2888156Y-3738609D01*
X2895008Y-3737460D01*
X2903200Y-3737019D01*
X2912915Y-3737418D01*
G36*
X3327606Y-3334301D02*
G01*
X3327636Y-3349022D01*
X3327655Y-3365435D01*
X3327664Y-3383635D01*
X3327667Y-3403716D01*
X3327666Y-3425773D01*
X3327664Y-3449899D01*
X3327662Y-3476189D01*
X3327662Y-3480404D01*
X3327665Y-3506467D01*
X3327668Y-3530380D01*
X3327671Y-3552236D01*
X3327669Y-3572129D01*
X3327659Y-3590153D01*
X3327639Y-3606401D01*
X3327606Y-3620967D01*
X3327557Y-3633943D01*
X3327488Y-3645424D01*
X3327398Y-3655503D01*
X3327282Y-3664273D01*
X3327138Y-3671828D01*
X3326963Y-3678261D01*
X3326754Y-3683666D01*
X3326508Y-3688136D01*
X3326223Y-3691765D01*
X3325894Y-3694646D01*
X3325520Y-3696873D01*
X3325097Y-3698539D01*
X3324623Y-3699737D01*
X3324094Y-3700562D01*
X3323507Y-3701106D01*
X3322860Y-3701463D01*
X3322150Y-3701727D01*
X3321373Y-3701991D01*
X3320527Y-3702348D01*
X3320091Y-3702514D01*
X3319239Y-3702711D01*
X3317969Y-3702891D01*
X3316188Y-3703055D01*
X3313805Y-3703205D01*
X3310727Y-3703340D01*
X3306862Y-3703461D01*
X3302118Y-3703570D01*
X3296404Y-3703666D01*
X3289628Y-3703751D01*
X3281697Y-3703825D01*
X3272520Y-3703890D01*
X3262004Y-3703945D01*
X3250059Y-3703991D01*
X3236591Y-3704030D01*
X3221509Y-3704062D01*
X3204721Y-3704087D01*
X3186134Y-3704107D01*
X3165658Y-3704121D01*
X3143200Y-3704132D01*
X3118668Y-3704139D01*
X3091970Y-3704143D01*
X3088132Y-3704144D01*
X3061592Y-3704148D01*
X3037205Y-3704152D01*
X3014878Y-3704155D01*
X2994520Y-3704152D01*
X2976037Y-3704143D01*
X2959337Y-3704124D01*
X2944329Y-3704094D01*
X2930920Y-3704049D01*
X2919017Y-3703988D01*
X2908528Y-3703909D01*
X2899361Y-3703808D01*
X2891424Y-3703684D01*
X2884624Y-3703533D01*
X2878869Y-3703355D01*
X2874066Y-3703146D01*
X2870124Y-3702904D01*
X2866950Y-3702627D01*
X2864451Y-3702312D01*
X2862536Y-3701957D01*
X2861112Y-3701560D01*
X2860087Y-3701118D01*
X2859368Y-3700629D01*
X2858863Y-3700090D01*
X2858480Y-3699500D01*
X2858127Y-3698855D01*
X2857711Y-3698154D01*
X2857602Y-3697969D01*
X2857381Y-3697418D01*
X2857179Y-3696587D01*
X2856994Y-3695381D01*
X2856826Y-3693706D01*
X2856674Y-3691469D01*
X2856538Y-3688574D01*
X2856417Y-3684928D01*
X2856309Y-3680437D01*
X2856214Y-3675006D01*
X2856131Y-3668541D01*
X2856060Y-3660948D01*
X2855999Y-3652134D01*
X2855994Y-3651249D01*
X2885138Y-3651249D01*
X2885526Y-3651376D01*
X2887852Y-3651579D01*
X2892087Y-3651763D01*
X2898013Y-3651923D01*
X2905411Y-3652055D01*
X2914061Y-3652155D01*
X2923745Y-3652218D01*
X2934244Y-3652240D01*
X3004065Y-3652240D01*
X3119509Y-3652240D01*
X3119446Y-3644620D01*
X3119557Y-3640416D01*
X3120130Y-3636833D01*
X3121389Y-3633077D01*
X3123557Y-3628258D01*
X3123879Y-3627590D01*
X3126419Y-3622636D01*
X3129100Y-3617837D01*
X3131392Y-3614147D01*
X3131848Y-3613483D01*
X3134052Y-3610359D01*
X3137269Y-3605865D01*
X3141346Y-3600215D01*
X3146124Y-3593620D01*
X3151450Y-3586296D01*
X3157165Y-3578454D01*
X3163115Y-3570307D01*
X3169144Y-3562070D01*
X3175094Y-3553954D01*
X3180810Y-3546174D01*
X3186137Y-3538942D01*
X3190917Y-3532472D01*
X3194996Y-3526976D01*
X3198216Y-3522668D01*
X3200422Y-3519760D01*
X3201457Y-3518467D01*
X3201904Y-3518035D01*
X3202324Y-3517831D01*
X3202664Y-3518093D01*
X3202932Y-3518999D01*
X3203134Y-3520728D01*
X3203275Y-3523461D01*
X3203360Y-3527376D01*
X3203397Y-3532653D01*
X3203390Y-3539471D01*
X3203346Y-3548008D01*
X3203270Y-3558445D01*
X3203168Y-3570960D01*
X3203131Y-3575430D01*
X3203017Y-3587539D01*
X3202897Y-3597669D01*
X3202764Y-3606026D01*
X3202608Y-3612820D01*
X3202421Y-3618260D01*
X3202197Y-3622553D01*
X3201925Y-3625909D01*
X3201598Y-3628535D01*
X3201208Y-3630642D01*
X3200746Y-3632436D01*
X3199919Y-3635077D01*
X3197558Y-3641277D01*
X3194968Y-3646557D01*
X3192453Y-3650264D01*
X3192334Y-3650407D01*
X3192117Y-3650842D01*
X3192333Y-3651203D01*
X3193164Y-3651495D01*
X3194794Y-3651727D01*
X3197404Y-3651905D01*
X3201177Y-3652037D01*
X3206296Y-3652129D01*
X3212942Y-3652188D01*
X3221299Y-3652221D01*
X3231548Y-3652236D01*
X3243873Y-3652240D01*
X3297030Y-3652240D01*
X3293152Y-3646478D01*
X3292543Y-3645589D01*
X3291498Y-3644107D01*
X3290558Y-3642742D01*
X3289718Y-3641376D01*
X3288973Y-3639891D01*
X3288317Y-3638167D01*
X3287745Y-3636085D01*
X3287249Y-3633528D01*
X3286827Y-3630375D01*
X3286470Y-3626509D01*
X3286174Y-3621811D01*
X3285934Y-3616161D01*
X3285743Y-3609441D01*
X3285596Y-3601532D01*
X3285488Y-3592316D01*
X3285412Y-3581673D01*
X3285363Y-3569486D01*
X3285336Y-3555634D01*
X3285324Y-3540000D01*
X3285323Y-3522464D01*
X3285326Y-3502908D01*
X3285329Y-3481213D01*
X3285328Y-3468951D01*
X3285324Y-3448445D01*
X3285323Y-3430012D01*
X3285329Y-3413533D01*
X3285348Y-3398892D01*
X3285387Y-3385967D01*
X3285450Y-3374642D01*
X3285544Y-3364797D01*
X3285674Y-3356314D01*
X3285846Y-3349074D01*
X3286066Y-3342959D01*
X3286338Y-3337849D01*
X3286670Y-3333627D01*
X3287066Y-3330173D01*
X3287532Y-3327369D01*
X3288075Y-3325096D01*
X3288699Y-3323236D01*
X3289410Y-3321669D01*
X3290214Y-3320278D01*
X3291117Y-3318944D01*
X3292124Y-3317548D01*
X3293241Y-3315971D01*
X3297220Y-3310187D01*
X3191231Y-3310187D01*
X3195031Y-3316497D01*
X3196499Y-3319000D01*
X3197953Y-3321759D01*
X3199163Y-3324570D01*
X3200153Y-3327655D01*
X3200949Y-3331234D01*
X3201576Y-3335528D01*
X3202058Y-3340757D01*
X3202421Y-3347142D01*
X3202688Y-3354902D01*
X3202886Y-3364259D01*
X3203038Y-3375433D01*
X3203170Y-3388644D01*
X3203261Y-3400643D01*
X3203302Y-3412306D01*
X3203277Y-3421853D01*
X3203186Y-3429256D01*
X3203029Y-3434485D01*
X3202808Y-3437515D01*
X3202522Y-3438316D01*
X3202216Y-3437986D01*
X3200401Y-3435841D01*
X3197427Y-3432189D01*
X3193464Y-3427244D01*
X3188677Y-3421221D01*
X3183234Y-3414333D01*
X3177303Y-3406794D01*
X3171049Y-3398820D01*
X3164642Y-3390623D01*
X3158247Y-3382418D01*
X3152033Y-3374419D01*
X3146166Y-3366841D01*
X3140814Y-3359897D01*
X3136143Y-3353802D01*
X3132321Y-3348770D01*
X3129516Y-3345014D01*
X3127894Y-3342749D01*
X3123363Y-3335521D01*
X3119366Y-3327546D01*
X3117213Y-3320719D01*
X3116883Y-3314984D01*
X3117412Y-3310187D01*
X3004236Y-3310212D01*
X3008187Y-3313272D01*
X3009125Y-3314009D01*
X3015418Y-3319444D01*
X3022300Y-3326226D01*
X3029960Y-3334552D01*
X3038589Y-3344618D01*
X3040305Y-3346685D01*
X3044383Y-3351641D01*
X3049359Y-3357733D01*
X3055095Y-3364790D01*
X3061457Y-3372642D01*
X3068307Y-3381120D01*
X3075509Y-3390054D01*
X3082927Y-3399272D01*
X3084452Y-3401170D01*
X3090425Y-3408606D01*
X3097865Y-3417885D01*
X3105113Y-3426939D01*
X3112031Y-3435598D01*
X3118484Y-3443692D01*
X3124335Y-3451051D01*
X3129447Y-3457504D01*
X3133685Y-3462883D01*
X3136911Y-3467016D01*
X3138991Y-3469734D01*
X3139787Y-3470867D01*
X3139611Y-3471277D01*
X3138323Y-3473333D01*
X3135888Y-3476956D01*
X3132425Y-3481982D01*
X3128049Y-3488249D01*
X3122877Y-3495594D01*
X3117028Y-3503853D01*
X3110618Y-3512864D01*
X3103765Y-3522463D01*
X3096584Y-3532488D01*
X3089194Y-3542777D01*
X3081712Y-3553165D01*
X3074254Y-3563490D01*
X3066939Y-3573589D01*
X3059882Y-3583299D01*
X3053201Y-3592458D01*
X3047013Y-3600901D01*
X3041436Y-3608467D01*
X3036586Y-3614992D01*
X3032581Y-3620313D01*
X3029537Y-3624267D01*
X3027494Y-3626803D01*
X3022890Y-3632229D01*
X3017861Y-3637877D01*
X3013181Y-3642867D01*
X3004065Y-3652240D01*
X2934244Y-3652240D01*
X2941136Y-3652235D01*
X2950961Y-3652209D01*
X2959903Y-3652164D01*
X2967733Y-3652101D01*
X2974222Y-3652023D01*
X2979141Y-3651933D01*
X2982260Y-3651833D01*
X2983351Y-3651726D01*
X2983232Y-3651404D01*
X2982218Y-3649645D01*
X2980504Y-3647016D01*
X2979654Y-3645769D01*
X2978733Y-3644362D01*
X2977923Y-3642935D01*
X2977218Y-3641348D01*
X2976612Y-3639461D01*
X2976096Y-3637134D01*
X2975665Y-3634228D01*
X2975312Y-3630602D01*
X2975030Y-3626117D01*
X2974812Y-3620633D01*
X2974651Y-3614010D01*
X2974542Y-3606108D01*
X2974476Y-3596787D01*
X2974448Y-3585908D01*
X2974451Y-3573330D01*
X2974477Y-3558914D01*
X2974521Y-3542521D01*
X2974574Y-3524009D01*
X2974628Y-3506123D01*
X2974680Y-3490237D01*
X2974735Y-3476332D01*
X2974794Y-3464266D01*
X2974862Y-3453903D01*
X2974940Y-3445101D01*
X2975033Y-3437722D01*
X2975142Y-3431627D01*
X2975271Y-3426676D01*
X2975423Y-3422729D01*
X2975602Y-3419648D01*
X2975809Y-3417294D01*
X2976049Y-3415526D01*
X2976323Y-3414206D01*
X2976636Y-3413194D01*
X2976989Y-3412351D01*
X2977379Y-3411537D01*
X2979344Y-3407854D01*
X2981222Y-3404839D01*
X2981327Y-3404691D01*
X2982760Y-3402466D01*
X2983351Y-3401170D01*
X2983250Y-3401125D01*
X2981530Y-3400980D01*
X2977866Y-3400848D01*
X2972496Y-3400732D01*
X2965663Y-3400635D01*
X2957606Y-3400561D01*
X2948567Y-3400514D01*
X2938785Y-3400498D01*
X2894219Y-3400498D01*
X2893912Y-3518184D01*
X2893604Y-3635871D01*
X2890941Y-3641762D01*
X2889748Y-3644218D01*
X2888025Y-3647243D01*
X2886707Y-3648956D01*
X2885908Y-3649759D01*
X2885138Y-3651249D01*
X2855994Y-3651249D01*
X2855947Y-3642003D01*
X2855905Y-3630462D01*
X2855871Y-3617416D01*
X2855843Y-3602772D01*
X2855823Y-3586434D01*
X2855808Y-3568310D01*
X2855797Y-3548305D01*
X2855791Y-3526324D01*
X2855788Y-3502274D01*
X2855787Y-3476060D01*
X2855787Y-3256903D01*
X2859625Y-3253065D01*
X2862335Y-3250691D01*
X2865025Y-3249511D01*
X2868656Y-3249227D01*
X2873849Y-3249227D01*
X2873849Y-3258021D01*
X2874043Y-3263010D01*
X2875920Y-3274052D01*
X2879622Y-3284199D01*
X2884937Y-3293315D01*
X2891655Y-3301267D01*
X2899564Y-3307920D01*
X2908453Y-3313141D01*
X2918112Y-3316793D01*
X2928330Y-3318743D01*
X2938895Y-3318857D01*
X2949596Y-3317000D01*
X2960223Y-3313038D01*
X2969922Y-3307252D01*
X2978429Y-3299768D01*
X2985301Y-3290961D01*
X2990392Y-3281062D01*
X2993553Y-3270299D01*
X2994640Y-3258905D01*
X2994640Y-3249227D01*
X3156675Y-3249227D01*
X3177790Y-3249228D01*
X3198202Y-3249233D01*
X3216569Y-3249243D01*
X3232999Y-3249259D01*
X3247603Y-3249283D01*
X3260489Y-3249315D01*
X3271768Y-3249357D01*
X3281549Y-3249411D01*
X3289940Y-3249477D01*
X3297053Y-3249556D01*
X3302995Y-3249650D01*
X3307877Y-3249761D01*
X3311808Y-3249888D01*
X3314897Y-3250035D01*
X3317254Y-3250201D01*
X3318989Y-3250388D01*
X3320210Y-3250597D01*
X3321027Y-3250830D01*
X3321551Y-3251088D01*
X3322150Y-3251444D01*
X3322828Y-3251798D01*
X3323448Y-3252149D01*
X3324013Y-3252592D01*
X3324525Y-3253221D01*
X3324987Y-3254130D01*
X3325401Y-3255414D01*
X3325771Y-3257166D01*
X3326099Y-3259481D01*
X3326386Y-3262453D01*
X3326637Y-3266176D01*
X3326852Y-3270745D01*
X3327036Y-3276253D01*
X3327190Y-3282794D01*
X3327317Y-3290463D01*
X3327419Y-3299354D01*
X3327500Y-3309562D01*
X3327503Y-3310187D01*
X3327561Y-3321179D01*
X3327606Y-3334301D01*
G37*
X3327606Y-3334301D02*
X3327636Y-3349022D01*
X3327655Y-3365435D01*
X3327664Y-3383635D01*
X3327667Y-3403716D01*
X3327666Y-3425773D01*
X3327664Y-3449899D01*
X3327662Y-3476189D01*
X3327662Y-3480404D01*
X3327665Y-3506467D01*
X3327668Y-3530380D01*
X3327671Y-3552236D01*
X3327669Y-3572129D01*
X3327659Y-3590153D01*
X3327639Y-3606401D01*
X3327606Y-3620967D01*
X3327557Y-3633943D01*
X3327488Y-3645424D01*
X3327398Y-3655503D01*
X3327282Y-3664273D01*
X3327138Y-3671828D01*
X3326963Y-3678261D01*
X3326754Y-3683666D01*
X3326508Y-3688136D01*
X3326223Y-3691765D01*
X3325894Y-3694646D01*
X3325520Y-3696873D01*
X3325097Y-3698539D01*
X3324623Y-3699737D01*
X3324094Y-3700562D01*
X3323507Y-3701106D01*
X3322860Y-3701463D01*
X3322150Y-3701727D01*
X3321373Y-3701991D01*
X3320527Y-3702348D01*
X3320091Y-3702514D01*
X3319239Y-3702711D01*
X3317969Y-3702891D01*
X3316188Y-3703055D01*
X3313805Y-3703205D01*
X3310727Y-3703340D01*
X3306862Y-3703461D01*
X3302118Y-3703570D01*
X3296404Y-3703666D01*
X3289628Y-3703751D01*
X3281697Y-3703825D01*
X3272520Y-3703890D01*
X3262004Y-3703945D01*
X3250059Y-3703991D01*
X3236591Y-3704030D01*
X3221509Y-3704062D01*
X3204721Y-3704087D01*
X3186134Y-3704107D01*
X3165658Y-3704121D01*
X3143200Y-3704132D01*
X3118668Y-3704139D01*
X3091970Y-3704143D01*
X3088132Y-3704144D01*
X3061592Y-3704148D01*
X3037205Y-3704152D01*
X3014878Y-3704155D01*
X2994520Y-3704152D01*
X2976037Y-3704143D01*
X2959337Y-3704124D01*
X2944329Y-3704094D01*
X2930920Y-3704049D01*
X2919017Y-3703988D01*
X2908528Y-3703909D01*
X2899361Y-3703808D01*
X2891424Y-3703684D01*
X2884624Y-3703533D01*
X2878869Y-3703355D01*
X2874066Y-3703146D01*
X2870124Y-3702904D01*
X2866950Y-3702627D01*
X2864451Y-3702312D01*
X2862536Y-3701957D01*
X2861112Y-3701560D01*
X2860087Y-3701118D01*
X2859368Y-3700629D01*
X2858863Y-3700090D01*
X2858480Y-3699500D01*
X2858127Y-3698855D01*
X2857711Y-3698154D01*
X2857602Y-3697969D01*
X2857381Y-3697418D01*
X2857179Y-3696587D01*
X2856994Y-3695381D01*
X2856826Y-3693706D01*
X2856674Y-3691469D01*
X2856538Y-3688574D01*
X2856417Y-3684928D01*
X2856309Y-3680437D01*
X2856214Y-3675006D01*
X2856131Y-3668541D01*
X2856060Y-3660948D01*
X2855999Y-3652134D01*
X2855994Y-3651249D01*
X2885138Y-3651249D01*
X2885526Y-3651376D01*
X2887852Y-3651579D01*
X2892087Y-3651763D01*
X2898013Y-3651923D01*
X2905411Y-3652055D01*
X2914061Y-3652155D01*
X2923745Y-3652218D01*
X2934244Y-3652240D01*
X3004065Y-3652240D01*
X3119509Y-3652240D01*
X3119446Y-3644620D01*
X3119557Y-3640416D01*
X3120130Y-3636833D01*
X3121389Y-3633077D01*
X3123557Y-3628258D01*
X3123879Y-3627590D01*
X3126419Y-3622636D01*
X3129100Y-3617837D01*
X3131392Y-3614147D01*
X3131848Y-3613483D01*
X3134052Y-3610359D01*
X3137269Y-3605865D01*
X3141346Y-3600215D01*
X3146124Y-3593620D01*
X3151450Y-3586296D01*
X3157165Y-3578454D01*
X3163115Y-3570307D01*
X3169144Y-3562070D01*
X3175094Y-3553954D01*
X3180810Y-3546174D01*
X3186137Y-3538942D01*
X3190917Y-3532472D01*
X3194996Y-3526976D01*
X3198216Y-3522668D01*
X3200422Y-3519760D01*
X3201457Y-3518467D01*
X3201904Y-3518035D01*
X3202324Y-3517831D01*
X3202664Y-3518093D01*
X3202932Y-3518999D01*
X3203134Y-3520728D01*
X3203275Y-3523461D01*
X3203360Y-3527376D01*
X3203397Y-3532653D01*
X3203390Y-3539471D01*
X3203346Y-3548008D01*
X3203270Y-3558445D01*
X3203168Y-3570960D01*
X3203131Y-3575430D01*
X3203017Y-3587539D01*
X3202897Y-3597669D01*
X3202764Y-3606026D01*
X3202608Y-3612820D01*
X3202421Y-3618260D01*
X3202197Y-3622553D01*
X3201925Y-3625909D01*
X3201598Y-3628535D01*
X3201208Y-3630642D01*
X3200746Y-3632436D01*
X3199919Y-3635077D01*
X3197558Y-3641277D01*
X3194968Y-3646557D01*
X3192453Y-3650264D01*
X3192334Y-3650407D01*
X3192117Y-3650842D01*
X3192333Y-3651203D01*
X3193164Y-3651495D01*
X3194794Y-3651727D01*
X3197404Y-3651905D01*
X3201177Y-3652037D01*
X3206296Y-3652129D01*
X3212942Y-3652188D01*
X3221299Y-3652221D01*
X3231548Y-3652236D01*
X3243873Y-3652240D01*
X3297030Y-3652240D01*
X3293152Y-3646478D01*
X3292543Y-3645589D01*
X3291498Y-3644107D01*
X3290558Y-3642742D01*
X3289718Y-3641376D01*
X3288973Y-3639891D01*
X3288317Y-3638167D01*
X3287745Y-3636085D01*
X3287249Y-3633528D01*
X3286827Y-3630375D01*
X3286470Y-3626509D01*
X3286174Y-3621811D01*
X3285934Y-3616161D01*
X3285743Y-3609441D01*
X3285596Y-3601532D01*
X3285488Y-3592316D01*
X3285412Y-3581673D01*
X3285363Y-3569486D01*
X3285336Y-3555634D01*
X3285324Y-3540000D01*
X3285323Y-3522464D01*
X3285326Y-3502908D01*
X3285329Y-3481213D01*
X3285328Y-3468951D01*
X3285324Y-3448445D01*
X3285323Y-3430012D01*
X3285329Y-3413533D01*
X3285348Y-3398892D01*
X3285387Y-3385967D01*
X3285450Y-3374642D01*
X3285544Y-3364797D01*
X3285674Y-3356314D01*
X3285846Y-3349074D01*
X3286066Y-3342959D01*
X3286338Y-3337849D01*
X3286670Y-3333627D01*
X3287066Y-3330173D01*
X3287532Y-3327369D01*
X3288075Y-3325096D01*
X3288699Y-3323236D01*
X3289410Y-3321669D01*
X3290214Y-3320278D01*
X3291117Y-3318944D01*
X3292124Y-3317548D01*
X3293241Y-3315971D01*
X3297220Y-3310187D01*
X3191231Y-3310187D01*
X3195031Y-3316497D01*
X3196499Y-3319000D01*
X3197953Y-3321759D01*
X3199163Y-3324570D01*
X3200153Y-3327655D01*
X3200949Y-3331234D01*
X3201576Y-3335528D01*
X3202058Y-3340757D01*
X3202421Y-3347142D01*
X3202688Y-3354902D01*
X3202886Y-3364259D01*
X3203038Y-3375433D01*
X3203170Y-3388644D01*
X3203261Y-3400643D01*
X3203302Y-3412306D01*
X3203277Y-3421853D01*
X3203186Y-3429256D01*
X3203029Y-3434485D01*
X3202808Y-3437515D01*
X3202522Y-3438316D01*
X3202216Y-3437986D01*
X3200401Y-3435841D01*
X3197427Y-3432189D01*
X3193464Y-3427244D01*
X3188677Y-3421221D01*
X3183234Y-3414333D01*
X3177303Y-3406794D01*
X3171049Y-3398820D01*
X3164642Y-3390623D01*
X3158247Y-3382418D01*
X3152033Y-3374419D01*
X3146166Y-3366841D01*
X3140814Y-3359897D01*
X3136143Y-3353802D01*
X3132321Y-3348770D01*
X3129516Y-3345014D01*
X3127894Y-3342749D01*
X3123363Y-3335521D01*
X3119366Y-3327546D01*
X3117213Y-3320719D01*
X3116883Y-3314984D01*
X3117412Y-3310187D01*
X3004236Y-3310212D01*
X3008187Y-3313272D01*
X3009125Y-3314009D01*
X3015418Y-3319444D01*
X3022300Y-3326226D01*
X3029960Y-3334552D01*
X3038589Y-3344618D01*
X3040305Y-3346685D01*
X3044383Y-3351641D01*
X3049359Y-3357733D01*
X3055095Y-3364790D01*
X3061457Y-3372642D01*
X3068307Y-3381120D01*
X3075509Y-3390054D01*
X3082927Y-3399272D01*
X3084452Y-3401170D01*
X3090425Y-3408606D01*
X3097865Y-3417885D01*
X3105113Y-3426939D01*
X3112031Y-3435598D01*
X3118484Y-3443692D01*
X3124335Y-3451051D01*
X3129447Y-3457504D01*
X3133685Y-3462883D01*
X3136911Y-3467016D01*
X3138991Y-3469734D01*
X3139787Y-3470867D01*
X3139611Y-3471277D01*
X3138323Y-3473333D01*
X3135888Y-3476956D01*
X3132425Y-3481982D01*
X3128049Y-3488249D01*
X3122877Y-3495594D01*
X3117028Y-3503853D01*
X3110618Y-3512864D01*
X3103765Y-3522463D01*
X3096584Y-3532488D01*
X3089194Y-3542777D01*
X3081712Y-3553165D01*
X3074254Y-3563490D01*
X3066939Y-3573589D01*
X3059882Y-3583299D01*
X3053201Y-3592458D01*
X3047013Y-3600901D01*
X3041436Y-3608467D01*
X3036586Y-3614992D01*
X3032581Y-3620313D01*
X3029537Y-3624267D01*
X3027494Y-3626803D01*
X3022890Y-3632229D01*
X3017861Y-3637877D01*
X3013181Y-3642867D01*
X3004065Y-3652240D01*
X2934244Y-3652240D01*
X2941136Y-3652235D01*
X2950961Y-3652209D01*
X2959903Y-3652164D01*
X2967733Y-3652101D01*
X2974222Y-3652023D01*
X2979141Y-3651933D01*
X2982260Y-3651833D01*
X2983351Y-3651726D01*
X2983232Y-3651404D01*
X2982218Y-3649645D01*
X2980504Y-3647016D01*
X2979654Y-3645769D01*
X2978733Y-3644362D01*
X2977923Y-3642935D01*
X2977218Y-3641348D01*
X2976612Y-3639461D01*
X2976096Y-3637134D01*
X2975665Y-3634228D01*
X2975312Y-3630602D01*
X2975030Y-3626117D01*
X2974812Y-3620633D01*
X2974651Y-3614010D01*
X2974542Y-3606108D01*
X2974476Y-3596787D01*
X2974448Y-3585908D01*
X2974451Y-3573330D01*
X2974477Y-3558914D01*
X2974521Y-3542521D01*
X2974574Y-3524009D01*
X2974628Y-3506123D01*
X2974680Y-3490237D01*
X2974735Y-3476332D01*
X2974794Y-3464266D01*
X2974862Y-3453903D01*
X2974940Y-3445101D01*
X2975033Y-3437722D01*
X2975142Y-3431627D01*
X2975271Y-3426676D01*
X2975423Y-3422729D01*
X2975602Y-3419648D01*
X2975809Y-3417294D01*
X2976049Y-3415526D01*
X2976323Y-3414206D01*
X2976636Y-3413194D01*
X2976989Y-3412351D01*
X2977379Y-3411537D01*
X2979344Y-3407854D01*
X2981222Y-3404839D01*
X2981327Y-3404691D01*
X2982760Y-3402466D01*
X2983351Y-3401170D01*
X2983250Y-3401125D01*
X2981530Y-3400980D01*
X2977866Y-3400848D01*
X2972496Y-3400732D01*
X2965663Y-3400635D01*
X2957606Y-3400561D01*
X2948567Y-3400514D01*
X2938785Y-3400498D01*
X2894219Y-3400498D01*
X2893912Y-3518184D01*
X2893604Y-3635871D01*
X2890941Y-3641762D01*
X2889748Y-3644218D01*
X2888025Y-3647243D01*
X2886707Y-3648956D01*
X2885908Y-3649759D01*
X2885138Y-3651249D01*
X2855994Y-3651249D01*
X2855947Y-3642003D01*
X2855905Y-3630462D01*
X2855871Y-3617416D01*
X2855843Y-3602772D01*
X2855823Y-3586434D01*
X2855808Y-3568310D01*
X2855797Y-3548305D01*
X2855791Y-3526324D01*
X2855788Y-3502274D01*
X2855787Y-3476060D01*
X2855787Y-3256903D01*
X2859625Y-3253065D01*
X2862335Y-3250691D01*
X2865025Y-3249511D01*
X2868656Y-3249227D01*
X2873849Y-3249227D01*
X2873849Y-3258021D01*
X2874043Y-3263010D01*
X2875920Y-3274052D01*
X2879622Y-3284199D01*
X2884937Y-3293315D01*
X2891655Y-3301267D01*
X2899564Y-3307920D01*
X2908453Y-3313141D01*
X2918112Y-3316793D01*
X2928330Y-3318743D01*
X2938895Y-3318857D01*
X2949596Y-3317000D01*
X2960223Y-3313038D01*
X2969922Y-3307252D01*
X2978429Y-3299768D01*
X2985301Y-3290961D01*
X2990392Y-3281062D01*
X2993553Y-3270299D01*
X2994640Y-3258905D01*
X2994640Y-3249227D01*
X3156675Y-3249227D01*
X3177790Y-3249228D01*
X3198202Y-3249233D01*
X3216569Y-3249243D01*
X3232999Y-3249259D01*
X3247603Y-3249283D01*
X3260489Y-3249315D01*
X3271768Y-3249357D01*
X3281549Y-3249411D01*
X3289940Y-3249477D01*
X3297053Y-3249556D01*
X3302995Y-3249650D01*
X3307877Y-3249761D01*
X3311808Y-3249888D01*
X3314897Y-3250035D01*
X3317254Y-3250201D01*
X3318989Y-3250388D01*
X3320210Y-3250597D01*
X3321027Y-3250830D01*
X3321551Y-3251088D01*
X3322150Y-3251444D01*
X3322828Y-3251798D01*
X3323448Y-3252149D01*
X3324013Y-3252592D01*
X3324525Y-3253221D01*
X3324987Y-3254130D01*
X3325401Y-3255414D01*
X3325771Y-3257166D01*
X3326099Y-3259481D01*
X3326386Y-3262453D01*
X3326637Y-3266176D01*
X3326852Y-3270745D01*
X3327036Y-3276253D01*
X3327190Y-3282794D01*
X3327317Y-3290463D01*
X3327419Y-3299354D01*
X3327500Y-3309562D01*
X3327503Y-3310187D01*
X3327561Y-3321179D01*
X3327606Y-3334301D01*
%LPC*%
D11*
X300000Y-1088000D03*
X300000Y-2913000D03*
X5100000Y-1088000D03*
X5100000Y-2913000D03*
D12*
X1473000Y-1389000D03*
D13*
X1473000Y-2024000D03*
X1473000Y-2659000D03*
D14*
X4270000Y-3662000D03*
D15*
X4270000Y-3412000D03*
D16*
X5120000Y-262500D03*
D17*
X5120000Y-516500D03*
M02*
