%TF.GenerationSoftware,KiCad,Pcbnew,(6.0.8)*%
%TF.CreationDate,2022-10-20T22:21:08+02:00*%
%TF.ProjectId,WDSSR,57445353-522e-46b6-9963-61645f706362,rev?*%
%TF.SameCoordinates,PX7270e00PY4c4b400*%
%TF.FileFunction,Soldermask,Top*%
%TF.FilePolarity,Negative*%
%FSLAX45Y45*%
G04 Gerber Fmt 4.5, Leading zero omitted, Abs format (unit mm)*
G04 Created by KiCad (PCBNEW (6.0.8)) date 2022-10-20 22:21:08*
%MOMM*%
%LPD*%
G01*
G04 APERTURE LIST*
G04 Aperture macros list*
%AMRoundRect*
0 Rectangle with rounded corners*
0 $1 Rounding radius*
0 $2 $3 $4 $5 $6 $7 $8 $9 X,Y pos of 4 corners*
0 Add a 4 corners polygon primitive as box body*
4,1,4,$2,$3,$4,$5,$6,$7,$8,$9,$2,$3,0*
0 Add four circle primitives for the rounded corners*
1,1,$1+$1,$2,$3*
1,1,$1+$1,$4,$5*
1,1,$1+$1,$6,$7*
1,1,$1+$1,$8,$9*
0 Add four rect primitives between the rounded corners*
20,1,$1+$1,$2,$3,$4,$5,0*
20,1,$1+$1,$4,$5,$6,$7,0*
20,1,$1+$1,$6,$7,$8,$9,0*
20,1,$1+$1,$8,$9,$2,$3,0*%
G04 Aperture macros list end*
%ADD10R,2.200000X1.200000*%
%ADD11R,6.400000X5.800000*%
%ADD12C,5.700000*%
%ADD13R,1.000000X0.700000*%
%ADD14RoundRect,0.237500X-0.237500X0.287500X-0.237500X-0.287500X0.237500X-0.287500X0.237500X0.287500X0*%
%ADD15RoundRect,0.137500X0.662500X0.137500X-0.662500X0.137500X-0.662500X-0.137500X0.662500X-0.137500X0*%
%ADD16RoundRect,0.150000X0.150000X-0.587500X0.150000X0.587500X-0.150000X0.587500X-0.150000X-0.587500X0*%
%ADD17R,2.175000X2.175000*%
%ADD18C,2.175000*%
%ADD19R,1.650000X1.650000*%
%ADD20C,1.650000*%
%ADD21R,1.200000X2.200000*%
%ADD22R,5.800000X6.400000*%
%ADD23R,1.700000X1.700000*%
%ADD24O,1.700000X1.700000*%
%ADD25RoundRect,0.237500X-0.250000X-0.237500X0.250000X-0.237500X0.250000X0.237500X-0.250000X0.237500X0*%
%ADD26RoundRect,0.237500X0.250000X0.237500X-0.250000X0.237500X-0.250000X-0.237500X0.250000X-0.237500X0*%
%ADD27RoundRect,0.150000X-0.587500X-0.150000X0.587500X-0.150000X0.587500X0.150000X-0.587500X0.150000X0*%
%ADD28RoundRect,0.237500X0.300000X0.237500X-0.300000X0.237500X-0.300000X-0.237500X0.300000X-0.237500X0*%
%ADD29RoundRect,0.150000X-0.725000X-0.150000X0.725000X-0.150000X0.725000X0.150000X-0.725000X0.150000X0*%
%ADD30RoundRect,0.150000X0.587500X0.150000X-0.587500X0.150000X-0.587500X-0.150000X0.587500X-0.150000X0*%
%ADD31RoundRect,0.237500X-0.300000X-0.237500X0.300000X-0.237500X0.300000X0.237500X-0.300000X0.237500X0*%
%ADD32RoundRect,0.237500X-0.287500X-0.237500X0.287500X-0.237500X0.287500X0.237500X-0.287500X0.237500X0*%
%ADD33R,0.500000X0.500000*%
G04 APERTURE END LIST*
D10*
X3040000Y-2378000D03*
D11*
X2410000Y-2150000D03*
D10*
X3040000Y-1922000D03*
D12*
X300000Y-1088000D03*
X300000Y-2913000D03*
X5100000Y-1088000D03*
X5100000Y-2913000D03*
D13*
X3111500Y-3336000D03*
X3111500Y-3736000D03*
X3706500Y-3736000D03*
X3706500Y-3336000D03*
D14*
X2356000Y-3339500D03*
X2356000Y-3514500D03*
D15*
X2134000Y-3594000D03*
X2134000Y-3340000D03*
X1484000Y-3340000D03*
X1484000Y-3594000D03*
D16*
X995000Y-643750D03*
X1185000Y-643750D03*
X1090000Y-456250D03*
D17*
X1473000Y-1389000D03*
D18*
X1473000Y-2024000D03*
X1473000Y-2659000D03*
D19*
X4270000Y-3662000D03*
D20*
X4270000Y-3412000D03*
D21*
X4333000Y-1459000D03*
D22*
X4105000Y-2089000D03*
D21*
X3877000Y-1459000D03*
D23*
X5120000Y-262500D03*
D24*
X5120000Y-516500D03*
D25*
X2547750Y-3515000D03*
X2730250Y-3515000D03*
D26*
X2732250Y-3705000D03*
X2549750Y-3705000D03*
D27*
X4396250Y-155000D03*
X4396250Y-345000D03*
X4583750Y-250000D03*
D26*
X3791250Y-540000D03*
X3608750Y-540000D03*
D28*
X2756250Y-1100000D03*
X2583750Y-1100000D03*
D25*
X2168750Y-150000D03*
X2351250Y-150000D03*
D28*
X1805250Y-339000D03*
X1632750Y-339000D03*
D29*
X2212500Y-449500D03*
X2212500Y-576500D03*
X2212500Y-703500D03*
X2212500Y-830500D03*
X2727500Y-830500D03*
X2727500Y-703500D03*
X2727500Y-576500D03*
X2727500Y-449500D03*
D30*
X3823750Y-345000D03*
X3823750Y-155000D03*
X3636250Y-250000D03*
D26*
X2351250Y-1100000D03*
X2168750Y-1100000D03*
D25*
X1628750Y-149000D03*
X1811250Y-149000D03*
X998750Y-910000D03*
X1181250Y-910000D03*
D26*
X3160250Y-343000D03*
X2977750Y-343000D03*
D25*
X3608750Y-900000D03*
X3791250Y-900000D03*
D26*
X3161250Y-720000D03*
X2978750Y-720000D03*
X1811250Y-530000D03*
X1628750Y-530000D03*
D30*
X3193750Y-1095000D03*
X3193750Y-905000D03*
X3006250Y-1000000D03*
D25*
X3608750Y-720000D03*
X3791250Y-720000D03*
D31*
X2583750Y-151000D03*
X2756250Y-151000D03*
D25*
X2978750Y-153000D03*
X3161250Y-153000D03*
D26*
X1812250Y-720000D03*
X1629750Y-720000D03*
D25*
X2978750Y-528000D03*
X3161250Y-528000D03*
D32*
X3612500Y-1080000D03*
X3787500Y-1080000D03*
D25*
X1628750Y-910000D03*
X1811250Y-910000D03*
D33*
X4350000Y-570000D03*
X4570000Y-570000D03*
M02*
