%TF.GenerationSoftware,KiCad,Pcbnew,(6.0.8)*%
%TF.CreationDate,2022-10-20T22:21:02+02:00*%
%TF.ProjectId,WDSSR,57445353-522e-46b6-9963-61645f706362,rev?*%
%TF.SameCoordinates,PX7270e00PY4c4b400*%
%TF.FileFunction,Drillmap*%
%TF.FilePolarity,Positive*%
%FSLAX45Y45*%
G04 Gerber Fmt 4.5, Leading zero omitted, Abs format (unit mm)*
G04 Created by KiCad (PCBNEW (6.0.8)) date 2022-10-20 22:21:02*
%MOMM*%
%LPD*%
G01*
G04 APERTURE LIST*
%ADD10C,0.050000*%
%ADD11C,0.200000*%
%ADD12C,0.040000*%
%ADD13C,0.100000*%
%ADD14C,0.110000*%
%ADD15C,0.145000*%
%ADD16C,0.320000*%
G04 APERTURE END LIST*
D10*
X0Y-4000000D02*
X5400000Y-4000000D01*
X0Y0D02*
X5400000Y0D01*
X0Y0D02*
X0Y-4000000D01*
X5400000Y0D02*
X5400000Y-4000000D01*
D11*
D12*
X190000Y-3480000D02*
X230000Y-3520000D01*
X230000Y-3480000D02*
X190000Y-3520000D01*
X190000Y-3630000D02*
X230000Y-3670000D01*
X230000Y-3630000D02*
X190000Y-3670000D01*
X190000Y-3780000D02*
X230000Y-3820000D01*
X230000Y-3780000D02*
X190000Y-3820000D01*
X340000Y-3480000D02*
X380000Y-3520000D01*
X380000Y-3480000D02*
X340000Y-3520000D01*
X340000Y-3630000D02*
X380000Y-3670000D01*
X380000Y-3630000D02*
X340000Y-3670000D01*
X340000Y-3780000D02*
X380000Y-3820000D01*
X380000Y-3780000D02*
X340000Y-3820000D01*
X490000Y-3480000D02*
X530000Y-3520000D01*
X530000Y-3480000D02*
X490000Y-3520000D01*
X490000Y-3630000D02*
X530000Y-3670000D01*
X530000Y-3630000D02*
X490000Y-3670000D01*
X490000Y-3780000D02*
X530000Y-3820000D01*
X530000Y-3780000D02*
X490000Y-3820000D01*
X810000Y-1800000D02*
X850000Y-1840000D01*
X850000Y-1800000D02*
X810000Y-1840000D01*
X930000Y-3480000D02*
X970000Y-3520000D01*
X970000Y-3480000D02*
X930000Y-3520000D01*
X930000Y-3630000D02*
X970000Y-3670000D01*
X970000Y-3630000D02*
X930000Y-3670000D01*
X930000Y-3780000D02*
X970000Y-3820000D01*
X970000Y-3780000D02*
X930000Y-3820000D01*
X1080000Y-3480000D02*
X1120000Y-3520000D01*
X1120000Y-3480000D02*
X1080000Y-3520000D01*
X1080000Y-3630000D02*
X1120000Y-3670000D01*
X1120000Y-3630000D02*
X1080000Y-3670000D01*
X1080000Y-3780000D02*
X1120000Y-3820000D01*
X1120000Y-3780000D02*
X1080000Y-3820000D01*
X1230000Y-3480000D02*
X1270000Y-3520000D01*
X1270000Y-3480000D02*
X1230000Y-3520000D01*
X1230000Y-3630000D02*
X1270000Y-3670000D01*
X1270000Y-3630000D02*
X1230000Y-3670000D01*
X1230000Y-3780000D02*
X1270000Y-3820000D01*
X1270000Y-3780000D02*
X1230000Y-3820000D01*
X1455000Y-3485000D02*
X1495000Y-3525000D01*
X1495000Y-3485000D02*
X1455000Y-3525000D01*
X1480000Y-510000D02*
X1520000Y-550000D01*
X1520000Y-510000D02*
X1480000Y-550000D01*
X1680000Y-1880000D02*
X1720000Y-1920000D01*
X1720000Y-1880000D02*
X1680000Y-1920000D01*
X1680000Y-2030000D02*
X1720000Y-2070000D01*
X1720000Y-2030000D02*
X1680000Y-2070000D01*
X1680000Y-2180000D02*
X1720000Y-2220000D01*
X1720000Y-2180000D02*
X1680000Y-2220000D01*
X1680000Y-2720000D02*
X1720000Y-2760000D01*
X1720000Y-2720000D02*
X1680000Y-2760000D01*
X1680000Y-2870000D02*
X1720000Y-2910000D01*
X1720000Y-2870000D02*
X1680000Y-2910000D01*
X1680000Y-3020000D02*
X1720000Y-3060000D01*
X1720000Y-3020000D02*
X1680000Y-3060000D01*
X1700000Y-1240000D02*
X1740000Y-1280000D01*
X1740000Y-1240000D02*
X1700000Y-1280000D01*
X1700000Y-1390000D02*
X1740000Y-1430000D01*
X1740000Y-1390000D02*
X1700000Y-1430000D01*
X1700000Y-1540000D02*
X1740000Y-1580000D01*
X1740000Y-1540000D02*
X1700000Y-1580000D01*
X1830000Y-1880000D02*
X1870000Y-1920000D01*
X1870000Y-1880000D02*
X1830000Y-1920000D01*
X1830000Y-2030000D02*
X1870000Y-2070000D01*
X1870000Y-2030000D02*
X1830000Y-2070000D01*
X1830000Y-2180000D02*
X1870000Y-2220000D01*
X1870000Y-2180000D02*
X1830000Y-2220000D01*
X1830000Y-2720000D02*
X1870000Y-2760000D01*
X1870000Y-2720000D02*
X1830000Y-2760000D01*
X1830000Y-2870000D02*
X1870000Y-2910000D01*
X1870000Y-2870000D02*
X1830000Y-2910000D01*
X1830000Y-3020000D02*
X1870000Y-3060000D01*
X1870000Y-3020000D02*
X1830000Y-3060000D01*
X1850000Y-1240000D02*
X1890000Y-1280000D01*
X1890000Y-1240000D02*
X1850000Y-1280000D01*
X1850000Y-1390000D02*
X1890000Y-1430000D01*
X1890000Y-1390000D02*
X1850000Y-1430000D01*
X1850000Y-1540000D02*
X1890000Y-1580000D01*
X1890000Y-1540000D02*
X1850000Y-1580000D01*
X1960000Y-610000D02*
X2000000Y-650000D01*
X2000000Y-610000D02*
X1960000Y-650000D01*
X1980000Y-1880000D02*
X2020000Y-1920000D01*
X2020000Y-1880000D02*
X1980000Y-1920000D01*
X1980000Y-2030000D02*
X2020000Y-2070000D01*
X2020000Y-2030000D02*
X1980000Y-2070000D01*
X1980000Y-2180000D02*
X2020000Y-2220000D01*
X2020000Y-2180000D02*
X1980000Y-2220000D01*
X1980000Y-2720000D02*
X2020000Y-2760000D01*
X2020000Y-2720000D02*
X1980000Y-2760000D01*
X1980000Y-2870000D02*
X2020000Y-2910000D01*
X2020000Y-2870000D02*
X1980000Y-2910000D01*
X1980000Y-3020000D02*
X2020000Y-3060000D01*
X2020000Y-3020000D02*
X1980000Y-3060000D01*
X2000000Y-1240000D02*
X2040000Y-1280000D01*
X2040000Y-1240000D02*
X2000000Y-1280000D01*
X2000000Y-1390000D02*
X2040000Y-1430000D01*
X2040000Y-1390000D02*
X2000000Y-1430000D01*
X2000000Y-1540000D02*
X2040000Y-1580000D01*
X2040000Y-1540000D02*
X2000000Y-1580000D01*
X2060000Y-130000D02*
X2100000Y-170000D01*
X2100000Y-130000D02*
X2060000Y-170000D01*
X2145000Y-1390000D02*
X2185000Y-1430000D01*
X2185000Y-1390000D02*
X2145000Y-1430000D01*
X2145000Y-1540000D02*
X2185000Y-1580000D01*
X2185000Y-1540000D02*
X2145000Y-1580000D01*
X2295000Y-1390000D02*
X2335000Y-1430000D01*
X2335000Y-1390000D02*
X2295000Y-1430000D01*
X2295000Y-1540000D02*
X2335000Y-1580000D01*
X2335000Y-1540000D02*
X2295000Y-1580000D01*
X2330000Y-2720000D02*
X2370000Y-2760000D01*
X2370000Y-2720000D02*
X2330000Y-2760000D01*
X2330000Y-2870000D02*
X2370000Y-2910000D01*
X2370000Y-2870000D02*
X2330000Y-2910000D01*
X2330000Y-3020000D02*
X2370000Y-3060000D01*
X2370000Y-3020000D02*
X2330000Y-3060000D01*
X2340000Y-430000D02*
X2380000Y-470000D01*
X2380000Y-430000D02*
X2340000Y-470000D01*
X2380000Y-810000D02*
X2420000Y-850000D01*
X2420000Y-810000D02*
X2380000Y-850000D01*
X2455000Y-1390000D02*
X2495000Y-1430000D01*
X2495000Y-1390000D02*
X2455000Y-1430000D01*
X2455000Y-1540000D02*
X2495000Y-1580000D01*
X2495000Y-1540000D02*
X2455000Y-1580000D01*
X2480000Y-2720000D02*
X2520000Y-2760000D01*
X2520000Y-2720000D02*
X2480000Y-2760000D01*
X2480000Y-2870000D02*
X2520000Y-2910000D01*
X2520000Y-2870000D02*
X2480000Y-2910000D01*
X2480000Y-3020000D02*
X2520000Y-3060000D01*
X2520000Y-3020000D02*
X2480000Y-3060000D01*
X2605000Y-1390000D02*
X2645000Y-1430000D01*
X2645000Y-1390000D02*
X2605000Y-1430000D01*
X2605000Y-1540000D02*
X2645000Y-1580000D01*
X2645000Y-1540000D02*
X2605000Y-1580000D01*
X2630000Y-2720000D02*
X2670000Y-2760000D01*
X2670000Y-2720000D02*
X2630000Y-2760000D01*
X2630000Y-2870000D02*
X2670000Y-2910000D01*
X2670000Y-2870000D02*
X2630000Y-2910000D01*
X2630000Y-3020000D02*
X2670000Y-3060000D01*
X2670000Y-3020000D02*
X2630000Y-3060000D01*
X2755000Y-1390000D02*
X2795000Y-1430000D01*
X2795000Y-1390000D02*
X2755000Y-1430000D01*
X2755000Y-1540000D02*
X2795000Y-1580000D01*
X2795000Y-1540000D02*
X2755000Y-1580000D01*
X2860000Y-130000D02*
X2900000Y-170000D01*
X2900000Y-130000D02*
X2860000Y-170000D01*
X2860000Y-320000D02*
X2900000Y-360000D01*
X2900000Y-320000D02*
X2860000Y-360000D01*
X2905000Y-1390000D02*
X2945000Y-1430000D01*
X2945000Y-1390000D02*
X2905000Y-1430000D01*
X2905000Y-1540000D02*
X2945000Y-1580000D01*
X2945000Y-1540000D02*
X2905000Y-1580000D01*
X3055000Y-1390000D02*
X3095000Y-1430000D01*
X3095000Y-1390000D02*
X3055000Y-1430000D01*
X3055000Y-1540000D02*
X3095000Y-1580000D01*
X3095000Y-1540000D02*
X3055000Y-1580000D01*
X3140000Y-790000D02*
X3180000Y-830000D01*
X3180000Y-790000D02*
X3140000Y-830000D01*
X3150000Y-1000000D02*
X3190000Y-1040000D01*
X3190000Y-1000000D02*
X3150000Y-1040000D01*
X3205000Y-1390000D02*
X3245000Y-1430000D01*
X3245000Y-1390000D02*
X3205000Y-1430000D01*
X3205000Y-1540000D02*
X3245000Y-1580000D01*
X3245000Y-1540000D02*
X3205000Y-1580000D01*
X3290000Y-1880000D02*
X3330000Y-1920000D01*
X3330000Y-1880000D02*
X3290000Y-1920000D01*
X3290000Y-2030000D02*
X3330000Y-2070000D01*
X3330000Y-2030000D02*
X3290000Y-2070000D01*
X3290000Y-2180000D02*
X3330000Y-2220000D01*
X3330000Y-2180000D02*
X3290000Y-2220000D01*
X3290000Y-2720000D02*
X3330000Y-2760000D01*
X3330000Y-2720000D02*
X3290000Y-2760000D01*
X3290000Y-2870000D02*
X3330000Y-2910000D01*
X3330000Y-2870000D02*
X3290000Y-2910000D01*
X3290000Y-3020000D02*
X3330000Y-3060000D01*
X3330000Y-3020000D02*
X3290000Y-3060000D01*
X3360000Y-1390000D02*
X3400000Y-1430000D01*
X3400000Y-1390000D02*
X3360000Y-1430000D01*
X3360000Y-1540000D02*
X3400000Y-1580000D01*
X3400000Y-1540000D02*
X3360000Y-1580000D01*
X3440000Y-1880000D02*
X3480000Y-1920000D01*
X3480000Y-1880000D02*
X3440000Y-1920000D01*
X3440000Y-2030000D02*
X3480000Y-2070000D01*
X3480000Y-2030000D02*
X3440000Y-2070000D01*
X3440000Y-2180000D02*
X3480000Y-2220000D01*
X3480000Y-2180000D02*
X3440000Y-2220000D01*
X3440000Y-2720000D02*
X3480000Y-2760000D01*
X3480000Y-2720000D02*
X3440000Y-2760000D01*
X3440000Y-2870000D02*
X3480000Y-2910000D01*
X3480000Y-2870000D02*
X3440000Y-2910000D01*
X3440000Y-3020000D02*
X3480000Y-3060000D01*
X3480000Y-3020000D02*
X3440000Y-3060000D01*
X3460000Y-510000D02*
X3500000Y-550000D01*
X3500000Y-510000D02*
X3460000Y-550000D01*
X3510000Y-1390000D02*
X3550000Y-1430000D01*
X3550000Y-1390000D02*
X3510000Y-1430000D01*
X3510000Y-1540000D02*
X3550000Y-1580000D01*
X3550000Y-1540000D02*
X3510000Y-1580000D01*
X3590000Y-1880000D02*
X3630000Y-1920000D01*
X3630000Y-1880000D02*
X3590000Y-1920000D01*
X3590000Y-2030000D02*
X3630000Y-2070000D01*
X3630000Y-2030000D02*
X3590000Y-2070000D01*
X3590000Y-2180000D02*
X3630000Y-2220000D01*
X3630000Y-2180000D02*
X3590000Y-2220000D01*
X3590000Y-2720000D02*
X3630000Y-2760000D01*
X3630000Y-2720000D02*
X3590000Y-2760000D01*
X3590000Y-2870000D02*
X3630000Y-2910000D01*
X3630000Y-2870000D02*
X3590000Y-2910000D01*
X3590000Y-3020000D02*
X3630000Y-3060000D01*
X3630000Y-3020000D02*
X3590000Y-3060000D01*
X3660000Y-1390000D02*
X3700000Y-1430000D01*
X3700000Y-1390000D02*
X3660000Y-1430000D01*
X3660000Y-1540000D02*
X3700000Y-1580000D01*
X3700000Y-1540000D02*
X3660000Y-1580000D01*
X3990000Y-140000D02*
X4030000Y-180000D01*
X4030000Y-140000D02*
X3990000Y-180000D01*
X4180000Y-140000D02*
X4220000Y-180000D01*
X4220000Y-140000D02*
X4180000Y-180000D01*
X4180000Y-520000D02*
X4220000Y-560000D01*
X4220000Y-520000D02*
X4180000Y-560000D01*
X4280000Y-2720000D02*
X4320000Y-2760000D01*
X4320000Y-2720000D02*
X4280000Y-2760000D01*
X4280000Y-2870000D02*
X4320000Y-2910000D01*
X4320000Y-2870000D02*
X4280000Y-2910000D01*
X4280000Y-3020000D02*
X4320000Y-3060000D01*
X4320000Y-3020000D02*
X4280000Y-3060000D01*
X4430000Y-2720000D02*
X4470000Y-2760000D01*
X4470000Y-2720000D02*
X4430000Y-2760000D01*
X4430000Y-2870000D02*
X4470000Y-2910000D01*
X4470000Y-2870000D02*
X4430000Y-2910000D01*
X4430000Y-3020000D02*
X4470000Y-3060000D01*
X4470000Y-3020000D02*
X4430000Y-3060000D01*
X4580000Y-2720000D02*
X4620000Y-2760000D01*
X4620000Y-2720000D02*
X4580000Y-2760000D01*
X4580000Y-2870000D02*
X4620000Y-2910000D01*
X4620000Y-2870000D02*
X4580000Y-2910000D01*
X4580000Y-3020000D02*
X4620000Y-3060000D01*
X4620000Y-3020000D02*
X4580000Y-3060000D01*
X4880000Y-1880000D02*
X4920000Y-1920000D01*
X4920000Y-1880000D02*
X4880000Y-1920000D01*
X4880000Y-2030000D02*
X4920000Y-2070000D01*
X4920000Y-2030000D02*
X4880000Y-2070000D01*
X4880000Y-2180000D02*
X4920000Y-2220000D01*
X4920000Y-2180000D02*
X4880000Y-2220000D01*
X4880000Y-3480000D02*
X4920000Y-3520000D01*
X4920000Y-3480000D02*
X4880000Y-3520000D01*
X4880000Y-3630000D02*
X4920000Y-3670000D01*
X4920000Y-3630000D02*
X4880000Y-3670000D01*
X4880000Y-3780000D02*
X4920000Y-3820000D01*
X4920000Y-3780000D02*
X4880000Y-3820000D01*
X5030000Y-1880000D02*
X5070000Y-1920000D01*
X5070000Y-1880000D02*
X5030000Y-1920000D01*
X5030000Y-2030000D02*
X5070000Y-2070000D01*
X5070000Y-2030000D02*
X5030000Y-2070000D01*
X5030000Y-2180000D02*
X5070000Y-2220000D01*
X5070000Y-2180000D02*
X5030000Y-2220000D01*
X5030000Y-3480000D02*
X5070000Y-3520000D01*
X5070000Y-3480000D02*
X5030000Y-3520000D01*
X5030000Y-3630000D02*
X5070000Y-3670000D01*
X5070000Y-3630000D02*
X5030000Y-3670000D01*
X5030000Y-3780000D02*
X5070000Y-3820000D01*
X5070000Y-3780000D02*
X5030000Y-3820000D01*
X5180000Y-1880000D02*
X5220000Y-1920000D01*
X5220000Y-1880000D02*
X5180000Y-1920000D01*
X5180000Y-2030000D02*
X5220000Y-2070000D01*
X5220000Y-2030000D02*
X5180000Y-2070000D01*
X5180000Y-2180000D02*
X5220000Y-2220000D01*
X5220000Y-2180000D02*
X5180000Y-2220000D01*
X5180000Y-3480000D02*
X5220000Y-3520000D01*
X5220000Y-3480000D02*
X5180000Y-3520000D01*
X5180000Y-3630000D02*
X5220000Y-3670000D01*
X5220000Y-3630000D02*
X5180000Y-3670000D01*
X5180000Y-3780000D02*
X5220000Y-3820000D01*
X5220000Y-3780000D02*
X5180000Y-3820000D01*
D13*
X5170000Y-262500D02*
G75*
G03*
X5170000Y-262500I-50000J0D01*
G01*
X5170000Y-516500D02*
G75*
G03*
X5170000Y-516500I-50000J0D01*
G01*
D14*
X4270000Y-3357000D02*
X4270000Y-3467000D01*
X4215000Y-3412000D02*
X4325000Y-3412000D01*
X4270000Y-3607000D02*
X4270000Y-3717000D01*
X4215000Y-3662000D02*
X4325000Y-3662000D01*
D15*
X1524266Y-1440266D02*
X1524266Y-1337734D01*
X1421734Y-1337734D01*
X1421734Y-1440266D01*
X1524266Y-1440266D01*
X1524266Y-2075266D02*
X1524266Y-1972734D01*
X1421734Y-1972734D01*
X1421734Y-2075266D01*
X1524266Y-2075266D01*
X1524266Y-2710266D02*
X1524266Y-2607734D01*
X1421734Y-2607734D01*
X1421734Y-2710266D01*
X1524266Y-2710266D01*
D16*
X300000Y-1248000D02*
X460000Y-1088000D01*
X300000Y-928000D01*
X140000Y-1088000D01*
X300000Y-1248000D01*
X300000Y-3073000D02*
X460000Y-2913000D01*
X300000Y-2753000D01*
X140000Y-2913000D01*
X300000Y-3073000D01*
X5100000Y-1248000D02*
X5260000Y-1088000D01*
X5100000Y-928000D01*
X4940000Y-1088000D01*
X5100000Y-1248000D01*
X5100000Y-3073000D02*
X5260000Y-2913000D01*
X5100000Y-2753000D01*
X4940000Y-2913000D01*
X5100000Y-3073000D01*
D11*
X255119Y-4312976D02*
X255119Y-4112976D01*
X302738Y-4112976D01*
X331310Y-4122500D01*
X350357Y-4141548D01*
X359881Y-4160595D01*
X369405Y-4198690D01*
X369405Y-4227262D01*
X359881Y-4265357D01*
X350357Y-4284405D01*
X331310Y-4303452D01*
X302738Y-4312976D01*
X255119Y-4312976D01*
X455119Y-4312976D02*
X455119Y-4179643D01*
X455119Y-4217738D02*
X464643Y-4198690D01*
X474167Y-4189167D01*
X493214Y-4179643D01*
X512262Y-4179643D01*
X578929Y-4312976D02*
X578929Y-4179643D01*
X578929Y-4112976D02*
X569405Y-4122500D01*
X578929Y-4132024D01*
X588452Y-4122500D01*
X578929Y-4112976D01*
X578929Y-4132024D01*
X702738Y-4312976D02*
X683690Y-4303452D01*
X674167Y-4284405D01*
X674167Y-4112976D01*
X807500Y-4312976D02*
X788452Y-4303452D01*
X778928Y-4284405D01*
X778928Y-4112976D01*
X1036071Y-4312976D02*
X1036071Y-4112976D01*
X1102738Y-4255833D01*
X1169405Y-4112976D01*
X1169405Y-4312976D01*
X1350357Y-4312976D02*
X1350357Y-4208214D01*
X1340833Y-4189167D01*
X1321786Y-4179643D01*
X1283690Y-4179643D01*
X1264643Y-4189167D01*
X1350357Y-4303452D02*
X1331310Y-4312976D01*
X1283690Y-4312976D01*
X1264643Y-4303452D01*
X1255119Y-4284405D01*
X1255119Y-4265357D01*
X1264643Y-4246310D01*
X1283690Y-4236786D01*
X1331310Y-4236786D01*
X1350357Y-4227262D01*
X1445595Y-4179643D02*
X1445595Y-4379643D01*
X1445595Y-4189167D02*
X1464643Y-4179643D01*
X1502738Y-4179643D01*
X1521786Y-4189167D01*
X1531309Y-4198690D01*
X1540833Y-4217738D01*
X1540833Y-4274881D01*
X1531309Y-4293929D01*
X1521786Y-4303452D01*
X1502738Y-4312976D01*
X1464643Y-4312976D01*
X1445595Y-4303452D01*
X1626548Y-4293929D02*
X1636071Y-4303452D01*
X1626548Y-4312976D01*
X1617024Y-4303452D01*
X1626548Y-4293929D01*
X1626548Y-4312976D01*
X1626548Y-4189167D02*
X1636071Y-4198690D01*
X1626548Y-4208214D01*
X1617024Y-4198690D01*
X1626548Y-4189167D01*
X1626548Y-4208214D01*
D12*
X-42500Y-4622500D02*
X-2500Y-4662500D01*
X-2500Y-4622500D02*
X-42500Y-4662500D01*
D11*
X293214Y-4532976D02*
X312262Y-4532976D01*
X331310Y-4542500D01*
X340833Y-4552024D01*
X350357Y-4571071D01*
X359881Y-4609167D01*
X359881Y-4656786D01*
X350357Y-4694881D01*
X340833Y-4713929D01*
X331310Y-4723452D01*
X312262Y-4732976D01*
X293214Y-4732976D01*
X274167Y-4723452D01*
X264643Y-4713929D01*
X255119Y-4694881D01*
X245595Y-4656786D01*
X245595Y-4609167D01*
X255119Y-4571071D01*
X264643Y-4552024D01*
X274167Y-4542500D01*
X293214Y-4532976D01*
X445595Y-4713929D02*
X455119Y-4723452D01*
X445595Y-4732976D01*
X436071Y-4723452D01*
X445595Y-4713929D01*
X445595Y-4732976D01*
X626548Y-4599643D02*
X626548Y-4732976D01*
X578929Y-4523452D02*
X531310Y-4666310D01*
X655119Y-4666310D01*
X769405Y-4532976D02*
X788452Y-4532976D01*
X807500Y-4542500D01*
X817024Y-4552024D01*
X826548Y-4571071D01*
X836071Y-4609167D01*
X836071Y-4656786D01*
X826548Y-4694881D01*
X817024Y-4713929D01*
X807500Y-4723452D01*
X788452Y-4732976D01*
X769405Y-4732976D01*
X750357Y-4723452D01*
X740833Y-4713929D01*
X731309Y-4694881D01*
X721786Y-4656786D01*
X721786Y-4609167D01*
X731309Y-4571071D01*
X740833Y-4552024D01*
X750357Y-4542500D01*
X769405Y-4532976D01*
X959881Y-4532976D02*
X978928Y-4532976D01*
X997976Y-4542500D01*
X1007500Y-4552024D01*
X1017024Y-4571071D01*
X1026548Y-4609167D01*
X1026548Y-4656786D01*
X1017024Y-4694881D01*
X1007500Y-4713929D01*
X997976Y-4723452D01*
X978928Y-4732976D01*
X959881Y-4732976D01*
X940833Y-4723452D01*
X931309Y-4713929D01*
X921786Y-4694881D01*
X912262Y-4656786D01*
X912262Y-4609167D01*
X921786Y-4571071D01*
X931309Y-4552024D01*
X940833Y-4542500D01*
X959881Y-4532976D01*
X1112262Y-4732976D02*
X1112262Y-4599643D01*
X1112262Y-4618690D02*
X1121786Y-4609167D01*
X1140833Y-4599643D01*
X1169405Y-4599643D01*
X1188452Y-4609167D01*
X1197976Y-4628214D01*
X1197976Y-4732976D01*
X1197976Y-4628214D02*
X1207500Y-4609167D01*
X1226548Y-4599643D01*
X1255119Y-4599643D01*
X1274167Y-4609167D01*
X1283690Y-4628214D01*
X1283690Y-4732976D01*
X1378929Y-4732976D02*
X1378929Y-4599643D01*
X1378929Y-4618690D02*
X1388452Y-4609167D01*
X1407500Y-4599643D01*
X1436071Y-4599643D01*
X1455119Y-4609167D01*
X1464643Y-4628214D01*
X1464643Y-4732976D01*
X1464643Y-4628214D02*
X1474167Y-4609167D01*
X1493214Y-4599643D01*
X1521786Y-4599643D01*
X1540833Y-4609167D01*
X1550357Y-4628214D01*
X1550357Y-4732976D01*
X1940833Y-4523452D02*
X1769405Y-4780595D01*
X2197976Y-4532976D02*
X2217024Y-4532976D01*
X2236071Y-4542500D01*
X2245595Y-4552024D01*
X2255119Y-4571071D01*
X2264643Y-4609167D01*
X2264643Y-4656786D01*
X2255119Y-4694881D01*
X2245595Y-4713929D01*
X2236071Y-4723452D01*
X2217024Y-4732976D01*
X2197976Y-4732976D01*
X2178929Y-4723452D01*
X2169405Y-4713929D01*
X2159881Y-4694881D01*
X2150357Y-4656786D01*
X2150357Y-4609167D01*
X2159881Y-4571071D01*
X2169405Y-4552024D01*
X2178929Y-4542500D01*
X2197976Y-4532976D01*
X2350357Y-4713929D02*
X2359881Y-4723452D01*
X2350357Y-4732976D01*
X2340833Y-4723452D01*
X2350357Y-4713929D01*
X2350357Y-4732976D01*
X2483690Y-4532976D02*
X2502738Y-4532976D01*
X2521786Y-4542500D01*
X2531310Y-4552024D01*
X2540833Y-4571071D01*
X2550357Y-4609167D01*
X2550357Y-4656786D01*
X2540833Y-4694881D01*
X2531310Y-4713929D01*
X2521786Y-4723452D01*
X2502738Y-4732976D01*
X2483690Y-4732976D01*
X2464643Y-4723452D01*
X2455119Y-4713929D01*
X2445595Y-4694881D01*
X2436071Y-4656786D01*
X2436071Y-4609167D01*
X2445595Y-4571071D01*
X2455119Y-4552024D01*
X2464643Y-4542500D01*
X2483690Y-4532976D01*
X2740833Y-4732976D02*
X2626548Y-4732976D01*
X2683690Y-4732976D02*
X2683690Y-4532976D01*
X2664643Y-4561548D01*
X2645595Y-4580595D01*
X2626548Y-4590119D01*
X2921786Y-4532976D02*
X2826548Y-4532976D01*
X2817024Y-4628214D01*
X2826548Y-4618690D01*
X2845595Y-4609167D01*
X2893214Y-4609167D01*
X2912262Y-4618690D01*
X2921786Y-4628214D01*
X2931309Y-4647262D01*
X2931309Y-4694881D01*
X2921786Y-4713929D01*
X2912262Y-4723452D01*
X2893214Y-4732976D01*
X2845595Y-4732976D01*
X2826548Y-4723452D01*
X2817024Y-4713929D01*
X2997976Y-4532976D02*
X3131309Y-4532976D01*
X3045595Y-4732976D01*
X3197976Y-4532976D02*
X3197976Y-4571071D01*
X3274167Y-4532976D02*
X3274167Y-4571071D01*
X3569405Y-4809167D02*
X3559881Y-4799643D01*
X3540833Y-4771071D01*
X3531309Y-4752024D01*
X3521786Y-4723452D01*
X3512262Y-4675833D01*
X3512262Y-4637738D01*
X3521786Y-4590119D01*
X3531309Y-4561548D01*
X3540833Y-4542500D01*
X3559881Y-4513929D01*
X3569405Y-4504405D01*
X3750357Y-4732976D02*
X3636071Y-4732976D01*
X3693214Y-4732976D02*
X3693214Y-4532976D01*
X3674167Y-4561548D01*
X3655119Y-4580595D01*
X3636071Y-4590119D01*
X3817024Y-4532976D02*
X3940833Y-4532976D01*
X3874167Y-4609167D01*
X3902738Y-4609167D01*
X3921786Y-4618690D01*
X3931309Y-4628214D01*
X3940833Y-4647262D01*
X3940833Y-4694881D01*
X3931309Y-4713929D01*
X3921786Y-4723452D01*
X3902738Y-4732976D01*
X3845595Y-4732976D01*
X3826548Y-4723452D01*
X3817024Y-4713929D01*
X4112262Y-4532976D02*
X4074167Y-4532976D01*
X4055119Y-4542500D01*
X4045595Y-4552024D01*
X4026548Y-4580595D01*
X4017024Y-4618690D01*
X4017024Y-4694881D01*
X4026548Y-4713929D01*
X4036071Y-4723452D01*
X4055119Y-4732976D01*
X4093214Y-4732976D01*
X4112262Y-4723452D01*
X4121786Y-4713929D01*
X4131309Y-4694881D01*
X4131309Y-4647262D01*
X4121786Y-4628214D01*
X4112262Y-4618690D01*
X4093214Y-4609167D01*
X4055119Y-4609167D01*
X4036071Y-4618690D01*
X4026548Y-4628214D01*
X4017024Y-4647262D01*
X4369405Y-4732976D02*
X4369405Y-4532976D01*
X4455119Y-4732976D02*
X4455119Y-4628214D01*
X4445595Y-4609167D01*
X4426548Y-4599643D01*
X4397976Y-4599643D01*
X4378929Y-4609167D01*
X4369405Y-4618690D01*
X4578929Y-4732976D02*
X4559881Y-4723452D01*
X4550357Y-4713929D01*
X4540833Y-4694881D01*
X4540833Y-4637738D01*
X4550357Y-4618690D01*
X4559881Y-4609167D01*
X4578929Y-4599643D01*
X4607500Y-4599643D01*
X4626548Y-4609167D01*
X4636071Y-4618690D01*
X4645595Y-4637738D01*
X4645595Y-4694881D01*
X4636071Y-4713929D01*
X4626548Y-4723452D01*
X4607500Y-4732976D01*
X4578929Y-4732976D01*
X4759881Y-4732976D02*
X4740833Y-4723452D01*
X4731310Y-4704405D01*
X4731310Y-4532976D01*
X4912262Y-4723452D02*
X4893214Y-4732976D01*
X4855119Y-4732976D01*
X4836071Y-4723452D01*
X4826548Y-4704405D01*
X4826548Y-4628214D01*
X4836071Y-4609167D01*
X4855119Y-4599643D01*
X4893214Y-4599643D01*
X4912262Y-4609167D01*
X4921786Y-4628214D01*
X4921786Y-4647262D01*
X4826548Y-4666310D01*
X4997976Y-4723452D02*
X5017024Y-4732976D01*
X5055119Y-4732976D01*
X5074167Y-4723452D01*
X5083690Y-4704405D01*
X5083690Y-4694881D01*
X5074167Y-4675833D01*
X5055119Y-4666310D01*
X5026548Y-4666310D01*
X5007500Y-4656786D01*
X4997976Y-4637738D01*
X4997976Y-4628214D01*
X5007500Y-4609167D01*
X5026548Y-4599643D01*
X5055119Y-4599643D01*
X5074167Y-4609167D01*
X5150357Y-4809167D02*
X5159881Y-4799643D01*
X5178929Y-4771071D01*
X5188452Y-4752024D01*
X5197976Y-4723452D01*
X5207500Y-4675833D01*
X5207500Y-4637738D01*
X5197976Y-4590119D01*
X5188452Y-4561548D01*
X5178929Y-4542500D01*
X5159881Y-4513929D01*
X5150357Y-4504405D01*
D13*
X-2500Y-4906500D02*
G75*
G03*
X-2500Y-4906500I-50000J0D01*
G01*
D11*
X359881Y-4996976D02*
X245595Y-4996976D01*
X302738Y-4996976D02*
X302738Y-4796976D01*
X283690Y-4825548D01*
X264643Y-4844595D01*
X245595Y-4854119D01*
X445595Y-4977929D02*
X455119Y-4987452D01*
X445595Y-4996976D01*
X436071Y-4987452D01*
X445595Y-4977929D01*
X445595Y-4996976D01*
X578929Y-4796976D02*
X597976Y-4796976D01*
X617024Y-4806500D01*
X626548Y-4816024D01*
X636071Y-4835071D01*
X645595Y-4873167D01*
X645595Y-4920786D01*
X636071Y-4958881D01*
X626548Y-4977929D01*
X617024Y-4987452D01*
X597976Y-4996976D01*
X578929Y-4996976D01*
X559881Y-4987452D01*
X550357Y-4977929D01*
X540833Y-4958881D01*
X531310Y-4920786D01*
X531310Y-4873167D01*
X540833Y-4835071D01*
X550357Y-4816024D01*
X559881Y-4806500D01*
X578929Y-4796976D01*
X769405Y-4796976D02*
X788452Y-4796976D01*
X807500Y-4806500D01*
X817024Y-4816024D01*
X826548Y-4835071D01*
X836071Y-4873167D01*
X836071Y-4920786D01*
X826548Y-4958881D01*
X817024Y-4977929D01*
X807500Y-4987452D01*
X788452Y-4996976D01*
X769405Y-4996976D01*
X750357Y-4987452D01*
X740833Y-4977929D01*
X731309Y-4958881D01*
X721786Y-4920786D01*
X721786Y-4873167D01*
X731309Y-4835071D01*
X740833Y-4816024D01*
X750357Y-4806500D01*
X769405Y-4796976D01*
X959881Y-4796976D02*
X978928Y-4796976D01*
X997976Y-4806500D01*
X1007500Y-4816024D01*
X1017024Y-4835071D01*
X1026548Y-4873167D01*
X1026548Y-4920786D01*
X1017024Y-4958881D01*
X1007500Y-4977929D01*
X997976Y-4987452D01*
X978928Y-4996976D01*
X959881Y-4996976D01*
X940833Y-4987452D01*
X931309Y-4977929D01*
X921786Y-4958881D01*
X912262Y-4920786D01*
X912262Y-4873167D01*
X921786Y-4835071D01*
X931309Y-4816024D01*
X940833Y-4806500D01*
X959881Y-4796976D01*
X1112262Y-4996976D02*
X1112262Y-4863643D01*
X1112262Y-4882690D02*
X1121786Y-4873167D01*
X1140833Y-4863643D01*
X1169405Y-4863643D01*
X1188452Y-4873167D01*
X1197976Y-4892214D01*
X1197976Y-4996976D01*
X1197976Y-4892214D02*
X1207500Y-4873167D01*
X1226548Y-4863643D01*
X1255119Y-4863643D01*
X1274167Y-4873167D01*
X1283690Y-4892214D01*
X1283690Y-4996976D01*
X1378929Y-4996976D02*
X1378929Y-4863643D01*
X1378929Y-4882690D02*
X1388452Y-4873167D01*
X1407500Y-4863643D01*
X1436071Y-4863643D01*
X1455119Y-4873167D01*
X1464643Y-4892214D01*
X1464643Y-4996976D01*
X1464643Y-4892214D02*
X1474167Y-4873167D01*
X1493214Y-4863643D01*
X1521786Y-4863643D01*
X1540833Y-4873167D01*
X1550357Y-4892214D01*
X1550357Y-4996976D01*
X1940833Y-4787452D02*
X1769405Y-5044595D01*
X2197976Y-4796976D02*
X2217024Y-4796976D01*
X2236071Y-4806500D01*
X2245595Y-4816024D01*
X2255119Y-4835071D01*
X2264643Y-4873167D01*
X2264643Y-4920786D01*
X2255119Y-4958881D01*
X2245595Y-4977929D01*
X2236071Y-4987452D01*
X2217024Y-4996976D01*
X2197976Y-4996976D01*
X2178929Y-4987452D01*
X2169405Y-4977929D01*
X2159881Y-4958881D01*
X2150357Y-4920786D01*
X2150357Y-4873167D01*
X2159881Y-4835071D01*
X2169405Y-4816024D01*
X2178929Y-4806500D01*
X2197976Y-4796976D01*
X2350357Y-4977929D02*
X2359881Y-4987452D01*
X2350357Y-4996976D01*
X2340833Y-4987452D01*
X2350357Y-4977929D01*
X2350357Y-4996976D01*
X2483690Y-4796976D02*
X2502738Y-4796976D01*
X2521786Y-4806500D01*
X2531310Y-4816024D01*
X2540833Y-4835071D01*
X2550357Y-4873167D01*
X2550357Y-4920786D01*
X2540833Y-4958881D01*
X2531310Y-4977929D01*
X2521786Y-4987452D01*
X2502738Y-4996976D01*
X2483690Y-4996976D01*
X2464643Y-4987452D01*
X2455119Y-4977929D01*
X2445595Y-4958881D01*
X2436071Y-4920786D01*
X2436071Y-4873167D01*
X2445595Y-4835071D01*
X2455119Y-4816024D01*
X2464643Y-4806500D01*
X2483690Y-4796976D01*
X2617024Y-4796976D02*
X2740833Y-4796976D01*
X2674167Y-4873167D01*
X2702738Y-4873167D01*
X2721786Y-4882690D01*
X2731310Y-4892214D01*
X2740833Y-4911262D01*
X2740833Y-4958881D01*
X2731310Y-4977929D01*
X2721786Y-4987452D01*
X2702738Y-4996976D01*
X2645595Y-4996976D01*
X2626548Y-4987452D01*
X2617024Y-4977929D01*
X2836071Y-4996976D02*
X2874167Y-4996976D01*
X2893214Y-4987452D01*
X2902738Y-4977929D01*
X2921786Y-4949357D01*
X2931309Y-4911262D01*
X2931309Y-4835071D01*
X2921786Y-4816024D01*
X2912262Y-4806500D01*
X2893214Y-4796976D01*
X2855119Y-4796976D01*
X2836071Y-4806500D01*
X2826548Y-4816024D01*
X2817024Y-4835071D01*
X2817024Y-4882690D01*
X2826548Y-4901738D01*
X2836071Y-4911262D01*
X2855119Y-4920786D01*
X2893214Y-4920786D01*
X2912262Y-4911262D01*
X2921786Y-4901738D01*
X2931309Y-4882690D01*
X3102738Y-4863643D02*
X3102738Y-4996976D01*
X3055119Y-4787452D02*
X3007500Y-4930310D01*
X3131309Y-4930310D01*
X3197976Y-4796976D02*
X3197976Y-4835071D01*
X3274167Y-4796976D02*
X3274167Y-4835071D01*
X3569405Y-5073167D02*
X3559881Y-5063643D01*
X3540833Y-5035071D01*
X3531309Y-5016024D01*
X3521786Y-4987452D01*
X3512262Y-4939833D01*
X3512262Y-4901738D01*
X3521786Y-4854119D01*
X3531309Y-4825548D01*
X3540833Y-4806500D01*
X3559881Y-4777929D01*
X3569405Y-4768405D01*
X3636071Y-4816024D02*
X3645595Y-4806500D01*
X3664643Y-4796976D01*
X3712262Y-4796976D01*
X3731309Y-4806500D01*
X3740833Y-4816024D01*
X3750357Y-4835071D01*
X3750357Y-4854119D01*
X3740833Y-4882690D01*
X3626548Y-4996976D01*
X3750357Y-4996976D01*
X3988452Y-4996976D02*
X3988452Y-4796976D01*
X4074167Y-4996976D02*
X4074167Y-4892214D01*
X4064643Y-4873167D01*
X4045595Y-4863643D01*
X4017024Y-4863643D01*
X3997976Y-4873167D01*
X3988452Y-4882690D01*
X4197976Y-4996976D02*
X4178928Y-4987452D01*
X4169405Y-4977929D01*
X4159881Y-4958881D01*
X4159881Y-4901738D01*
X4169405Y-4882690D01*
X4178928Y-4873167D01*
X4197976Y-4863643D01*
X4226548Y-4863643D01*
X4245595Y-4873167D01*
X4255119Y-4882690D01*
X4264643Y-4901738D01*
X4264643Y-4958881D01*
X4255119Y-4977929D01*
X4245595Y-4987452D01*
X4226548Y-4996976D01*
X4197976Y-4996976D01*
X4378929Y-4996976D02*
X4359881Y-4987452D01*
X4350357Y-4968405D01*
X4350357Y-4796976D01*
X4531310Y-4987452D02*
X4512262Y-4996976D01*
X4474167Y-4996976D01*
X4455119Y-4987452D01*
X4445595Y-4968405D01*
X4445595Y-4892214D01*
X4455119Y-4873167D01*
X4474167Y-4863643D01*
X4512262Y-4863643D01*
X4531310Y-4873167D01*
X4540833Y-4892214D01*
X4540833Y-4911262D01*
X4445595Y-4930310D01*
X4617024Y-4987452D02*
X4636071Y-4996976D01*
X4674167Y-4996976D01*
X4693214Y-4987452D01*
X4702738Y-4968405D01*
X4702738Y-4958881D01*
X4693214Y-4939833D01*
X4674167Y-4930310D01*
X4645595Y-4930310D01*
X4626548Y-4920786D01*
X4617024Y-4901738D01*
X4617024Y-4892214D01*
X4626548Y-4873167D01*
X4645595Y-4863643D01*
X4674167Y-4863643D01*
X4693214Y-4873167D01*
X4769405Y-5073167D02*
X4778929Y-5063643D01*
X4797976Y-5035071D01*
X4807500Y-5016024D01*
X4817024Y-4987452D01*
X4826548Y-4939833D01*
X4826548Y-4901738D01*
X4817024Y-4854119D01*
X4807500Y-4825548D01*
X4797976Y-4806500D01*
X4778929Y-4777929D01*
X4769405Y-4768405D01*
D14*
X-57500Y-5115500D02*
X-57500Y-5225500D01*
X-112500Y-5170500D02*
X-2500Y-5170500D01*
D11*
X359881Y-5260976D02*
X245595Y-5260976D01*
X302738Y-5260976D02*
X302738Y-5060976D01*
X283690Y-5089548D01*
X264643Y-5108595D01*
X245595Y-5118119D01*
X445595Y-5241929D02*
X455119Y-5251452D01*
X445595Y-5260976D01*
X436071Y-5251452D01*
X445595Y-5241929D01*
X445595Y-5260976D01*
X645595Y-5260976D02*
X531310Y-5260976D01*
X588452Y-5260976D02*
X588452Y-5060976D01*
X569405Y-5089548D01*
X550357Y-5108595D01*
X531310Y-5118119D01*
X769405Y-5060976D02*
X788452Y-5060976D01*
X807500Y-5070500D01*
X817024Y-5080024D01*
X826548Y-5099071D01*
X836071Y-5137167D01*
X836071Y-5184786D01*
X826548Y-5222881D01*
X817024Y-5241929D01*
X807500Y-5251452D01*
X788452Y-5260976D01*
X769405Y-5260976D01*
X750357Y-5251452D01*
X740833Y-5241929D01*
X731309Y-5222881D01*
X721786Y-5184786D01*
X721786Y-5137167D01*
X731309Y-5099071D01*
X740833Y-5080024D01*
X750357Y-5070500D01*
X769405Y-5060976D01*
X959881Y-5060976D02*
X978928Y-5060976D01*
X997976Y-5070500D01*
X1007500Y-5080024D01*
X1017024Y-5099071D01*
X1026548Y-5137167D01*
X1026548Y-5184786D01*
X1017024Y-5222881D01*
X1007500Y-5241929D01*
X997976Y-5251452D01*
X978928Y-5260976D01*
X959881Y-5260976D01*
X940833Y-5251452D01*
X931309Y-5241929D01*
X921786Y-5222881D01*
X912262Y-5184786D01*
X912262Y-5137167D01*
X921786Y-5099071D01*
X931309Y-5080024D01*
X940833Y-5070500D01*
X959881Y-5060976D01*
X1112262Y-5260976D02*
X1112262Y-5127643D01*
X1112262Y-5146690D02*
X1121786Y-5137167D01*
X1140833Y-5127643D01*
X1169405Y-5127643D01*
X1188452Y-5137167D01*
X1197976Y-5156214D01*
X1197976Y-5260976D01*
X1197976Y-5156214D02*
X1207500Y-5137167D01*
X1226548Y-5127643D01*
X1255119Y-5127643D01*
X1274167Y-5137167D01*
X1283690Y-5156214D01*
X1283690Y-5260976D01*
X1378929Y-5260976D02*
X1378929Y-5127643D01*
X1378929Y-5146690D02*
X1388452Y-5137167D01*
X1407500Y-5127643D01*
X1436071Y-5127643D01*
X1455119Y-5137167D01*
X1464643Y-5156214D01*
X1464643Y-5260976D01*
X1464643Y-5156214D02*
X1474167Y-5137167D01*
X1493214Y-5127643D01*
X1521786Y-5127643D01*
X1540833Y-5137167D01*
X1550357Y-5156214D01*
X1550357Y-5260976D01*
X1940833Y-5051452D02*
X1769405Y-5308595D01*
X2197976Y-5060976D02*
X2217024Y-5060976D01*
X2236071Y-5070500D01*
X2245595Y-5080024D01*
X2255119Y-5099071D01*
X2264643Y-5137167D01*
X2264643Y-5184786D01*
X2255119Y-5222881D01*
X2245595Y-5241929D01*
X2236071Y-5251452D01*
X2217024Y-5260976D01*
X2197976Y-5260976D01*
X2178929Y-5251452D01*
X2169405Y-5241929D01*
X2159881Y-5222881D01*
X2150357Y-5184786D01*
X2150357Y-5137167D01*
X2159881Y-5099071D01*
X2169405Y-5080024D01*
X2178929Y-5070500D01*
X2197976Y-5060976D01*
X2350357Y-5241929D02*
X2359881Y-5251452D01*
X2350357Y-5260976D01*
X2340833Y-5251452D01*
X2350357Y-5241929D01*
X2350357Y-5260976D01*
X2483690Y-5060976D02*
X2502738Y-5060976D01*
X2521786Y-5070500D01*
X2531310Y-5080024D01*
X2540833Y-5099071D01*
X2550357Y-5137167D01*
X2550357Y-5184786D01*
X2540833Y-5222881D01*
X2531310Y-5241929D01*
X2521786Y-5251452D01*
X2502738Y-5260976D01*
X2483690Y-5260976D01*
X2464643Y-5251452D01*
X2455119Y-5241929D01*
X2445595Y-5222881D01*
X2436071Y-5184786D01*
X2436071Y-5137167D01*
X2445595Y-5099071D01*
X2455119Y-5080024D01*
X2464643Y-5070500D01*
X2483690Y-5060976D01*
X2721786Y-5127643D02*
X2721786Y-5260976D01*
X2674167Y-5051452D02*
X2626548Y-5194310D01*
X2750357Y-5194310D01*
X2807500Y-5060976D02*
X2931309Y-5060976D01*
X2864643Y-5137167D01*
X2893214Y-5137167D01*
X2912262Y-5146690D01*
X2921786Y-5156214D01*
X2931309Y-5175262D01*
X2931309Y-5222881D01*
X2921786Y-5241929D01*
X2912262Y-5251452D01*
X2893214Y-5260976D01*
X2836071Y-5260976D01*
X2817024Y-5251452D01*
X2807500Y-5241929D01*
X2997976Y-5060976D02*
X3121786Y-5060976D01*
X3055119Y-5137167D01*
X3083690Y-5137167D01*
X3102738Y-5146690D01*
X3112262Y-5156214D01*
X3121786Y-5175262D01*
X3121786Y-5222881D01*
X3112262Y-5241929D01*
X3102738Y-5251452D01*
X3083690Y-5260976D01*
X3026548Y-5260976D01*
X3007500Y-5251452D01*
X2997976Y-5241929D01*
X3197976Y-5060976D02*
X3197976Y-5099071D01*
X3274167Y-5060976D02*
X3274167Y-5099071D01*
X3569405Y-5337167D02*
X3559881Y-5327643D01*
X3540833Y-5299071D01*
X3531309Y-5280024D01*
X3521786Y-5251452D01*
X3512262Y-5203833D01*
X3512262Y-5165738D01*
X3521786Y-5118119D01*
X3531309Y-5089548D01*
X3540833Y-5070500D01*
X3559881Y-5041929D01*
X3569405Y-5032405D01*
X3636071Y-5080024D02*
X3645595Y-5070500D01*
X3664643Y-5060976D01*
X3712262Y-5060976D01*
X3731309Y-5070500D01*
X3740833Y-5080024D01*
X3750357Y-5099071D01*
X3750357Y-5118119D01*
X3740833Y-5146690D01*
X3626548Y-5260976D01*
X3750357Y-5260976D01*
X3988452Y-5260976D02*
X3988452Y-5060976D01*
X4074167Y-5260976D02*
X4074167Y-5156214D01*
X4064643Y-5137167D01*
X4045595Y-5127643D01*
X4017024Y-5127643D01*
X3997976Y-5137167D01*
X3988452Y-5146690D01*
X4197976Y-5260976D02*
X4178928Y-5251452D01*
X4169405Y-5241929D01*
X4159881Y-5222881D01*
X4159881Y-5165738D01*
X4169405Y-5146690D01*
X4178928Y-5137167D01*
X4197976Y-5127643D01*
X4226548Y-5127643D01*
X4245595Y-5137167D01*
X4255119Y-5146690D01*
X4264643Y-5165738D01*
X4264643Y-5222881D01*
X4255119Y-5241929D01*
X4245595Y-5251452D01*
X4226548Y-5260976D01*
X4197976Y-5260976D01*
X4378929Y-5260976D02*
X4359881Y-5251452D01*
X4350357Y-5232405D01*
X4350357Y-5060976D01*
X4531310Y-5251452D02*
X4512262Y-5260976D01*
X4474167Y-5260976D01*
X4455119Y-5251452D01*
X4445595Y-5232405D01*
X4445595Y-5156214D01*
X4455119Y-5137167D01*
X4474167Y-5127643D01*
X4512262Y-5127643D01*
X4531310Y-5137167D01*
X4540833Y-5156214D01*
X4540833Y-5175262D01*
X4445595Y-5194310D01*
X4617024Y-5251452D02*
X4636071Y-5260976D01*
X4674167Y-5260976D01*
X4693214Y-5251452D01*
X4702738Y-5232405D01*
X4702738Y-5222881D01*
X4693214Y-5203833D01*
X4674167Y-5194310D01*
X4645595Y-5194310D01*
X4626548Y-5184786D01*
X4617024Y-5165738D01*
X4617024Y-5156214D01*
X4626548Y-5137167D01*
X4645595Y-5127643D01*
X4674167Y-5127643D01*
X4693214Y-5137167D01*
X4769405Y-5337167D02*
X4778929Y-5327643D01*
X4797976Y-5299071D01*
X4807500Y-5280024D01*
X4817024Y-5251452D01*
X4826548Y-5203833D01*
X4826548Y-5165738D01*
X4817024Y-5118119D01*
X4807500Y-5089548D01*
X4797976Y-5070500D01*
X4778929Y-5041929D01*
X4769405Y-5032405D01*
D15*
X-23734Y-5485766D02*
X-23734Y-5383234D01*
X-126266Y-5383234D01*
X-126266Y-5485766D01*
X-23734Y-5485766D01*
D11*
X359881Y-5524976D02*
X245595Y-5524976D01*
X302738Y-5524976D02*
X302738Y-5324976D01*
X283690Y-5353548D01*
X264643Y-5372595D01*
X245595Y-5382119D01*
X445595Y-5505929D02*
X455119Y-5515452D01*
X445595Y-5524976D01*
X436071Y-5515452D01*
X445595Y-5505929D01*
X445595Y-5524976D01*
X626548Y-5391643D02*
X626548Y-5524976D01*
X578929Y-5315452D02*
X531310Y-5458310D01*
X655119Y-5458310D01*
X826548Y-5324976D02*
X731309Y-5324976D01*
X721786Y-5420214D01*
X731309Y-5410690D01*
X750357Y-5401167D01*
X797976Y-5401167D01*
X817024Y-5410690D01*
X826548Y-5420214D01*
X836071Y-5439262D01*
X836071Y-5486881D01*
X826548Y-5505929D01*
X817024Y-5515452D01*
X797976Y-5524976D01*
X750357Y-5524976D01*
X731309Y-5515452D01*
X721786Y-5505929D01*
X959881Y-5324976D02*
X978928Y-5324976D01*
X997976Y-5334500D01*
X1007500Y-5344024D01*
X1017024Y-5363071D01*
X1026548Y-5401167D01*
X1026548Y-5448786D01*
X1017024Y-5486881D01*
X1007500Y-5505929D01*
X997976Y-5515452D01*
X978928Y-5524976D01*
X959881Y-5524976D01*
X940833Y-5515452D01*
X931309Y-5505929D01*
X921786Y-5486881D01*
X912262Y-5448786D01*
X912262Y-5401167D01*
X921786Y-5363071D01*
X931309Y-5344024D01*
X940833Y-5334500D01*
X959881Y-5324976D01*
X1112262Y-5524976D02*
X1112262Y-5391643D01*
X1112262Y-5410690D02*
X1121786Y-5401167D01*
X1140833Y-5391643D01*
X1169405Y-5391643D01*
X1188452Y-5401167D01*
X1197976Y-5420214D01*
X1197976Y-5524976D01*
X1197976Y-5420214D02*
X1207500Y-5401167D01*
X1226548Y-5391643D01*
X1255119Y-5391643D01*
X1274167Y-5401167D01*
X1283690Y-5420214D01*
X1283690Y-5524976D01*
X1378929Y-5524976D02*
X1378929Y-5391643D01*
X1378929Y-5410690D02*
X1388452Y-5401167D01*
X1407500Y-5391643D01*
X1436071Y-5391643D01*
X1455119Y-5401167D01*
X1464643Y-5420214D01*
X1464643Y-5524976D01*
X1464643Y-5420214D02*
X1474167Y-5401167D01*
X1493214Y-5391643D01*
X1521786Y-5391643D01*
X1540833Y-5401167D01*
X1550357Y-5420214D01*
X1550357Y-5524976D01*
X1940833Y-5315452D02*
X1769405Y-5572595D01*
X2197976Y-5324976D02*
X2217024Y-5324976D01*
X2236071Y-5334500D01*
X2245595Y-5344024D01*
X2255119Y-5363071D01*
X2264643Y-5401167D01*
X2264643Y-5448786D01*
X2255119Y-5486881D01*
X2245595Y-5505929D01*
X2236071Y-5515452D01*
X2217024Y-5524976D01*
X2197976Y-5524976D01*
X2178929Y-5515452D01*
X2169405Y-5505929D01*
X2159881Y-5486881D01*
X2150357Y-5448786D01*
X2150357Y-5401167D01*
X2159881Y-5363071D01*
X2169405Y-5344024D01*
X2178929Y-5334500D01*
X2197976Y-5324976D01*
X2350357Y-5505929D02*
X2359881Y-5515452D01*
X2350357Y-5524976D01*
X2340833Y-5515452D01*
X2350357Y-5505929D01*
X2350357Y-5524976D01*
X2483690Y-5324976D02*
X2502738Y-5324976D01*
X2521786Y-5334500D01*
X2531310Y-5344024D01*
X2540833Y-5363071D01*
X2550357Y-5401167D01*
X2550357Y-5448786D01*
X2540833Y-5486881D01*
X2531310Y-5505929D01*
X2521786Y-5515452D01*
X2502738Y-5524976D01*
X2483690Y-5524976D01*
X2464643Y-5515452D01*
X2455119Y-5505929D01*
X2445595Y-5486881D01*
X2436071Y-5448786D01*
X2436071Y-5401167D01*
X2445595Y-5363071D01*
X2455119Y-5344024D01*
X2464643Y-5334500D01*
X2483690Y-5324976D01*
X2731310Y-5324976D02*
X2636071Y-5324976D01*
X2626548Y-5420214D01*
X2636071Y-5410690D01*
X2655119Y-5401167D01*
X2702738Y-5401167D01*
X2721786Y-5410690D01*
X2731310Y-5420214D01*
X2740833Y-5439262D01*
X2740833Y-5486881D01*
X2731310Y-5505929D01*
X2721786Y-5515452D01*
X2702738Y-5524976D01*
X2655119Y-5524976D01*
X2636071Y-5515452D01*
X2626548Y-5505929D01*
X2807500Y-5324976D02*
X2940833Y-5324976D01*
X2855119Y-5524976D01*
X3121786Y-5524976D02*
X3007500Y-5524976D01*
X3064643Y-5524976D02*
X3064643Y-5324976D01*
X3045595Y-5353548D01*
X3026548Y-5372595D01*
X3007500Y-5382119D01*
X3197976Y-5324976D02*
X3197976Y-5363071D01*
X3274167Y-5324976D02*
X3274167Y-5363071D01*
X3569405Y-5601167D02*
X3559881Y-5591643D01*
X3540833Y-5563071D01*
X3531309Y-5544024D01*
X3521786Y-5515452D01*
X3512262Y-5467833D01*
X3512262Y-5429738D01*
X3521786Y-5382119D01*
X3531309Y-5353548D01*
X3540833Y-5334500D01*
X3559881Y-5305929D01*
X3569405Y-5296405D01*
X3626548Y-5324976D02*
X3750357Y-5324976D01*
X3683690Y-5401167D01*
X3712262Y-5401167D01*
X3731309Y-5410690D01*
X3740833Y-5420214D01*
X3750357Y-5439262D01*
X3750357Y-5486881D01*
X3740833Y-5505929D01*
X3731309Y-5515452D01*
X3712262Y-5524976D01*
X3655119Y-5524976D01*
X3636071Y-5515452D01*
X3626548Y-5505929D01*
X3988452Y-5524976D02*
X3988452Y-5324976D01*
X4074167Y-5524976D02*
X4074167Y-5420214D01*
X4064643Y-5401167D01*
X4045595Y-5391643D01*
X4017024Y-5391643D01*
X3997976Y-5401167D01*
X3988452Y-5410690D01*
X4197976Y-5524976D02*
X4178928Y-5515452D01*
X4169405Y-5505929D01*
X4159881Y-5486881D01*
X4159881Y-5429738D01*
X4169405Y-5410690D01*
X4178928Y-5401167D01*
X4197976Y-5391643D01*
X4226548Y-5391643D01*
X4245595Y-5401167D01*
X4255119Y-5410690D01*
X4264643Y-5429738D01*
X4264643Y-5486881D01*
X4255119Y-5505929D01*
X4245595Y-5515452D01*
X4226548Y-5524976D01*
X4197976Y-5524976D01*
X4378929Y-5524976D02*
X4359881Y-5515452D01*
X4350357Y-5496405D01*
X4350357Y-5324976D01*
X4531310Y-5515452D02*
X4512262Y-5524976D01*
X4474167Y-5524976D01*
X4455119Y-5515452D01*
X4445595Y-5496405D01*
X4445595Y-5420214D01*
X4455119Y-5401167D01*
X4474167Y-5391643D01*
X4512262Y-5391643D01*
X4531310Y-5401167D01*
X4540833Y-5420214D01*
X4540833Y-5439262D01*
X4445595Y-5458310D01*
X4617024Y-5515452D02*
X4636071Y-5524976D01*
X4674167Y-5524976D01*
X4693214Y-5515452D01*
X4702738Y-5496405D01*
X4702738Y-5486881D01*
X4693214Y-5467833D01*
X4674167Y-5458310D01*
X4645595Y-5458310D01*
X4626548Y-5448786D01*
X4617024Y-5429738D01*
X4617024Y-5420214D01*
X4626548Y-5401167D01*
X4645595Y-5391643D01*
X4674167Y-5391643D01*
X4693214Y-5401167D01*
X4769405Y-5601167D02*
X4778929Y-5591643D01*
X4797976Y-5563071D01*
X4807500Y-5544024D01*
X4817024Y-5515452D01*
X4826548Y-5467833D01*
X4826548Y-5429738D01*
X4817024Y-5382119D01*
X4807500Y-5353548D01*
X4797976Y-5334500D01*
X4778929Y-5305929D01*
X4769405Y-5296405D01*
X-102500Y-5799500D02*
X-2500Y-5699500D01*
X-102500Y-5599500D01*
X-202500Y-5699500D01*
X-102500Y-5799500D01*
X236071Y-5589976D02*
X359881Y-5589976D01*
X293214Y-5666167D01*
X321786Y-5666167D01*
X340833Y-5675690D01*
X350357Y-5685214D01*
X359881Y-5704262D01*
X359881Y-5751881D01*
X350357Y-5770928D01*
X340833Y-5780452D01*
X321786Y-5789976D01*
X264643Y-5789976D01*
X245595Y-5780452D01*
X236071Y-5770928D01*
X445595Y-5770928D02*
X455119Y-5780452D01*
X445595Y-5789976D01*
X436071Y-5780452D01*
X445595Y-5770928D01*
X445595Y-5789976D01*
X531310Y-5609024D02*
X540833Y-5599500D01*
X559881Y-5589976D01*
X607500Y-5589976D01*
X626548Y-5599500D01*
X636071Y-5609024D01*
X645595Y-5628071D01*
X645595Y-5647119D01*
X636071Y-5675690D01*
X521786Y-5789976D01*
X645595Y-5789976D01*
X769405Y-5589976D02*
X788452Y-5589976D01*
X807500Y-5599500D01*
X817024Y-5609024D01*
X826548Y-5628071D01*
X836071Y-5666167D01*
X836071Y-5713786D01*
X826548Y-5751881D01*
X817024Y-5770928D01*
X807500Y-5780452D01*
X788452Y-5789976D01*
X769405Y-5789976D01*
X750357Y-5780452D01*
X740833Y-5770928D01*
X731309Y-5751881D01*
X721786Y-5713786D01*
X721786Y-5666167D01*
X731309Y-5628071D01*
X740833Y-5609024D01*
X750357Y-5599500D01*
X769405Y-5589976D01*
X959881Y-5589976D02*
X978928Y-5589976D01*
X997976Y-5599500D01*
X1007500Y-5609024D01*
X1017024Y-5628071D01*
X1026548Y-5666167D01*
X1026548Y-5713786D01*
X1017024Y-5751881D01*
X1007500Y-5770928D01*
X997976Y-5780452D01*
X978928Y-5789976D01*
X959881Y-5789976D01*
X940833Y-5780452D01*
X931309Y-5770928D01*
X921786Y-5751881D01*
X912262Y-5713786D01*
X912262Y-5666167D01*
X921786Y-5628071D01*
X931309Y-5609024D01*
X940833Y-5599500D01*
X959881Y-5589976D01*
X1112262Y-5789976D02*
X1112262Y-5656643D01*
X1112262Y-5675690D02*
X1121786Y-5666167D01*
X1140833Y-5656643D01*
X1169405Y-5656643D01*
X1188452Y-5666167D01*
X1197976Y-5685214D01*
X1197976Y-5789976D01*
X1197976Y-5685214D02*
X1207500Y-5666167D01*
X1226548Y-5656643D01*
X1255119Y-5656643D01*
X1274167Y-5666167D01*
X1283690Y-5685214D01*
X1283690Y-5789976D01*
X1378929Y-5789976D02*
X1378929Y-5656643D01*
X1378929Y-5675690D02*
X1388452Y-5666167D01*
X1407500Y-5656643D01*
X1436071Y-5656643D01*
X1455119Y-5666167D01*
X1464643Y-5685214D01*
X1464643Y-5789976D01*
X1464643Y-5685214D02*
X1474167Y-5666167D01*
X1493214Y-5656643D01*
X1521786Y-5656643D01*
X1540833Y-5666167D01*
X1550357Y-5685214D01*
X1550357Y-5789976D01*
X1940833Y-5580452D02*
X1769405Y-5837595D01*
X2197976Y-5589976D02*
X2217024Y-5589976D01*
X2236071Y-5599500D01*
X2245595Y-5609024D01*
X2255119Y-5628071D01*
X2264643Y-5666167D01*
X2264643Y-5713786D01*
X2255119Y-5751881D01*
X2245595Y-5770928D01*
X2236071Y-5780452D01*
X2217024Y-5789976D01*
X2197976Y-5789976D01*
X2178929Y-5780452D01*
X2169405Y-5770928D01*
X2159881Y-5751881D01*
X2150357Y-5713786D01*
X2150357Y-5666167D01*
X2159881Y-5628071D01*
X2169405Y-5609024D01*
X2178929Y-5599500D01*
X2197976Y-5589976D01*
X2350357Y-5770928D02*
X2359881Y-5780452D01*
X2350357Y-5789976D01*
X2340833Y-5780452D01*
X2350357Y-5770928D01*
X2350357Y-5789976D01*
X2550357Y-5789976D02*
X2436071Y-5789976D01*
X2493214Y-5789976D02*
X2493214Y-5589976D01*
X2474167Y-5618548D01*
X2455119Y-5637595D01*
X2436071Y-5647119D01*
X2626548Y-5609024D02*
X2636071Y-5599500D01*
X2655119Y-5589976D01*
X2702738Y-5589976D01*
X2721786Y-5599500D01*
X2731310Y-5609024D01*
X2740833Y-5628071D01*
X2740833Y-5647119D01*
X2731310Y-5675690D01*
X2617024Y-5789976D01*
X2740833Y-5789976D01*
X2912262Y-5589976D02*
X2874167Y-5589976D01*
X2855119Y-5599500D01*
X2845595Y-5609024D01*
X2826548Y-5637595D01*
X2817024Y-5675690D01*
X2817024Y-5751881D01*
X2826548Y-5770928D01*
X2836071Y-5780452D01*
X2855119Y-5789976D01*
X2893214Y-5789976D01*
X2912262Y-5780452D01*
X2921786Y-5770928D01*
X2931309Y-5751881D01*
X2931309Y-5704262D01*
X2921786Y-5685214D01*
X2912262Y-5675690D01*
X2893214Y-5666167D01*
X2855119Y-5666167D01*
X2836071Y-5675690D01*
X2826548Y-5685214D01*
X2817024Y-5704262D01*
X3055119Y-5589976D02*
X3074167Y-5589976D01*
X3093214Y-5599500D01*
X3102738Y-5609024D01*
X3112262Y-5628071D01*
X3121786Y-5666167D01*
X3121786Y-5713786D01*
X3112262Y-5751881D01*
X3102738Y-5770928D01*
X3093214Y-5780452D01*
X3074167Y-5789976D01*
X3055119Y-5789976D01*
X3036071Y-5780452D01*
X3026548Y-5770928D01*
X3017024Y-5751881D01*
X3007500Y-5713786D01*
X3007500Y-5666167D01*
X3017024Y-5628071D01*
X3026548Y-5609024D01*
X3036071Y-5599500D01*
X3055119Y-5589976D01*
X3197976Y-5589976D02*
X3197976Y-5628071D01*
X3274167Y-5589976D02*
X3274167Y-5628071D01*
X3569405Y-5866167D02*
X3559881Y-5856643D01*
X3540833Y-5828071D01*
X3531309Y-5809024D01*
X3521786Y-5780452D01*
X3512262Y-5732833D01*
X3512262Y-5694738D01*
X3521786Y-5647119D01*
X3531309Y-5618548D01*
X3540833Y-5599500D01*
X3559881Y-5570929D01*
X3569405Y-5561405D01*
X3731309Y-5656643D02*
X3731309Y-5789976D01*
X3683690Y-5580452D02*
X3636071Y-5723309D01*
X3759881Y-5723309D01*
X3988452Y-5789976D02*
X3988452Y-5589976D01*
X4074167Y-5789976D02*
X4074167Y-5685214D01*
X4064643Y-5666167D01*
X4045595Y-5656643D01*
X4017024Y-5656643D01*
X3997976Y-5666167D01*
X3988452Y-5675690D01*
X4197976Y-5789976D02*
X4178928Y-5780452D01*
X4169405Y-5770928D01*
X4159881Y-5751881D01*
X4159881Y-5694738D01*
X4169405Y-5675690D01*
X4178928Y-5666167D01*
X4197976Y-5656643D01*
X4226548Y-5656643D01*
X4245595Y-5666167D01*
X4255119Y-5675690D01*
X4264643Y-5694738D01*
X4264643Y-5751881D01*
X4255119Y-5770928D01*
X4245595Y-5780452D01*
X4226548Y-5789976D01*
X4197976Y-5789976D01*
X4378929Y-5789976D02*
X4359881Y-5780452D01*
X4350357Y-5761405D01*
X4350357Y-5589976D01*
X4531310Y-5780452D02*
X4512262Y-5789976D01*
X4474167Y-5789976D01*
X4455119Y-5780452D01*
X4445595Y-5761405D01*
X4445595Y-5685214D01*
X4455119Y-5666167D01*
X4474167Y-5656643D01*
X4512262Y-5656643D01*
X4531310Y-5666167D01*
X4540833Y-5685214D01*
X4540833Y-5704262D01*
X4445595Y-5723309D01*
X4617024Y-5780452D02*
X4636071Y-5789976D01*
X4674167Y-5789976D01*
X4693214Y-5780452D01*
X4702738Y-5761405D01*
X4702738Y-5751881D01*
X4693214Y-5732833D01*
X4674167Y-5723309D01*
X4645595Y-5723309D01*
X4626548Y-5713786D01*
X4617024Y-5694738D01*
X4617024Y-5685214D01*
X4626548Y-5666167D01*
X4645595Y-5656643D01*
X4674167Y-5656643D01*
X4693214Y-5666167D01*
X4769405Y-5866167D02*
X4778929Y-5856643D01*
X4797976Y-5828071D01*
X4807500Y-5809024D01*
X4817024Y-5780452D01*
X4826548Y-5732833D01*
X4826548Y-5694738D01*
X4817024Y-5647119D01*
X4807500Y-5618548D01*
X4797976Y-5599500D01*
X4778929Y-5570929D01*
X4769405Y-5561405D01*
M02*
