%TF.GenerationSoftware,KiCad,Pcbnew,(6.0.8)*%
%TF.CreationDate,2022-10-20T22:21:02+02:00*%
%TF.ProjectId,WDSSR,57445353-522e-46b6-9963-61645f706362,rev?*%
%TF.SameCoordinates,PX7270e00PY4c4b400*%
%TF.FileFunction,Drillmap*%
%TF.FilePolarity,Positive*%
%FSLAX45Y45*%
G04 Gerber Fmt 4.5, Leading zero omitted, Abs format (unit mm)*
G04 Created by KiCad (PCBNEW (6.0.8)) date 2022-10-20 22:21:02*
%MOMM*%
%LPD*%
G01*
G04 APERTURE LIST*
%ADD10C,0.050000*%
%ADD11C,0.200000*%
G04 APERTURE END LIST*
D10*
X0Y-4000000D02*
X5400000Y-4000000D01*
X0Y0D02*
X5400000Y0D01*
X0Y0D02*
X0Y-4000000D01*
X5400000Y0D02*
X5400000Y-4000000D01*
D11*
X255119Y-4312976D02*
X255119Y-4112976D01*
X302738Y-4112976D01*
X331310Y-4122500D01*
X350357Y-4141548D01*
X359881Y-4160595D01*
X369405Y-4198690D01*
X369405Y-4227262D01*
X359881Y-4265357D01*
X350357Y-4284405D01*
X331310Y-4303452D01*
X302738Y-4312976D01*
X255119Y-4312976D01*
X455119Y-4312976D02*
X455119Y-4179643D01*
X455119Y-4217738D02*
X464643Y-4198690D01*
X474167Y-4189167D01*
X493214Y-4179643D01*
X512262Y-4179643D01*
X578929Y-4312976D02*
X578929Y-4179643D01*
X578929Y-4112976D02*
X569405Y-4122500D01*
X578929Y-4132024D01*
X588452Y-4122500D01*
X578929Y-4112976D01*
X578929Y-4132024D01*
X702738Y-4312976D02*
X683690Y-4303452D01*
X674167Y-4284405D01*
X674167Y-4112976D01*
X807500Y-4312976D02*
X788452Y-4303452D01*
X778928Y-4284405D01*
X778928Y-4112976D01*
X1036071Y-4312976D02*
X1036071Y-4112976D01*
X1102738Y-4255833D01*
X1169405Y-4112976D01*
X1169405Y-4312976D01*
X1350357Y-4312976D02*
X1350357Y-4208214D01*
X1340833Y-4189167D01*
X1321786Y-4179643D01*
X1283690Y-4179643D01*
X1264643Y-4189167D01*
X1350357Y-4303452D02*
X1331310Y-4312976D01*
X1283690Y-4312976D01*
X1264643Y-4303452D01*
X1255119Y-4284405D01*
X1255119Y-4265357D01*
X1264643Y-4246310D01*
X1283690Y-4236786D01*
X1331310Y-4236786D01*
X1350357Y-4227262D01*
X1445595Y-4179643D02*
X1445595Y-4379643D01*
X1445595Y-4189167D02*
X1464643Y-4179643D01*
X1502738Y-4179643D01*
X1521786Y-4189167D01*
X1531309Y-4198690D01*
X1540833Y-4217738D01*
X1540833Y-4274881D01*
X1531309Y-4293929D01*
X1521786Y-4303452D01*
X1502738Y-4312976D01*
X1464643Y-4312976D01*
X1445595Y-4303452D01*
X1626548Y-4293929D02*
X1636071Y-4303452D01*
X1626548Y-4312976D01*
X1617024Y-4303452D01*
X1626548Y-4293929D01*
X1626548Y-4312976D01*
X1626548Y-4189167D02*
X1636071Y-4198690D01*
X1626548Y-4208214D01*
X1617024Y-4198690D01*
X1626548Y-4189167D01*
X1626548Y-4208214D01*
M02*
