%TF.GenerationSoftware,KiCad,Pcbnew,(6.0.8)*%
%TF.CreationDate,2022-10-20T22:21:07+02:00*%
%TF.ProjectId,WDSSR,57445353-522e-46b6-9963-61645f706362,rev?*%
%TF.SameCoordinates,PX7270e00PY4c4b400*%
%TF.FileFunction,Copper,L2,Bot*%
%TF.FilePolarity,Positive*%
%FSLAX45Y45*%
G04 Gerber Fmt 4.5, Leading zero omitted, Abs format (unit mm)*
G04 Created by KiCad (PCBNEW (6.0.8)) date 2022-10-20 22:21:07*
%MOMM*%
%LPD*%
G01*
G04 APERTURE LIST*
%TA.AperFunction,ComponentPad*%
%ADD10C,5.700000*%
%TD*%
%TA.AperFunction,ComponentPad*%
%ADD11R,2.175000X2.175000*%
%TD*%
%TA.AperFunction,ComponentPad*%
%ADD12C,2.175000*%
%TD*%
%TA.AperFunction,ComponentPad*%
%ADD13R,1.650000X1.650000*%
%TD*%
%TA.AperFunction,ComponentPad*%
%ADD14C,1.650000*%
%TD*%
%TA.AperFunction,ComponentPad*%
%ADD15R,1.700000X1.700000*%
%TD*%
%TA.AperFunction,ComponentPad*%
%ADD16O,1.700000X1.700000*%
%TD*%
%TA.AperFunction,ViaPad*%
%ADD17C,0.800000*%
%TD*%
%TA.AperFunction,Conductor*%
%ADD18C,0.500000*%
%TD*%
%TA.AperFunction,Conductor*%
%ADD19C,0.300000*%
%TD*%
G04 APERTURE END LIST*
D10*
X300000Y-1088000D03*
X300000Y-2913000D03*
X5100000Y-1088000D03*
X5100000Y-2913000D03*
D11*
X1473000Y-1389000D03*
D12*
X1473000Y-2024000D03*
X1473000Y-2659000D03*
D13*
X4270000Y-3662000D03*
D14*
X4270000Y-3412000D03*
D15*
X5120000Y-262500D03*
D16*
X5120000Y-516500D03*
D17*
X2315000Y-1410000D03*
X2165000Y-1560000D03*
X2020000Y-1560000D03*
X3225000Y-1560000D03*
X2165000Y-1410000D03*
X3075000Y-1560000D03*
X2925000Y-1560000D03*
X2315000Y-1560000D03*
X2925000Y-1410000D03*
X1870000Y-1560000D03*
X3530000Y-1560000D03*
X2625000Y-1410000D03*
X3380000Y-1410000D03*
X3680000Y-1560000D03*
X2475000Y-1410000D03*
X3380000Y-1560000D03*
X2475000Y-1560000D03*
X2880000Y-340000D03*
X4010000Y-160000D03*
X3075000Y-1410000D03*
X2020000Y-1260000D03*
X1980000Y-630000D03*
X1720000Y-1410000D03*
X1720000Y-1560000D03*
X1870000Y-1260000D03*
X2400000Y-830000D03*
X2775000Y-1560000D03*
X3480000Y-530000D03*
X3680000Y-1410000D03*
X1870000Y-1410000D03*
X3530000Y-1410000D03*
X1720000Y-1260000D03*
X2625000Y-1560000D03*
X3225000Y-1410000D03*
X1500000Y-530000D03*
X2775000Y-1410000D03*
X2020000Y-1410000D03*
X2080000Y-150000D03*
X2880000Y-150000D03*
X3160000Y-810000D03*
X1475000Y-3505000D03*
X2360000Y-450000D03*
X3170000Y-1020000D03*
X510000Y-3500000D03*
X510000Y-3650000D03*
X2000000Y-1900000D03*
X210000Y-3800000D03*
X2000000Y-2890000D03*
X2000000Y-2740000D03*
X2350000Y-2890000D03*
X1100000Y-3650000D03*
X830000Y-1820000D03*
X1700000Y-2740000D03*
X2650000Y-3040000D03*
X360000Y-3800000D03*
X1250000Y-3650000D03*
X2350000Y-2740000D03*
X510000Y-3800000D03*
X2000000Y-2200000D03*
X1100000Y-3800000D03*
X1250000Y-3800000D03*
X1700000Y-2890000D03*
X1850000Y-2200000D03*
X2650000Y-2740000D03*
X1850000Y-2050000D03*
X2000000Y-2050000D03*
X950000Y-3650000D03*
X1100000Y-3500000D03*
X2500000Y-2890000D03*
X1700000Y-3040000D03*
X1700000Y-1900000D03*
X360000Y-3650000D03*
X1850000Y-2890000D03*
X210000Y-3500000D03*
X2500000Y-2740000D03*
X2500000Y-3040000D03*
X2350000Y-3040000D03*
X2650000Y-2890000D03*
X360000Y-3500000D03*
X950000Y-3500000D03*
X1250000Y-3500000D03*
X1700000Y-2200000D03*
X1700000Y-2050000D03*
X950000Y-3800000D03*
X210000Y-3650000D03*
X2000000Y-3040000D03*
X1850000Y-1900000D03*
X1850000Y-3040000D03*
X1850000Y-2740000D03*
X4300000Y-2740000D03*
X4600000Y-2740000D03*
X5050000Y-2050000D03*
X3610000Y-2200000D03*
X4600000Y-3040000D03*
X4900000Y-1900000D03*
X4300000Y-2890000D03*
X5200000Y-2200000D03*
X5200000Y-3500000D03*
X4900000Y-2200000D03*
X3460000Y-2050000D03*
X3460000Y-3040000D03*
X3610000Y-3040000D03*
X5050000Y-1900000D03*
X4900000Y-3650000D03*
X4450000Y-2740000D03*
X4300000Y-3040000D03*
X4900000Y-3500000D03*
X3610000Y-2890000D03*
X3310000Y-3040000D03*
X4900000Y-2050000D03*
X5200000Y-3800000D03*
X3610000Y-2740000D03*
X3460000Y-2200000D03*
X3460000Y-2740000D03*
X4450000Y-2890000D03*
X4900000Y-3800000D03*
X5200000Y-2050000D03*
X5050000Y-3650000D03*
X5200000Y-3650000D03*
X3460000Y-2890000D03*
X5050000Y-3800000D03*
X3460000Y-1900000D03*
X3310000Y-2740000D03*
X5050000Y-2200000D03*
X4450000Y-3040000D03*
X5200000Y-1900000D03*
X3310000Y-2200000D03*
X4600000Y-2890000D03*
X3310000Y-2050000D03*
X3610000Y-1900000D03*
X5050000Y-3500000D03*
X3610000Y-2050000D03*
X3310000Y-2890000D03*
X3310000Y-1900000D03*
X4200000Y-540000D03*
X4200000Y-160000D03*
D18*
X3160000Y-810000D02*
X3160000Y-430000D01*
X1473000Y-2659000D02*
X1180000Y-2366000D01*
X2880000Y-150000D02*
X2080000Y-150000D01*
X1180000Y-1050000D02*
X2080000Y-150000D01*
X1180000Y-2366000D02*
X1180000Y-1050000D01*
X3160000Y-430000D02*
X2880000Y-150000D01*
X1473000Y-2659000D02*
X1475000Y-2661000D01*
X1475000Y-2661000D02*
X1475000Y-3505000D01*
D19*
X3170000Y-1020000D02*
X2600000Y-450000D01*
X2600000Y-450000D02*
X2360000Y-450000D01*
X4200000Y-540000D02*
X4200000Y-160000D01*
%TA.AperFunction,Conductor*%
G36*
X5300643Y-50085D02*
G01*
X5311649Y-51534D01*
X5314145Y-52202D01*
X5323796Y-56200D01*
X5326034Y-57492D01*
X5334321Y-63851D01*
X5336149Y-65679D01*
X5342508Y-73966D01*
X5343800Y-76204D01*
X5347798Y-85855D01*
X5348466Y-88351D01*
X5349915Y-99357D01*
X5350000Y-100649D01*
X5350000Y-874100D01*
X5348109Y-879919D01*
X5343159Y-883515D01*
X5341066Y-883952D01*
X5339285Y-884127D01*
X5339107Y-884249D01*
X5136464Y-1086891D01*
X5135859Y-1088080D01*
X5135938Y-1088583D01*
X5338865Y-1291510D01*
X5341409Y-1292806D01*
X5344594Y-1293310D01*
X5348921Y-1297637D01*
X5350000Y-1302131D01*
X5350000Y-1599351D01*
X5349915Y-1600643D01*
X5348466Y-1611649D01*
X5347798Y-1614145D01*
X5343800Y-1623796D01*
X5342508Y-1626034D01*
X5336149Y-1634321D01*
X5334321Y-1636149D01*
X5326034Y-1642508D01*
X5323796Y-1643800D01*
X5314145Y-1647797D01*
X5311649Y-1648466D01*
X5300643Y-1649915D01*
X5299351Y-1650000D01*
X1244950Y-1650000D01*
X1239131Y-1648109D01*
X1235535Y-1643159D01*
X1235050Y-1640100D01*
X1235050Y-1501914D01*
X1334250Y-1501914D01*
X1334285Y-1502498D01*
X1334473Y-1504085D01*
X1334863Y-1505502D01*
X1338727Y-1514201D01*
X1339745Y-1515682D01*
X1346361Y-1522287D01*
X1347843Y-1523302D01*
X1356548Y-1527150D01*
X1357969Y-1527537D01*
X1359508Y-1527717D01*
X1360079Y-1527750D01*
X1446432Y-1527750D01*
X1447700Y-1527338D01*
X1448000Y-1526926D01*
X1448000Y-1526182D01*
X1498000Y-1526182D01*
X1498412Y-1527450D01*
X1498824Y-1527750D01*
X1585914Y-1527750D01*
X1586498Y-1527715D01*
X1588085Y-1527527D01*
X1589502Y-1527137D01*
X1598201Y-1523273D01*
X1599682Y-1522255D01*
X1606287Y-1515639D01*
X1607302Y-1514157D01*
X1611150Y-1505452D01*
X1611537Y-1504031D01*
X1611717Y-1502492D01*
X1611750Y-1501921D01*
X1611750Y-1415568D01*
X1611338Y-1414299D01*
X1610926Y-1414000D01*
X1499568Y-1414000D01*
X1498299Y-1414412D01*
X1498000Y-1414824D01*
X1498000Y-1526182D01*
X1448000Y-1526182D01*
X1448000Y-1415568D01*
X1447588Y-1414299D01*
X1447176Y-1414000D01*
X1335818Y-1414000D01*
X1334550Y-1414412D01*
X1334250Y-1414824D01*
X1334250Y-1501914D01*
X1235050Y-1501914D01*
X1235050Y-1362432D01*
X1334250Y-1362432D01*
X1334662Y-1363701D01*
X1335074Y-1364000D01*
X1446432Y-1364000D01*
X1447700Y-1363588D01*
X1448000Y-1363176D01*
X1448000Y-1362432D01*
X1498000Y-1362432D01*
X1498412Y-1363701D01*
X1498824Y-1364000D01*
X1610182Y-1364000D01*
X1611450Y-1363588D01*
X1611750Y-1363176D01*
X1611750Y-1327984D01*
X4895954Y-1327984D01*
X4896020Y-1328403D01*
X4896092Y-1328499D01*
X4898692Y-1330906D01*
X4899118Y-1331258D01*
X4927023Y-1351831D01*
X4927486Y-1352135D01*
X4957510Y-1369469D01*
X4958004Y-1369718D01*
X4989775Y-1383599D01*
X4990290Y-1383790D01*
X5023410Y-1394043D01*
X5023947Y-1394177D01*
X5058002Y-1400673D01*
X5058550Y-1400746D01*
X5093117Y-1403406D01*
X5093668Y-1403417D01*
X5128319Y-1402207D01*
X5128867Y-1402157D01*
X5163166Y-1397093D01*
X5163707Y-1396982D01*
X5197226Y-1388126D01*
X5197752Y-1387955D01*
X5230074Y-1375418D01*
X5230579Y-1375189D01*
X5261302Y-1359127D01*
X5261777Y-1358844D01*
X5290519Y-1339457D01*
X5290960Y-1339122D01*
X5303167Y-1328733D01*
X5303866Y-1327597D01*
X5303842Y-1327284D01*
X5303669Y-1327025D01*
X5101109Y-1124464D01*
X5099920Y-1123859D01*
X5099417Y-1123938D01*
X4896559Y-1326796D01*
X4895954Y-1327984D01*
X1611750Y-1327984D01*
X1611750Y-1276086D01*
X1611715Y-1275502D01*
X1611527Y-1273915D01*
X1611137Y-1272498D01*
X1607273Y-1263799D01*
X1606255Y-1262318D01*
X1599639Y-1255713D01*
X1598157Y-1254698D01*
X1589452Y-1250850D01*
X1588031Y-1250463D01*
X1586492Y-1250283D01*
X1585921Y-1250250D01*
X1499568Y-1250250D01*
X1498299Y-1250662D01*
X1498000Y-1251074D01*
X1498000Y-1362432D01*
X1448000Y-1362432D01*
X1448000Y-1251818D01*
X1447588Y-1250550D01*
X1447176Y-1250250D01*
X1360086Y-1250250D01*
X1359502Y-1250285D01*
X1357915Y-1250473D01*
X1356498Y-1250863D01*
X1347799Y-1254727D01*
X1346318Y-1255745D01*
X1339713Y-1262361D01*
X1338698Y-1263843D01*
X1334850Y-1272548D01*
X1334463Y-1273969D01*
X1334283Y-1275508D01*
X1334250Y-1276079D01*
X1334250Y-1362432D01*
X1235050Y-1362432D01*
X1235050Y-1076903D01*
X1236941Y-1071084D01*
X1237950Y-1069903D01*
X1858591Y-449261D01*
X2289439Y-449261D01*
X2289505Y-449854D01*
X2289505Y-449855D01*
X2290283Y-456903D01*
X2291300Y-466113D01*
X2297127Y-482036D01*
X2306583Y-496108D01*
X2319123Y-507519D01*
X2334024Y-515609D01*
X2337519Y-516526D01*
X2349846Y-519760D01*
X2349847Y-519760D01*
X2350423Y-519912D01*
X2351019Y-519921D01*
X2351020Y-519921D01*
X2358897Y-520045D01*
X2367376Y-520178D01*
X2367958Y-520045D01*
X2367958Y-520045D01*
X2383321Y-516526D01*
X2383321Y-516526D01*
X2383903Y-516393D01*
X2385461Y-515609D01*
X2398517Y-509043D01*
X2399050Y-508775D01*
X2399504Y-508387D01*
X2399504Y-508387D01*
X2411942Y-497763D01*
X2412046Y-497884D01*
X2416729Y-495245D01*
X2418686Y-495050D01*
X2577239Y-495050D01*
X2583058Y-496941D01*
X2584239Y-497950D01*
X3096698Y-1010408D01*
X3099476Y-1015860D01*
X3099505Y-1018072D01*
X3099524Y-1018072D01*
X3099517Y-1018669D01*
X3099439Y-1019261D01*
X3099505Y-1019854D01*
X3099505Y-1019855D01*
X3100910Y-1032581D01*
X3101300Y-1036113D01*
X3107127Y-1052036D01*
X3107459Y-1052531D01*
X3107459Y-1052531D01*
X3109437Y-1055475D01*
X3116583Y-1066108D01*
X3129123Y-1077519D01*
X3144023Y-1085609D01*
X3147519Y-1086526D01*
X3159846Y-1089760D01*
X3159847Y-1089760D01*
X3160423Y-1089912D01*
X3161019Y-1089921D01*
X3161020Y-1089921D01*
X3168896Y-1090045D01*
X3177376Y-1090178D01*
X3177957Y-1090045D01*
X3177958Y-1090045D01*
X3193321Y-1086526D01*
X3193321Y-1086526D01*
X3193903Y-1086393D01*
X3195461Y-1085609D01*
X3198918Y-1083871D01*
X4784546Y-1083871D01*
X4785998Y-1118511D01*
X4786052Y-1119060D01*
X4791356Y-1153322D01*
X4791471Y-1153862D01*
X4800561Y-1187319D01*
X4800735Y-1187844D01*
X4813498Y-1220079D01*
X4813729Y-1220579D01*
X4830006Y-1251192D01*
X4830292Y-1251664D01*
X4849879Y-1280270D01*
X4850217Y-1280709D01*
X4859255Y-1291179D01*
X4860395Y-1291870D01*
X4860727Y-1291842D01*
X4860959Y-1291685D01*
X5063536Y-1089109D01*
X5064142Y-1087920D01*
X5064062Y-1087417D01*
X4861262Y-884618D01*
X4860074Y-884012D01*
X4859673Y-884076D01*
X4859552Y-884168D01*
X4855694Y-888393D01*
X4855346Y-888821D01*
X4834967Y-916869D01*
X4834668Y-917334D01*
X4817543Y-947478D01*
X4817297Y-947974D01*
X4803639Y-979840D01*
X4803451Y-980358D01*
X4793430Y-1013550D01*
X4793300Y-1014085D01*
X4787041Y-1048186D01*
X4786972Y-1048734D01*
X4784554Y-1083320D01*
X4784546Y-1083871D01*
X3198918Y-1083871D01*
X3208516Y-1079043D01*
X3209050Y-1078775D01*
X3209503Y-1078387D01*
X3209504Y-1078387D01*
X3221489Y-1068151D01*
X3221489Y-1068151D01*
X3221942Y-1067763D01*
X3231836Y-1053995D01*
X3232740Y-1051745D01*
X3237938Y-1038817D01*
X3237938Y-1038816D01*
X3238160Y-1038263D01*
X3239706Y-1027399D01*
X3240503Y-1021798D01*
X3240503Y-1021798D01*
X3240549Y-1021478D01*
X3240564Y-1020000D01*
X3238528Y-1003168D01*
X3232534Y-987308D01*
X3230612Y-984510D01*
X3223269Y-973827D01*
X3222931Y-973335D01*
X3210272Y-962056D01*
X3195288Y-954122D01*
X3186576Y-951934D01*
X3179423Y-950137D01*
X3179423Y-950137D01*
X3178844Y-949992D01*
X3171284Y-949952D01*
X3167693Y-949933D01*
X3161884Y-948012D01*
X3160744Y-947034D01*
X2634162Y-420452D01*
X2633388Y-419580D01*
X2631645Y-417370D01*
X2631187Y-416789D01*
X2626325Y-413429D01*
X2626073Y-413248D01*
X2621914Y-410176D01*
X2621914Y-410176D01*
X2621318Y-409737D01*
X2620637Y-409497D01*
X2620043Y-409087D01*
X2619337Y-408864D01*
X2619337Y-408864D01*
X2617303Y-408220D01*
X2614407Y-407304D01*
X2614119Y-407208D01*
X2608537Y-405248D01*
X2607933Y-405224D01*
X2607665Y-405172D01*
X2607127Y-405002D01*
X2606466Y-404950D01*
X2601146Y-404950D01*
X2600757Y-404942D01*
X2595740Y-404745D01*
X2595739Y-404745D01*
X2595001Y-404716D01*
X2594323Y-404896D01*
X2593340Y-404950D01*
X2418515Y-404950D01*
X2412695Y-403059D01*
X2411929Y-402442D01*
X2410551Y-401214D01*
X2400272Y-392056D01*
X2385288Y-384122D01*
X2377066Y-382057D01*
X2369423Y-380137D01*
X2369423Y-380137D01*
X2368844Y-379992D01*
X2360284Y-379947D01*
X2352486Y-379906D01*
X2352486Y-379906D01*
X2351890Y-379903D01*
X2351310Y-380042D01*
X2351310Y-380042D01*
X2340570Y-382621D01*
X2335403Y-383861D01*
X2328929Y-387203D01*
X2320868Y-391364D01*
X2320867Y-391364D01*
X2320337Y-391637D01*
X2307560Y-402783D01*
X2307217Y-403271D01*
X2307217Y-403271D01*
X2300080Y-413427D01*
X2297811Y-416655D01*
X2291652Y-432451D01*
X2289439Y-449261D01*
X1858591Y-449261D01*
X2085749Y-222103D01*
X2090540Y-219453D01*
X2103321Y-216526D01*
X2103321Y-216526D01*
X2103903Y-216393D01*
X2105461Y-215609D01*
X2111852Y-212395D01*
X2119050Y-208775D01*
X2119504Y-208387D01*
X2119504Y-208387D01*
X2120634Y-207422D01*
X2126286Y-205080D01*
X2127063Y-205050D01*
X2832613Y-205050D01*
X2838348Y-206880D01*
X2838682Y-207117D01*
X2839123Y-207519D01*
X2854023Y-215609D01*
X2854601Y-215761D01*
X2854601Y-215761D01*
X2870048Y-219813D01*
X2874536Y-222389D01*
X3102050Y-449903D01*
X3104828Y-455354D01*
X3104950Y-456903D01*
X3104950Y-763366D01*
X3103150Y-769059D01*
X3097811Y-776655D01*
X3091652Y-792451D01*
X3089439Y-809261D01*
X3089505Y-809854D01*
X3089505Y-809855D01*
X3089684Y-811478D01*
X3091300Y-826113D01*
X3097127Y-842036D01*
X3097459Y-842530D01*
X3097459Y-842531D01*
X3098769Y-844480D01*
X3106583Y-856108D01*
X3119123Y-867519D01*
X3134023Y-875609D01*
X3137519Y-876526D01*
X3149846Y-879760D01*
X3149847Y-879760D01*
X3150423Y-879912D01*
X3151019Y-879921D01*
X3151020Y-879921D01*
X3158896Y-880045D01*
X3167376Y-880178D01*
X3167957Y-880045D01*
X3167958Y-880045D01*
X3183321Y-876526D01*
X3183321Y-876526D01*
X3183903Y-876393D01*
X3185461Y-875609D01*
X3198516Y-869043D01*
X3199050Y-868775D01*
X3199503Y-868387D01*
X3199504Y-868387D01*
X3211489Y-858151D01*
X3211489Y-858150D01*
X3211942Y-857763D01*
X3218288Y-848932D01*
X3218687Y-848377D01*
X4896116Y-848377D01*
X4896148Y-848726D01*
X4896287Y-848932D01*
X5098891Y-1051536D01*
X5100080Y-1052142D01*
X5100583Y-1052062D01*
X5303335Y-849310D01*
X5303940Y-848122D01*
X5303880Y-847739D01*
X5303767Y-847593D01*
X5297898Y-842308D01*
X5297466Y-841960D01*
X5269277Y-821779D01*
X5268809Y-821482D01*
X5238547Y-804569D01*
X5238049Y-804327D01*
X5206088Y-790891D01*
X5205569Y-790707D01*
X5172309Y-780917D01*
X5171772Y-780792D01*
X5137628Y-774771D01*
X5137081Y-774706D01*
X5102479Y-772529D01*
X5101926Y-772525D01*
X5067298Y-774218D01*
X5066748Y-774276D01*
X5032525Y-779819D01*
X5031986Y-779938D01*
X4998593Y-789261D01*
X4998070Y-789439D01*
X4965924Y-802427D01*
X4965425Y-802662D01*
X4934927Y-819152D01*
X4934458Y-819441D01*
X4905988Y-839228D01*
X4905553Y-839568D01*
X4896799Y-847231D01*
X4896116Y-848377D01*
X3218687Y-848377D01*
X3221488Y-844480D01*
X3221488Y-844479D01*
X3221836Y-843995D01*
X3222654Y-841960D01*
X3227938Y-828817D01*
X3227938Y-828816D01*
X3228160Y-828263D01*
X3228550Y-825520D01*
X3230503Y-811798D01*
X3230503Y-811798D01*
X3230549Y-811478D01*
X3230564Y-810000D01*
X3228528Y-793168D01*
X3222534Y-777308D01*
X3220791Y-774771D01*
X3216791Y-768951D01*
X3215050Y-763344D01*
X3215050Y-539261D01*
X4129439Y-539261D01*
X4129505Y-539854D01*
X4129505Y-539855D01*
X4129950Y-543891D01*
X4131300Y-556114D01*
X4137127Y-572036D01*
X4137459Y-572531D01*
X4137459Y-572531D01*
X4138769Y-574480D01*
X4146583Y-586108D01*
X4159123Y-597519D01*
X4174023Y-605609D01*
X4177445Y-606507D01*
X4189846Y-609760D01*
X4189847Y-609760D01*
X4190423Y-609912D01*
X4191019Y-609921D01*
X4191020Y-609921D01*
X4198900Y-610045D01*
X4207376Y-610178D01*
X4207958Y-610045D01*
X4207958Y-610045D01*
X4223321Y-606526D01*
X4223321Y-606526D01*
X4223903Y-606393D01*
X4225461Y-605609D01*
X4238517Y-599043D01*
X4239050Y-598775D01*
X4239504Y-598387D01*
X4239504Y-598387D01*
X4251489Y-588151D01*
X4251489Y-588151D01*
X4251942Y-587763D01*
X4256429Y-581519D01*
X4261488Y-574480D01*
X4261488Y-574479D01*
X4261836Y-573995D01*
X4268160Y-558263D01*
X4268558Y-555465D01*
X4270352Y-542859D01*
X5008035Y-542859D01*
X5011020Y-554612D01*
X5011322Y-555465D01*
X5019790Y-573834D01*
X5020242Y-574617D01*
X5031917Y-591136D01*
X5032504Y-591823D01*
X5046993Y-605938D01*
X5047695Y-606507D01*
X5064514Y-617745D01*
X5065309Y-618176D01*
X5083893Y-626161D01*
X5084754Y-626440D01*
X5093471Y-628413D01*
X5094760Y-628294D01*
X5094974Y-627518D01*
X5145000Y-627518D01*
X5145412Y-628787D01*
X5145529Y-628872D01*
X5146127Y-628923D01*
X5146512Y-628867D01*
X5147391Y-628656D01*
X5166545Y-622154D01*
X5167371Y-621786D01*
X5185019Y-611903D01*
X5185765Y-611390D01*
X5201316Y-598457D01*
X5201957Y-597816D01*
X5214890Y-582265D01*
X5215403Y-581519D01*
X5225286Y-563871D01*
X5225654Y-563045D01*
X5232156Y-543891D01*
X5232359Y-543043D01*
X5232135Y-541737D01*
X5232031Y-541636D01*
X5231447Y-541500D01*
X5146568Y-541500D01*
X5145300Y-541912D01*
X5145000Y-542324D01*
X5145000Y-627518D01*
X5094974Y-627518D01*
X5095000Y-627422D01*
X5095000Y-543068D01*
X5094588Y-541800D01*
X5094176Y-541500D01*
X5009258Y-541500D01*
X5008067Y-541887D01*
X5008035Y-542859D01*
X4270352Y-542859D01*
X4270503Y-541799D01*
X4270503Y-541798D01*
X4270549Y-541478D01*
X4270565Y-540000D01*
X4268528Y-523168D01*
X4262535Y-507308D01*
X4255975Y-497763D01*
X4253269Y-493827D01*
X4252931Y-493335D01*
X4250536Y-491200D01*
X4249191Y-490002D01*
X5007803Y-490002D01*
X5007818Y-491165D01*
X5008873Y-491500D01*
X5093432Y-491500D01*
X5094701Y-491088D01*
X5095000Y-490676D01*
X5095000Y-489932D01*
X5145000Y-489932D01*
X5145412Y-491200D01*
X5145824Y-491500D01*
X5230876Y-491500D01*
X5232025Y-491127D01*
X5232045Y-490087D01*
X5227945Y-475548D01*
X5227621Y-474704D01*
X5218675Y-456562D01*
X5218202Y-455791D01*
X5206099Y-439584D01*
X5205495Y-438912D01*
X5190641Y-425181D01*
X5189924Y-424631D01*
X5172816Y-413837D01*
X5172011Y-413427D01*
X5153223Y-405931D01*
X5152357Y-405675D01*
X5146538Y-404517D01*
X5145213Y-404674D01*
X5145210Y-404677D01*
X5145000Y-405482D01*
X5145000Y-489932D01*
X5095000Y-489932D01*
X5095000Y-405670D01*
X5094588Y-404401D01*
X5094527Y-404358D01*
X5093813Y-404306D01*
X5090555Y-404866D01*
X5089683Y-405099D01*
X5070705Y-412101D01*
X5069889Y-412490D01*
X5052505Y-422833D01*
X5051775Y-423363D01*
X5036566Y-436701D01*
X5035943Y-437357D01*
X5023421Y-453241D01*
X5022928Y-454000D01*
X5013510Y-471902D01*
X5013164Y-472736D01*
X5007803Y-490002D01*
X4249191Y-490002D01*
X4248364Y-489266D01*
X4245277Y-483983D01*
X4245050Y-481874D01*
X4245050Y-351965D01*
X5004950Y-351965D01*
X5005262Y-354585D01*
X5009806Y-364815D01*
X5017729Y-372724D01*
X5018565Y-373094D01*
X5027286Y-376950D01*
X5027287Y-376950D01*
X5027967Y-377251D01*
X5028707Y-377337D01*
X5030238Y-377515D01*
X5030535Y-377550D01*
X5209465Y-377550D01*
X5211256Y-377337D01*
X5211347Y-377326D01*
X5211347Y-377326D01*
X5212085Y-377238D01*
X5222315Y-372694D01*
X5230224Y-364771D01*
X5234751Y-354533D01*
X5235050Y-351965D01*
X5235050Y-173035D01*
X5234738Y-170415D01*
X5230194Y-160185D01*
X5222271Y-152276D01*
X5219359Y-150988D01*
X5212714Y-148050D01*
X5212713Y-148050D01*
X5212033Y-147749D01*
X5210632Y-147586D01*
X5209749Y-147483D01*
X5209749Y-147483D01*
X5209465Y-147450D01*
X5030535Y-147450D01*
X5028895Y-147645D01*
X5028653Y-147674D01*
X5028653Y-147674D01*
X5027915Y-147762D01*
X5017685Y-152306D01*
X5009776Y-160229D01*
X5005249Y-170467D01*
X5004950Y-173035D01*
X5004950Y-351965D01*
X4245050Y-351965D01*
X4245050Y-218214D01*
X4246941Y-212395D01*
X4248521Y-210686D01*
X4251489Y-208151D01*
X4251489Y-208151D01*
X4251942Y-207763D01*
X4261836Y-193995D01*
X4268160Y-178263D01*
X4268551Y-175520D01*
X4270503Y-161799D01*
X4270503Y-161798D01*
X4270549Y-161478D01*
X4270565Y-160000D01*
X4269120Y-148063D01*
X4268599Y-143760D01*
X4268599Y-143760D01*
X4268528Y-143168D01*
X4262535Y-127308D01*
X4255662Y-117308D01*
X4253269Y-113827D01*
X4252931Y-113335D01*
X4240272Y-102056D01*
X4225288Y-94122D01*
X4215950Y-91777D01*
X4209423Y-90137D01*
X4209423Y-90137D01*
X4208844Y-89992D01*
X4200284Y-89947D01*
X4192486Y-89906D01*
X4192486Y-89906D01*
X4191889Y-89903D01*
X4191310Y-90042D01*
X4191309Y-90042D01*
X4182922Y-92056D01*
X4175403Y-93861D01*
X4173294Y-94950D01*
X4160867Y-101364D01*
X4160867Y-101364D01*
X4160337Y-101637D01*
X4147560Y-112783D01*
X4147217Y-113271D01*
X4147217Y-113271D01*
X4138154Y-126166D01*
X4137811Y-126655D01*
X4131652Y-142451D01*
X4129439Y-159261D01*
X4129505Y-159854D01*
X4129505Y-159855D01*
X4130758Y-171207D01*
X4131300Y-176113D01*
X4137127Y-192036D01*
X4137459Y-192530D01*
X4137459Y-192531D01*
X4138769Y-194480D01*
X4146583Y-206108D01*
X4151713Y-210776D01*
X4154744Y-216091D01*
X4154950Y-218098D01*
X4154950Y-481835D01*
X4153059Y-487655D01*
X4151558Y-489296D01*
X4147560Y-492783D01*
X4147217Y-493271D01*
X4147217Y-493271D01*
X4143929Y-497950D01*
X4137811Y-506655D01*
X4136880Y-509043D01*
X4134320Y-515609D01*
X4131652Y-522451D01*
X4129439Y-539261D01*
X3215050Y-539261D01*
X3215050Y-431443D01*
X3215059Y-431029D01*
X3215293Y-425445D01*
X3215321Y-424771D01*
X3214866Y-422833D01*
X3214298Y-420411D01*
X3214128Y-419494D01*
X3213837Y-417370D01*
X3213521Y-415057D01*
X3212828Y-413455D01*
X3212275Y-411786D01*
X3211877Y-410086D01*
X3211552Y-409495D01*
X3211551Y-409494D01*
X3209719Y-406161D01*
X3209309Y-405324D01*
X3207799Y-401834D01*
X3207798Y-401833D01*
X3207530Y-401214D01*
X3206433Y-399859D01*
X3205452Y-398399D01*
X3204860Y-397323D01*
X3204860Y-397323D01*
X3204611Y-396869D01*
X3203910Y-396058D01*
X3201356Y-393503D01*
X3200662Y-392733D01*
X3198463Y-390017D01*
X3198039Y-389493D01*
X3196321Y-388272D01*
X3195055Y-387203D01*
X2951978Y-144126D01*
X2949150Y-138315D01*
X2948599Y-133760D01*
X2948599Y-133760D01*
X2948528Y-133168D01*
X2948047Y-131895D01*
X2942745Y-117866D01*
X2942534Y-117308D01*
X2939531Y-112938D01*
X2933269Y-103827D01*
X2932931Y-103335D01*
X2920272Y-92056D01*
X2905288Y-84122D01*
X2897066Y-82057D01*
X2889423Y-80137D01*
X2889423Y-80137D01*
X2888844Y-79992D01*
X2880284Y-79947D01*
X2872486Y-79906D01*
X2872486Y-79906D01*
X2871889Y-79903D01*
X2871310Y-80042D01*
X2871309Y-80042D01*
X2860570Y-82621D01*
X2855403Y-83861D01*
X2851540Y-85855D01*
X2840867Y-91364D01*
X2840867Y-91364D01*
X2840337Y-91637D01*
X2839887Y-92030D01*
X2839887Y-92030D01*
X2839336Y-92510D01*
X2833708Y-94911D01*
X2832828Y-94950D01*
X2127291Y-94950D01*
X2121472Y-93059D01*
X2120727Y-92459D01*
X2120717Y-92453D01*
X2120272Y-92056D01*
X2105288Y-84122D01*
X2097066Y-82057D01*
X2089423Y-80137D01*
X2089423Y-80137D01*
X2088844Y-79992D01*
X2080284Y-79947D01*
X2072486Y-79906D01*
X2072486Y-79906D01*
X2071889Y-79903D01*
X2071310Y-80042D01*
X2071309Y-80042D01*
X2060570Y-82621D01*
X2055403Y-83861D01*
X2051540Y-85855D01*
X2040867Y-91364D01*
X2040867Y-91364D01*
X2040337Y-91637D01*
X2027560Y-102783D01*
X2017811Y-116655D01*
X2017594Y-117211D01*
X2013850Y-126816D01*
X2011652Y-132451D01*
X2011574Y-133043D01*
X2011574Y-133043D01*
X2010871Y-138383D01*
X2008057Y-144091D01*
X1142095Y-1010052D01*
X1141796Y-1010339D01*
X1137184Y-1014580D01*
X1136829Y-1015154D01*
X1134824Y-1018386D01*
X1134296Y-1019155D01*
X1131997Y-1022183D01*
X1131997Y-1022184D01*
X1131589Y-1022722D01*
X1130947Y-1024343D01*
X1130156Y-1025915D01*
X1129592Y-1026825D01*
X1129592Y-1026825D01*
X1129237Y-1027399D01*
X1129048Y-1028046D01*
X1127987Y-1031699D01*
X1127685Y-1032581D01*
X1126285Y-1036117D01*
X1126285Y-1036118D01*
X1126036Y-1036745D01*
X1125966Y-1037416D01*
X1125854Y-1038481D01*
X1125515Y-1040207D01*
X1125029Y-1041882D01*
X1124950Y-1042951D01*
X1124950Y-1046563D01*
X1124896Y-1047598D01*
X1124460Y-1051745D01*
X1124572Y-1052411D01*
X1124811Y-1053824D01*
X1124950Y-1055475D01*
X1124950Y-1640100D01*
X1123059Y-1645919D01*
X1118109Y-1649515D01*
X1115050Y-1650000D01*
X100649Y-1650000D01*
X99357Y-1649915D01*
X88351Y-1648466D01*
X85855Y-1647797D01*
X76204Y-1643800D01*
X73966Y-1642508D01*
X65679Y-1636149D01*
X63851Y-1634321D01*
X57492Y-1626034D01*
X56200Y-1623796D01*
X52202Y-1614145D01*
X51534Y-1611649D01*
X50085Y-1600643D01*
X50000Y-1599351D01*
X50000Y-1327984D01*
X95954Y-1327984D01*
X96020Y-1328403D01*
X96092Y-1328499D01*
X98692Y-1330906D01*
X99118Y-1331258D01*
X127023Y-1351831D01*
X127486Y-1352135D01*
X157510Y-1369469D01*
X158004Y-1369718D01*
X189774Y-1383599D01*
X190290Y-1383790D01*
X223410Y-1394043D01*
X223947Y-1394177D01*
X258001Y-1400673D01*
X258550Y-1400746D01*
X293117Y-1403406D01*
X293668Y-1403417D01*
X328319Y-1402207D01*
X328867Y-1402157D01*
X363166Y-1397093D01*
X363707Y-1396982D01*
X397226Y-1388126D01*
X397752Y-1387955D01*
X430074Y-1375418D01*
X430579Y-1375189D01*
X461302Y-1359127D01*
X461777Y-1358844D01*
X490519Y-1339457D01*
X490960Y-1339122D01*
X503167Y-1328733D01*
X503866Y-1327597D01*
X503842Y-1327284D01*
X503669Y-1327025D01*
X301109Y-1124464D01*
X299920Y-1123859D01*
X299417Y-1123938D01*
X96559Y-1326796D01*
X95954Y-1327984D01*
X50000Y-1327984D01*
X50000Y-1301846D01*
X51891Y-1296027D01*
X56841Y-1292431D01*
X59071Y-1291981D01*
X60726Y-1291842D01*
X60959Y-1291685D01*
X263536Y-1089109D01*
X264060Y-1088080D01*
X335859Y-1088080D01*
X335938Y-1088583D01*
X538865Y-1291510D01*
X540054Y-1292115D01*
X540491Y-1292046D01*
X540561Y-1291994D01*
X541495Y-1290999D01*
X541850Y-1290575D01*
X562618Y-1262815D01*
X562924Y-1262354D01*
X580468Y-1232451D01*
X580720Y-1231960D01*
X594822Y-1200287D01*
X595017Y-1199772D01*
X605501Y-1166723D01*
X605638Y-1166191D01*
X612372Y-1132180D01*
X612449Y-1131633D01*
X615359Y-1096981D01*
X615376Y-1096636D01*
X615494Y-1088172D01*
X615487Y-1087829D01*
X613546Y-1053107D01*
X613484Y-1052560D01*
X607702Y-1018374D01*
X607580Y-1017837D01*
X598024Y-984510D01*
X597842Y-983988D01*
X584630Y-951934D01*
X584392Y-951436D01*
X567689Y-921055D01*
X567397Y-920586D01*
X547412Y-892257D01*
X547068Y-891823D01*
X540803Y-884766D01*
X539652Y-884091D01*
X539285Y-884127D01*
X539107Y-884249D01*
X336464Y-1086891D01*
X335859Y-1088080D01*
X264060Y-1088080D01*
X264142Y-1087920D01*
X264062Y-1087417D01*
X61262Y-884618D01*
X58834Y-883380D01*
X55406Y-882837D01*
X51079Y-878511D01*
X50000Y-874016D01*
X50000Y-848377D01*
X96116Y-848377D01*
X96148Y-848726D01*
X96287Y-848932D01*
X298891Y-1051536D01*
X300080Y-1052142D01*
X300583Y-1052062D01*
X503335Y-849310D01*
X503940Y-848122D01*
X503879Y-847739D01*
X503767Y-847593D01*
X497897Y-842308D01*
X497466Y-841960D01*
X469277Y-821779D01*
X468809Y-821482D01*
X438547Y-804569D01*
X438049Y-804327D01*
X406087Y-790891D01*
X405569Y-790707D01*
X372309Y-780917D01*
X371772Y-780792D01*
X337628Y-774771D01*
X337081Y-774706D01*
X302479Y-772529D01*
X301926Y-772525D01*
X267298Y-774218D01*
X266748Y-774276D01*
X232525Y-779819D01*
X231986Y-779938D01*
X198593Y-789261D01*
X198070Y-789439D01*
X165924Y-802427D01*
X165425Y-802662D01*
X134927Y-819152D01*
X134458Y-819441D01*
X105988Y-839228D01*
X105552Y-839568D01*
X96799Y-847231D01*
X96116Y-848377D01*
X50000Y-848377D01*
X50000Y-100649D01*
X50085Y-99357D01*
X51534Y-88351D01*
X52202Y-85855D01*
X56200Y-76204D01*
X57492Y-73966D01*
X63851Y-65679D01*
X65679Y-63851D01*
X73966Y-57492D01*
X76204Y-56200D01*
X85855Y-52202D01*
X88351Y-51534D01*
X99357Y-50085D01*
X100649Y-50000D01*
X5299351Y-50000D01*
X5300643Y-50085D01*
G37*
%TD.AperFunction*%
%TA.AperFunction,Conductor*%
G36*
X1120869Y-1751891D02*
G01*
X1124466Y-1756841D01*
X1124950Y-1759900D01*
X1124950Y-2364557D01*
X1124941Y-2364971D01*
X1124679Y-2371229D01*
X1124833Y-2371887D01*
X1124833Y-2371887D01*
X1125702Y-2375589D01*
X1125872Y-2376506D01*
X1126479Y-2380943D01*
X1127172Y-2382545D01*
X1127725Y-2384214D01*
X1128123Y-2385914D01*
X1128448Y-2386505D01*
X1128449Y-2386506D01*
X1130281Y-2389839D01*
X1130691Y-2390676D01*
X1132201Y-2394166D01*
X1132202Y-2394167D01*
X1132470Y-2394786D01*
X1132894Y-2395310D01*
X1132894Y-2395310D01*
X1133567Y-2396141D01*
X1134548Y-2397601D01*
X1135140Y-2398677D01*
X1135389Y-2399131D01*
X1136090Y-2399942D01*
X1138644Y-2402497D01*
X1139338Y-2403267D01*
X1141961Y-2406507D01*
X1142511Y-2406898D01*
X1143679Y-2407728D01*
X1144945Y-2408797D01*
X1339243Y-2603095D01*
X1342021Y-2608547D01*
X1341782Y-2612741D01*
X1337166Y-2629389D01*
X1336191Y-2632902D01*
X1333766Y-2655597D01*
X1335080Y-2678383D01*
X1335169Y-2678779D01*
X1339708Y-2698921D01*
X1340098Y-2700649D01*
X1340250Y-2701026D01*
X1340251Y-2701026D01*
X1346828Y-2717224D01*
X1348685Y-2721796D01*
X1348897Y-2722143D01*
X1348897Y-2722143D01*
X1354363Y-2731062D01*
X1360610Y-2741257D01*
X1360876Y-2741564D01*
X1360876Y-2741565D01*
X1364743Y-2746028D01*
X1375554Y-2758509D01*
X1393115Y-2773088D01*
X1412821Y-2784603D01*
X1413582Y-2784894D01*
X1418343Y-2788736D01*
X1419950Y-2794143D01*
X1419950Y-3458366D01*
X1418150Y-3464059D01*
X1412811Y-3471655D01*
X1406652Y-3487451D01*
X1404439Y-3504261D01*
X1404505Y-3504854D01*
X1404505Y-3504855D01*
X1404557Y-3505323D01*
X1406300Y-3521113D01*
X1412127Y-3537036D01*
X1412459Y-3537530D01*
X1412459Y-3537531D01*
X1413769Y-3539480D01*
X1421583Y-3551108D01*
X1434123Y-3562519D01*
X1449023Y-3570609D01*
X1452519Y-3571526D01*
X1464846Y-3574760D01*
X1464847Y-3574760D01*
X1465423Y-3574912D01*
X1466019Y-3574921D01*
X1466020Y-3574921D01*
X1473900Y-3575045D01*
X1482376Y-3575178D01*
X1482957Y-3575045D01*
X1482958Y-3575045D01*
X1498321Y-3571526D01*
X1498321Y-3571526D01*
X1498903Y-3571393D01*
X1500461Y-3570609D01*
X1513516Y-3564043D01*
X1514050Y-3563775D01*
X1514503Y-3563387D01*
X1514504Y-3563387D01*
X1526489Y-3553151D01*
X1526489Y-3553150D01*
X1526942Y-3552763D01*
X1536836Y-3538995D01*
X1543160Y-3523263D01*
X1545549Y-3506478D01*
X1545564Y-3505000D01*
X1543528Y-3488168D01*
X1537534Y-3472308D01*
X1536750Y-3471166D01*
X1531791Y-3463951D01*
X1530050Y-3458344D01*
X1530050Y-2791795D01*
X1531941Y-2785976D01*
X1535594Y-2782905D01*
X1544315Y-2778632D01*
X1544646Y-2778396D01*
X1544646Y-2778396D01*
X1562566Y-2765614D01*
X1562897Y-2765378D01*
X1579064Y-2749267D01*
X1584599Y-2741565D01*
X1592145Y-2731062D01*
X1592146Y-2731062D01*
X1592383Y-2730732D01*
X1592562Y-2730369D01*
X1592563Y-2730368D01*
X1602315Y-2710635D01*
X1602315Y-2710635D01*
X1602495Y-2710271D01*
X1608455Y-2690655D01*
X1609012Y-2688821D01*
X1609012Y-2688821D01*
X1609130Y-2688432D01*
X1609220Y-2687755D01*
X1610545Y-2677683D01*
X1612109Y-2665804D01*
X1612276Y-2659000D01*
X1612254Y-2658737D01*
X1610439Y-2636657D01*
X1610439Y-2636657D01*
X1610405Y-2636253D01*
X1609665Y-2633306D01*
X1604944Y-2614511D01*
X1604845Y-2614116D01*
X1595744Y-2593185D01*
X1583347Y-2574022D01*
X1567986Y-2557140D01*
X1567667Y-2556889D01*
X1567667Y-2556888D01*
X1550393Y-2543246D01*
X1550392Y-2543246D01*
X1550074Y-2542994D01*
X1530092Y-2531964D01*
X1529710Y-2531828D01*
X1529709Y-2531828D01*
X1508960Y-2524480D01*
X1508960Y-2524480D01*
X1508577Y-2524345D01*
X1508178Y-2524274D01*
X1486507Y-2520414D01*
X1486507Y-2520414D01*
X1486107Y-2520342D01*
X1485701Y-2520337D01*
X1485700Y-2520337D01*
X1475256Y-2520210D01*
X1463285Y-2520064D01*
X1440723Y-2523516D01*
X1427392Y-2527873D01*
X1421274Y-2527884D01*
X1417316Y-2525464D01*
X1237950Y-2346097D01*
X1235172Y-2340646D01*
X1235050Y-2339097D01*
X1235050Y-2138472D01*
X1394425Y-2138472D01*
X1395107Y-2139194D01*
X1412492Y-2149353D01*
X1413222Y-2149703D01*
X1433778Y-2157553D01*
X1434555Y-2157778D01*
X1456117Y-2162165D01*
X1456921Y-2162261D01*
X1478910Y-2163067D01*
X1479718Y-2163031D01*
X1501543Y-2160235D01*
X1502336Y-2160066D01*
X1523410Y-2153744D01*
X1524165Y-2153448D01*
X1543925Y-2143768D01*
X1544620Y-2143353D01*
X1550568Y-2139111D01*
X1551361Y-2138038D01*
X1551362Y-2137952D01*
X1551001Y-2137356D01*
X1474109Y-2060464D01*
X1472920Y-2059858D01*
X1472417Y-2059938D01*
X1394987Y-2137368D01*
X1394425Y-2138472D01*
X1235050Y-2138472D01*
X1235050Y-2021004D01*
X1333840Y-2021004D01*
X1335106Y-2042971D01*
X1335219Y-2043772D01*
X1340056Y-2065238D01*
X1340298Y-2066011D01*
X1348576Y-2086397D01*
X1348942Y-2087121D01*
X1357843Y-2101646D01*
X1358812Y-2102473D01*
X1359630Y-2102015D01*
X1436536Y-2025109D01*
X1437060Y-2024080D01*
X1508858Y-2024080D01*
X1508938Y-2024583D01*
X1586097Y-2101742D01*
X1587286Y-2102347D01*
X1587380Y-2102333D01*
X1587897Y-2101888D01*
X1592102Y-2096037D01*
X1592519Y-2095342D01*
X1602268Y-2075617D01*
X1602567Y-2074863D01*
X1608963Y-2053811D01*
X1609134Y-2053019D01*
X1612025Y-2031063D01*
X1612066Y-2030537D01*
X1612219Y-2024264D01*
X1612204Y-2023737D01*
X1610389Y-2001666D01*
X1610257Y-2000867D01*
X1604897Y-1979527D01*
X1604635Y-1978759D01*
X1595862Y-1958582D01*
X1595479Y-1957867D01*
X1588085Y-1946439D01*
X1587066Y-1945610D01*
X1586309Y-1946047D01*
X1509464Y-2022891D01*
X1508858Y-2024080D01*
X1437060Y-2024080D01*
X1437141Y-2023920D01*
X1437062Y-2023417D01*
X1359919Y-1946274D01*
X1358730Y-1945669D01*
X1358701Y-1945673D01*
X1358108Y-1946195D01*
X1352173Y-1954895D01*
X1351773Y-1955599D01*
X1342509Y-1975557D01*
X1342229Y-1976318D01*
X1336349Y-1997520D01*
X1336197Y-1998316D01*
X1333859Y-2020194D01*
X1333840Y-2021004D01*
X1235050Y-2021004D01*
X1235050Y-1909883D01*
X1394576Y-1909883D01*
X1394578Y-1910035D01*
X1394889Y-1910534D01*
X1471891Y-1987536D01*
X1473080Y-1988141D01*
X1473583Y-1988062D01*
X1550928Y-1910717D01*
X1551533Y-1909528D01*
X1551499Y-1909314D01*
X1551196Y-1908944D01*
X1550365Y-1908288D01*
X1549691Y-1907840D01*
X1530427Y-1897206D01*
X1529688Y-1896874D01*
X1508948Y-1889529D01*
X1508164Y-1889322D01*
X1486501Y-1885463D01*
X1485697Y-1885387D01*
X1463694Y-1885119D01*
X1462886Y-1885175D01*
X1441137Y-1888503D01*
X1440348Y-1888691D01*
X1419434Y-1895527D01*
X1418688Y-1895840D01*
X1399170Y-1906001D01*
X1398485Y-1906432D01*
X1395343Y-1908792D01*
X1394576Y-1909883D01*
X1235050Y-1909883D01*
X1235050Y-1759900D01*
X1236941Y-1754081D01*
X1241891Y-1750484D01*
X1244950Y-1750000D01*
X2699351Y-1750000D01*
X2700643Y-1750085D01*
X2711649Y-1751534D01*
X2714145Y-1752202D01*
X2723796Y-1756200D01*
X2726034Y-1757492D01*
X2734321Y-1763851D01*
X2736149Y-1765679D01*
X2742508Y-1773966D01*
X2743800Y-1776204D01*
X2747798Y-1785855D01*
X2748466Y-1788351D01*
X2749915Y-1799357D01*
X2750000Y-1800649D01*
X2750000Y-3899351D01*
X2749915Y-3900643D01*
X2748466Y-3911649D01*
X2747798Y-3914145D01*
X2743800Y-3923796D01*
X2742508Y-3926034D01*
X2736149Y-3934321D01*
X2734321Y-3936149D01*
X2726034Y-3942508D01*
X2723796Y-3943800D01*
X2714145Y-3947797D01*
X2711649Y-3948466D01*
X2700643Y-3949915D01*
X2699351Y-3950000D01*
X100649Y-3950000D01*
X99357Y-3949915D01*
X88351Y-3948466D01*
X85855Y-3947797D01*
X76204Y-3943800D01*
X73966Y-3942508D01*
X65679Y-3936149D01*
X63851Y-3934321D01*
X57492Y-3926034D01*
X56200Y-3923796D01*
X52202Y-3914145D01*
X51534Y-3911649D01*
X50085Y-3900643D01*
X50000Y-3899351D01*
X50000Y-3132154D01*
X51891Y-3126335D01*
X56841Y-3122739D01*
X62959Y-3122739D01*
X67394Y-3125685D01*
X72834Y-3131987D01*
X72835Y-3131988D01*
X73015Y-3132197D01*
X98863Y-3156133D01*
X127218Y-3177038D01*
X157727Y-3194652D01*
X170799Y-3200363D01*
X189757Y-3208646D01*
X189757Y-3208646D01*
X190009Y-3208756D01*
X190272Y-3208837D01*
X190272Y-3208837D01*
X223398Y-3219092D01*
X223399Y-3219092D01*
X223662Y-3219173D01*
X258267Y-3225774D01*
X293392Y-3228477D01*
X293667Y-3228468D01*
X293667Y-3228468D01*
X314987Y-3227723D01*
X328599Y-3227248D01*
X363449Y-3222101D01*
X363716Y-3222031D01*
X363717Y-3222031D01*
X397243Y-3213173D01*
X397243Y-3213173D01*
X397509Y-3213102D01*
X430354Y-3200363D01*
X461573Y-3184042D01*
X490779Y-3164342D01*
X500232Y-3156297D01*
X517397Y-3141689D01*
X517397Y-3141689D01*
X517607Y-3141510D01*
X541723Y-3115829D01*
X541889Y-3115607D01*
X562659Y-3087843D01*
X562660Y-3087842D01*
X562825Y-3087621D01*
X562965Y-3087383D01*
X562965Y-3087382D01*
X580512Y-3057474D01*
X580652Y-3057236D01*
X594981Y-3025053D01*
X605633Y-2991473D01*
X612476Y-2956916D01*
X615423Y-2921811D01*
X615546Y-2913000D01*
X613580Y-2877826D01*
X607705Y-2843091D01*
X597995Y-2809227D01*
X584570Y-2776657D01*
X567599Y-2745786D01*
X567439Y-2745560D01*
X547451Y-2717224D01*
X547450Y-2717224D01*
X547292Y-2716999D01*
X532776Y-2700649D01*
X524086Y-2690862D01*
X524085Y-2690861D01*
X523902Y-2690655D01*
X523698Y-2690471D01*
X523697Y-2690470D01*
X497929Y-2667268D01*
X497928Y-2667268D01*
X497723Y-2667083D01*
X486433Y-2659000D01*
X469304Y-2646737D01*
X469303Y-2646737D01*
X469078Y-2646575D01*
X468836Y-2646440D01*
X468836Y-2646440D01*
X438568Y-2629524D01*
X438568Y-2629524D01*
X438326Y-2629389D01*
X438072Y-2629282D01*
X438071Y-2629281D01*
X418231Y-2620941D01*
X405850Y-2615737D01*
X372055Y-2605791D01*
X350361Y-2601965D01*
X337634Y-2599721D01*
X337633Y-2599721D01*
X337362Y-2599673D01*
X302203Y-2597461D01*
X301927Y-2597475D01*
X301926Y-2597475D01*
X271845Y-2598946D01*
X267016Y-2599182D01*
X232241Y-2604815D01*
X198310Y-2614288D01*
X182571Y-2620647D01*
X165903Y-2627382D01*
X165903Y-2627382D01*
X165647Y-2627485D01*
X165405Y-2627616D01*
X165404Y-2627616D01*
X134901Y-2644109D01*
X134900Y-2644110D01*
X134658Y-2644241D01*
X134432Y-2644398D01*
X134432Y-2644398D01*
X131066Y-2646737D01*
X105730Y-2664346D01*
X79224Y-2687551D01*
X79038Y-2687755D01*
X79038Y-2687755D01*
X67211Y-2700707D01*
X61891Y-2703729D01*
X55810Y-2703047D01*
X51292Y-2698921D01*
X50000Y-2694031D01*
X50000Y-1800649D01*
X50085Y-1799357D01*
X51534Y-1788351D01*
X52202Y-1785855D01*
X56200Y-1776204D01*
X57492Y-1773966D01*
X63851Y-1765679D01*
X65679Y-1763851D01*
X73966Y-1757492D01*
X76204Y-1756200D01*
X85855Y-1752202D01*
X88351Y-1751534D01*
X99357Y-1750085D01*
X100649Y-1750000D01*
X1115050Y-1750000D01*
X1120869Y-1751891D01*
G37*
%TD.AperFunction*%
%TA.AperFunction,Conductor*%
G36*
X5300643Y-1750085D02*
G01*
X5311649Y-1751534D01*
X5314145Y-1752202D01*
X5323796Y-1756200D01*
X5326034Y-1757492D01*
X5334321Y-1763851D01*
X5336149Y-1765679D01*
X5342508Y-1773966D01*
X5343800Y-1776204D01*
X5347798Y-1785855D01*
X5348466Y-1788351D01*
X5349915Y-1799357D01*
X5350000Y-1800649D01*
X5350000Y-2693988D01*
X5348109Y-2699807D01*
X5343159Y-2703403D01*
X5337041Y-2703403D01*
X5332697Y-2700561D01*
X5324086Y-2690862D01*
X5324085Y-2690861D01*
X5323903Y-2690655D01*
X5323698Y-2690471D01*
X5323697Y-2690470D01*
X5297929Y-2667268D01*
X5297928Y-2667268D01*
X5297723Y-2667083D01*
X5290724Y-2662072D01*
X5269304Y-2646737D01*
X5269303Y-2646737D01*
X5269078Y-2646575D01*
X5268837Y-2646440D01*
X5268836Y-2646440D01*
X5238568Y-2629524D01*
X5238568Y-2629524D01*
X5238326Y-2629389D01*
X5238072Y-2629282D01*
X5238071Y-2629281D01*
X5218231Y-2620941D01*
X5205851Y-2615737D01*
X5172055Y-2605791D01*
X5150361Y-2601965D01*
X5137634Y-2599721D01*
X5137633Y-2599721D01*
X5137362Y-2599673D01*
X5102203Y-2597461D01*
X5101927Y-2597475D01*
X5101926Y-2597475D01*
X5071845Y-2598946D01*
X5067016Y-2599182D01*
X5032241Y-2604815D01*
X4998310Y-2614288D01*
X4982571Y-2620647D01*
X4965903Y-2627382D01*
X4965903Y-2627382D01*
X4965647Y-2627485D01*
X4965405Y-2627616D01*
X4965404Y-2627616D01*
X4934901Y-2644109D01*
X4934900Y-2644110D01*
X4934658Y-2644241D01*
X4934432Y-2644398D01*
X4934432Y-2644398D01*
X4931067Y-2646737D01*
X4905730Y-2664346D01*
X4879224Y-2687551D01*
X4855469Y-2713565D01*
X4834762Y-2742066D01*
X4817361Y-2772697D01*
X4817253Y-2772951D01*
X4817252Y-2772952D01*
X4809279Y-2791555D01*
X4803483Y-2805077D01*
X4793301Y-2838802D01*
X4786942Y-2873451D01*
X4784484Y-2908594D01*
X4785960Y-2943792D01*
X4786002Y-2944065D01*
X4791307Y-2978333D01*
X4791307Y-2978334D01*
X4791349Y-2978606D01*
X4800586Y-3012602D01*
X4813554Y-3045357D01*
X4830093Y-3076462D01*
X4830249Y-3076690D01*
X4849840Y-3105301D01*
X4849840Y-3105302D01*
X4849996Y-3105529D01*
X4873015Y-3132197D01*
X4898863Y-3156133D01*
X4927218Y-3177038D01*
X4957727Y-3194652D01*
X4970799Y-3200363D01*
X4989757Y-3208646D01*
X4989757Y-3208646D01*
X4990009Y-3208756D01*
X4990272Y-3208837D01*
X4990272Y-3208837D01*
X5023398Y-3219092D01*
X5023399Y-3219092D01*
X5023662Y-3219173D01*
X5058267Y-3225774D01*
X5093392Y-3228477D01*
X5093667Y-3228468D01*
X5093667Y-3228468D01*
X5114987Y-3227723D01*
X5128599Y-3227248D01*
X5163449Y-3222101D01*
X5163716Y-3222031D01*
X5163717Y-3222031D01*
X5197243Y-3213173D01*
X5197244Y-3213173D01*
X5197509Y-3213102D01*
X5230354Y-3200363D01*
X5261573Y-3184042D01*
X5290779Y-3164342D01*
X5300232Y-3156297D01*
X5317397Y-3141689D01*
X5317397Y-3141689D01*
X5317607Y-3141510D01*
X5332883Y-3125242D01*
X5338245Y-3122295D01*
X5344315Y-3123061D01*
X5348775Y-3127250D01*
X5350000Y-3132019D01*
X5350000Y-3899351D01*
X5349915Y-3900643D01*
X5348466Y-3911649D01*
X5347798Y-3914145D01*
X5343800Y-3923796D01*
X5342508Y-3926034D01*
X5336149Y-3934321D01*
X5334321Y-3936149D01*
X5326034Y-3942508D01*
X5323796Y-3943800D01*
X5314145Y-3947797D01*
X5311649Y-3948466D01*
X5300643Y-3949915D01*
X5299351Y-3950000D01*
X2900649Y-3950000D01*
X2899357Y-3949915D01*
X2888351Y-3948466D01*
X2885855Y-3947797D01*
X2876204Y-3943800D01*
X2873966Y-3942508D01*
X2865679Y-3936149D01*
X2863851Y-3934321D01*
X2857492Y-3926034D01*
X2856200Y-3923796D01*
X2852202Y-3914145D01*
X2851534Y-3911649D01*
X2850085Y-3900643D01*
X2850000Y-3899351D01*
X2850000Y-3748965D01*
X4157450Y-3748965D01*
X4157762Y-3751585D01*
X4162306Y-3761815D01*
X4170229Y-3769724D01*
X4171064Y-3770094D01*
X4179786Y-3773950D01*
X4179787Y-3773950D01*
X4180467Y-3774251D01*
X4181207Y-3774337D01*
X4182738Y-3774515D01*
X4183035Y-3774550D01*
X4356965Y-3774550D01*
X4358756Y-3774337D01*
X4358847Y-3774326D01*
X4358847Y-3774326D01*
X4359585Y-3774238D01*
X4369815Y-3769694D01*
X4377724Y-3761771D01*
X4382251Y-3751533D01*
X4382550Y-3748965D01*
X4382550Y-3575035D01*
X4382238Y-3572415D01*
X4377694Y-3562185D01*
X4369771Y-3554276D01*
X4366859Y-3552988D01*
X4360214Y-3550050D01*
X4360213Y-3550050D01*
X4359533Y-3549749D01*
X4358132Y-3549586D01*
X4357249Y-3549483D01*
X4357249Y-3549483D01*
X4356965Y-3549450D01*
X4183035Y-3549450D01*
X4181395Y-3549645D01*
X4181153Y-3549674D01*
X4181153Y-3549674D01*
X4180415Y-3549762D01*
X4170185Y-3554306D01*
X4162276Y-3562229D01*
X4157749Y-3572467D01*
X4157450Y-3575035D01*
X4157450Y-3748965D01*
X2850000Y-3748965D01*
X2850000Y-3409041D01*
X4157006Y-3409041D01*
X4158359Y-3429682D01*
X4163451Y-3449731D01*
X4172111Y-3468516D01*
X4184050Y-3485408D01*
X4198867Y-3499842D01*
X4199244Y-3500095D01*
X4199244Y-3500095D01*
X4207404Y-3505547D01*
X4216066Y-3511335D01*
X4216482Y-3511514D01*
X4216483Y-3511514D01*
X4225203Y-3515260D01*
X4235071Y-3519500D01*
X4242378Y-3521153D01*
X4254804Y-3523965D01*
X4254804Y-3523965D01*
X4255246Y-3524065D01*
X4265581Y-3524471D01*
X4275462Y-3524859D01*
X4275462Y-3524859D01*
X4275916Y-3524877D01*
X4296387Y-3521909D01*
X4296817Y-3521763D01*
X4296817Y-3521763D01*
X4315544Y-3515406D01*
X4315974Y-3515260D01*
X4334022Y-3505153D01*
X4349926Y-3491926D01*
X4363153Y-3476022D01*
X4373260Y-3457974D01*
X4379909Y-3438387D01*
X4382877Y-3417916D01*
X4383032Y-3412000D01*
X4382802Y-3409494D01*
X4381181Y-3391853D01*
X4381140Y-3391401D01*
X4375525Y-3371493D01*
X4366376Y-3352941D01*
X4364241Y-3350082D01*
X4354271Y-3336730D01*
X4354271Y-3336730D01*
X4353999Y-3336367D01*
X4338810Y-3322325D01*
X4338426Y-3322083D01*
X4321699Y-3311530D01*
X4321699Y-3311529D01*
X4321316Y-3311288D01*
X4302103Y-3303622D01*
X4281815Y-3299587D01*
X4271473Y-3299452D01*
X4261586Y-3299322D01*
X4261585Y-3299322D01*
X4261132Y-3299316D01*
X4260684Y-3299393D01*
X4260684Y-3299393D01*
X4250938Y-3301068D01*
X4240745Y-3302819D01*
X4221338Y-3309979D01*
X4220949Y-3310211D01*
X4220948Y-3310211D01*
X4203952Y-3320323D01*
X4203561Y-3320555D01*
X4203220Y-3320854D01*
X4203220Y-3320855D01*
X4201542Y-3322325D01*
X4188009Y-3334194D01*
X4175203Y-3350438D01*
X4165572Y-3368744D01*
X4159438Y-3388499D01*
X4157006Y-3409041D01*
X2850000Y-3409041D01*
X2850000Y-1800649D01*
X2850085Y-1799357D01*
X2851534Y-1788351D01*
X2852202Y-1785855D01*
X2856200Y-1776204D01*
X2857492Y-1773966D01*
X2863851Y-1765679D01*
X2865679Y-1763851D01*
X2873966Y-1757492D01*
X2876204Y-1756200D01*
X2885855Y-1752202D01*
X2888351Y-1751534D01*
X2899357Y-1750085D01*
X2900649Y-1750000D01*
X5299351Y-1750000D01*
X5300643Y-1750085D01*
G37*
%TD.AperFunction*%
M02*
