%TF.GenerationSoftware,KiCad,Pcbnew,(6.0.8)*%
%TF.CreationDate,2022-10-20T22:21:07+02:00*%
%TF.ProjectId,WDSSR,57445353-522e-46b6-9963-61645f706362,rev?*%
%TF.SameCoordinates,PX7270e00PY4c4b400*%
%TF.FileFunction,Legend,Top*%
%TF.FilePolarity,Positive*%
%FSLAX45Y45*%
G04 Gerber Fmt 4.5, Leading zero omitted, Abs format (unit mm)*
G04 Created by KiCad (PCBNEW (6.0.8)) date 2022-10-20 22:21:07*
%MOMM*%
%LPD*%
G01*
G04 APERTURE LIST*
G04 Aperture macros list*
%AMRoundRect*
0 Rectangle with rounded corners*
0 $1 Rounding radius*
0 $2 $3 $4 $5 $6 $7 $8 $9 X,Y pos of 4 corners*
0 Add a 4 corners polygon primitive as box body*
4,1,4,$2,$3,$4,$5,$6,$7,$8,$9,$2,$3,0*
0 Add four circle primitives for the rounded corners*
1,1,$1+$1,$2,$3*
1,1,$1+$1,$4,$5*
1,1,$1+$1,$6,$7*
1,1,$1+$1,$8,$9*
0 Add four rect primitives between the rounded corners*
20,1,$1+$1,$2,$3,$4,$5,0*
20,1,$1+$1,$4,$5,$6,$7,0*
20,1,$1+$1,$6,$7,$8,$9,0*
20,1,$1+$1,$8,$9,$2,$3,0*%
G04 Aperture macros list end*
%ADD10C,0.150000*%
%ADD11C,0.120000*%
%ADD12C,0.200000*%
%ADD13R,1.650000X1.650000*%
%ADD14C,1.650000*%
%ADD15R,2.200000X1.200000*%
%ADD16R,6.400000X5.800000*%
%ADD17C,5.700000*%
%ADD18R,1.000000X0.700000*%
%ADD19RoundRect,0.237500X-0.237500X0.287500X-0.237500X-0.287500X0.237500X-0.287500X0.237500X0.287500X0*%
%ADD20RoundRect,0.137500X0.662500X0.137500X-0.662500X0.137500X-0.662500X-0.137500X0.662500X-0.137500X0*%
%ADD21RoundRect,0.150000X0.150000X-0.587500X0.150000X0.587500X-0.150000X0.587500X-0.150000X-0.587500X0*%
%ADD22R,2.175000X2.175000*%
%ADD23C,2.175000*%
%ADD24R,1.200000X2.200000*%
%ADD25R,5.800000X6.400000*%
%ADD26R,1.700000X1.700000*%
%ADD27O,1.700000X1.700000*%
%ADD28RoundRect,0.237500X-0.250000X-0.237500X0.250000X-0.237500X0.250000X0.237500X-0.250000X0.237500X0*%
%ADD29RoundRect,0.237500X0.250000X0.237500X-0.250000X0.237500X-0.250000X-0.237500X0.250000X-0.237500X0*%
%ADD30RoundRect,0.150000X-0.587500X-0.150000X0.587500X-0.150000X0.587500X0.150000X-0.587500X0.150000X0*%
%ADD31RoundRect,0.237500X0.300000X0.237500X-0.300000X0.237500X-0.300000X-0.237500X0.300000X-0.237500X0*%
%ADD32RoundRect,0.150000X-0.725000X-0.150000X0.725000X-0.150000X0.725000X0.150000X-0.725000X0.150000X0*%
%ADD33RoundRect,0.150000X0.587500X0.150000X-0.587500X0.150000X-0.587500X-0.150000X0.587500X-0.150000X0*%
%ADD34RoundRect,0.237500X-0.300000X-0.237500X0.300000X-0.237500X0.300000X0.237500X-0.300000X0.237500X0*%
%ADD35RoundRect,0.237500X-0.287500X-0.237500X0.287500X-0.237500X0.287500X0.237500X-0.287500X0.237500X0*%
%ADD36R,0.500000X0.500000*%
G04 APERTURE END LIST*
D10*
X2241095Y-3197667D02*
X2288714Y-3197667D01*
X2231571Y-3226238D02*
X2264905Y-3126238D01*
X2298238Y-3226238D01*
X2388714Y-3216714D02*
X2383952Y-3221476D01*
X2369667Y-3226238D01*
X2360143Y-3226238D01*
X2345857Y-3221476D01*
X2336333Y-3211952D01*
X2331571Y-3202428D01*
X2326810Y-3183381D01*
X2326810Y-3169095D01*
X2331571Y-3150048D01*
X2336333Y-3140524D01*
X2345857Y-3131000D01*
X2360143Y-3126238D01*
X2369667Y-3126238D01*
X2383952Y-3131000D01*
X2388714Y-3135762D01*
X2417286Y-3126238D02*
X2474429Y-3126238D01*
X2445857Y-3226238D02*
X2445857Y-3126238D01*
X3930476Y-1072857D02*
X3897143Y-1072857D01*
X3897143Y-1125238D02*
X3897143Y-1025238D01*
X3944762Y-1025238D01*
X3978095Y-1096667D02*
X4025714Y-1096667D01*
X3968571Y-1125238D02*
X4001905Y-1025238D01*
X4035238Y-1125238D01*
X4068571Y-1025238D02*
X4068571Y-1106190D01*
X4073333Y-1115714D01*
X4078095Y-1120476D01*
X4087619Y-1125238D01*
X4106667Y-1125238D01*
X4116190Y-1120476D01*
X4120952Y-1115714D01*
X4125714Y-1106190D01*
X4125714Y-1025238D01*
X4220952Y-1125238D02*
X4173333Y-1125238D01*
X4173333Y-1025238D01*
X4240000Y-1025238D02*
X4297143Y-1025238D01*
X4268571Y-1125238D02*
X4268571Y-1025238D01*
X121178Y-98790D02*
X140226Y-178790D01*
X155464Y-121648D01*
X170702Y-178790D01*
X189750Y-98790D01*
X220226Y-178790D02*
X220226Y-98790D01*
X239274Y-98790D01*
X250702Y-102600D01*
X258321Y-110219D01*
X262131Y-117838D01*
X265940Y-133076D01*
X265940Y-144505D01*
X262131Y-159743D01*
X258321Y-167362D01*
X250702Y-174981D01*
X239274Y-178790D01*
X220226Y-178790D01*
X357369Y-174981D02*
X368798Y-178790D01*
X387845Y-178790D01*
X395464Y-174981D01*
X399274Y-171171D01*
X403083Y-163552D01*
X403083Y-155933D01*
X399274Y-148314D01*
X395464Y-144505D01*
X387845Y-140695D01*
X372607Y-136886D01*
X364988Y-133076D01*
X361178Y-129267D01*
X357369Y-121648D01*
X357369Y-114028D01*
X361178Y-106409D01*
X364988Y-102600D01*
X372607Y-98790D01*
X391655Y-98790D01*
X403083Y-102600D01*
X433559Y-174981D02*
X444988Y-178790D01*
X464036Y-178790D01*
X471655Y-174981D01*
X475464Y-171171D01*
X479274Y-163552D01*
X479274Y-155933D01*
X475464Y-148314D01*
X471655Y-144505D01*
X464036Y-140695D01*
X448798Y-136886D01*
X441178Y-133076D01*
X437369Y-129267D01*
X433559Y-121648D01*
X433559Y-114028D01*
X437369Y-106409D01*
X441178Y-102600D01*
X448798Y-98790D01*
X467845Y-98790D01*
X479274Y-102600D01*
X559274Y-178790D02*
X532607Y-140695D01*
X513559Y-178790D02*
X513559Y-98790D01*
X544036Y-98790D01*
X551655Y-102600D01*
X555464Y-106409D01*
X559274Y-114028D01*
X559274Y-125457D01*
X555464Y-133076D01*
X551655Y-136886D01*
X544036Y-140695D01*
X513559Y-140695D01*
X643083Y-98790D02*
X669750Y-178790D01*
X696417Y-98790D01*
X753559Y-174981D02*
X745940Y-178790D01*
X730702Y-178790D01*
X723083Y-174981D01*
X719274Y-167362D01*
X719274Y-136886D01*
X723083Y-129267D01*
X730702Y-125457D01*
X745940Y-125457D01*
X753559Y-129267D01*
X757369Y-136886D01*
X757369Y-144505D01*
X719274Y-152124D01*
X791655Y-178790D02*
X791655Y-125457D01*
X791655Y-140695D02*
X795464Y-133076D01*
X799274Y-129267D01*
X806893Y-125457D01*
X814512Y-125457D01*
X841178Y-171171D02*
X844988Y-174981D01*
X841178Y-178790D01*
X837369Y-174981D01*
X841178Y-171171D01*
X841178Y-178790D01*
X982131Y-178790D02*
X936417Y-178790D01*
X959274Y-178790D02*
X959274Y-98790D01*
X951655Y-110219D01*
X944036Y-117838D01*
X936417Y-121648D01*
X1016417Y-171171D02*
X1020226Y-174981D01*
X1016417Y-178790D01*
X1012607Y-174981D01*
X1016417Y-171171D01*
X1016417Y-178790D01*
X1096417Y-178790D02*
X1050702Y-178790D01*
X1073560Y-178790D02*
X1073560Y-98790D01*
X1065940Y-110219D01*
X1058321Y-117838D01*
X1050702Y-121648D01*
X128798Y-265686D02*
X155464Y-265686D01*
X166893Y-307590D02*
X128798Y-307590D01*
X128798Y-227590D01*
X166893Y-227590D01*
X212607Y-307590D02*
X204988Y-303781D01*
X201178Y-296162D01*
X201178Y-227590D01*
X243083Y-307590D02*
X243083Y-254257D01*
X243083Y-227590D02*
X239274Y-231400D01*
X243083Y-235209D01*
X246893Y-231400D01*
X243083Y-227590D01*
X243083Y-235209D01*
X315464Y-307590D02*
X315464Y-265686D01*
X311655Y-258067D01*
X304036Y-254257D01*
X288798Y-254257D01*
X281179Y-258067D01*
X315464Y-303781D02*
X307845Y-307590D01*
X288798Y-307590D01*
X281179Y-303781D01*
X277369Y-296162D01*
X277369Y-288543D01*
X281179Y-280924D01*
X288798Y-277114D01*
X307845Y-277114D01*
X315464Y-273305D01*
X349750Y-303781D02*
X357369Y-307590D01*
X372607Y-307590D01*
X380226Y-303781D01*
X384036Y-296162D01*
X384036Y-292352D01*
X380226Y-284733D01*
X372607Y-280924D01*
X361178Y-280924D01*
X353559Y-277114D01*
X349750Y-269495D01*
X349750Y-265686D01*
X353559Y-258067D01*
X361178Y-254257D01*
X372607Y-254257D01*
X380226Y-258067D01*
X524988Y-307590D02*
X498321Y-269495D01*
X479274Y-307590D02*
X479274Y-227590D01*
X509750Y-227590D01*
X517369Y-231400D01*
X521178Y-235209D01*
X524988Y-242828D01*
X524988Y-254257D01*
X521178Y-261876D01*
X517369Y-265686D01*
X509750Y-269495D01*
X479274Y-269495D01*
X570702Y-307590D02*
X563083Y-303781D01*
X559274Y-299971D01*
X555464Y-292352D01*
X555464Y-269495D01*
X559274Y-261876D01*
X563083Y-258067D01*
X570702Y-254257D01*
X582131Y-254257D01*
X589750Y-258067D01*
X593560Y-261876D01*
X597369Y-269495D01*
X597369Y-292352D01*
X593560Y-299971D01*
X589750Y-303781D01*
X582131Y-307590D01*
X570702Y-307590D01*
X665940Y-307590D02*
X665940Y-227590D01*
X665940Y-303781D02*
X658321Y-307590D01*
X643083Y-307590D01*
X635464Y-303781D01*
X631655Y-299971D01*
X627845Y-292352D01*
X627845Y-269495D01*
X631655Y-261876D01*
X635464Y-258067D01*
X643083Y-254257D01*
X658321Y-254257D01*
X665940Y-258067D01*
X704036Y-307590D02*
X704036Y-254257D01*
X704036Y-269495D02*
X707845Y-261876D01*
X711655Y-258067D01*
X719274Y-254257D01*
X726893Y-254257D01*
X753559Y-307590D02*
X753559Y-254257D01*
X753559Y-227590D02*
X749750Y-231400D01*
X753559Y-235209D01*
X757369Y-231400D01*
X753559Y-227590D01*
X753559Y-235209D01*
X825940Y-254257D02*
X825940Y-319019D01*
X822131Y-326638D01*
X818321Y-330448D01*
X810702Y-334257D01*
X799274Y-334257D01*
X791655Y-330448D01*
X825940Y-303781D02*
X818321Y-307590D01*
X803083Y-307590D01*
X795464Y-303781D01*
X791655Y-299971D01*
X787845Y-292352D01*
X787845Y-269495D01*
X791655Y-261876D01*
X795464Y-258067D01*
X803083Y-254257D01*
X818321Y-254257D01*
X825940Y-258067D01*
X898321Y-254257D02*
X898321Y-307590D01*
X864036Y-254257D02*
X864036Y-296162D01*
X867845Y-303781D01*
X875464Y-307590D01*
X886893Y-307590D01*
X894512Y-303781D01*
X898321Y-299971D01*
X966893Y-303781D02*
X959274Y-307590D01*
X944036Y-307590D01*
X936417Y-303781D01*
X932607Y-296162D01*
X932607Y-265686D01*
X936417Y-258067D01*
X944036Y-254257D01*
X959274Y-254257D01*
X966893Y-258067D01*
X970702Y-265686D01*
X970702Y-273305D01*
X932607Y-280924D01*
X997369Y-254257D02*
X1039274Y-254257D01*
X997369Y-307590D01*
X1039274Y-307590D01*
X1130702Y-307590D02*
X1130702Y-227590D01*
X1157369Y-284733D01*
X1184036Y-227590D01*
X1184036Y-307590D01*
X1256417Y-307590D02*
X1256417Y-265686D01*
X1252607Y-258067D01*
X1244988Y-254257D01*
X1229750Y-254257D01*
X1222131Y-258067D01*
X1256417Y-303781D02*
X1248798Y-307590D01*
X1229750Y-307590D01*
X1222131Y-303781D01*
X1218321Y-296162D01*
X1218321Y-288543D01*
X1222131Y-280924D01*
X1229750Y-277114D01*
X1248798Y-277114D01*
X1256417Y-273305D01*
X1294512Y-307590D02*
X1294512Y-254257D01*
X1294512Y-269495D02*
X1298321Y-261876D01*
X1302131Y-258067D01*
X1309750Y-254257D01*
X1317369Y-254257D01*
X1332607Y-254257D02*
X1363083Y-254257D01*
X1344036Y-227590D02*
X1344036Y-296162D01*
X1347845Y-303781D01*
X1355464Y-307590D01*
X1363083Y-307590D01*
X1389750Y-307590D02*
X1389750Y-254257D01*
X1389750Y-227590D02*
X1385940Y-231400D01*
X1389750Y-235209D01*
X1393560Y-231400D01*
X1389750Y-227590D01*
X1389750Y-235209D01*
X1427845Y-254257D02*
X1427845Y-307590D01*
X1427845Y-261876D02*
X1431655Y-258067D01*
X1439274Y-254257D01*
X1450702Y-254257D01*
X1458321Y-258067D01*
X1462131Y-265686D01*
X1462131Y-307590D01*
X228821Y-1425000D02*
X220250Y-1420714D01*
X207393Y-1420714D01*
X194536Y-1425000D01*
X185964Y-1433571D01*
X181678Y-1442143D01*
X177393Y-1459286D01*
X177393Y-1472143D01*
X181678Y-1489286D01*
X185964Y-1497857D01*
X194536Y-1506428D01*
X207393Y-1510714D01*
X215964Y-1510714D01*
X228821Y-1506428D01*
X233107Y-1502143D01*
X233107Y-1472143D01*
X215964Y-1472143D01*
X271679Y-1510714D02*
X271679Y-1420714D01*
X323107Y-1510714D01*
X323107Y-1420714D01*
X365964Y-1510714D02*
X365964Y-1420714D01*
X387393Y-1420714D01*
X400250Y-1425000D01*
X408821Y-1433571D01*
X413107Y-1442143D01*
X417393Y-1459286D01*
X417393Y-1472143D01*
X413107Y-1489286D01*
X408821Y-1497857D01*
X400250Y-1506428D01*
X387393Y-1510714D01*
X365964Y-1510714D01*
X524536Y-1510714D02*
X524536Y-1420714D01*
X567393Y-1510714D02*
X567393Y-1420714D01*
X618821Y-1510714D01*
X618821Y-1420714D01*
X4614060Y-3555714D02*
X4609298Y-3560476D01*
X4595012Y-3565238D01*
X4585488Y-3565238D01*
X4571202Y-3560476D01*
X4561679Y-3550952D01*
X4556917Y-3541428D01*
X4552155Y-3522381D01*
X4552155Y-3508095D01*
X4556917Y-3489048D01*
X4561679Y-3479524D01*
X4571202Y-3470000D01*
X4585488Y-3465238D01*
X4595012Y-3465238D01*
X4609298Y-3470000D01*
X4614060Y-3474762D01*
X4642631Y-3465238D02*
X4699774Y-3465238D01*
X4671202Y-3565238D02*
X4671202Y-3465238D01*
X4790250Y-3565238D02*
X4756917Y-3517619D01*
X4733107Y-3565238D02*
X4733107Y-3465238D01*
X4771202Y-3465238D01*
X4780726Y-3470000D01*
X4785488Y-3474762D01*
X4790250Y-3484286D01*
X4790250Y-3498571D01*
X4785488Y-3508095D01*
X4780726Y-3512857D01*
X4771202Y-3517619D01*
X4733107Y-3517619D01*
X4880726Y-3565238D02*
X4833107Y-3565238D01*
X4833107Y-3465238D01*
X434536Y-2520714D02*
X464536Y-2610714D01*
X494536Y-2520714D01*
X524536Y-2610714D02*
X524536Y-2520714D01*
X567393Y-2610714D02*
X567393Y-2520714D01*
X618821Y-2610714D01*
X618821Y-2520714D01*
X108821Y-2025000D02*
X100250Y-2020714D01*
X87393Y-2020714D01*
X74536Y-2025000D01*
X65964Y-2033571D01*
X61678Y-2042143D01*
X57393Y-2059286D01*
X57393Y-2072143D01*
X61678Y-2089286D01*
X65964Y-2097857D01*
X74536Y-2106429D01*
X87393Y-2110714D01*
X95964Y-2110714D01*
X108821Y-2106429D01*
X113107Y-2102143D01*
X113107Y-2072143D01*
X95964Y-2072143D01*
X151679Y-2110714D02*
X151679Y-2020714D01*
X203107Y-2110714D01*
X203107Y-2020714D01*
X245964Y-2110714D02*
X245964Y-2020714D01*
X267393Y-2020714D01*
X280250Y-2025000D01*
X288821Y-2033571D01*
X293107Y-2042143D01*
X297393Y-2059286D01*
X297393Y-2072143D01*
X293107Y-2089286D01*
X288821Y-2097857D01*
X280250Y-2106429D01*
X267393Y-2110714D01*
X245964Y-2110714D01*
X421678Y-2020714D02*
X438821Y-2020714D01*
X447393Y-2025000D01*
X455964Y-2033571D01*
X460250Y-2050714D01*
X460250Y-2080714D01*
X455964Y-2097857D01*
X447393Y-2106429D01*
X438821Y-2110714D01*
X421678Y-2110714D01*
X413107Y-2106429D01*
X404536Y-2097857D01*
X400250Y-2080714D01*
X400250Y-2050714D01*
X404536Y-2033571D01*
X413107Y-2025000D01*
X421678Y-2020714D01*
X498821Y-2020714D02*
X498821Y-2093571D01*
X503107Y-2102143D01*
X507393Y-2106429D01*
X515964Y-2110714D01*
X533107Y-2110714D01*
X541679Y-2106429D01*
X545964Y-2102143D01*
X550250Y-2093571D01*
X550250Y-2020714D01*
X580250Y-2020714D02*
X631679Y-2020714D01*
X605964Y-2110714D02*
X605964Y-2020714D01*
X2608476Y-2652762D02*
X2598952Y-2648000D01*
X2589429Y-2638476D01*
X2575143Y-2624190D01*
X2565619Y-2619429D01*
X2556095Y-2619429D01*
X2560857Y-2643238D02*
X2551333Y-2638476D01*
X2541810Y-2628952D01*
X2537048Y-2609905D01*
X2537048Y-2576571D01*
X2541810Y-2557524D01*
X2551333Y-2548000D01*
X2560857Y-2543238D01*
X2579905Y-2543238D01*
X2589429Y-2548000D01*
X2598952Y-2557524D01*
X2603714Y-2576571D01*
X2603714Y-2609905D01*
X2598952Y-2628952D01*
X2589429Y-2638476D01*
X2579905Y-2643238D01*
X2560857Y-2643238D01*
X2698952Y-2643238D02*
X2641810Y-2643238D01*
X2670381Y-2643238D02*
X2670381Y-2543238D01*
X2660857Y-2557524D01*
X2651333Y-2567048D01*
X2641810Y-2571810D01*
X3328840Y-3225638D02*
X3328840Y-3125638D01*
X3352650Y-3125638D01*
X3366936Y-3130400D01*
X3376459Y-3139924D01*
X3381221Y-3149448D01*
X3385983Y-3168495D01*
X3385983Y-3182781D01*
X3381221Y-3201828D01*
X3376459Y-3211352D01*
X3366936Y-3220876D01*
X3352650Y-3225638D01*
X3328840Y-3225638D01*
X3481221Y-3225638D02*
X3424078Y-3225638D01*
X3452650Y-3225638D02*
X3452650Y-3125638D01*
X3443126Y-3139924D01*
X3433602Y-3149448D01*
X3424078Y-3154209D01*
X2282190Y-3723238D02*
X2282190Y-3623238D01*
X2306000Y-3623238D01*
X2320286Y-3628000D01*
X2329810Y-3637524D01*
X2334571Y-3647048D01*
X2339333Y-3666095D01*
X2339333Y-3680381D01*
X2334571Y-3699428D01*
X2329810Y-3708952D01*
X2320286Y-3718476D01*
X2306000Y-3723238D01*
X2282190Y-3723238D01*
X2372667Y-3623238D02*
X2434571Y-3623238D01*
X2401238Y-3661333D01*
X2415524Y-3661333D01*
X2425048Y-3666095D01*
X2429810Y-3670857D01*
X2434571Y-3680381D01*
X2434571Y-3704190D01*
X2429810Y-3713714D01*
X2425048Y-3718476D01*
X2415524Y-3723238D01*
X2386952Y-3723238D01*
X2377429Y-3718476D01*
X2372667Y-3713714D01*
X1739809Y-3715238D02*
X1739809Y-3796190D01*
X1744571Y-3805714D01*
X1749333Y-3810476D01*
X1758857Y-3815238D01*
X1777905Y-3815238D01*
X1787428Y-3810476D01*
X1792190Y-3805714D01*
X1796952Y-3796190D01*
X1796952Y-3715238D01*
X1839809Y-3724762D02*
X1844571Y-3720000D01*
X1854095Y-3715238D01*
X1877905Y-3715238D01*
X1887428Y-3720000D01*
X1892190Y-3724762D01*
X1896952Y-3734286D01*
X1896952Y-3743809D01*
X1892190Y-3758095D01*
X1835048Y-3815238D01*
X1896952Y-3815238D01*
X1276190Y-595238D02*
X1276190Y-495238D01*
X1300000Y-495238D01*
X1314286Y-500000D01*
X1323810Y-509524D01*
X1328571Y-519048D01*
X1333333Y-538095D01*
X1333333Y-552381D01*
X1328571Y-571429D01*
X1323810Y-580952D01*
X1314286Y-590476D01*
X1300000Y-595238D01*
X1276190Y-595238D01*
X1419048Y-528571D02*
X1419048Y-595238D01*
X1395238Y-490476D02*
X1371429Y-561905D01*
X1433333Y-561905D01*
X1436667Y-3035238D02*
X1436667Y-3106667D01*
X1431905Y-3120952D01*
X1422381Y-3130476D01*
X1408095Y-3135238D01*
X1398571Y-3135238D01*
X1479524Y-3044762D02*
X1484286Y-3040000D01*
X1493809Y-3035238D01*
X1517619Y-3035238D01*
X1527143Y-3040000D01*
X1531905Y-3044762D01*
X1536667Y-3054286D01*
X1536667Y-3063809D01*
X1531905Y-3078095D01*
X1474762Y-3135238D01*
X1536667Y-3135238D01*
X3976667Y-3015238D02*
X3976667Y-3086667D01*
X3971905Y-3100952D01*
X3962381Y-3110476D01*
X3948095Y-3115238D01*
X3938571Y-3115238D01*
X4076667Y-3115238D02*
X4019524Y-3115238D01*
X4048095Y-3115238D02*
X4048095Y-3015238D01*
X4038571Y-3029524D01*
X4029048Y-3039048D01*
X4019524Y-3043809D01*
X4090476Y-2584762D02*
X4080952Y-2580000D01*
X4071428Y-2570476D01*
X4057143Y-2556190D01*
X4047619Y-2551429D01*
X4038095Y-2551429D01*
X4042857Y-2575238D02*
X4033333Y-2570476D01*
X4023809Y-2560952D01*
X4019048Y-2541905D01*
X4019048Y-2508571D01*
X4023809Y-2489524D01*
X4033333Y-2480000D01*
X4042857Y-2475238D01*
X4061905Y-2475238D01*
X4071428Y-2480000D01*
X4080952Y-2489524D01*
X4085714Y-2508571D01*
X4085714Y-2541905D01*
X4080952Y-2560952D01*
X4071428Y-2570476D01*
X4061905Y-2575238D01*
X4042857Y-2575238D01*
X4123809Y-2484762D02*
X4128571Y-2480000D01*
X4138095Y-2475238D01*
X4161905Y-2475238D01*
X4171428Y-2480000D01*
X4176190Y-2484762D01*
X4180952Y-2494286D01*
X4180952Y-2503810D01*
X4176190Y-2518095D01*
X4119048Y-2575238D01*
X4180952Y-2575238D01*
X5086667Y-675238D02*
X5086667Y-746667D01*
X5081905Y-760952D01*
X5072381Y-770476D01*
X5058095Y-775238D01*
X5048571Y-775238D01*
X5124762Y-675238D02*
X5186667Y-675238D01*
X5153333Y-713333D01*
X5167619Y-713333D01*
X5177143Y-718095D01*
X5181905Y-722857D01*
X5186667Y-732381D01*
X5186667Y-756190D01*
X5181905Y-765714D01*
X5177143Y-770476D01*
X5167619Y-775238D01*
X5139048Y-775238D01*
X5129524Y-770476D01*
X5124762Y-765714D01*
X2882333Y-3557238D02*
X2849000Y-3509619D01*
X2825190Y-3557238D02*
X2825190Y-3457238D01*
X2863286Y-3457238D01*
X2872809Y-3462000D01*
X2877571Y-3466762D01*
X2882333Y-3476286D01*
X2882333Y-3490571D01*
X2877571Y-3500095D01*
X2872809Y-3504857D01*
X2863286Y-3509619D01*
X2825190Y-3509619D01*
X2977571Y-3557238D02*
X2920428Y-3557238D01*
X2949000Y-3557238D02*
X2949000Y-3457238D01*
X2939476Y-3471524D01*
X2929952Y-3481048D01*
X2920428Y-3485809D01*
X2884333Y-3752238D02*
X2851000Y-3704619D01*
X2827190Y-3752238D02*
X2827190Y-3652238D01*
X2865286Y-3652238D01*
X2874809Y-3657000D01*
X2879571Y-3661762D01*
X2884333Y-3671286D01*
X2884333Y-3685571D01*
X2879571Y-3695095D01*
X2874809Y-3699857D01*
X2865286Y-3704619D01*
X2827190Y-3704619D01*
X2970048Y-3685571D02*
X2970048Y-3752238D01*
X2946238Y-3647476D02*
X2922428Y-3718905D01*
X2984333Y-3718905D01*
X4770476Y-304762D02*
X4760952Y-300000D01*
X4751429Y-290476D01*
X4737143Y-276190D01*
X4727619Y-271429D01*
X4718095Y-271429D01*
X4722857Y-295238D02*
X4713333Y-290476D01*
X4703810Y-280952D01*
X4699048Y-261905D01*
X4699048Y-228571D01*
X4703810Y-209524D01*
X4713333Y-200000D01*
X4722857Y-195238D01*
X4741905Y-195238D01*
X4751429Y-200000D01*
X4760952Y-209524D01*
X4765714Y-228571D01*
X4765714Y-261905D01*
X4760952Y-280952D01*
X4751429Y-290476D01*
X4741905Y-295238D01*
X4722857Y-295238D01*
X4851429Y-228571D02*
X4851429Y-295238D01*
X4827619Y-190476D02*
X4803810Y-261905D01*
X4865714Y-261905D01*
X3935714Y-585238D02*
X3902381Y-537619D01*
X3878571Y-585238D02*
X3878571Y-485238D01*
X3916667Y-485238D01*
X3926190Y-490000D01*
X3930952Y-494762D01*
X3935714Y-504286D01*
X3935714Y-518571D01*
X3930952Y-528095D01*
X3926190Y-532857D01*
X3916667Y-537619D01*
X3878571Y-537619D01*
X4030952Y-585238D02*
X3973809Y-585238D01*
X4002381Y-585238D02*
X4002381Y-485238D01*
X3992857Y-499524D01*
X3983333Y-509048D01*
X3973809Y-513809D01*
X4116667Y-485238D02*
X4097619Y-485238D01*
X4088095Y-490000D01*
X4083333Y-494762D01*
X4073809Y-509048D01*
X4069048Y-528095D01*
X4069048Y-566190D01*
X4073809Y-575714D01*
X4078571Y-580476D01*
X4088095Y-585238D01*
X4107143Y-585238D01*
X4116667Y-580476D01*
X4121428Y-575714D01*
X4126190Y-566190D01*
X4126190Y-542381D01*
X4121428Y-532857D01*
X4116667Y-528095D01*
X4107143Y-523333D01*
X4088095Y-523333D01*
X4078571Y-528095D01*
X4073809Y-532857D01*
X4069048Y-542381D01*
X2652489Y-1285714D02*
X2647727Y-1290476D01*
X2633442Y-1295238D01*
X2623918Y-1295238D01*
X2609632Y-1290476D01*
X2600108Y-1280952D01*
X2595346Y-1271429D01*
X2590584Y-1252381D01*
X2590584Y-1238095D01*
X2595346Y-1219048D01*
X2600108Y-1209524D01*
X2609632Y-1200000D01*
X2623918Y-1195238D01*
X2633442Y-1195238D01*
X2647727Y-1200000D01*
X2652489Y-1204762D01*
X2685823Y-1195238D02*
X2747727Y-1195238D01*
X2714394Y-1233333D01*
X2728680Y-1233333D01*
X2738204Y-1238095D01*
X2742965Y-1242857D01*
X2747727Y-1252381D01*
X2747727Y-1276190D01*
X2742965Y-1285714D01*
X2738204Y-1290476D01*
X2728680Y-1295238D01*
X2700108Y-1295238D01*
X2690584Y-1290476D01*
X2685823Y-1285714D01*
X2195714Y-335238D02*
X2162381Y-287619D01*
X2138571Y-335238D02*
X2138571Y-235238D01*
X2176667Y-235238D01*
X2186190Y-240000D01*
X2190952Y-244762D01*
X2195714Y-254286D01*
X2195714Y-268571D01*
X2190952Y-278095D01*
X2186190Y-282857D01*
X2176667Y-287619D01*
X2138571Y-287619D01*
X2290952Y-335238D02*
X2233810Y-335238D01*
X2262381Y-335238D02*
X2262381Y-235238D01*
X2252857Y-249524D01*
X2243333Y-259048D01*
X2233810Y-263810D01*
X2324286Y-235238D02*
X2390952Y-235238D01*
X2348095Y-335238D01*
X1963333Y-373714D02*
X1958571Y-378476D01*
X1944286Y-383238D01*
X1934762Y-383238D01*
X1920476Y-378476D01*
X1910952Y-368952D01*
X1906190Y-359428D01*
X1901428Y-340381D01*
X1901428Y-326095D01*
X1906190Y-307048D01*
X1910952Y-297524D01*
X1920476Y-288000D01*
X1934762Y-283238D01*
X1944286Y-283238D01*
X1958571Y-288000D01*
X1963333Y-292762D01*
X2058571Y-383238D02*
X2001428Y-383238D01*
X2030000Y-383238D02*
X2030000Y-283238D01*
X2020476Y-297524D01*
X2010952Y-307048D01*
X2001428Y-311810D01*
X2391690Y-915238D02*
X2391690Y-996190D01*
X2396452Y-1005714D01*
X2401214Y-1010476D01*
X2410738Y-1015238D01*
X2429785Y-1015238D01*
X2439309Y-1010476D01*
X2444071Y-1005714D01*
X2448833Y-996190D01*
X2448833Y-915238D01*
X2548833Y-1015238D02*
X2491690Y-1015238D01*
X2520261Y-1015238D02*
X2520261Y-915238D01*
X2510738Y-929524D01*
X2501214Y-939048D01*
X2491690Y-943809D01*
X4010476Y-304762D02*
X4000952Y-300000D01*
X3991428Y-290476D01*
X3977143Y-276190D01*
X3967619Y-271429D01*
X3958095Y-271429D01*
X3962857Y-295238D02*
X3953333Y-290476D01*
X3943809Y-280952D01*
X3939048Y-261905D01*
X3939048Y-228571D01*
X3943809Y-209524D01*
X3953333Y-200000D01*
X3962857Y-195238D01*
X3981905Y-195238D01*
X3991428Y-200000D01*
X4000952Y-209524D01*
X4005714Y-228571D01*
X4005714Y-261905D01*
X4000952Y-280952D01*
X3991428Y-290476D01*
X3981905Y-295238D01*
X3962857Y-295238D01*
X4039048Y-195238D02*
X4100952Y-195238D01*
X4067619Y-233333D01*
X4081905Y-233333D01*
X4091428Y-238095D01*
X4096190Y-242857D01*
X4100952Y-252381D01*
X4100952Y-276190D01*
X4096190Y-285714D01*
X4091428Y-290476D01*
X4081905Y-295238D01*
X4053333Y-295238D01*
X4043809Y-290476D01*
X4039048Y-285714D01*
X2242489Y-1295238D02*
X2209156Y-1247619D01*
X2185346Y-1295238D02*
X2185346Y-1195238D01*
X2223442Y-1195238D01*
X2232965Y-1200000D01*
X2237727Y-1204762D01*
X2242489Y-1214286D01*
X2242489Y-1228571D01*
X2237727Y-1238095D01*
X2232965Y-1242857D01*
X2223442Y-1247619D01*
X2185346Y-1247619D01*
X2290108Y-1295238D02*
X2309156Y-1295238D01*
X2318680Y-1290476D01*
X2323442Y-1285714D01*
X2332965Y-1271429D01*
X2337727Y-1252381D01*
X2337727Y-1214286D01*
X2332965Y-1204762D01*
X2328204Y-1200000D01*
X2318680Y-1195238D01*
X2299632Y-1195238D01*
X2290108Y-1200000D01*
X2285346Y-1204762D01*
X2280584Y-1214286D01*
X2280584Y-1238095D01*
X2285346Y-1247619D01*
X2290108Y-1252381D01*
X2299632Y-1257143D01*
X2318680Y-1257143D01*
X2328204Y-1252381D01*
X2332965Y-1247619D01*
X2337727Y-1238095D01*
X1963333Y-195238D02*
X1930000Y-147619D01*
X1906190Y-195238D02*
X1906190Y-95238D01*
X1944286Y-95238D01*
X1953809Y-100000D01*
X1958571Y-104762D01*
X1963333Y-114286D01*
X1963333Y-128571D01*
X1958571Y-138095D01*
X1953809Y-142857D01*
X1944286Y-147619D01*
X1906190Y-147619D01*
X2049048Y-95238D02*
X2030000Y-95238D01*
X2020476Y-100000D01*
X2015714Y-104762D01*
X2006190Y-119048D01*
X2001428Y-138095D01*
X2001428Y-176190D01*
X2006190Y-185714D01*
X2010952Y-190476D01*
X2020476Y-195238D01*
X2039524Y-195238D01*
X2049048Y-190476D01*
X2053809Y-185714D01*
X2058571Y-176190D01*
X2058571Y-152381D01*
X2053809Y-142857D01*
X2049048Y-138095D01*
X2039524Y-133333D01*
X2020476Y-133333D01*
X2010952Y-138095D01*
X2006190Y-142857D01*
X2001428Y-152381D01*
X1333714Y-953238D02*
X1300381Y-905619D01*
X1276571Y-953238D02*
X1276571Y-853238D01*
X1314667Y-853238D01*
X1324190Y-858000D01*
X1328952Y-862762D01*
X1333714Y-872286D01*
X1333714Y-886571D01*
X1328952Y-896095D01*
X1324190Y-900857D01*
X1314667Y-905619D01*
X1276571Y-905619D01*
X1428952Y-953238D02*
X1371810Y-953238D01*
X1400381Y-953238D02*
X1400381Y-853238D01*
X1390857Y-867524D01*
X1381333Y-877048D01*
X1371810Y-881809D01*
X1514667Y-886571D02*
X1514667Y-953238D01*
X1490857Y-848476D02*
X1467048Y-919905D01*
X1528952Y-919905D01*
X3314714Y-387238D02*
X3281381Y-339619D01*
X3257571Y-387238D02*
X3257571Y-287238D01*
X3295667Y-287238D01*
X3305190Y-292000D01*
X3309952Y-296762D01*
X3314714Y-306286D01*
X3314714Y-320571D01*
X3309952Y-330095D01*
X3305190Y-334857D01*
X3295667Y-339619D01*
X3257571Y-339619D01*
X3409952Y-387238D02*
X3352809Y-387238D01*
X3381381Y-387238D02*
X3381381Y-287238D01*
X3371857Y-301524D01*
X3362333Y-311048D01*
X3352809Y-315810D01*
X3505190Y-387238D02*
X3448048Y-387238D01*
X3476619Y-387238D02*
X3476619Y-287238D01*
X3467095Y-301524D01*
X3457571Y-311048D01*
X3448048Y-315810D01*
X3935714Y-945238D02*
X3902381Y-897619D01*
X3878571Y-945238D02*
X3878571Y-845238D01*
X3916667Y-845238D01*
X3926190Y-850000D01*
X3930952Y-854762D01*
X3935714Y-864286D01*
X3935714Y-878571D01*
X3930952Y-888095D01*
X3926190Y-892857D01*
X3916667Y-897619D01*
X3878571Y-897619D01*
X4030952Y-945238D02*
X3973809Y-945238D01*
X4002381Y-945238D02*
X4002381Y-845238D01*
X3992857Y-859524D01*
X3983333Y-869048D01*
X3973809Y-873809D01*
X4069048Y-854762D02*
X4073809Y-850000D01*
X4083333Y-845238D01*
X4107143Y-845238D01*
X4116667Y-850000D01*
X4121428Y-854762D01*
X4126190Y-864286D01*
X4126190Y-873809D01*
X4121428Y-888095D01*
X4064286Y-945238D01*
X4126190Y-945238D01*
X3312333Y-768238D02*
X3279000Y-720619D01*
X3255190Y-768238D02*
X3255190Y-668238D01*
X3293286Y-668238D01*
X3302809Y-673000D01*
X3307571Y-677762D01*
X3312333Y-687286D01*
X3312333Y-701571D01*
X3307571Y-711095D01*
X3302809Y-715857D01*
X3293286Y-720619D01*
X3255190Y-720619D01*
X3345667Y-668238D02*
X3407571Y-668238D01*
X3374238Y-706333D01*
X3388524Y-706333D01*
X3398048Y-711095D01*
X3402809Y-715857D01*
X3407571Y-725381D01*
X3407571Y-749190D01*
X3402809Y-758714D01*
X3398048Y-763476D01*
X3388524Y-768238D01*
X3359952Y-768238D01*
X3350428Y-763476D01*
X3345667Y-758714D01*
X1963333Y-575238D02*
X1930000Y-527619D01*
X1906190Y-575238D02*
X1906190Y-475238D01*
X1944286Y-475238D01*
X1953809Y-480000D01*
X1958571Y-484762D01*
X1963333Y-494286D01*
X1963333Y-508571D01*
X1958571Y-518095D01*
X1953809Y-522857D01*
X1944286Y-527619D01*
X1906190Y-527619D01*
X1996667Y-475238D02*
X2063333Y-475238D01*
X2020476Y-575238D01*
X3024190Y-1295238D02*
X3024190Y-1195238D01*
X3048000Y-1195238D01*
X3062286Y-1200000D01*
X3071809Y-1209524D01*
X3076571Y-1219048D01*
X3081333Y-1238095D01*
X3081333Y-1252381D01*
X3076571Y-1271429D01*
X3071809Y-1280952D01*
X3062286Y-1290476D01*
X3048000Y-1295238D01*
X3024190Y-1295238D01*
X3119428Y-1204762D02*
X3124190Y-1200000D01*
X3133714Y-1195238D01*
X3157524Y-1195238D01*
X3167048Y-1200000D01*
X3171809Y-1204762D01*
X3176571Y-1214286D01*
X3176571Y-1223810D01*
X3171809Y-1238095D01*
X3114667Y-1295238D01*
X3176571Y-1295238D01*
X3935714Y-765238D02*
X3902381Y-717619D01*
X3878571Y-765238D02*
X3878571Y-665238D01*
X3916667Y-665238D01*
X3926190Y-670000D01*
X3930952Y-674762D01*
X3935714Y-684286D01*
X3935714Y-698571D01*
X3930952Y-708095D01*
X3926190Y-712857D01*
X3916667Y-717619D01*
X3878571Y-717619D01*
X4030952Y-765238D02*
X3973809Y-765238D01*
X4002381Y-765238D02*
X4002381Y-665238D01*
X3992857Y-679524D01*
X3983333Y-689048D01*
X3973809Y-693810D01*
X4121428Y-665238D02*
X4073809Y-665238D01*
X4069048Y-712857D01*
X4073809Y-708095D01*
X4083333Y-703333D01*
X4107143Y-703333D01*
X4116667Y-708095D01*
X4121428Y-712857D01*
X4126190Y-722381D01*
X4126190Y-746190D01*
X4121428Y-755714D01*
X4116667Y-760476D01*
X4107143Y-765238D01*
X4083333Y-765238D01*
X4073809Y-760476D01*
X4069048Y-755714D01*
X2667960Y-325714D02*
X2663198Y-330476D01*
X2648912Y-335238D01*
X2639389Y-335238D01*
X2625103Y-330476D01*
X2615579Y-320952D01*
X2610817Y-311429D01*
X2606055Y-292381D01*
X2606055Y-278095D01*
X2610817Y-259048D01*
X2615579Y-249524D01*
X2625103Y-240000D01*
X2639389Y-235238D01*
X2648912Y-235238D01*
X2663198Y-240000D01*
X2667960Y-244762D01*
X2706055Y-244762D02*
X2710817Y-240000D01*
X2720341Y-235238D01*
X2744151Y-235238D01*
X2753674Y-240000D01*
X2758436Y-244762D01*
X2763198Y-254286D01*
X2763198Y-263810D01*
X2758436Y-278095D01*
X2701293Y-335238D01*
X2763198Y-335238D01*
X3315714Y-200152D02*
X3282381Y-152533D01*
X3258571Y-200152D02*
X3258571Y-100152D01*
X3296667Y-100152D01*
X3306190Y-104914D01*
X3310952Y-109676D01*
X3315714Y-119199D01*
X3315714Y-133485D01*
X3310952Y-143009D01*
X3306190Y-147771D01*
X3296667Y-152533D01*
X3258571Y-152533D01*
X3410952Y-200152D02*
X3353809Y-200152D01*
X3382381Y-200152D02*
X3382381Y-100152D01*
X3372857Y-114438D01*
X3363333Y-123961D01*
X3353809Y-128723D01*
X3444286Y-100152D02*
X3506190Y-100152D01*
X3472857Y-138247D01*
X3487143Y-138247D01*
X3496667Y-143009D01*
X3501428Y-147771D01*
X3506190Y-157295D01*
X3506190Y-181104D01*
X3501428Y-190628D01*
X3496667Y-195390D01*
X3487143Y-200152D01*
X3458571Y-200152D01*
X3449048Y-195390D01*
X3444286Y-190628D01*
X1963333Y-765238D02*
X1930000Y-717619D01*
X1906190Y-765238D02*
X1906190Y-665238D01*
X1944286Y-665238D01*
X1953809Y-670000D01*
X1958571Y-674762D01*
X1963333Y-684286D01*
X1963333Y-698571D01*
X1958571Y-708095D01*
X1953809Y-712857D01*
X1944286Y-717619D01*
X1906190Y-717619D01*
X2020476Y-708095D02*
X2010952Y-703333D01*
X2006190Y-698571D01*
X2001428Y-689048D01*
X2001428Y-684286D01*
X2006190Y-674762D01*
X2010952Y-670000D01*
X2020476Y-665238D01*
X2039524Y-665238D01*
X2049048Y-670000D01*
X2053809Y-674762D01*
X2058571Y-684286D01*
X2058571Y-689048D01*
X2053809Y-698571D01*
X2049048Y-703333D01*
X2039524Y-708095D01*
X2020476Y-708095D01*
X2010952Y-712857D01*
X2006190Y-717619D01*
X2001428Y-727143D01*
X2001428Y-746190D01*
X2006190Y-755714D01*
X2010952Y-760476D01*
X2020476Y-765238D01*
X2039524Y-765238D01*
X2049048Y-760476D01*
X2053809Y-755714D01*
X2058571Y-746190D01*
X2058571Y-727143D01*
X2053809Y-717619D01*
X2049048Y-712857D01*
X2039524Y-708095D01*
X3312333Y-568238D02*
X3279000Y-520619D01*
X3255190Y-568238D02*
X3255190Y-468238D01*
X3293286Y-468238D01*
X3302809Y-473000D01*
X3307571Y-477762D01*
X3312333Y-487286D01*
X3312333Y-501571D01*
X3307571Y-511095D01*
X3302809Y-515857D01*
X3293286Y-520619D01*
X3255190Y-520619D01*
X3402809Y-468238D02*
X3355190Y-468238D01*
X3350428Y-515857D01*
X3355190Y-511095D01*
X3364714Y-506333D01*
X3388524Y-506333D01*
X3398048Y-511095D01*
X3402809Y-515857D01*
X3407571Y-525381D01*
X3407571Y-549190D01*
X3402809Y-558714D01*
X3398048Y-563476D01*
X3388524Y-568238D01*
X3364714Y-568238D01*
X3355190Y-563476D01*
X3350428Y-558714D01*
X1963333Y-955238D02*
X1930000Y-907619D01*
X1906190Y-955238D02*
X1906190Y-855238D01*
X1944286Y-855238D01*
X1953809Y-860000D01*
X1958571Y-864762D01*
X1963333Y-874286D01*
X1963333Y-888571D01*
X1958571Y-898095D01*
X1953809Y-902857D01*
X1944286Y-907619D01*
X1906190Y-907619D01*
X2001428Y-864762D02*
X2006190Y-860000D01*
X2015714Y-855238D01*
X2039524Y-855238D01*
X2049048Y-860000D01*
X2053809Y-864762D01*
X2058571Y-874286D01*
X2058571Y-883809D01*
X2053809Y-898095D01*
X1996667Y-955238D01*
X2058571Y-955238D01*
X4636190Y-615238D02*
X4636190Y-515238D01*
X4660000Y-515238D01*
X4674286Y-520000D01*
X4683810Y-529524D01*
X4688571Y-539048D01*
X4693333Y-558095D01*
X4693333Y-572381D01*
X4688571Y-591429D01*
X4683810Y-600952D01*
X4674286Y-610476D01*
X4660000Y-615238D01*
X4636190Y-615238D01*
X4779048Y-515238D02*
X4760000Y-515238D01*
X4750476Y-520000D01*
X4745714Y-524762D01*
X4736190Y-539048D01*
X4731429Y-558095D01*
X4731429Y-596190D01*
X4736190Y-605714D01*
X4740952Y-610476D01*
X4750476Y-615238D01*
X4769524Y-615238D01*
X4779048Y-610476D01*
X4783810Y-605714D01*
X4788571Y-596190D01*
X4788571Y-572381D01*
X4783810Y-562857D01*
X4779048Y-558095D01*
X4769524Y-553333D01*
X4750476Y-553333D01*
X4740952Y-558095D01*
X4736190Y-562857D01*
X4731429Y-572381D01*
D11*
X2867000Y-2495000D02*
X2867000Y-2468000D01*
X2867000Y-1832000D02*
X2977000Y-1832000D01*
X2867000Y-2468000D02*
X3150000Y-2468000D01*
X2717000Y-1805000D02*
X2867000Y-1805000D01*
X2867000Y-1805000D02*
X2867000Y-1832000D01*
X2717000Y-2495000D02*
X2867000Y-2495000D01*
X3639000Y-3276000D02*
X3059000Y-3276000D01*
X3179000Y-3686000D02*
X3179000Y-3386000D01*
X3639000Y-3776000D02*
X3639000Y-3796000D01*
X3639000Y-3386000D02*
X3639000Y-3686000D01*
X3639000Y-3296000D02*
X3639000Y-3276000D01*
X3639000Y-3796000D02*
X3179000Y-3796000D01*
X3179000Y-3796000D02*
X3179000Y-3776000D01*
X2429500Y-3507000D02*
X2429500Y-3261000D01*
X2282500Y-3261000D02*
X2282500Y-3507000D01*
X2429500Y-3261000D02*
X2282500Y-3261000D01*
X1809000Y-3663000D02*
X2214000Y-3663000D01*
X1809000Y-3271000D02*
X1581500Y-3271000D01*
X1809000Y-3663000D02*
X1581500Y-3663000D01*
X1809000Y-3271000D02*
X2036500Y-3271000D01*
X934000Y-550000D02*
X934000Y-717500D01*
X934000Y-550000D02*
X934000Y-485000D01*
X1246000Y-550000D02*
X1246000Y-485000D01*
X1246000Y-550000D02*
X1246000Y-615000D01*
D12*
X1933000Y-2977000D02*
X1933000Y-1072000D01*
X1933000Y-1072000D02*
X1473000Y-1072000D01*
X683000Y-2977000D02*
X1933000Y-2977000D01*
X683000Y-1389000D02*
X683000Y-2977000D01*
X4505000Y-3662000D02*
X4505000Y-3176000D01*
X3930000Y-3176000D02*
X3930000Y-3916000D01*
X3930000Y-3916000D02*
X4270000Y-3916000D01*
X4505000Y-3176000D02*
X3930000Y-3176000D01*
D11*
X3760000Y-1632000D02*
X3787000Y-1632000D01*
X4450000Y-1782000D02*
X4450000Y-1632000D01*
X4423000Y-1632000D02*
X4423000Y-1349000D01*
X4450000Y-1632000D02*
X4423000Y-1632000D01*
X3787000Y-1632000D02*
X3787000Y-1522000D01*
X3760000Y-1782000D02*
X3760000Y-1632000D01*
X4987000Y-129500D02*
X5120000Y-129500D01*
X4987000Y-389500D02*
X4987000Y-649500D01*
X4987000Y-262500D02*
X4987000Y-129500D01*
X5253000Y-389500D02*
X5253000Y-649500D01*
X4987000Y-389500D02*
X5253000Y-389500D01*
X4987000Y-649500D02*
X5253000Y-649500D01*
X2613528Y-3462750D02*
X2664472Y-3462750D01*
X2613528Y-3567250D02*
X2664472Y-3567250D01*
X2666472Y-3652750D02*
X2615528Y-3652750D01*
X2666472Y-3757250D02*
X2615528Y-3757250D01*
X4490000Y-94000D02*
X4322500Y-94000D01*
X4490000Y-94000D02*
X4555000Y-94000D01*
X4490000Y-406000D02*
X4555000Y-406000D01*
X4490000Y-406000D02*
X4425000Y-406000D01*
X3725472Y-592250D02*
X3674528Y-592250D01*
X3725472Y-487750D02*
X3674528Y-487750D01*
X2684627Y-1049000D02*
X2655373Y-1049000D01*
X2684627Y-1151000D02*
X2655373Y-1151000D01*
X2234528Y-97750D02*
X2285472Y-97750D01*
X2234528Y-202250D02*
X2285472Y-202250D01*
X1733627Y-288000D02*
X1704373Y-288000D01*
X1733627Y-390000D02*
X1704373Y-390000D01*
X2470000Y-896000D02*
X2665000Y-896000D01*
X2470000Y-384000D02*
X2125000Y-384000D01*
X2470000Y-384000D02*
X2665000Y-384000D01*
X2470000Y-896000D02*
X2275000Y-896000D01*
X3730000Y-94000D02*
X3795000Y-94000D01*
X3730000Y-94000D02*
X3665000Y-94000D01*
X3730000Y-406000D02*
X3897500Y-406000D01*
X3730000Y-406000D02*
X3665000Y-406000D01*
X2285472Y-1047750D02*
X2234528Y-1047750D01*
X2285472Y-1152250D02*
X2234528Y-1152250D01*
X1694528Y-96750D02*
X1745472Y-96750D01*
X1694528Y-201250D02*
X1745472Y-201250D01*
X1064528Y-857750D02*
X1115472Y-857750D01*
X1064528Y-962250D02*
X1115472Y-962250D01*
X3094472Y-395250D02*
X3043528Y-395250D01*
X3094472Y-290750D02*
X3043528Y-290750D01*
X3674528Y-952250D02*
X3725472Y-952250D01*
X3674528Y-847750D02*
X3725472Y-847750D01*
X3095472Y-667750D02*
X3044528Y-667750D01*
X3095472Y-772250D02*
X3044528Y-772250D01*
X1745472Y-477750D02*
X1694528Y-477750D01*
X1745472Y-582250D02*
X1694528Y-582250D01*
X3100000Y-1156000D02*
X3267500Y-1156000D01*
X3100000Y-844000D02*
X3165000Y-844000D01*
X3100000Y-844000D02*
X3035000Y-844000D01*
X3100000Y-1156000D02*
X3035000Y-1156000D01*
X3674528Y-772250D02*
X3725472Y-772250D01*
X3674528Y-667750D02*
X3725472Y-667750D01*
X2655373Y-202000D02*
X2684627Y-202000D01*
X2655373Y-100000D02*
X2684627Y-100000D01*
X3044528Y-100750D02*
X3095472Y-100750D01*
X3044528Y-205250D02*
X3095472Y-205250D01*
X1746472Y-667750D02*
X1695528Y-667750D01*
X1746472Y-772250D02*
X1695528Y-772250D01*
X3044528Y-475750D02*
X3095472Y-475750D01*
X3044528Y-580250D02*
X3095472Y-580250D01*
X3534000Y-1006500D02*
X3534000Y-1153500D01*
X3534000Y-1153500D02*
X3780000Y-1153500D01*
X3780000Y-1006500D02*
X3534000Y-1006500D01*
X1694528Y-962250D02*
X1745472Y-962250D01*
X1694528Y-857750D02*
X1745472Y-857750D01*
G36*
X533592Y-354197D02*
G01*
X544889Y-358827D01*
X555372Y-365309D01*
X565040Y-373644D01*
X573375Y-383264D01*
X579857Y-393710D01*
X584487Y-404981D01*
X587265Y-417078D01*
X588191Y-430000D01*
X587281Y-442906D01*
X584551Y-454955D01*
X580000Y-466147D01*
X573629Y-476482D01*
X565437Y-485959D01*
X557206Y-493155D01*
X548474Y-499042D01*
X539243Y-503620D01*
X529512Y-506891D01*
X519282Y-508853D01*
X508552Y-509507D01*
X495984Y-508571D01*
X484104Y-505761D01*
X472912Y-501078D01*
X462408Y-494521D01*
X452592Y-486092D01*
X444163Y-476355D01*
X437606Y-465877D01*
X432923Y-454659D01*
X430113Y-442700D01*
X429177Y-430000D01*
X443464Y-430000D01*
X444237Y-440340D01*
X446554Y-450087D01*
X450417Y-459242D01*
X455825Y-467804D01*
X462779Y-475773D01*
X470801Y-482726D01*
X479416Y-488134D01*
X488623Y-491997D01*
X498423Y-494315D01*
X508816Y-495087D01*
X519177Y-494310D01*
X528988Y-491976D01*
X538248Y-488087D01*
X546959Y-482641D01*
X555118Y-475641D01*
X561833Y-467973D01*
X567056Y-459575D01*
X570787Y-450447D01*
X573025Y-440589D01*
X573771Y-430000D01*
X573015Y-419438D01*
X570745Y-409553D01*
X566961Y-400345D01*
X561664Y-391815D01*
X554854Y-383962D01*
X546959Y-377104D01*
X538407Y-371770D01*
X529200Y-367960D01*
X519336Y-365674D01*
X508816Y-364912D01*
X498302Y-365674D01*
X488454Y-367960D01*
X479273Y-371770D01*
X470758Y-377104D01*
X462911Y-383962D01*
X455910Y-392154D01*
X450465Y-400853D01*
X446576Y-410061D01*
X444242Y-419776D01*
X443464Y-430000D01*
X429177Y-430000D01*
X430113Y-417332D01*
X432923Y-405362D01*
X437606Y-394091D01*
X444163Y-383518D01*
X452592Y-373644D01*
X462239Y-365309D01*
X472658Y-358827D01*
X483850Y-354197D01*
X495814Y-351419D01*
X508552Y-350493D01*
X521479Y-351419D01*
X533592Y-354197D01*
G37*
G36*
X358268Y-381614D02*
G01*
X361046Y-390048D01*
X358268Y-398283D01*
X349934Y-401028D01*
X341600Y-398283D01*
X338821Y-390048D01*
X341600Y-381614D01*
X349934Y-378803D01*
X358268Y-381614D01*
G37*
G36*
X223977Y-406805D02*
G01*
X230945Y-410641D01*
X236031Y-417035D01*
X225580Y-422459D01*
X223728Y-419483D01*
X221412Y-417498D01*
X218965Y-416440D01*
X216716Y-416109D01*
X208679Y-419615D01*
X206000Y-430132D01*
X208779Y-440319D01*
X210763Y-442502D01*
X213409Y-443758D01*
X216716Y-444155D01*
X222603Y-442468D01*
X226506Y-437408D01*
X236428Y-442303D01*
X234972Y-444552D01*
X233385Y-446603D01*
X231665Y-448455D01*
X229747Y-450042D01*
X227564Y-451431D01*
X221809Y-454011D01*
X215525Y-454871D01*
X205868Y-453217D01*
X198328Y-448256D01*
X194756Y-443361D01*
X192573Y-437276D01*
X191845Y-430132D01*
X193499Y-419946D01*
X198460Y-412141D01*
X205934Y-407180D01*
X215129Y-405526D01*
X223977Y-406805D01*
G37*
G36*
X212159Y-353344D02*
G01*
X221875Y-356578D01*
X231033Y-361105D01*
X239632Y-366926D01*
X247672Y-374041D01*
X251244Y-377877D01*
X254552Y-381846D01*
X257528Y-386013D01*
X260240Y-390379D01*
X262688Y-394877D01*
X264738Y-399573D01*
X267972Y-409377D01*
X269912Y-419564D01*
X270559Y-430132D01*
X269919Y-440760D01*
X268001Y-450946D01*
X264804Y-460692D01*
X260358Y-469834D01*
X254691Y-478213D01*
X247805Y-485827D01*
X241802Y-491201D01*
X235435Y-495947D01*
X228672Y-500032D01*
X221479Y-503422D01*
X211557Y-506795D01*
X201370Y-508846D01*
X191052Y-509507D01*
X180703Y-508838D01*
X170649Y-506832D01*
X160889Y-503488D01*
X151614Y-498880D01*
X143015Y-493081D01*
X135092Y-486092D01*
X128110Y-478176D01*
X122333Y-469599D01*
X117762Y-460361D01*
X114455Y-450623D01*
X112470Y-440547D01*
X111809Y-430132D01*
X126096Y-430132D01*
X127353Y-442700D01*
X131123Y-454738D01*
X137242Y-465983D01*
X145543Y-475905D01*
X155515Y-484074D01*
X166644Y-490060D01*
X178666Y-493731D01*
X191316Y-494955D01*
X203834Y-493715D01*
X215988Y-489994D01*
X227382Y-483925D01*
X237618Y-475641D01*
X244333Y-468021D01*
X249556Y-459660D01*
X253287Y-450558D01*
X255525Y-440716D01*
X256271Y-430132D01*
X255048Y-417366D01*
X251377Y-405261D01*
X249326Y-400631D01*
X246879Y-396199D01*
X244034Y-391966D01*
X240859Y-387997D01*
X237354Y-384227D01*
X230772Y-378406D01*
X223728Y-373644D01*
X216253Y-369923D01*
X208382Y-367228D01*
X200080Y-365590D01*
X191316Y-365045D01*
X180765Y-365807D01*
X170912Y-368093D01*
X161757Y-371903D01*
X153301Y-377237D01*
X145543Y-384095D01*
X137242Y-394199D01*
X131123Y-405460D01*
X127353Y-417548D01*
X126096Y-430132D01*
X111809Y-430132D01*
X112478Y-419777D01*
X114484Y-409701D01*
X117828Y-399904D01*
X122451Y-390577D01*
X128294Y-381912D01*
X135357Y-373908D01*
X144824Y-365574D01*
X155126Y-359092D01*
X166265Y-354461D01*
X178240Y-351683D01*
X191052Y-350757D01*
X201885Y-351404D01*
X212159Y-353344D01*
G37*
G36*
X519884Y-389533D02*
G01*
X529806Y-393546D01*
X538053Y-400234D01*
X544226Y-409024D01*
X547930Y-419343D01*
X549165Y-431191D01*
X547886Y-442685D01*
X544050Y-452828D01*
X537656Y-461618D01*
X529219Y-468379D01*
X519252Y-472436D01*
X507758Y-473788D01*
X495190Y-471755D01*
X484474Y-465653D01*
X478815Y-459486D01*
X474891Y-451835D01*
X472700Y-442700D01*
X492809Y-442700D01*
X495043Y-450711D01*
X500864Y-455518D01*
X510271Y-457120D01*
X517795Y-455317D01*
X523699Y-449910D01*
X527519Y-441460D01*
X528792Y-430529D01*
X527635Y-419450D01*
X524162Y-411347D01*
X520590Y-407643D01*
X516092Y-405460D01*
X510668Y-404732D01*
X501628Y-406290D01*
X495675Y-410965D01*
X492809Y-418755D01*
X498630Y-418755D01*
X482887Y-434498D01*
X467012Y-418755D01*
X473362Y-418755D01*
X475670Y-409781D01*
X479594Y-402263D01*
X485136Y-396199D01*
X495686Y-390197D01*
X508287Y-388196D01*
X519884Y-389533D01*
G37*
G36*
X368124Y-405658D02*
G01*
X369778Y-406849D01*
X371365Y-410421D01*
X371365Y-442832D01*
X362237Y-442832D01*
X362237Y-481461D01*
X337631Y-481461D01*
X337631Y-442832D01*
X328503Y-442832D01*
X328503Y-410421D01*
X328701Y-409098D01*
X329230Y-407841D01*
X329958Y-406849D01*
X333662Y-405261D01*
X366206Y-405261D01*
X368124Y-405658D01*
G37*
G36*
X178087Y-406864D02*
G01*
X185098Y-410700D01*
X190258Y-417035D01*
X179674Y-422459D01*
X178484Y-420343D01*
X177095Y-418689D01*
X175573Y-417565D01*
X170943Y-416109D01*
X162907Y-419615D01*
X160228Y-430132D01*
X160889Y-435887D01*
X163006Y-440319D01*
X170943Y-444155D01*
X176830Y-442468D01*
X180733Y-437408D01*
X190522Y-442303D01*
X181791Y-451431D01*
X175970Y-454011D01*
X169620Y-454871D01*
X160046Y-453234D01*
X152489Y-448322D01*
X147577Y-440501D01*
X145940Y-430132D01*
X147594Y-419946D01*
X152555Y-412141D01*
X160029Y-407180D01*
X169223Y-405526D01*
X178087Y-406864D01*
G37*
G36*
X374884Y-354419D02*
G01*
X386155Y-358996D01*
X396580Y-365405D01*
X406158Y-373644D01*
X414492Y-383312D01*
X420974Y-393794D01*
X425605Y-405092D01*
X428383Y-417205D01*
X429309Y-430132D01*
X428404Y-443070D01*
X425689Y-455109D01*
X421165Y-466248D01*
X414831Y-476487D01*
X406687Y-485827D01*
X398382Y-493063D01*
X389607Y-498983D01*
X380361Y-503587D01*
X370645Y-506876D01*
X360458Y-508849D01*
X349802Y-509507D01*
X337282Y-508571D01*
X325439Y-505761D01*
X314273Y-501078D01*
X303785Y-494521D01*
X293975Y-486092D01*
X285545Y-476358D01*
X278989Y-465888D01*
X274305Y-454683D01*
X271496Y-442742D01*
X270564Y-430132D01*
X284846Y-430132D01*
X285619Y-440382D01*
X287937Y-450071D01*
X291800Y-459199D01*
X297208Y-467767D01*
X304161Y-475773D01*
X312178Y-482726D01*
X320777Y-488134D01*
X329958Y-491997D01*
X339721Y-494315D01*
X350066Y-495087D01*
X360422Y-494310D01*
X370217Y-491976D01*
X379451Y-488087D01*
X388124Y-482641D01*
X396236Y-475641D01*
X402999Y-468063D01*
X408259Y-459723D01*
X412016Y-450622D01*
X414270Y-440758D01*
X415021Y-430132D01*
X414262Y-419610D01*
X411984Y-409738D01*
X408187Y-400517D01*
X402872Y-391948D01*
X396037Y-384029D01*
X388124Y-377194D01*
X379570Y-371879D01*
X370376Y-368082D01*
X360541Y-365804D01*
X350066Y-365045D01*
X339557Y-365807D01*
X329725Y-368093D01*
X320570Y-371903D01*
X312093Y-377237D01*
X304293Y-384095D01*
X297292Y-392286D01*
X291847Y-400986D01*
X287958Y-410193D01*
X285624Y-419909D01*
X284846Y-430132D01*
X270564Y-430132D01*
X270559Y-430066D01*
X271496Y-417374D01*
X274305Y-405386D01*
X278989Y-394101D01*
X285545Y-383521D01*
X293975Y-373644D01*
X301919Y-366684D01*
X310408Y-360973D01*
X319441Y-356512D01*
X329017Y-353315D01*
X339137Y-351397D01*
X349802Y-350757D01*
X362766Y-351673D01*
X374884Y-354419D01*
G37*
X4310000Y-485000D02*
X4310000Y-655000D01*
X4310000Y-485000D02*
X4565000Y-485000D01*
X4310000Y-655000D02*
X4565000Y-655000D01*
D13*
X4270000Y-3662000D03*
D14*
X4270000Y-3412000D03*
%LPC*%
D15*
X3040000Y-2378000D03*
D16*
X2410000Y-2150000D03*
D15*
X3040000Y-1922000D03*
D17*
X300000Y-1088000D03*
X300000Y-2913000D03*
X5100000Y-1088000D03*
X5100000Y-2913000D03*
D18*
X3111500Y-3336000D03*
X3111500Y-3736000D03*
X3706500Y-3736000D03*
X3706500Y-3336000D03*
D19*
X2356000Y-3339500D03*
X2356000Y-3514500D03*
D20*
X2134000Y-3594000D03*
X2134000Y-3340000D03*
X1484000Y-3340000D03*
X1484000Y-3594000D03*
D21*
X995000Y-643750D03*
X1185000Y-643750D03*
X1090000Y-456250D03*
D22*
X1473000Y-1389000D03*
D23*
X1473000Y-2024000D03*
X1473000Y-2659000D03*
D13*
X4270000Y-3662000D03*
D14*
X4270000Y-3412000D03*
D24*
X4333000Y-1459000D03*
D25*
X4105000Y-2089000D03*
D24*
X3877000Y-1459000D03*
D26*
X5120000Y-262500D03*
D27*
X5120000Y-516500D03*
D28*
X2547750Y-3515000D03*
X2730250Y-3515000D03*
D29*
X2732250Y-3705000D03*
X2549750Y-3705000D03*
D30*
X4396250Y-155000D03*
X4396250Y-345000D03*
X4583750Y-250000D03*
D29*
X3791250Y-540000D03*
X3608750Y-540000D03*
D31*
X2756250Y-1100000D03*
X2583750Y-1100000D03*
D28*
X2168750Y-150000D03*
X2351250Y-150000D03*
D31*
X1805250Y-339000D03*
X1632750Y-339000D03*
D32*
X2212500Y-449500D03*
X2212500Y-576500D03*
X2212500Y-703500D03*
X2212500Y-830500D03*
X2727500Y-830500D03*
X2727500Y-703500D03*
X2727500Y-576500D03*
X2727500Y-449500D03*
D33*
X3823750Y-345000D03*
X3823750Y-155000D03*
X3636250Y-250000D03*
D29*
X2351250Y-1100000D03*
X2168750Y-1100000D03*
D28*
X1628750Y-149000D03*
X1811250Y-149000D03*
X998750Y-910000D03*
X1181250Y-910000D03*
D29*
X3160250Y-343000D03*
X2977750Y-343000D03*
D28*
X3608750Y-900000D03*
X3791250Y-900000D03*
D29*
X3161250Y-720000D03*
X2978750Y-720000D03*
X1811250Y-530000D03*
X1628750Y-530000D03*
D33*
X3193750Y-1095000D03*
X3193750Y-905000D03*
X3006250Y-1000000D03*
D28*
X3608750Y-720000D03*
X3791250Y-720000D03*
D34*
X2583750Y-151000D03*
X2756250Y-151000D03*
D28*
X2978750Y-153000D03*
X3161250Y-153000D03*
D29*
X1812250Y-720000D03*
X1629750Y-720000D03*
D28*
X2978750Y-528000D03*
X3161250Y-528000D03*
D35*
X3612500Y-1080000D03*
X3787500Y-1080000D03*
D28*
X1628750Y-910000D03*
X1811250Y-910000D03*
D36*
X4350000Y-570000D03*
X4570000Y-570000D03*
M02*
